<?xml version="1.0" encoding="UTF-8" standalone="no"?>
<!DOCTYPE svg PUBLIC "-//W3C//DTD SVG 1.1//EN"
 "http://www.w3.org/Graphics/SVG/1.1/DTD/svg11.dtd">
<!-- Generated by graphviz version 2.43.0 (0)
 -->
<!-- Title: gerber2coordinatesTEST.Druckerserver.print Pages: 1 -->
<svg width="880pt" height="188pt"
 viewBox="0.00 0.00 880.00 188.00" xmlns="http://www.w3.org/2000/svg" xmlns:xlink="http://www.w3.org/1999/xlink">
<g id="graph0" class="graph" transform="scale(1 1) rotate(0) translate(4 184)">
<title>gerber2coordinatesTEST.Druckerserver.print</title>
<!-- Node1 -->
<g id="Node000001" class="node">
<title>Node1</title>
<g id="a_Node000001"><a xlink:title=" ">
<polygon fill="#999999" stroke="#666666" points="230,-99 0,-99 0,-80 230,-80 230,-99"/>
<text text-anchor="middle" x="115" y="-87" font-family="Helvetica,sans-Serif" font-size="10.00">gerber2coordinatesTEST.Druckerserver.print</text>
</a>
</g>
</g>
<!-- Node2 -->
<g id="Node000002" class="node">
<title>Node2</title>
<g id="a_Node000002"><a xlink:href="classgerber2coordinatesTEST_1_1Druckerserver.html#a7680188ef68e32230ee1173f1e9f7a58" target="_top" xlink:title=" ">
<polygon fill="white" stroke="#666666" points="540,-180 292,-180 292,-161 540,-161 540,-180"/>
<text text-anchor="middle" x="416" y="-168" font-family="Helvetica,sans-Serif" font-size="10.00">gerber2coordinatesTEST.Druckerserver.endprint</text>
</a>
</g>
</g>
<!-- Node1&#45;&gt;Node2 -->
<g id="edge1_Node000001_Node000002" class="edge">
<title>Node1&#45;&gt;Node2</title>
<g id="a_edge1_Node000001_Node000002"><a xlink:title=" ">
<path fill="none" stroke="#63b8ff" d="M136.91,-99.01C165.5,-111.64 218.63,-133.83 266,-146.5 285.38,-151.68 306.49,-155.92 326.57,-159.3"/>
<polygon fill="#63b8ff" stroke="#63b8ff" points="326.22,-162.79 336.65,-160.94 327.34,-155.88 326.22,-162.79"/>
</a>
</g>
</g>
<!-- Node3 -->
<g id="Node000003" class="node">
<title>Node3</title>
<g id="a_Node000003"><a xlink:href="classgerber2coordinatesTEST_1_1Druckerserver.html#aca3fd45b4759e5834114e450a8d50d32" target="_top" xlink:title="Allgemeine Konsolenausgabe mit aktueller Zeit.">
<polygon fill="white" stroke="#666666" points="872,-161 602,-161 602,-142 872,-142 872,-161"/>
<text text-anchor="middle" x="737" y="-149" font-family="Helvetica,sans-Serif" font-size="10.00">gerber2coordinatesTEST.Druckerserver.logtoconsole</text>
</a>
</g>
</g>
<!-- Node1&#45;&gt;Node3 -->
<g id="edge6_Node000001_Node000003" class="edge">
<title>Node1&#45;&gt;Node3</title>
<g id="a_edge6_Node000001_Node000003"><a xlink:title=" ">
<path fill="none" stroke="#63b8ff" d="M168.96,-99.01C197.62,-103.89 233.66,-109.61 266,-113.5 374.91,-126.59 498.57,-136.39 591.7,-142.76"/>
<polygon fill="#63b8ff" stroke="#63b8ff" points="591.55,-146.25 601.76,-143.44 592.02,-139.27 591.55,-146.25"/>
</a>
</g>
</g>
<!-- Node4 -->
<g id="Node000004" class="node">
<title>Node4</title>
<g id="a_Node000004"><a xlink:href="classgerber2coordinatesTEST_1_1Gerberfileinfo.html#a4334be9709c2cd8a60d17974c0d73e35" target="_top" xlink:title="Nächste Linie bekommen, wird der Reihe nach ausgegeben.">
<polygon fill="white" stroke="#666666" points="527.5,-104.5 304.5,-104.5 304.5,-74.5 527.5,-74.5 527.5,-104.5"/>
<text text-anchor="start" x="312.5" y="-92.5" font-family="Helvetica,sans-Serif" font-size="10.00">gerber2coordinatesTEST.Gerberfileinfo.get</text>
<text text-anchor="middle" x="416" y="-81.5" font-family="Helvetica,sans-Serif" font-size="10.00">_next_line</text>
</a>
</g>
</g>
<!-- Node1&#45;&gt;Node4 -->
<g id="edge3_Node000001_Node000004" class="edge">
<title>Node1&#45;&gt;Node4</title>
<g id="a_edge3_Node000001_Node000004"><a xlink:title=" ">
<path fill="none" stroke="#63b8ff" d="M230.32,-89.5C251.15,-89.5 272.94,-89.5 293.95,-89.5"/>
<polygon fill="#63b8ff" stroke="#63b8ff" points="294.2,-93 304.2,-89.5 294.2,-86 294.2,-93"/>
</a>
</g>
</g>
<!-- Node5 -->
<g id="Node000005" class="node">
<title>Node5</title>
<g id="a_Node000005"><a xlink:href="classgerber2coordinatesTEST_1_1Gerberfileinfo.html#a9ba5800c1575be5dfff55093a42d77cb" target="_top" xlink:title="Aktuellen Druckfortschritt in Prozent bekommen.">
<polygon fill="white" stroke="#666666" points="566,-56 266,-56 266,-37 566,-37 566,-56"/>
<text text-anchor="middle" x="416" y="-44" font-family="Helvetica,sans-Serif" font-size="10.00">gerber2coordinatesTEST.Gerberfileinfo.getprintpercentage</text>
</a>
</g>
</g>
<!-- Node1&#45;&gt;Node5 -->
<g id="edge4_Node000001_Node000005" class="edge">
<title>Node1&#45;&gt;Node5</title>
<g id="a_edge4_Node000001_Node000005"><a xlink:title=" ">
<path fill="none" stroke="#63b8ff" d="M172.92,-79.96C200.92,-75.37 235.2,-69.93 266,-65.5 285.54,-62.69 306.56,-59.88 326.47,-57.32"/>
<polygon fill="#63b8ff" stroke="#63b8ff" points="326.97,-60.78 336.45,-56.04 326.08,-53.84 326.97,-60.78"/>
</a>
</g>
</g>
<!-- Node6 -->
<g id="Node000006" class="node">
<title>Node6</title>
<g id="a_Node000006"><a xlink:href="classgerber2coordinatesTEST_1_1Gerbertoolbox.html#ac8029c2807c958525e9cfe87ea3df43e" target="_top" xlink:title=" ">
<polygon fill="white" stroke="#666666" points="564,-19 268,-19 268,0 564,0 564,-19"/>
<text text-anchor="middle" x="416" y="-7" font-family="Helvetica,sans-Serif" font-size="10.00">gerber2coordinatesTEST.Gerbertoolbox.getrelativecoords</text>
</a>
</g>
</g>
<!-- Node1&#45;&gt;Node6 -->
<g id="edge5_Node000001_Node000006" class="edge">
<title>Node1&#45;&gt;Node6</title>
<g id="a_edge5_Node000001_Node000006"><a xlink:title=" ">
<path fill="none" stroke="#63b8ff" d="M134.87,-79.96C162.78,-66.28 217.05,-41.34 266,-28.5 277.74,-25.42 290.14,-22.83 302.57,-20.66"/>
<polygon fill="#63b8ff" stroke="#63b8ff" points="303.24,-24.09 312.53,-19 302.1,-17.19 303.24,-24.09"/>
</a>
</g>
</g>
<!-- Node2&#45;&gt;Node3 -->
<g id="edge2_Node000002_Node000003" class="edge">
<title>Node2&#45;&gt;Node3</title>
<g id="a_edge2_Node000002_Node000003"><a xlink:title=" ">
<path fill="none" stroke="#63b8ff" d="M540.33,-163.15C557.19,-162.15 574.61,-161.11 591.8,-160.09"/>
<polygon fill="#63b8ff" stroke="#63b8ff" points="592.11,-163.58 601.88,-159.49 591.69,-156.59 592.11,-163.58"/>
</a>
</g>
</g>
</g>
</svg>
