<?xml version="1.0" encoding="UTF-8" standalone="no"?>
<!DOCTYPE svg PUBLIC "-//W3C//DTD SVG 1.1//EN"
 "http://www.w3.org/Graphics/SVG/1.1/DTD/svg11.dtd">
<!-- Generated by graphviz version 2.43.0 (0)
 -->
<!-- Title: gerber2coordinatesTEST.Gerberfileinfo.Initgerberfile Pages: 1 -->
<svg width="1204pt" height="562pt"
 viewBox="0.00 0.00 1204.00 562.00" xmlns="http://www.w3.org/2000/svg" xmlns:xlink="http://www.w3.org/1999/xlink">
<g id="graph0" class="graph" transform="scale(1 1) rotate(0) translate(4 558)">
<title>gerber2coordinatesTEST.Gerberfileinfo.Initgerberfile</title>
<!-- Node1 -->
<g id="Node000001" class="node">
<title>Node1</title>
<g id="a_Node000001"><a xlink:title=" ">
<polygon fill="#999999" stroke="#666666" points="207,-317.5 0,-317.5 0,-287.5 207,-287.5 207,-317.5"/>
<text text-anchor="start" x="8" y="-305.5" font-family="Helvetica,sans-Serif" font-size="10.00">gerber2coordinatesTEST.Gerberfileinfo.</text>
<text text-anchor="middle" x="103.5" y="-294.5" font-family="Helvetica,sans-Serif" font-size="10.00">Initgerberfile</text>
</a>
</g>
</g>
<!-- Node2 -->
<g id="Node000002" class="node">
<title>Node2</title>
<g id="a_Node000002"><a xlink:href="classgerber2coordinatesTEST_1_1Gerberfileinfo.html#a46b55c255eb6f4f9a1fcb07874fc7324" target="_top" xlink:title="Linien zwischen den Leiterbahnen erstellen, welche vom Drucker abgefahren werden, ohne gezeichnet zu ...">
<polygon fill="white" stroke="#666666" points="540,-554 263,-554 263,-535 540,-535 540,-554"/>
<text text-anchor="middle" x="401.5" y="-542" font-family="Helvetica,sans-Serif" font-size="10.00">gerber2coordinatesTEST.Gerberfileinfo.calculateroute</text>
</a>
</g>
</g>
<!-- Node1&#45;&gt;Node2 -->
<g id="edge1_Node000001_Node000002" class="edge">
<title>Node1&#45;&gt;Node2</title>
<g id="a_edge1_Node000001_Node000002"><a xlink:title=" ">
<path fill="none" stroke="#63b8ff" d="M108.81,-317.8C121.46,-359.52 162.7,-475.55 243,-526.5 246.43,-528.68 249.99,-530.66 253.65,-532.47"/>
<polygon fill="#63b8ff" stroke="#63b8ff" points="252.39,-535.74 262.95,-536.62 255.24,-529.35 252.39,-535.74"/>
</a>
</g>
</g>
<!-- Node3 -->
<g id="Node000003" class="node">
<title>Node3</title>
<g id="a_Node000003"><a xlink:href="classgerber2coordinatesTEST_1_1Gerberfileinfo.html#acd09aaf89a0109e953cac5c74b166bd9" target="_top" xlink:title=" ">
<polygon fill="white" stroke="#666666" points="540.5,-517 262.5,-517 262.5,-498 540.5,-498 540.5,-517"/>
<text text-anchor="middle" x="401.5" y="-505" font-family="Helvetica,sans-Serif" font-size="10.00">gerber2coordinatesTEST.Gerberfileinfo.cleargerberfile</text>
</a>
</g>
</g>
<!-- Node1&#45;&gt;Node3 -->
<g id="edge2_Node000001_Node000003" class="edge">
<title>Node1&#45;&gt;Node3</title>
<g id="a_edge2_Node000001_Node000003"><a xlink:title=" ">
<path fill="none" stroke="#63b8ff" d="M110.6,-317.68C126.28,-354.48 171.8,-448.4 243,-489.5 246.13,-491.31 249.36,-492.98 252.66,-494.52"/>
<polygon fill="#63b8ff" stroke="#63b8ff" points="251.59,-497.87 262.16,-498.53 254.31,-491.42 251.59,-497.87"/>
</a>
</g>
</g>
<!-- Node4 -->
<g id="Node000004" class="node">
<title>Node4</title>
<g id="a_Node000004"><a xlink:href="classgerber2coordinatesTEST_1_1Gerberfileinfo.html#a2f41bfcda0c2509431f4a0746543c651" target="_top" xlink:title="Konvertierung der Zeilen aus dem Gerberfile in GerberLine Objekte.">
<polygon fill="white" stroke="#666666" points="555.5,-480 247.5,-480 247.5,-461 555.5,-461 555.5,-480"/>
<text text-anchor="middle" x="401.5" y="-468" font-family="Helvetica,sans-Serif" font-size="10.00">gerber2coordinatesTEST.Gerberfileinfo.converttogerberlines</text>
</a>
</g>
</g>
<!-- Node1&#45;&gt;Node4 -->
<g id="edge3_Node000001_Node000004" class="edge">
<title>Node1&#45;&gt;Node4</title>
<g id="a_edge3_Node000001_Node000004"><a xlink:title=" ">
<path fill="none" stroke="#63b8ff" d="M113.26,-317.7C132.28,-349.11 180.73,-420.91 243,-452.5 246.56,-454.3 250.22,-455.96 253.95,-457.48"/>
<polygon fill="#63b8ff" stroke="#63b8ff" points="252.8,-460.79 263.4,-460.99 255.24,-454.23 252.8,-460.79"/>
</a>
</g>
</g>
<!-- Node5 -->
<g id="Node000005" class="node">
<title>Node5</title>
<g id="a_Node000005"><a xlink:href="classgerber2coordinatesTEST_1_1Gerberfileinfo.html#a964606e16064f4673f65043f0a314d0a" target="_top" xlink:title=" ">
<polygon fill="white" stroke="#666666" points="560,-443 243,-443 243,-424 560,-424 560,-443"/>
<text text-anchor="middle" x="401.5" y="-431" font-family="Helvetica,sans-Serif" font-size="10.00">gerber2coordinatesTEST.Gerberfileinfo.correctnegativeoffsets</text>
</a>
</g>
</g>
<!-- Node1&#45;&gt;Node5 -->
<g id="edge4_Node000001_Node000005" class="edge">
<title>Node1&#45;&gt;Node5</title>
<g id="a_edge4_Node000001_Node000005"><a xlink:title=" ">
<path fill="none" stroke="#63b8ff" d="M117.61,-317.79C140.27,-343.05 189.53,-392.95 243,-415.5 247.79,-417.52 252.73,-419.34 257.78,-420.98"/>
<polygon fill="#63b8ff" stroke="#63b8ff" points="257,-424.4 267.59,-423.91 259.01,-417.69 257,-424.4"/>
</a>
</g>
</g>
<!-- Node6 -->
<g id="Node000006" class="node">
<title>Node6</title>
<g id="a_Node000006"><a xlink:href="classgerber2coordinatesTEST_1_1Gerberfileinfo.html#a91e20a7c0ad8148d3c7ad6daa6de4e4e" target="_top" xlink:title=" ">
<polygon fill="white" stroke="#666666" points="546.5,-406 256.5,-406 256.5,-387 546.5,-387 546.5,-406"/>
<text text-anchor="middle" x="401.5" y="-394" font-family="Helvetica,sans-Serif" font-size="10.00">gerber2coordinatesTEST.Gerberfileinfo.fillpadsandpoints</text>
</a>
</g>
</g>
<!-- Node1&#45;&gt;Node6 -->
<g id="edge5_Node000001_Node000006" class="edge">
<title>Node1&#45;&gt;Node6</title>
<g id="a_edge5_Node000001_Node000006"><a xlink:title=" ">
<path fill="none" stroke="#63b8ff" d="M125.85,-317.69C152.07,-335.49 198.57,-364.37 243,-378.5 250.65,-380.93 258.59,-383.04 266.67,-384.87"/>
<polygon fill="#63b8ff" stroke="#63b8ff" points="266.07,-388.32 276.58,-386.97 267.52,-381.48 266.07,-388.32"/>
</a>
</g>
</g>
<!-- Node11 -->
<g id="Node000011" class="node">
<title>Node11</title>
<g id="a_Node000011"><a xlink:href="classgerber2coordinatesTEST_1_1Gerberfileinfo.html#a35d701d89e2b7ba549132f359e8b068d" target="_top" xlink:title=" ">
<polygon fill="white" stroke="#666666" points="555.5,-369 247.5,-369 247.5,-350 555.5,-350 555.5,-369"/>
<text text-anchor="middle" x="401.5" y="-357" font-family="Helvetica,sans-Serif" font-size="10.00">gerber2coordinatesTEST.Gerberfileinfo.fillpolygonswithlines</text>
</a>
</g>
</g>
<!-- Node1&#45;&gt;Node11 -->
<g id="edge10_Node000001_Node000011" class="edge">
<title>Node1&#45;&gt;Node11</title>
<g id="a_edge10_Node000001_Node000011"><a xlink:title=" ">
<path fill="none" stroke="#63b8ff" d="M162.9,-317.55C187.52,-323.6 216.56,-330.34 243,-335.5 267.82,-340.34 294.99,-344.78 319.67,-348.49"/>
<polygon fill="#63b8ff" stroke="#63b8ff" points="319.32,-351.98 329.72,-349.99 320.34,-345.06 319.32,-351.98"/>
</a>
</g>
</g>
<!-- Node13 -->
<g id="Node000013" class="node">
<title>Node13</title>
<g id="a_Node000013"><a xlink:href="classgerber2coordinatesTEST_1_1GerberSettingsList.html#a0bcf32cdcdaf083054b70969b9c36972" target="_top" xlink:title=" ">
<polygon fill="white" stroke="#666666" points="816,-326.5 646,-326.5 646,-296.5 816,-296.5 816,-326.5"/>
<text text-anchor="start" x="654" y="-314.5" font-family="Helvetica,sans-Serif" font-size="10.00">gerber2coordinatesTEST.Gerber</text>
<text text-anchor="middle" x="731" y="-303.5" font-family="Helvetica,sans-Serif" font-size="10.00">SettingsList.getmirror</text>
</a>
</g>
</g>
<!-- Node1&#45;&gt;Node13 -->
<g id="edge14_Node000001_Node000013" class="edge">
<title>Node1&#45;&gt;Node13</title>
<g id="a_edge14_Node000001_Node000013"><a xlink:title=" ">
<path fill="none" stroke="#63b8ff" d="M207.09,-303.98C326.02,-305.69 520.41,-308.48 635.7,-310.14"/>
<polygon fill="#63b8ff" stroke="#63b8ff" points="635.86,-313.65 645.91,-310.29 635.96,-306.65 635.86,-313.65"/>
</a>
</g>
</g>
<!-- Node14 -->
<g id="Node000014" class="node">
<title>Node14</title>
<g id="a_Node000014"><a xlink:href="classgerber2coordinatesTEST_1_1Gerberfileinfo.html#a08b324bafb8e1f416642087a26fcc934" target="_top" xlink:title="Unit aus dem Gerberfile auslesen.">
<polygon fill="white" stroke="#666666" points="522.5,-256 280.5,-256 280.5,-237 522.5,-237 522.5,-256"/>
<text text-anchor="middle" x="401.5" y="-244" font-family="Helvetica,sans-Serif" font-size="10.00">gerber2coordinatesTEST.Gerberfileinfo.getunit</text>
</a>
</g>
</g>
<!-- Node1&#45;&gt;Node14 -->
<g id="edge16_Node000001_Node000014" class="edge">
<title>Node1&#45;&gt;Node14</title>
<g id="a_edge16_Node000001_Node000014"><a xlink:title=" ">
<path fill="none" stroke="#63b8ff" d="M154.11,-287.43C180.33,-279.92 213.19,-271.25 243,-265.5 259.28,-262.36 276.61,-259.65 293.59,-257.33"/>
<polygon fill="#63b8ff" stroke="#63b8ff" points="294.09,-260.8 303.54,-256.02 293.17,-253.86 294.09,-260.8"/>
</a>
</g>
</g>
<!-- Node15 -->
<g id="Node000015" class="node">
<title>Node15</title>
<g id="a_Node000015"><a xlink:href="classgerber2coordinatesTEST_1_1Gerberfileinfo.html#ae20e9e51930f42daf1f7eb229f415367" target="_top" xlink:title=" ">
<polygon fill="white" stroke="#666666" points="543.5,-219 259.5,-219 259.5,-200 543.5,-200 543.5,-219"/>
<text text-anchor="middle" x="401.5" y="-207" font-family="Helvetica,sans-Serif" font-size="10.00">gerber2coordinatesTEST.Gerberfileinfo.mirrorgerberfile</text>
</a>
</g>
</g>
<!-- Node1&#45;&gt;Node15 -->
<g id="edge17_Node000001_Node000015" class="edge">
<title>Node1&#45;&gt;Node15</title>
<g id="a_edge17_Node000001_Node000015"><a xlink:title=" ">
<path fill="none" stroke="#63b8ff" d="M126.39,-287.47C152.77,-270.16 199.06,-242.35 243,-228.5 252.26,-225.58 261.95,-223.11 271.79,-221.01"/>
<polygon fill="#63b8ff" stroke="#63b8ff" points="272.54,-224.43 281.66,-219.03 271.17,-217.56 272.54,-224.43"/>
</a>
</g>
</g>
<!-- Node16 -->
<g id="Node000016" class="node">
<title>Node16</title>
<g id="a_Node000016"><a xlink:href="classgerber2coordinatesTEST_1_1Gerberfileinfo.html#ac8d7417d6b59429f86c4116bfe6f3343" target="_top" xlink:title=" ">
<polygon fill="white" stroke="#666666" points="533,-293 270,-293 270,-274 533,-274 533,-293"/>
<text text-anchor="middle" x="401.5" y="-281" font-family="Helvetica,sans-Serif" font-size="10.00">gerber2coordinatesTEST.Gerberfileinfo.movetopad</text>
</a>
</g>
</g>
<!-- Node1&#45;&gt;Node16 -->
<g id="edge18_Node000001_Node000016" class="edge">
<title>Node1&#45;&gt;Node16</title>
<g id="a_edge18_Node000001_Node000016"><a xlink:title=" ">
<path fill="none" stroke="#63b8ff" d="M207.2,-295.91C224.09,-294.82 241.85,-293.68 259.47,-292.55"/>
<polygon fill="#63b8ff" stroke="#63b8ff" points="260.08,-296.02 269.83,-291.89 259.63,-289.04 260.08,-296.02"/>
</a>
</g>
</g>
<!-- Node20 -->
<g id="Node000020" class="node">
<title>Node20</title>
<g id="a_Node000020"><a xlink:href="classgerber2coordinatesTEST_1_1Gerberfileinfo.html#ae138707b86ad38df4a921d19e46ca2b2" target="_top" xlink:title="Alle Kommentaare aus dem Gerberfile entfernen.">
<polygon fill="white" stroke="#666666" points="524,-181.5 279,-181.5 279,-151.5 524,-151.5 524,-181.5"/>
<text text-anchor="start" x="287" y="-169.5" font-family="Helvetica,sans-Serif" font-size="10.00">gerber2coordinatesTEST.Gerberfileinfo.remove</text>
<text text-anchor="middle" x="401.5" y="-158.5" font-family="Helvetica,sans-Serif" font-size="10.00">_comments</text>
</a>
</g>
</g>
<!-- Node1&#45;&gt;Node20 -->
<g id="edge23_Node000001_Node000020" class="edge">
<title>Node1&#45;&gt;Node20</title>
<g id="a_edge23_Node000001_Node000020"><a xlink:title=" ">
<path fill="none" stroke="#63b8ff" d="M118.15,-287.34C141.22,-262.78 190.59,-214.69 243,-191.5 251.27,-187.84 260,-184.71 268.93,-182.03"/>
<polygon fill="#63b8ff" stroke="#63b8ff" points="270.01,-185.36 278.69,-179.29 268.12,-178.62 270.01,-185.36"/>
</a>
</g>
</g>
<!-- Node21 -->
<g id="Node000021" class="node">
<title>Node21</title>
<g id="a_Node000021"><a xlink:href="classgerber2coordinatesTEST_1_1Gerberfileinfo.html#a8759fb123bde312ef2cbdaac2ad2032c" target="_top" xlink:title=" ">
<polygon fill="white" stroke="#666666" points="549,-133 254,-133 254,-114 549,-114 549,-133"/>
<text text-anchor="middle" x="401.5" y="-121" font-family="Helvetica,sans-Serif" font-size="10.00">gerber2coordinatesTEST.Gerberfileinfo.removeduplicates</text>
</a>
</g>
</g>
<!-- Node1&#45;&gt;Node21 -->
<g id="edge24_Node000001_Node000021" class="edge">
<title>Node1&#45;&gt;Node21</title>
<g id="a_edge24_Node000001_Node000021"><a xlink:title=" ">
<path fill="none" stroke="#63b8ff" d="M112.44,-287.34C130.56,-254.47 178.45,-176.82 243,-142.5 247.01,-140.37 251.15,-138.43 255.4,-136.68"/>
<polygon fill="#63b8ff" stroke="#63b8ff" points="256.72,-139.92 264.84,-133.12 254.25,-133.37 256.72,-139.92"/>
</a>
</g>
</g>
<!-- Node22 -->
<g id="Node000022" class="node">
<title>Node22</title>
<g id="a_Node000022"><a xlink:href="classgerber2coordinatesTEST_1_1Gerberfileinfo.html#a2d0e089c433ced29af13ae3505d0ebc5" target="_top" xlink:title="Linien der Reihe nach sortieren, damit der Drucker nicht hin und her muss.">
<polygon fill="white" stroke="#666666" points="526,-96 277,-96 277,-77 526,-77 526,-96"/>
<text text-anchor="middle" x="401.5" y="-84" font-family="Helvetica,sans-Serif" font-size="10.00">gerber2coordinatesTEST.Gerberfileinfo.sortlines</text>
</a>
</g>
</g>
<!-- Node1&#45;&gt;Node22 -->
<g id="edge25_Node000001_Node000022" class="edge">
<title>Node1&#45;&gt;Node22</title>
<g id="a_edge25_Node000001_Node000022"><a xlink:title=" ">
<path fill="none" stroke="#63b8ff" d="M110.04,-287.4C124.88,-249.36 169.45,-149.49 243,-105.5 250.56,-100.98 258.68,-97.29 267.12,-94.3"/>
<polygon fill="#63b8ff" stroke="#63b8ff" points="268.3,-97.6 276.76,-91.21 266.16,-90.93 268.3,-97.6"/>
</a>
</g>
</g>
<!-- Node27 -->
<g id="Node000027" class="node">
<title>Node27</title>
<g id="a_Node000027"><a xlink:href="classgerber2coordinatesTEST_1_1Gerberfileinfo.html#a9b409938f8afa89a7625ed59f86e3dd6" target="_top" xlink:title="Start und Enden vertauschen, damit die nächste Linie dort anfängt wo die vorherige aufhört und die op...">
<polygon fill="white" stroke="#666666" points="526.5,-56 276.5,-56 276.5,-37 526.5,-37 526.5,-56"/>
<text text-anchor="middle" x="401.5" y="-44" font-family="Helvetica,sans-Serif" font-size="10.00">gerber2coordinatesTEST.Gerberfileinfo.turnlines</text>
</a>
</g>
</g>
<!-- Node1&#45;&gt;Node27 -->
<g id="edge31_Node000001_Node000027" class="edge">
<title>Node1&#45;&gt;Node27</title>
<g id="a_edge31_Node000001_Node000027"><a xlink:title=" ">
<path fill="none" stroke="#63b8ff" d="M108.36,-287.48C120.2,-244.8 160.31,-122.32 243,-67.5 250.35,-62.63 258.32,-58.64 266.64,-55.4"/>
<polygon fill="#63b8ff" stroke="#63b8ff" points="267.9,-58.67 276.17,-52.05 265.58,-52.07 267.9,-58.67"/>
</a>
</g>
</g>
<!-- Node7 -->
<g id="Node000007" class="node">
<title>Node7</title>
<g id="a_Node000007"><a xlink:href="classgerber2coordinatesTEST_1_1GerberSettingsList.html#a547dd3499bfb7480d52fda231ebc3488" target="_top" xlink:title=" ">
<polygon fill="white" stroke="#666666" points="816,-460.5 646,-460.5 646,-430.5 816,-430.5 816,-460.5"/>
<text text-anchor="start" x="654" y="-448.5" font-family="Helvetica,sans-Serif" font-size="10.00">gerber2coordinatesTEST.Gerber</text>
<text text-anchor="middle" x="731" y="-437.5" font-family="Helvetica,sans-Serif" font-size="10.00">SettingsList.getpadwidth</text>
</a>
</g>
</g>
<!-- Node6&#45;&gt;Node7 -->
<g id="edge6_Node000006_Node000007" class="edge">
<title>Node6&#45;&gt;Node7</title>
<g id="a_edge6_Node000006_Node000007"><a xlink:title=" ">
<path fill="none" stroke="#63b8ff" d="M488.44,-406.01C511.7,-408.81 536.84,-412.06 560,-415.5 568.23,-416.72 601.31,-422.53 636.14,-428.71"/>
<polygon fill="#63b8ff" stroke="#63b8ff" points="635.53,-432.16 645.99,-430.47 636.75,-425.27 635.53,-432.16"/>
</a>
</g>
</g>
<!-- Node9 -->
<g id="Node000009" class="node">
<title>Node9</title>
<g id="a_Node000009"><a xlink:href="classgerber2coordinatesTEST_1_1Gerbertoolbox.html#a9c535ff4a74b677aed43f88b2626b30e" target="_top" xlink:title=" ">
<polygon fill="white" stroke="#666666" points="850.5,-412 611.5,-412 611.5,-393 850.5,-393 850.5,-412"/>
<text text-anchor="middle" x="731" y="-400" font-family="Helvetica,sans-Serif" font-size="10.00">gerber2coordinatesTEST.Gerbertoolbox.getXY</text>
</a>
</g>
</g>
<!-- Node6&#45;&gt;Node9 -->
<g id="edge8_Node000006_Node000009" class="edge">
<title>Node6&#45;&gt;Node9</title>
<g id="a_edge8_Node000006_Node000009"><a xlink:title=" ">
<path fill="none" stroke="#63b8ff" d="M546.62,-399.14C564.7,-399.47 583.1,-399.81 600.92,-400.14"/>
<polygon fill="#63b8ff" stroke="#63b8ff" points="601.28,-403.64 611.34,-400.33 601.41,-396.64 601.28,-403.64"/>
</a>
</g>
</g>
<!-- Node8 -->
<g id="Node000008" class="node">
<title>Node8</title>
<g id="a_Node000008"><a xlink:href="classgerber2coordinatesTEST_1_1GerberSettingsList.html#a8b0449100b4f26e9d131a8f127ad3d1c" target="_top" xlink:title=" ">
<polygon fill="white" stroke="#666666" points="1134,-350.5 964,-350.5 964,-320.5 1134,-320.5 1134,-350.5"/>
<text text-anchor="start" x="972" y="-338.5" font-family="Helvetica,sans-Serif" font-size="10.00">gerber2coordinatesTEST.Gerber</text>
<text text-anchor="middle" x="1049" y="-327.5" font-family="Helvetica,sans-Serif" font-size="10.00">SettingsList.getsetting</text>
</a>
</g>
</g>
<!-- Node7&#45;&gt;Node8 -->
<g id="edge7_Node000007_Node000008" class="edge">
<title>Node7&#45;&gt;Node8</title>
<g id="a_edge7_Node000007_Node000008"><a xlink:title=" ">
<path fill="none" stroke="#63b8ff" d="M816.17,-438.65C833.32,-435.02 850.76,-429.59 866,-421.5 886.26,-410.74 882.58,-396.72 902,-384.5 923.18,-371.18 948.4,-361.04 971.86,-353.55"/>
<polygon fill="#63b8ff" stroke="#63b8ff" points="972.91,-356.89 981.44,-350.6 970.85,-350.2 972.91,-356.89"/>
</a>
</g>
</g>
<!-- Node10 -->
<g id="Node000010" class="node">
<title>Node10</title>
<g id="a_Node000010"><a xlink:href="classgerber2coordinatesTEST_1_1Gerbertoolbox.html#aa745b83fde9503e2dbd3a27d2f05d912" target="_top" xlink:title=" ">
<polygon fill="white" stroke="#666666" points="1196,-412 902,-412 902,-393 1196,-393 1196,-412"/>
<text text-anchor="middle" x="1049" y="-400" font-family="Helvetica,sans-Serif" font-size="10.00">gerber2coordinatesTEST.Gerbertoolbox.getcharsbetween</text>
</a>
</g>
</g>
<!-- Node9&#45;&gt;Node10 -->
<g id="edge9_Node000009_Node000010" class="edge">
<title>Node9&#45;&gt;Node10</title>
<g id="a_edge9_Node000009_Node000010"><a xlink:title=" ">
<path fill="none" stroke="#63b8ff" d="M850.57,-402.5C864.02,-402.5 877.89,-402.5 891.74,-402.5"/>
<polygon fill="#63b8ff" stroke="#63b8ff" points="891.81,-406 901.81,-402.5 891.81,-399 891.81,-406"/>
</a>
</g>
</g>
<!-- Node11&#45;&gt;Node9 -->
<g id="edge13_Node000011_Node000009" class="edge">
<title>Node11&#45;&gt;Node9</title>
<g id="a_edge13_Node000011_Node000009"><a xlink:title=" ">
<path fill="none" stroke="#63b8ff" d="M484.28,-369.05C508.66,-371.98 535.42,-375.28 560,-378.5 569.52,-379.75 612.54,-385.82 652.91,-391.54"/>
<polygon fill="#63b8ff" stroke="#63b8ff" points="652.44,-395.01 662.83,-392.95 653.42,-388.08 652.44,-395.01"/>
</a>
</g>
</g>
<!-- Node12 -->
<g id="Node000012" class="node">
<title>Node12</title>
<g id="a_Node000012"><a xlink:href="classgerber2coordinatesTEST_1_1GerberSettingsList.html#a64ed062513aabf62d6a1533c98f3d0a3" target="_top" xlink:title=" ">
<polygon fill="white" stroke="#666666" points="816,-374.5 646,-374.5 646,-344.5 816,-344.5 816,-374.5"/>
<text text-anchor="start" x="654" y="-362.5" font-family="Helvetica,sans-Serif" font-size="10.00">gerber2coordinatesTEST.Gerber</text>
<text text-anchor="middle" x="731" y="-351.5" font-family="Helvetica,sans-Serif" font-size="10.00">SettingsList.getpolygoninfill</text>
</a>
</g>
</g>
<!-- Node11&#45;&gt;Node12 -->
<g id="edge11_Node000011_Node000012" class="edge">
<title>Node11&#45;&gt;Node12</title>
<g id="a_edge11_Node000011_Node000012"><a xlink:title=" ">
<path fill="none" stroke="#63b8ff" d="M555.7,-359.5C582.92,-359.5 610.52,-359.5 635.49,-359.5"/>
<polygon fill="#63b8ff" stroke="#63b8ff" points="635.66,-363 645.66,-359.5 635.66,-356 635.66,-363"/>
</a>
</g>
</g>
<!-- Node12&#45;&gt;Node8 -->
<g id="edge12_Node000012_Node000008" class="edge">
<title>Node12&#45;&gt;Node8</title>
<g id="a_edge12_Node000012_Node000008"><a xlink:title=" ">
<path fill="none" stroke="#63b8ff" d="M816.27,-353.1C858.67,-349.88 910.21,-345.96 953.91,-342.65"/>
<polygon fill="#63b8ff" stroke="#63b8ff" points="954.26,-346.13 963.97,-341.88 953.73,-339.15 954.26,-346.13"/>
</a>
</g>
</g>
<!-- Node13&#45;&gt;Node8 -->
<g id="edge15_Node000013_Node000008" class="edge">
<title>Node13&#45;&gt;Node8</title>
<g id="a_edge15_Node000013_Node000008"><a xlink:title=" ">
<path fill="none" stroke="#63b8ff" d="M816.27,-317.9C858.67,-321.12 910.21,-325.04 953.91,-328.35"/>
<polygon fill="#63b8ff" stroke="#63b8ff" points="953.73,-331.85 963.97,-329.12 954.26,-324.87 953.73,-331.85"/>
</a>
</g>
</g>
<!-- Node17 -->
<g id="Node000017" class="node">
<title>Node17</title>
<g id="a_Node000017"><a xlink:href="classgerber2coordinatesTEST_1_1GerberLine.html#ab55117fe7c0a5244530079a0e64263eb" target="_top" xlink:title=" ">
<polygon fill="white" stroke="#666666" points="816,-230.5 646,-230.5 646,-200.5 816,-200.5 816,-230.5"/>
<text text-anchor="start" x="654" y="-218.5" font-family="Helvetica,sans-Serif" font-size="10.00">gerber2coordinatesTEST.Gerber</text>
<text text-anchor="middle" x="731" y="-207.5" font-family="Helvetica,sans-Serif" font-size="10.00">Line.correctoffset</text>
</a>
</g>
</g>
<!-- Node16&#45;&gt;Node17 -->
<g id="edge19_Node000016_Node000017" class="edge">
<title>Node16&#45;&gt;Node17</title>
<g id="a_edge19_Node000016_Node000017"><a xlink:title=" ">
<path fill="none" stroke="#63b8ff" d="M532.72,-274C542.09,-271.68 551.27,-268.88 560,-265.5 578.4,-258.37 577.83,-247.21 596,-239.5 608.52,-234.19 622.18,-230.05 635.83,-226.83"/>
<polygon fill="#63b8ff" stroke="#63b8ff" points="636.75,-230.21 645.76,-224.64 635.24,-223.38 636.75,-230.21"/>
</a>
</g>
</g>
<!-- Node19 -->
<g id="Node000019" class="node">
<title>Node19</title>
<g id="a_Node000019"><a xlink:href="classgerber2coordinatesTEST_1_1GerberSettingsList.html#aedf25c3a0d95f36bcdd5996964c3cef5" target="_top" xlink:title=" ">
<polygon fill="white" stroke="#666666" points="816,-278.5 646,-278.5 646,-248.5 816,-248.5 816,-278.5"/>
<text text-anchor="start" x="654" y="-266.5" font-family="Helvetica,sans-Serif" font-size="10.00">gerber2coordinatesTEST.Gerber</text>
<text text-anchor="middle" x="731" y="-255.5" font-family="Helvetica,sans-Serif" font-size="10.00">SettingsList.getoffset</text>
</a>
</g>
</g>
<!-- Node16&#45;&gt;Node19 -->
<g id="edge21_Node000016_Node000019" class="edge">
<title>Node16&#45;&gt;Node19</title>
<g id="a_edge21_Node000016_Node000019"><a xlink:title=" ">
<path fill="none" stroke="#63b8ff" d="M533.35,-275.51C567.59,-273.42 603.84,-271.2 635.76,-269.26"/>
<polygon fill="#63b8ff" stroke="#63b8ff" points="636.19,-272.74 645.96,-268.63 635.77,-265.75 636.19,-272.74"/>
</a>
</g>
</g>
<!-- Node18 -->
<g id="Node000018" class="node">
<title>Node18</title>
<g id="a_Node000018"><a xlink:href="classgerber2coordinatesTEST_1_1GerberLine.html#a224b44ce11e8565018e49a3452883d9f" target="_top" xlink:title=" ">
<polygon fill="white" stroke="#666666" points="1134,-230.5 964,-230.5 964,-200.5 1134,-200.5 1134,-230.5"/>
<text text-anchor="start" x="972" y="-218.5" font-family="Helvetica,sans-Serif" font-size="10.00">gerber2coordinatesTEST.Gerber</text>
<text text-anchor="middle" x="1049" y="-207.5" font-family="Helvetica,sans-Serif" font-size="10.00">Line.roundcoordinates</text>
</a>
</g>
</g>
<!-- Node17&#45;&gt;Node18 -->
<g id="edge20_Node000017_Node000018" class="edge">
<title>Node17&#45;&gt;Node18</title>
<g id="a_edge20_Node000017_Node000018"><a xlink:title=" ">
<path fill="none" stroke="#63b8ff" d="M816.27,-215.5C858.67,-215.5 910.21,-215.5 953.91,-215.5"/>
<polygon fill="#63b8ff" stroke="#63b8ff" points="953.97,-219 963.97,-215.5 953.97,-212 953.97,-219"/>
</a>
</g>
</g>
<!-- Node19&#45;&gt;Node8 -->
<g id="edge22_Node000019_Node000008" class="edge">
<title>Node19&#45;&gt;Node8</title>
<g id="a_edge22_Node000019_Node000008"><a xlink:title=" ">
<path fill="none" stroke="#63b8ff" d="M816.2,-277.51C832.76,-280.57 849.96,-283.95 866,-287.5 905.93,-296.33 950.32,-307.99 985.26,-317.62"/>
<polygon fill="#63b8ff" stroke="#63b8ff" points="984.74,-321.11 995.31,-320.4 986.61,-314.36 984.74,-321.11"/>
</a>
</g>
</g>
<!-- Node23 -->
<g id="Node000023" class="node">
<title>Node23</title>
<g id="a_Node000023"><a xlink:href="classgerber2coordinatesTEST_1_1Gerberfileinfo.html#a391d943c162991913ed7d0a8e304a236" target="_top" xlink:title="Linie mit gleichem Startpunkt finden.">
<polygon fill="white" stroke="#666666" points="843.5,-152.5 618.5,-152.5 618.5,-122.5 843.5,-122.5 843.5,-152.5"/>
<text text-anchor="start" x="626.5" y="-140.5" font-family="Helvetica,sans-Serif" font-size="10.00">gerber2coordinatesTEST.Gerberfileinfo.find</text>
<text text-anchor="middle" x="731" y="-129.5" font-family="Helvetica,sans-Serif" font-size="10.00">_line_with_same_start</text>
</a>
</g>
</g>
<!-- Node22&#45;&gt;Node23 -->
<g id="edge26_Node000022_Node000023" class="edge">
<title>Node22&#45;&gt;Node23</title>
<g id="a_edge26_Node000022_Node000023"><a xlink:title=" ">
<path fill="none" stroke="#63b8ff" d="M494.33,-96.03C515.93,-98.7 538.82,-101.88 560,-105.5 576.16,-108.26 579.93,-110.28 596,-113.5 607.98,-115.9 620.58,-118.31 633.07,-120.63"/>
<polygon fill="#63b8ff" stroke="#63b8ff" points="632.57,-124.1 643.04,-122.47 633.84,-117.21 632.57,-124.1"/>
</a>
</g>
</g>
<!-- Node25 -->
<g id="Node000025" class="node">
<title>Node25</title>
<g id="a_Node000025"><a xlink:href="classgerber2coordinatesTEST_1_1Gerberfileinfo.html#a98f4652c8c10159e911b2a4cc9ae7d2c" target="_top" xlink:title="Linie finden, die in der nähe liegt. Wird verwendet, wenn keine weiterführende Linie vorhanden ist.">
<polygon fill="white" stroke="#666666" points="843.5,-104.5 618.5,-104.5 618.5,-74.5 843.5,-74.5 843.5,-104.5"/>
<text text-anchor="start" x="626.5" y="-92.5" font-family="Helvetica,sans-Serif" font-size="10.00">gerber2coordinatesTEST.Gerberfileinfo.find</text>
<text text-anchor="middle" x="731" y="-81.5" font-family="Helvetica,sans-Serif" font-size="10.00">_nearest_line</text>
</a>
</g>
</g>
<!-- Node22&#45;&gt;Node25 -->
<g id="edge28_Node000022_Node000025" class="edge">
<title>Node22&#45;&gt;Node25</title>
<g id="a_edge28_Node000022_Node000025"><a xlink:title=" ">
<path fill="none" stroke="#63b8ff" d="M526.31,-87.63C553.14,-87.88 581.48,-88.14 608.23,-88.38"/>
<polygon fill="#63b8ff" stroke="#63b8ff" points="608.36,-91.89 618.39,-88.48 608.42,-84.89 608.36,-91.89"/>
</a>
</g>
</g>
<!-- Node26 -->
<g id="Node000026" class="node">
<title>Node26</title>
<g id="a_Node000026"><a xlink:href="classgerber2coordinatesTEST_1_1Gerberfileinfo.html#a1fbfbb2aa35fc3dcf85dbaaddab12372" target="_top" xlink:title="Startpunkt finden, an dem angefangen wird zu zeichnen.">
<polygon fill="white" stroke="#666666" points="866,-56 596,-56 596,-37 866,-37 866,-56"/>
<text text-anchor="middle" x="731" y="-44" font-family="Helvetica,sans-Serif" font-size="10.00">gerber2coordinatesTEST.Gerberfileinfo.getstartpoint</text>
</a>
</g>
</g>
<!-- Node22&#45;&gt;Node26 -->
<g id="edge30_Node000022_Node000026" class="edge">
<title>Node22&#45;&gt;Node26</title>
<g id="a_edge30_Node000022_Node000026"><a xlink:title=" ">
<path fill="none" stroke="#63b8ff" d="M480.53,-76.97C529.03,-71.05 591.5,-63.42 641.79,-57.27"/>
<polygon fill="#63b8ff" stroke="#63b8ff" points="642.5,-60.71 652,-56.03 641.65,-53.76 642.5,-60.71"/>
</a>
</g>
</g>
<!-- Node24 -->
<g id="Node000024" class="node">
<title>Node24</title>
<g id="a_Node000024"><a xlink:href="classgerber2coordinatesTEST_1_1GerberLine.html#ae257141630b8c0e208827571d0477255" target="_top" xlink:title="Abstand zwischen dem Start / Endpunkt und einem Übergebenen Punkt berechnen.">
<polygon fill="white" stroke="#666666" points="1134,-128.5 964,-128.5 964,-98.5 1134,-98.5 1134,-128.5"/>
<text text-anchor="start" x="972" y="-116.5" font-family="Helvetica,sans-Serif" font-size="10.00">gerber2coordinatesTEST.Gerber</text>
<text text-anchor="middle" x="1049" y="-105.5" font-family="Helvetica,sans-Serif" font-size="10.00">Line.getdistance</text>
</a>
</g>
</g>
<!-- Node23&#45;&gt;Node24 -->
<g id="edge27_Node000023_Node000024" class="edge">
<title>Node23&#45;&gt;Node24</title>
<g id="a_edge27_Node000023_Node000024"><a xlink:title=" ">
<path fill="none" stroke="#63b8ff" d="M843.85,-129C879.73,-126.28 919.08,-123.29 953.58,-120.67"/>
<polygon fill="#63b8ff" stroke="#63b8ff" points="953.94,-124.15 963.65,-119.91 953.41,-117.17 953.94,-124.15"/>
</a>
</g>
</g>
<!-- Node25&#45;&gt;Node24 -->
<g id="edge29_Node000025_Node000024" class="edge">
<title>Node25&#45;&gt;Node24</title>
<g id="a_edge29_Node000025_Node000024"><a xlink:title=" ">
<path fill="none" stroke="#63b8ff" d="M843.85,-98C879.73,-100.72 919.08,-103.71 953.58,-106.33"/>
<polygon fill="#63b8ff" stroke="#63b8ff" points="953.41,-109.83 963.65,-107.09 953.94,-102.85 953.41,-109.83"/>
</a>
</g>
</g>
<!-- Node27&#45;&gt;Node26 -->
<g id="edge33_Node000027_Node000026" class="edge">
<title>Node27&#45;&gt;Node26</title>
<g id="a_edge33_Node000027_Node000026"><a xlink:title=" ">
<path fill="none" stroke="#63b8ff" d="M526.78,-46.5C546.04,-46.5 566.08,-46.5 585.73,-46.5"/>
<polygon fill="#63b8ff" stroke="#63b8ff" points="585.97,-50 595.97,-46.5 585.97,-43 585.97,-50"/>
</a>
</g>
</g>
<!-- Node28 -->
<g id="Node000028" class="node">
<title>Node28</title>
<g id="a_Node000028"><a xlink:href="classgerber2coordinatesTEST_1_1Gerbertoolbox.html#a3d2eaeebd1919e626f5314d934c76f1a" target="_top" xlink:title=" ">
<polygon fill="white" stroke="#666666" points="864.5,-19 597.5,-19 597.5,0 864.5,0 864.5,-19"/>
<text text-anchor="middle" x="731" y="-7" font-family="Helvetica,sans-Serif" font-size="10.00">gerber2coordinatesTEST.Gerbertoolbox.getdistance</text>
</a>
</g>
</g>
<!-- Node27&#45;&gt;Node28 -->
<g id="edge32_Node000027_Node000028" class="edge">
<title>Node27&#45;&gt;Node28</title>
<g id="a_edge32_Node000027_Node000028"><a xlink:title=" ">
<path fill="none" stroke="#63b8ff" d="M486.84,-36.97C532.31,-31.83 588.55,-25.48 635.49,-20.18"/>
<polygon fill="#63b8ff" stroke="#63b8ff" points="636.12,-23.63 645.66,-19.03 635.33,-16.67 636.12,-23.63"/>
</a>
</g>
</g>
</g>
</svg>
