<?xml version="1.0" encoding="UTF-8" standalone="no"?>
<!DOCTYPE svg PUBLIC "-//W3C//DTD SVG 1.1//EN"
 "http://www.w3.org/Graphics/SVG/1.1/DTD/svg11.dtd">
<!-- Generated by graphviz version 2.43.0 (0)
 -->
<!-- Title: gerber2coordinatesTEST.Druckerserver.logtoconsole Pages: 1 -->
<svg width="1893pt" height="314pt"
 viewBox="0.00 0.00 1893.00 313.52" xmlns="http://www.w3.org/2000/svg" xmlns:xlink="http://www.w3.org/1999/xlink">
<g id="graph0" class="graph" transform="scale(1 1) rotate(0) translate(4 309.52)">
<title>gerber2coordinatesTEST.Druckerserver.logtoconsole</title>
<!-- Node1 -->
<g id="Node000001" class="node">
<title>Node1</title>
<g id="a_Node000001"><a xlink:title="Allgemeine Konsolenausgabe mit aktueller Zeit.">
<polygon fill="#999999" stroke="#666666" points="1885,-164.52 1615,-164.52 1615,-145.52 1885,-145.52 1885,-164.52"/>
<text text-anchor="middle" x="1750" y="-152.52" font-family="Helvetica,sans-Serif" font-size="10.00">gerber2coordinatesTEST.Druckerserver.logtoconsole</text>
</a>
</g>
</g>
<!-- Node2 -->
<g id="Node000002" class="node">
<title>Node2</title>
<g id="a_Node000002"><a xlink:href="classgerber2coordinatesTEST_1_1Druckerserver.html#a7680188ef68e32230ee1173f1e9f7a58" target="_top" xlink:title=" ">
<polygon fill="white" stroke="#666666" points="1579,-305.52 1331,-305.52 1331,-286.52 1579,-286.52 1579,-305.52"/>
<text text-anchor="middle" x="1455" y="-293.52" font-family="Helvetica,sans-Serif" font-size="10.00">gerber2coordinatesTEST.Druckerserver.endprint</text>
</a>
</g>
</g>
<!-- Node1&#45;&gt;Node2 -->
<g id="edge1_Node000001_Node000002" class="edge">
<title>Node1&#45;&gt;Node2</title>
<g id="a_edge1_Node000001_Node000002"><a xlink:title=" ">
<path fill="none" stroke="#63b8ff" d="M1730.57,-171.58C1700.91,-197.29 1639.73,-246.51 1579,-272.02 1563.96,-278.34 1547.17,-283.02 1530.95,-286.47"/>
<polygon fill="#63b8ff" stroke="#63b8ff" points="1733.2,-173.93 1738.41,-164.7 1728.58,-168.67 1733.2,-173.93"/>
</a>
</g>
</g>
<!-- Node3 -->
<g id="Node000003" class="node">
<title>Node3</title>
<g id="a_Node000003"><a xlink:href="classgerber2coordinatesTEST_1_1Druckerserver.html#a9d206737320c167397df7512cd0b0d40" target="_top" xlink:title=" ">
<polygon fill="white" stroke="#666666" points="1283.5,-272.52 1053.5,-272.52 1053.5,-253.52 1283.5,-253.52 1283.5,-272.52"/>
<text text-anchor="middle" x="1168.5" y="-260.52" font-family="Helvetica,sans-Serif" font-size="10.00">gerber2coordinatesTEST.Druckerserver.print</text>
</a>
</g>
</g>
<!-- Node1&#45;&gt;Node3 -->
<g id="edge9_Node000001_Node000003" class="edge">
<title>Node1&#45;&gt;Node3</title>
<g id="a_edge9_Node000001_Node000003"><a xlink:title=" ">
<path fill="none" stroke="#63b8ff" d="M1724.64,-169.84C1692.55,-188.51 1633.78,-219.87 1579,-234.02 1481.53,-259.21 1366.95,-265.43 1283.82,-265.94"/>
<polygon fill="#63b8ff" stroke="#63b8ff" points="1726.49,-172.8 1733.33,-164.71 1722.94,-166.77 1726.49,-172.8"/>
</a>
</g>
</g>
<!-- Node5 -->
<g id="Node000005" class="node">
<title>Node5</title>
<g id="a_Node000005"><a xlink:href="classgerber2coordinatesTEST_1_1Druckerserver.html#ab8db08d8cf9f5882603df250d7c0c03b" target="_top" xlink:title="Die einzelnen Anfragen werden verarbeitet.">
<polygon fill="white" stroke="#666666" points="696,-130.02 488,-130.02 488,-100.02 696,-100.02 696,-130.02"/>
<text text-anchor="start" x="496" y="-118.02" font-family="Helvetica,sans-Serif" font-size="10.00">gerber2coordinatesTEST.Druckerserver.</text>
<text text-anchor="middle" x="592" y="-107.02" font-family="Helvetica,sans-Serif" font-size="10.00">HandleRequest</text>
</a>
</g>
</g>
<!-- Node1&#45;&gt;Node5 -->
<g id="edge7_Node000001_Node000005" class="edge">
<title>Node1&#45;&gt;Node5</title>
<g id="a_edge7_Node000001_Node000005"><a xlink:title=" ">
<path fill="none" stroke="#63b8ff" d="M1712.85,-167.8C1678.82,-179.1 1626.17,-194.75 1579,-201.02 1231.95,-247.15 812.75,-165.37 656.08,-130.07"/>
<polygon fill="#63b8ff" stroke="#63b8ff" points="1714.01,-171.1 1722.36,-164.59 1711.77,-164.47 1714.01,-171.1"/>
</a>
</g>
</g>
<!-- Node8 -->
<g id="Node000008" class="node">
<title>Node8</title>
<g id="a_Node000008"><a xlink:href="classLeiterplattendrucker__V1_1_1Website.html#abcfa8c720b1ce072f74be6ce455b28a3" target="_top" xlink:title="File aus Pfad auslesen.">
<polygon fill="white" stroke="#666666" points="1513,-192.02 1397,-192.02 1397,-162.02 1513,-162.02 1513,-192.02"/>
<text text-anchor="start" x="1405" y="-180.02" font-family="Helvetica,sans-Serif" font-size="10.00">Leiterplattendrucker</text>
<text text-anchor="middle" x="1455" y="-169.02" font-family="Helvetica,sans-Serif" font-size="10.00">_V1.Website.loadfile</text>
</a>
</g>
</g>
<!-- Node1&#45;&gt;Node8 -->
<g id="edge8_Node000001_Node000008" class="edge">
<title>Node1&#45;&gt;Node8</title>
<g id="a_edge8_Node000001_Node000008"><a xlink:title=" ">
<path fill="none" stroke="#63b8ff" d="M1611.9,-165.31C1577.05,-167.93 1541.49,-170.6 1513.15,-172.73"/>
<polygon fill="#63b8ff" stroke="#63b8ff" points="1612.48,-168.78 1622.19,-164.54 1611.96,-161.8 1612.48,-168.78"/>
</a>
</g>
</g>
<!-- Node9 -->
<g id="Node000009" class="node">
<title>Node9</title>
<g id="a_Node000009"><a xlink:href="classgerber2coordinatesTEST_1_1Druckerserver.html#ad0249cb1356b24bc2dc3f208b5d35581" target="_top" xlink:title=" ">
<polygon fill="white" stroke="#666666" points="1295,-143.52 1042,-143.52 1042,-124.52 1295,-124.52 1295,-143.52"/>
<text text-anchor="middle" x="1168.5" y="-131.52" font-family="Helvetica,sans-Serif" font-size="10.00">gerber2coordinatesTEST.Druckerserver.setmirror</text>
</a>
</g>
</g>
<!-- Node1&#45;&gt;Node9 -->
<g id="edge10_Node000001_Node000009" class="edge">
<title>Node1&#45;&gt;Node9</title>
<g id="a_edge10_Node000001_Node000009"><a xlink:title=" ">
<path fill="none" stroke="#63b8ff" d="M1604.69,-149.79C1509.66,-146.35 1386.45,-141.88 1295.4,-138.58"/>
<polygon fill="#63b8ff" stroke="#63b8ff" points="1604.84,-153.3 1614.96,-150.16 1605.09,-146.3 1604.84,-153.3"/>
</a>
</g>
</g>
<!-- Node10 -->
<g id="Node000010" class="node">
<title>Node10</title>
<g id="a_Node000010"><a xlink:href="classgerber2coordinatesTEST_1_1Druckerserver.html#a59c02b80d01f547c5e903f9976272db7" target="_top" xlink:title=" ">
<polygon fill="white" stroke="#666666" points="994.5,-105.52 743.5,-105.52 743.5,-86.52 994.5,-86.52 994.5,-105.52"/>
<text text-anchor="middle" x="869" y="-93.52" font-family="Helvetica,sans-Serif" font-size="10.00">gerber2coordinatesTEST.Druckerserver.setoffset</text>
</a>
</g>
</g>
<!-- Node1&#45;&gt;Node10 -->
<g id="edge12_Node000001_Node000010" class="edge">
<title>Node1&#45;&gt;Node10</title>
<g id="a_edge12_Node000001_Node000010"><a xlink:title=" ">
<path fill="none" stroke="#63b8ff" d="M1659.71,-144.35C1633.71,-141.43 1605.24,-138.41 1579,-136.02 1374.73,-117.42 1136.51,-106.1 994.74,-100.46"/>
<polygon fill="#63b8ff" stroke="#63b8ff" points="1659.6,-147.85 1669.93,-145.5 1660.39,-140.9 1659.6,-147.85"/>
</a>
</g>
</g>
<!-- Node11 -->
<g id="Node000011" class="node">
<title>Node11</title>
<g id="a_Node000011"><a xlink:href="classgerber2coordinatesTEST_1_1Druckerserver.html#a12e0f5f8fafaba6e56b74278991b798b" target="_top" xlink:title=" ">
<polygon fill="white" stroke="#666666" points="1295,-67.52 1042,-67.52 1042,-48.52 1295,-48.52 1295,-67.52"/>
<text text-anchor="middle" x="1168.5" y="-55.52" font-family="Helvetica,sans-Serif" font-size="10.00">gerber2coordinatesTEST.Druckerserver.setpadfill</text>
</a>
</g>
</g>
<!-- Node1&#45;&gt;Node11 -->
<g id="edge14_Node000001_Node000011" class="edge">
<title>Node1&#45;&gt;Node11</title>
<g id="a_edge14_Node000001_Node000011"><a xlink:title=" ">
<path fill="none" stroke="#63b8ff" d="M1723.48,-140.71C1691.04,-123.32 1632.77,-94.73 1579,-82.02 1485.61,-59.95 1377.08,-54.46 1295.22,-54.22"/>
<polygon fill="#63b8ff" stroke="#63b8ff" points="1721.84,-143.8 1732.3,-145.51 1725.19,-137.66 1721.84,-143.8"/>
</a>
</g>
</g>
<!-- Node12 -->
<g id="Node000012" class="node">
<title>Node12</title>
<g id="a_Node000012"><a xlink:href="classgerber2coordinatesTEST_1_1Druckerserver.html#a5ac55638a08c878eb8fe137be3d1a411" target="_top" xlink:title=" ">
<polygon fill="white" stroke="#666666" points="1006,-29.52 732,-29.52 732,-10.52 1006,-10.52 1006,-29.52"/>
<text text-anchor="middle" x="869" y="-17.52" font-family="Helvetica,sans-Serif" font-size="10.00">gerber2coordinatesTEST.Druckerserver.setpolygonfill</text>
</a>
</g>
</g>
<!-- Node1&#45;&gt;Node12 -->
<g id="edge16_Node000001_Node000012" class="edge">
<title>Node1&#45;&gt;Node12</title>
<g id="a_edge16_Node000001_Node000012"><a xlink:title=" ">
<path fill="none" stroke="#63b8ff" d="M1730.16,-138.96C1700.37,-114.68 1639.54,-69.51 1579,-51.02 1360.85,15.59 1087.45,2.07 952.78,-10.52"/>
<polygon fill="#63b8ff" stroke="#63b8ff" points="1728.11,-141.81 1738.04,-145.49 1732.57,-136.42 1728.11,-141.81"/>
</a>
</g>
</g>
<!-- Node2&#45;&gt;Node3 -->
<g id="edge2_Node000002_Node000003" class="edge">
<title>Node2&#45;&gt;Node3</title>
<g id="a_edge2_Node000002_Node000003"><a xlink:title=" ">
<path fill="none" stroke="#63b8ff" d="M1361.76,-285.32C1326.36,-281.22 1286.22,-276.56 1251.81,-272.57"/>
<polygon fill="#63b8ff" stroke="#63b8ff" points="1361.76,-288.84 1372.09,-286.52 1362.56,-281.89 1361.76,-288.84"/>
</a>
</g>
</g>
<!-- Node4 -->
<g id="Node000004" class="node">
<title>Node4</title>
<g id="a_Node000004"><a xlink:href="classgerber2coordinatesTEST_1_1Druckerserver.html#a4d3050145a86ba737bef7a21d2e52fa4" target="_top" xlink:title=" ">
<polygon fill="white" stroke="#666666" points="984,-278.02 754,-278.02 754,-248.02 984,-248.02 984,-278.02"/>
<text text-anchor="start" x="762" y="-266.02" font-family="Helvetica,sans-Serif" font-size="10.00">gerber2coordinatesTEST.Druckerserver.start</text>
<text text-anchor="middle" x="869" y="-255.02" font-family="Helvetica,sans-Serif" font-size="10.00">Printing</text>
</a>
</g>
</g>
<!-- Node3&#45;&gt;Node4 -->
<g id="edge3_Node000003_Node000004" class="edge">
<title>Node3&#45;&gt;Node4</title>
<g id="a_edge3_Node000003_Node000004"><a xlink:title=" ">
<path fill="none" stroke="#63b8ff" d="M1043.19,-263.02C1023.69,-263.02 1003.62,-263.02 984.36,-263.02"/>
<polygon fill="#63b8ff" stroke="#63b8ff" points="1043.33,-266.52 1053.33,-263.02 1043.33,-259.52 1043.33,-266.52"/>
</a>
</g>
</g>
<!-- Node4&#45;&gt;Node5 -->
<g id="edge4_Node000004_Node000005" class="edge">
<title>Node4&#45;&gt;Node5</title>
<g id="a_edge4_Node000004_Node000005"><a xlink:title=" ">
<path fill="none" stroke="#63b8ff" d="M758.94,-244.91C749.62,-241.83 740.51,-238.23 732,-234.02 678.46,-207.56 628.59,-155.78 605.88,-130.15"/>
<polygon fill="#63b8ff" stroke="#63b8ff" points="758.12,-248.32 768.71,-247.93 760.19,-241.63 758.12,-248.32"/>
</a>
</g>
</g>
<!-- Node6 -->
<g id="Node000006" class="node">
<title>Node6</title>
<g id="a_Node000006"><a xlink:href="classgerber2coordinatesTEST_1_1Druckerserver.html#ac93056be99f683fd7a826082b67180dd" target="_top" xlink:title="Funktion zum aktzeptieren mehrerer Anfragen gleichzeitig.">
<polygon fill="white" stroke="#666666" points="452,-130.02 244,-130.02 244,-100.02 452,-100.02 452,-130.02"/>
<text text-anchor="start" x="252" y="-118.02" font-family="Helvetica,sans-Serif" font-size="10.00">gerber2coordinatesTEST.Druckerserver.</text>
<text text-anchor="middle" x="348" y="-107.02" font-family="Helvetica,sans-Serif" font-size="10.00">AcceptRequests</text>
</a>
</g>
</g>
<!-- Node5&#45;&gt;Node6 -->
<g id="edge5_Node000005_Node000006" class="edge">
<title>Node5&#45;&gt;Node6</title>
<g id="a_edge5_Node000005_Node000006"><a xlink:title=" ">
<path fill="none" stroke="#63b8ff" d="M477.48,-115.02C469.11,-115.02 460.68,-115.02 452.37,-115.02"/>
<polygon fill="#63b8ff" stroke="#63b8ff" points="477.67,-118.52 487.67,-115.02 477.67,-111.52 477.67,-118.52"/>
</a>
</g>
</g>
<!-- Node7 -->
<g id="Node000007" class="node">
<title>Node7</title>
<g id="a_Node000007"><a xlink:href="classgerber2coordinatesTEST_1_1Druckerserver.html#a3db80629f1401b75124dfebadb1f4c88" target="_top" xlink:title="Httpserver starten.">
<polygon fill="white" stroke="#666666" points="208,-130.02 0,-130.02 0,-100.02 208,-100.02 208,-130.02"/>
<text text-anchor="start" x="8" y="-118.02" font-family="Helvetica,sans-Serif" font-size="10.00">gerber2coordinatesTEST.Druckerserver.</text>
<text text-anchor="middle" x="104" y="-107.02" font-family="Helvetica,sans-Serif" font-size="10.00">Start</text>
</a>
</g>
</g>
<!-- Node6&#45;&gt;Node7 -->
<g id="edge6_Node000006_Node000007" class="edge">
<title>Node6&#45;&gt;Node7</title>
<g id="a_edge6_Node000006_Node000007"><a xlink:title=" ">
<path fill="none" stroke="#63b8ff" d="M233.48,-115.02C225.11,-115.02 216.68,-115.02 208.37,-115.02"/>
<polygon fill="#63b8ff" stroke="#63b8ff" points="233.67,-118.52 243.67,-115.02 233.67,-111.52 233.67,-118.52"/>
</a>
</g>
</g>
<!-- Node9&#45;&gt;Node5 -->
<g id="edge11_Node000009_Node000005" class="edge">
<title>Node9&#45;&gt;Node5</title>
<g id="a_edge11_Node000009_Node000005"><a xlink:title=" ">
<path fill="none" stroke="#63b8ff" d="M1031.64,-129.53C928.96,-126.13 790.13,-121.54 696.38,-118.44"/>
<polygon fill="#63b8ff" stroke="#63b8ff" points="1031.67,-133.03 1041.78,-129.86 1031.9,-126.03 1031.67,-133.03"/>
</a>
</g>
</g>
<!-- Node10&#45;&gt;Node5 -->
<g id="edge13_Node000010_Node000005" class="edge">
<title>Node10&#45;&gt;Node5</title>
<g id="a_edge13_Node000010_Node000005"><a xlink:title=" ">
<path fill="none" stroke="#63b8ff" d="M733.37,-105.32C720.88,-106.19 708.35,-107.05 696.21,-107.89"/>
<polygon fill="#63b8ff" stroke="#63b8ff" points="733.64,-108.81 743.37,-104.63 733.16,-101.83 733.64,-108.81"/>
</a>
</g>
</g>
<!-- Node11&#45;&gt;Node5 -->
<g id="edge15_Node000011_Node000005" class="edge">
<title>Node11&#45;&gt;Node5</title>
<g id="a_edge15_Node000011_Node000005"><a xlink:title=" ">
<path fill="none" stroke="#63b8ff" d="M1031.84,-56.8C945.53,-57.86 831.66,-62.65 732,-78.02 700.66,-82.85 666.2,-92 639.44,-99.99"/>
<polygon fill="#63b8ff" stroke="#63b8ff" points="1032,-60.3 1041.96,-56.69 1031.92,-53.3 1032,-60.3"/>
</a>
</g>
</g>
<!-- Node12&#45;&gt;Node5 -->
<g id="edge17_Node000012_Node000005" class="edge">
<title>Node12&#45;&gt;Node5</title>
<g id="a_edge17_Node000012_Node000005"><a xlink:title=" ">
<path fill="none" stroke="#63b8ff" d="M780.63,-31.47C764.25,-34.73 747.44,-38.85 732,-44.02 689.61,-58.23 644.12,-83.62 617.13,-99.87"/>
<polygon fill="#63b8ff" stroke="#63b8ff" points="781.58,-34.85 790.76,-29.55 780.28,-27.97 781.58,-34.85"/>
</a>
</g>
</g>
</g>
</svg>
