<?xml version="1.0" encoding="UTF-8" standalone="no"?>
<!DOCTYPE svg PUBLIC "-//W3C//DTD SVG 1.1//EN"
 "http://www.w3.org/Graphics/SVG/1.1/DTD/svg11.dtd">
<!-- Generated by graphviz version 2.43.0 (0)
 -->
<!-- Title: gerber2coordinatesTEST.Gerbertoolbox.getXY Pages: 1 -->
<svg width="1077pt" height="113pt"
 viewBox="0.00 0.00 1077.00 112.50" xmlns="http://www.w3.org/2000/svg" xmlns:xlink="http://www.w3.org/1999/xlink">
<g id="graph0" class="graph" transform="scale(1 1) rotate(0) translate(4 108.5)">
<title>gerber2coordinatesTEST.Gerbertoolbox.getXY</title>
<!-- Node1 -->
<g id="Node000001" class="node">
<title>Node1</title>
<g id="a_Node000001"><a xlink:title=" ">
<polygon fill="#999999" stroke="#666666" points="1069,-67.5 830,-67.5 830,-48.5 1069,-48.5 1069,-67.5"/>
<text text-anchor="middle" x="949.5" y="-55.5" font-family="Helvetica,sans-Serif" font-size="10.00">gerber2coordinatesTEST.Gerbertoolbox.getXY</text>
</a>
</g>
</g>
<!-- Node2 -->
<g id="Node000002" class="node">
<title>Node2</title>
<g id="a_Node000002"><a xlink:href="classgerber2coordinatesTEST_1_1Gerberfileinfo.html#a91e20a7c0ad8148d3c7ad6daa6de4e4e" target="_top" xlink:title=" ">
<polygon fill="white" stroke="#666666" points="785,-104.5 495,-104.5 495,-85.5 785,-85.5 785,-104.5"/>
<text text-anchor="middle" x="640" y="-92.5" font-family="Helvetica,sans-Serif" font-size="10.00">gerber2coordinatesTEST.Gerberfileinfo.fillpadsandpoints</text>
</a>
</g>
</g>
<!-- Node1&#45;&gt;Node2 -->
<g id="edge1_Node000001_Node000002" class="edge">
<title>Node1&#45;&gt;Node2</title>
<g id="a_edge1_Node000001_Node000002"><a xlink:title=" ">
<path fill="none" stroke="#63b8ff" d="M861.85,-68.74C839.73,-71.46 815.99,-74.35 794,-77 770.9,-79.78 745.83,-82.75 722.79,-85.46"/>
<polygon fill="#63b8ff" stroke="#63b8ff" points="862.39,-72.2 871.89,-67.5 861.54,-65.25 862.39,-72.2"/>
</a>
</g>
</g>
<!-- Node5 -->
<g id="Node000005" class="node">
<title>Node5</title>
<g id="a_Node000005"><a xlink:href="classgerber2coordinatesTEST_1_1Gerberfileinfo.html#a35d701d89e2b7ba549132f359e8b068d" target="_top" xlink:title=" ">
<polygon fill="white" stroke="#666666" points="794,-67.5 486,-67.5 486,-48.5 794,-48.5 794,-67.5"/>
<text text-anchor="middle" x="640" y="-55.5" font-family="Helvetica,sans-Serif" font-size="10.00">gerber2coordinatesTEST.Gerberfileinfo.fillpolygonswithlines</text>
</a>
</g>
</g>
<!-- Node1&#45;&gt;Node5 -->
<g id="edge4_Node000001_Node000005" class="edge">
<title>Node1&#45;&gt;Node5</title>
<g id="a_edge4_Node000001_Node000005"><a xlink:title=" ">
<path fill="none" stroke="#63b8ff" d="M819.44,-58C811.05,-58 802.56,-58 794.07,-58"/>
<polygon fill="#63b8ff" stroke="#63b8ff" points="819.61,-61.5 829.61,-58 819.61,-54.5 819.61,-61.5"/>
</a>
</g>
</g>
<!-- Node6 -->
<g id="Node000006" class="node">
<title>Node6</title>
<g id="a_Node000006"><a xlink:href="classgerber2coordinatesTEST_1_1GerberLine.html#a05107c757c248c8ddaefcaf80f7112df" target="_top" xlink:title=" ">
<polygon fill="white" stroke="#666666" points="725,-30 555,-30 555,0 725,0 725,-30"/>
<text text-anchor="start" x="563" y="-18" font-family="Helvetica,sans-Serif" font-size="10.00">gerber2coordinatesTEST.Gerber</text>
<text text-anchor="middle" x="640" y="-7" font-family="Helvetica,sans-Serif" font-size="10.00">Line.GerberLine</text>
</a>
</g>
</g>
<!-- Node1&#45;&gt;Node6 -->
<g id="edge6_Node000001_Node000006" class="edge">
<title>Node1&#45;&gt;Node6</title>
<g id="a_edge6_Node000001_Node000006"><a xlink:title=" ">
<path fill="none" stroke="#63b8ff" d="M870.12,-47.04C825.83,-40.85 770.45,-33.1 725.24,-26.78"/>
<polygon fill="#63b8ff" stroke="#63b8ff" points="869.87,-50.54 880.26,-48.46 870.84,-43.61 869.87,-50.54"/>
</a>
</g>
</g>
<!-- Node3 -->
<g id="Node000003" class="node">
<title>Node3</title>
<g id="a_Node000003"><a xlink:href="classgerber2coordinatesTEST_1_1Gerberfileinfo.html#a756d07194ea904f77d9d50b3717c796c" target="_top" xlink:title=" ">
<polygon fill="white" stroke="#666666" points="450,-91 243,-91 243,-61 450,-61 450,-91"/>
<text text-anchor="start" x="251" y="-79" font-family="Helvetica,sans-Serif" font-size="10.00">gerber2coordinatesTEST.Gerberfileinfo.</text>
<text text-anchor="middle" x="346.5" y="-68" font-family="Helvetica,sans-Serif" font-size="10.00">Initgerberfile</text>
</a>
</g>
</g>
<!-- Node2&#45;&gt;Node3 -->
<g id="edge2_Node000002_Node000003" class="edge">
<title>Node2&#45;&gt;Node3</title>
<g id="a_edge2_Node000002_Node000003"><a xlink:title=" ">
<path fill="none" stroke="#63b8ff" d="M484.72,-84.94C473.09,-84.19 461.53,-83.43 450.35,-82.7"/>
<polygon fill="#63b8ff" stroke="#63b8ff" points="484.75,-88.45 494.96,-85.61 485.21,-81.47 484.75,-88.45"/>
</a>
</g>
</g>
<!-- Node4 -->
<g id="Node000004" class="node">
<title>Node4</title>
<g id="a_Node000004"><a xlink:href="classgerber2coordinatesTEST_1_1Gerberfileinfo.html#a6415b3b8ed5c5d93a9c3d2ee80bf90bb" target="_top" xlink:title=" ">
<polygon fill="white" stroke="#666666" points="207,-91 0,-91 0,-61 207,-61 207,-91"/>
<text text-anchor="start" x="8" y="-79" font-family="Helvetica,sans-Serif" font-size="10.00">gerber2coordinatesTEST.Gerberfileinfo.</text>
<text text-anchor="middle" x="103.5" y="-68" font-family="Helvetica,sans-Serif" font-size="10.00">Gerberfileinfo</text>
</a>
</g>
</g>
<!-- Node3&#45;&gt;Node4 -->
<g id="edge3_Node000003_Node000004" class="edge">
<title>Node3&#45;&gt;Node4</title>
<g id="a_edge3_Node000003_Node000004"><a xlink:title=" ">
<path fill="none" stroke="#63b8ff" d="M232.68,-76C224.23,-76 215.73,-76 207.35,-76"/>
<polygon fill="#63b8ff" stroke="#63b8ff" points="232.94,-79.5 242.94,-76 232.94,-72.5 232.94,-79.5"/>
</a>
</g>
</g>
<!-- Node5&#45;&gt;Node3 -->
<g id="edge5_Node000005_Node000003" class="edge">
<title>Node5&#45;&gt;Node3</title>
<g id="a_edge5_Node000005_Node000003"><a xlink:title=" ">
<path fill="none" stroke="#63b8ff" d="M475.81,-68.08C467.16,-68.61 458.6,-69.14 450.24,-69.66"/>
<polygon fill="#63b8ff" stroke="#63b8ff" points="476.23,-71.56 485.99,-67.45 475.8,-64.57 476.23,-71.56"/>
</a>
</g>
</g>
</g>
</svg>
