<?xml version="1.0" encoding="UTF-8" standalone="no"?>
<!DOCTYPE svg PUBLIC "-//W3C//DTD SVG 1.1//EN"
 "http://www.w3.org/Graphics/SVG/1.1/DTD/svg11.dtd">
<!-- Generated by graphviz version 2.43.0 (0)
 -->
<!-- Title: gerber2coordinatesTEST.Druckerserver.HandleRequest Pages: 1 -->
<svg width="1460pt" height="624pt"
 viewBox="0.00 0.00 1460.00 624.42" xmlns="http://www.w3.org/2000/svg" xmlns:xlink="http://www.w3.org/1999/xlink">
<g id="graph0" class="graph" transform="scale(1 1) rotate(0) translate(4 620.42)">
<title>gerber2coordinatesTEST.Druckerserver.HandleRequest</title>
<!-- Node1 -->
<g id="Node000001" class="node">
<title>Node1</title>
<g id="a_Node000001"><a xlink:title="Die einzelnen Anfragen werden verarbeitet.">
<polygon fill="#999999" stroke="#666666" points="208,-329.42 0,-329.42 0,-299.42 208,-299.42 208,-329.42"/>
<text text-anchor="start" x="8" y="-317.42" font-family="Helvetica,sans-Serif" font-size="10.00">gerber2coordinatesTEST.Druckerserver.</text>
<text text-anchor="middle" x="104" y="-306.42" font-family="Helvetica,sans-Serif" font-size="10.00">HandleRequest</text>
</a>
</g>
</g>
<!-- Node2 -->
<g id="Node000002" class="node">
<title>Node2</title>
<g id="a_Node000002"><a xlink:href="classgerber2coordinatesTEST_1_1Druckerserver.html#a0835f5beab61ad3fa7595fd3637c40c5" target="_top" xlink:title=" ">
<polygon fill="white" stroke="#666666" points="512.5,-585.92 249.5,-585.92 249.5,-566.92 512.5,-566.92 512.5,-585.92"/>
<text text-anchor="middle" x="381" y="-573.92" font-family="Helvetica,sans-Serif" font-size="10.00">gerber2coordinatesTEST.Druckerserver.getpreview</text>
</a>
</g>
</g>
<!-- Node1&#45;&gt;Node2 -->
<g id="edge1_Node000001_Node000002" class="edge">
<title>Node1&#45;&gt;Node2</title>
<g id="a_edge1_Node000001_Node000002"><a xlink:title=" ">
<path fill="none" stroke="#63b8ff" d="M110.27,-329.56C124.91,-369.34 169.92,-477.71 244,-534.42 262.54,-548.62 285.93,-558.06 308.06,-564.32"/>
<polygon fill="#63b8ff" stroke="#63b8ff" points="307.22,-567.72 317.78,-566.89 309.01,-560.95 307.22,-567.72"/>
</a>
</g>
</g>
<!-- Node4 -->
<g id="Node000004" class="node">
<title>Node4</title>
<g id="a_Node000004"><a xlink:href="classgerber2coordinatesTEST_1_1Gerberfileinfo.html#a9ba5800c1575be5dfff55093a42d77cb" target="_top" xlink:title="Aktuellen Druckfortschritt in Prozent bekommen.">
<polygon fill="white" stroke="#666666" points="1146,-185.92 846,-185.92 846,-166.92 1146,-166.92 1146,-185.92"/>
<text text-anchor="middle" x="996" y="-173.92" font-family="Helvetica,sans-Serif" font-size="10.00">gerber2coordinatesTEST.Gerberfileinfo.getprintpercentage</text>
</a>
</g>
</g>
<!-- Node1&#45;&gt;Node4 -->
<g id="edge3_Node000001_Node000004" class="edge">
<title>Node1&#45;&gt;Node4</title>
<g id="a_edge3_Node000001_Node000004"><a xlink:title=" ">
<path fill="none" stroke="#63b8ff" d="M117.23,-299.35C139.33,-273.42 188.78,-221.17 244,-200.42 348.32,-161.23 647.91,-163.66 835.66,-169.61"/>
<polygon fill="#63b8ff" stroke="#63b8ff" points="835.8,-173.12 845.9,-169.95 836.02,-166.12 835.8,-173.12"/>
</a>
</g>
</g>
<!-- Node5 -->
<g id="Node000005" class="node">
<title>Node5</title>
<g id="a_Node000005"><a xlink:href="classLeiterplattendrucker__V1_1_1Website.html#a71e53317601b7596dd7d430a6ae3978f" target="_top" xlink:title=" ">
<polygon fill="white" stroke="#666666" points="452.5,-485.42 309.5,-485.42 309.5,-455.42 452.5,-455.42 452.5,-485.42"/>
<text text-anchor="start" x="317.5" y="-473.42" font-family="Helvetica,sans-Serif" font-size="10.00">Leiterplattendrucker</text>
<text text-anchor="middle" x="381" y="-462.42" font-family="Helvetica,sans-Serif" font-size="10.00">_V1.Website.getResponse</text>
</a>
</g>
</g>
<!-- Node1&#45;&gt;Node5 -->
<g id="edge4_Node000001_Node000005" class="edge">
<title>Node1&#45;&gt;Node5</title>
<g id="a_edge4_Node000001_Node000005"><a xlink:title=" ">
<path fill="none" stroke="#63b8ff" d="M116.02,-329.65C137.29,-357.79 186.95,-417.65 244,-446.42 260.97,-454.98 280.46,-460.54 299.3,-464.14"/>
<polygon fill="#63b8ff" stroke="#63b8ff" points="298.92,-467.62 309.37,-465.89 300.12,-460.73 298.92,-467.62"/>
</a>
</g>
</g>
<!-- Node6 -->
<g id="Node000006" class="node">
<title>Node6</title>
<g id="a_Node000006"><a xlink:href="classgerber2coordinatesTEST_1_1Druckerserver.html#a08d1da26dbc5116eff8ca27a47ec38af" target="_top" xlink:title=" ">
<polygon fill="white" stroke="#666666" points="493,-437.42 269,-437.42 269,-407.42 493,-407.42 493,-437.42"/>
<text text-anchor="start" x="277" y="-425.42" font-family="Helvetica,sans-Serif" font-size="10.00">gerber2coordinatesTEST.Druckerserver.init</text>
<text text-anchor="middle" x="381" y="-414.42" font-family="Helvetica,sans-Serif" font-size="10.00">Printing</text>
</a>
</g>
</g>
<!-- Node1&#45;&gt;Node6 -->
<g id="edge5_Node000001_Node000006" class="edge">
<title>Node1&#45;&gt;Node6</title>
<g id="a_edge5_Node000001_Node000006"><a xlink:title=" ">
<path fill="none" stroke="#63b8ff" d="M124.51,-329.45C150.36,-348.57 198.07,-381.18 244,-398.42 250.18,-400.74 256.61,-402.84 263.16,-404.74"/>
<polygon fill="#63b8ff" stroke="#63b8ff" points="262.25,-408.12 272.82,-407.38 264.1,-401.37 262.25,-408.12"/>
</a>
</g>
</g>
<!-- Node7 -->
<g id="Node000007" class="node">
<title>Node7</title>
<g id="a_Node000007"><a xlink:href="classgerber2coordinatesTEST_1_1Druckerserver.html#aca3fd45b4759e5834114e450a8d50d32" target="_top" xlink:title="Allgemeine Konsolenausgabe mit aktueller Zeit.">
<polygon fill="white" stroke="#666666" points="1452,-261.92 1182,-261.92 1182,-242.92 1452,-242.92 1452,-261.92"/>
<text text-anchor="middle" x="1317" y="-249.92" font-family="Helvetica,sans-Serif" font-size="10.00">gerber2coordinatesTEST.Druckerserver.logtoconsole</text>
</a>
</g>
</g>
<!-- Node1&#45;&gt;Node7 -->
<g id="edge6_Node000001_Node000007" class="edge">
<title>Node1&#45;&gt;Node7</title>
<g id="a_edge6_Node000001_Node000007"><a xlink:title=" ">
<path fill="none" stroke="#63b8ff" d="M124.82,-299.35C150.63,-280.77 197.9,-250.2 244,-238.42 417.87,-194 938.02,-224.44 1184.14,-242.17"/>
<polygon fill="#63b8ff" stroke="#63b8ff" points="1183.99,-245.67 1194.22,-242.9 1184.5,-238.69 1183.99,-245.67"/>
</a>
</g>
</g>
<!-- Node8 -->
<g id="Node000008" class="node">
<title>Node8</title>
<g id="a_Node000008"><a xlink:href="classgerber2coordinatesTEST_1_1Druckerserver.html#a6d2b6196c04dad571e84b2f1e6e09724" target="_top" xlink:title=" ">
<polygon fill="white" stroke="#666666" points="499.5,-351.42 262.5,-351.42 262.5,-321.42 499.5,-321.42 499.5,-351.42"/>
<text text-anchor="start" x="270.5" y="-339.42" font-family="Helvetica,sans-Serif" font-size="10.00">gerber2coordinatesTEST.Druckerserver.pause</text>
<text text-anchor="middle" x="381" y="-328.42" font-family="Helvetica,sans-Serif" font-size="10.00">Printing</text>
</a>
</g>
</g>
<!-- Node1&#45;&gt;Node8 -->
<g id="edge7_Node000001_Node000008" class="edge">
<title>Node1&#45;&gt;Node8</title>
<g id="a_edge7_Node000001_Node000008"><a xlink:title=" ">
<path fill="none" stroke="#63b8ff" d="M208.18,-322.68C222.55,-323.83 237.44,-325.02 252.19,-326.2"/>
<polygon fill="#63b8ff" stroke="#63b8ff" points="252.12,-329.7 262.37,-327.01 252.68,-322.73 252.12,-329.7"/>
</a>
</g>
</g>
<!-- Node9 -->
<g id="Node000009" class="node">
<title>Node9</title>
<g id="a_Node000009"><a xlink:href="classgerber2coordinatesTEST_1_1Druckerserver.html#ad0249cb1356b24bc2dc3f208b5d35581" target="_top" xlink:title=" ">
<polygon fill="white" stroke="#666666" points="507.5,-388.92 254.5,-388.92 254.5,-369.92 507.5,-369.92 507.5,-388.92"/>
<text text-anchor="middle" x="381" y="-376.92" font-family="Helvetica,sans-Serif" font-size="10.00">gerber2coordinatesTEST.Druckerserver.setmirror</text>
</a>
</g>
</g>
<!-- Node1&#45;&gt;Node9 -->
<g id="edge8_Node000001_Node000009" class="edge">
<title>Node1&#45;&gt;Node9</title>
<g id="a_edge8_Node000001_Node000009"><a xlink:title=" ">
<path fill="none" stroke="#63b8ff" d="M144,-329.44C171.57,-339.52 209.59,-352.4 244,-360.42 257.08,-363.47 270.98,-366.1 284.72,-368.35"/>
<polygon fill="#63b8ff" stroke="#63b8ff" points="284.26,-371.82 294.68,-369.91 285.35,-364.9 284.26,-371.82"/>
</a>
</g>
</g>
<!-- Node13 -->
<g id="Node000013" class="node">
<title>Node13</title>
<g id="a_Node000013"><a xlink:href="classgerber2coordinatesTEST_1_1Druckerserver.html#a59c02b80d01f547c5e903f9976272db7" target="_top" xlink:title=" ">
<polygon fill="white" stroke="#666666" points="506.5,-302.92 255.5,-302.92 255.5,-283.92 506.5,-283.92 506.5,-302.92"/>
<text text-anchor="middle" x="381" y="-290.92" font-family="Helvetica,sans-Serif" font-size="10.00">gerber2coordinatesTEST.Druckerserver.setoffset</text>
</a>
</g>
</g>
<!-- Node1&#45;&gt;Node13 -->
<g id="edge13_Node000001_Node000013" class="edge">
<title>Node1&#45;&gt;Node13</title>
<g id="a_edge13_Node000001_Node000013"><a xlink:title=" ">
<path fill="none" stroke="#63b8ff" d="M208.18,-306.54C220.33,-305.62 232.86,-304.66 245.35,-303.71"/>
<polygon fill="#63b8ff" stroke="#63b8ff" points="245.66,-307.19 255.36,-302.94 245.12,-300.21 245.66,-307.19"/>
</a>
</g>
</g>
<!-- Node15 -->
<g id="Node000015" class="node">
<title>Node15</title>
<g id="a_Node000015"><a xlink:href="classgerber2coordinatesTEST_1_1Druckerserver.html#a12e0f5f8fafaba6e56b74278991b798b" target="_top" xlink:title=" ">
<polygon fill="white" stroke="#666666" points="507.5,-524.92 254.5,-524.92 254.5,-505.92 507.5,-505.92 507.5,-524.92"/>
<text text-anchor="middle" x="381" y="-512.92" font-family="Helvetica,sans-Serif" font-size="10.00">gerber2coordinatesTEST.Druckerserver.setpadfill</text>
</a>
</g>
</g>
<!-- Node1&#45;&gt;Node15 -->
<g id="edge17_Node000001_Node000015" class="edge">
<title>Node1&#45;&gt;Node15</title>
<g id="a_edge17_Node000001_Node000015"><a xlink:title=" ">
<path fill="none" stroke="#63b8ff" d="M111.78,-329.66C128.48,-365.25 175.32,-453.88 244,-494.42 249.07,-497.42 254.43,-500.03 259.98,-502.31"/>
<polygon fill="#63b8ff" stroke="#63b8ff" points="258.86,-505.63 269.46,-505.83 261.3,-499.07 258.86,-505.63"/>
</a>
</g>
</g>
<!-- Node17 -->
<g id="Node000017" class="node">
<title>Node17</title>
<g id="a_Node000017"><a xlink:href="classgerber2coordinatesTEST_1_1Druckerserver.html#a5ac55638a08c878eb8fe137be3d1a411" target="_top" xlink:title=" ">
<polygon fill="white" stroke="#666666" points="518,-265.92 244,-265.92 244,-246.92 518,-246.92 518,-265.92"/>
<text text-anchor="middle" x="381" y="-253.92" font-family="Helvetica,sans-Serif" font-size="10.00">gerber2coordinatesTEST.Druckerserver.setpolygonfill</text>
</a>
</g>
</g>
<!-- Node1&#45;&gt;Node17 -->
<g id="edge21_Node000001_Node000017" class="edge">
<title>Node1&#45;&gt;Node17</title>
<g id="a_edge21_Node000001_Node000017"><a xlink:title=" ">
<path fill="none" stroke="#63b8ff" d="M152.53,-299.37C179.2,-291.36 213.21,-281.86 244,-275.42 258.31,-272.43 273.58,-269.78 288.51,-267.48"/>
<polygon fill="#63b8ff" stroke="#63b8ff" points="289.41,-270.89 298.79,-265.95 288.38,-263.96 289.41,-270.89"/>
</a>
</g>
</g>
<!-- Node19 -->
<g id="Node000019" class="node">
<title>Node19</title>
<g id="a_Node000019"><a xlink:href="classgerber2coordinatesTEST_1_1Druckerserver.html#a4d3050145a86ba737bef7a21d2e52fa4" target="_top" xlink:title=" ">
<polygon fill="white" stroke="#666666" points="496,-148.42 266,-148.42 266,-118.42 496,-118.42 496,-148.42"/>
<text text-anchor="start" x="274" y="-136.42" font-family="Helvetica,sans-Serif" font-size="10.00">gerber2coordinatesTEST.Druckerserver.start</text>
<text text-anchor="middle" x="381" y="-125.42" font-family="Helvetica,sans-Serif" font-size="10.00">Printing</text>
</a>
</g>
</g>
<!-- Node1&#45;&gt;Node19 -->
<g id="edge25_Node000001_Node000019" class="edge">
<title>Node1&#45;&gt;Node19</title>
<g id="a_edge25_Node000001_Node000019"><a xlink:title=" ">
<path fill="none" stroke="#63b8ff" d="M114.3,-299.03C134.01,-267.85 183.18,-197.25 244,-162.42 251.07,-158.37 258.65,-154.89 266.47,-151.88"/>
<polygon fill="#63b8ff" stroke="#63b8ff" points="267.86,-155.1 276.11,-148.46 265.52,-148.51 267.86,-155.1"/>
</a>
</g>
</g>
<!-- Node24 -->
<g id="Node000024" class="node">
<title>Node24</title>
<g id="a_Node000024"><a xlink:href="classgerber2coordinatesTEST_1_1Druckerserver.html#a56560bd44a06029268e9cd3bfef89eba" target="_top" xlink:title=" ">
<polygon fill="white" stroke="#666666" points="495.5,-100.42 266.5,-100.42 266.5,-70.42 495.5,-70.42 495.5,-100.42"/>
<text text-anchor="start" x="274.5" y="-88.42" font-family="Helvetica,sans-Serif" font-size="10.00">gerber2coordinatesTEST.Druckerserver.stop</text>
<text text-anchor="middle" x="381" y="-77.42" font-family="Helvetica,sans-Serif" font-size="10.00">Printing</text>
</a>
</g>
</g>
<!-- Node1&#45;&gt;Node24 -->
<g id="edge33_Node000001_Node000024" class="edge">
<title>Node1&#45;&gt;Node24</title>
<g id="a_edge33_Node000001_Node000024"><a xlink:title=" ">
<path fill="none" stroke="#63b8ff" d="M110.43,-299.25C125.17,-260.48 169.84,-157.47 244,-109.42 248.12,-106.75 252.46,-104.36 256.94,-102.21"/>
<polygon fill="#63b8ff" stroke="#63b8ff" points="258.55,-105.32 266.34,-98.13 255.77,-98.9 258.55,-105.32"/>
</a>
</g>
</g>
<!-- Node3 -->
<g id="Node000003" class="node">
<title>Node3</title>
<g id="a_Node000003"><a xlink:href="classgerber2coordinatesTEST_1_1Gerberfileinfo.html#a992e1d2ee0ab9a4a8f7856869cd89b25" target="_top" xlink:title=" ">
<polygon fill="white" stroke="#666666" points="810,-616.42 554,-616.42 554,-586.42 810,-586.42 810,-616.42"/>
<text text-anchor="start" x="562" y="-604.42" font-family="Helvetica,sans-Serif" font-size="10.00">gerber2coordinatesTEST.Gerberfileinfo.getlinelist</text>
<text text-anchor="middle" x="682" y="-593.42" font-family="Helvetica,sans-Serif" font-size="10.00">_as_json</text>
</a>
</g>
</g>
<!-- Node2&#45;&gt;Node3 -->
<g id="edge2_Node000002_Node000003" class="edge">
<title>Node2&#45;&gt;Node3</title>
<g id="a_edge2_Node000002_Node000003"><a xlink:title=" ">
<path fill="none" stroke="#63b8ff" d="M495.89,-585.95C511.61,-587.26 527.88,-588.62 543.96,-589.97"/>
<polygon fill="#63b8ff" stroke="#63b8ff" points="543.69,-593.45 553.94,-590.8 544.27,-586.48 543.69,-593.45"/>
</a>
</g>
</g>
<!-- Node9&#45;&gt;Node7 -->
<g id="edge9_Node000009_Node000007" class="edge">
<title>Node9&#45;&gt;Node7</title>
<g id="a_edge9_Node000009_Node000007"><a xlink:title=" ">
<path fill="none" stroke="#63b8ff" d="M507.66,-379.68C660.39,-377.57 925.1,-366.09 1146,-316.42 1197.25,-304.9 1253.77,-281.28 1287.01,-266.18"/>
<polygon fill="#63b8ff" stroke="#63b8ff" points="1288.53,-269.34 1296.15,-261.98 1285.6,-262.98 1288.53,-269.34"/>
</a>
</g>
</g>
<!-- Node10 -->
<g id="Node000010" class="node">
<title>Node10</title>
<g id="a_Node000010"><a xlink:href="classgerber2coordinatesTEST_1_1GerberSettingsList.html#a21318abf396092ec7e533611001a98c0" target="_top" xlink:title=" ">
<polygon fill="white" stroke="#666666" points="767,-482.42 597,-482.42 597,-452.42 767,-452.42 767,-482.42"/>
<text text-anchor="start" x="605" y="-470.42" font-family="Helvetica,sans-Serif" font-size="10.00">gerber2coordinatesTEST.Gerber</text>
<text text-anchor="middle" x="682" y="-459.42" font-family="Helvetica,sans-Serif" font-size="10.00">SettingsList.setmirror</text>
</a>
</g>
</g>
<!-- Node9&#45;&gt;Node10 -->
<g id="edge10_Node000009_Node000010" class="edge">
<title>Node9&#45;&gt;Node10</title>
<g id="a_edge10_Node000009_Node000010"><a xlink:title=" ">
<path fill="none" stroke="#63b8ff" d="M496.93,-388.94C504.27,-391.52 511.37,-394.65 518,-398.42 540.26,-411.09 532.05,-430.22 554,-443.42 564.14,-449.52 575.49,-454.13 587.13,-457.59"/>
<polygon fill="#63b8ff" stroke="#63b8ff" points="586.38,-461.02 596.94,-460.25 588.2,-454.26 586.38,-461.02"/>
</a>
</g>
</g>
<!-- Node11 -->
<g id="Node000011" class="node">
<title>Node11</title>
<g id="a_Node000011"><a xlink:href="classgerber2coordinatesTEST_1_1GerberSettingsList.html#a7f6830eebd42c74fac6d9de8d2a6c44e" target="_top" xlink:title=" ">
<polygon fill="white" stroke="#666666" points="1081,-458.42 911,-458.42 911,-428.42 1081,-428.42 1081,-458.42"/>
<text text-anchor="start" x="919" y="-446.42" font-family="Helvetica,sans-Serif" font-size="10.00">gerber2coordinatesTEST.Gerber</text>
<text text-anchor="middle" x="996" y="-435.42" font-family="Helvetica,sans-Serif" font-size="10.00">SettingsList.setsetting</text>
</a>
</g>
</g>
<!-- Node10&#45;&gt;Node11 -->
<g id="edge11_Node000010_Node000011" class="edge">
<title>Node10&#45;&gt;Node11</title>
<g id="a_edge11_Node000010_Node000011"><a xlink:title=" ">
<path fill="none" stroke="#63b8ff" d="M767.02,-460.96C808.29,-457.79 858.17,-453.95 900.74,-450.67"/>
<polygon fill="#63b8ff" stroke="#63b8ff" points="901.13,-454.16 910.83,-449.9 900.59,-447.18 901.13,-454.16"/>
</a>
</g>
</g>
<!-- Node12 -->
<g id="Node000012" class="node">
<title>Node12</title>
<g id="a_Node000012"><a xlink:href="classgerber2coordinatesTEST_1_1GerberSettingsList.html#a0d6c6ef709817eaa9af58b92a61225b4" target="_top" xlink:title=" ">
<polygon fill="white" stroke="#666666" points="1402,-458.42 1232,-458.42 1232,-428.42 1402,-428.42 1402,-458.42"/>
<text text-anchor="start" x="1240" y="-446.42" font-family="Helvetica,sans-Serif" font-size="10.00">gerber2coordinatesTEST.Gerber</text>
<text text-anchor="middle" x="1317" y="-435.42" font-family="Helvetica,sans-Serif" font-size="10.00">SettingsList.existssetting</text>
</a>
</g>
</g>
<!-- Node11&#45;&gt;Node12 -->
<g id="edge12_Node000011_Node000012" class="edge">
<title>Node11&#45;&gt;Node12</title>
<g id="a_edge12_Node000011_Node000012"><a xlink:title=" ">
<path fill="none" stroke="#63b8ff" d="M1081.23,-443.42C1124.39,-443.42 1177.08,-443.42 1221.6,-443.42"/>
<polygon fill="#63b8ff" stroke="#63b8ff" points="1221.85,-446.92 1231.85,-443.42 1221.85,-439.92 1221.85,-446.92"/>
</a>
</g>
</g>
<!-- Node13&#45;&gt;Node7 -->
<g id="edge14_Node000013_Node000007" class="edge">
<title>Node13&#45;&gt;Node7</title>
<g id="a_edge14_Node000013_Node000007"><a xlink:title=" ">
<path fill="none" stroke="#63b8ff" d="M455.51,-302.97C475.79,-305.8 497.78,-309.05 518,-312.42 534.08,-315.11 537.78,-317.86 554,-319.42 819.19,-344.97 1136.69,-289.33 1261.66,-264.06"/>
<polygon fill="#63b8ff" stroke="#63b8ff" points="1262.64,-267.44 1271.74,-262.01 1261.24,-260.58 1262.64,-267.44"/>
</a>
</g>
</g>
<!-- Node14 -->
<g id="Node000014" class="node">
<title>Node14</title>
<g id="a_Node000014"><a xlink:href="classgerber2coordinatesTEST_1_1GerberSettingsList.html#a036d1751712a1544f8957b4e1a252312" target="_top" xlink:title=" ">
<polygon fill="white" stroke="#666666" points="767,-434.42 597,-434.42 597,-404.42 767,-404.42 767,-434.42"/>
<text text-anchor="start" x="605" y="-422.42" font-family="Helvetica,sans-Serif" font-size="10.00">gerber2coordinatesTEST.Gerber</text>
<text text-anchor="middle" x="682" y="-411.42" font-family="Helvetica,sans-Serif" font-size="10.00">SettingsList.setoffset</text>
</a>
</g>
</g>
<!-- Node13&#45;&gt;Node14 -->
<g id="edge15_Node000013_Node000014" class="edge">
<title>Node13&#45;&gt;Node14</title>
<g id="a_edge15_Node000013_Node000014"><a xlink:title=" ">
<path fill="none" stroke="#63b8ff" d="M495.29,-302.93C503.19,-305.49 510.84,-308.62 518,-312.42 539.12,-323.65 535.13,-337.73 554,-352.42 578.76,-371.71 609.89,-388.23 635.13,-400.05"/>
<polygon fill="#63b8ff" stroke="#63b8ff" points="633.94,-403.35 644.49,-404.34 636.86,-396.99 633.94,-403.35"/>
</a>
</g>
</g>
<!-- Node14&#45;&gt;Node11 -->
<g id="edge16_Node000014_Node000011" class="edge">
<title>Node14&#45;&gt;Node11</title>
<g id="a_edge16_Node000014_Node000011"><a xlink:title=" ">
<path fill="none" stroke="#63b8ff" d="M767.02,-425.89C808.29,-429.06 858.17,-432.9 900.74,-436.17"/>
<polygon fill="#63b8ff" stroke="#63b8ff" points="900.59,-439.67 910.83,-436.95 901.13,-432.69 900.59,-439.67"/>
</a>
</g>
</g>
<!-- Node15&#45;&gt;Node7 -->
<g id="edge18_Node000015_Node000007" class="edge">
<title>Node15&#45;&gt;Node7</title>
<g id="a_edge18_Node000015_Node000007"><a xlink:title=" ">
<path fill="none" stroke="#63b8ff" d="M420.5,-525.02C539.61,-552.38 908.39,-619.45 1146,-467.42 1168.46,-453.05 1165.65,-440.49 1182,-419.42 1224.72,-364.36 1276.74,-300.37 1301.53,-270.07"/>
<polygon fill="#63b8ff" stroke="#63b8ff" points="1304.41,-272.08 1308.03,-262.12 1298.99,-267.64 1304.41,-272.08"/>
</a>
</g>
</g>
<!-- Node16 -->
<g id="Node000016" class="node">
<title>Node16</title>
<g id="a_Node000016"><a xlink:href="classgerber2coordinatesTEST_1_1GerberSettingsList.html#ab52332fb782819fe4b9bfd20f3f3b534" target="_top" xlink:title=" ">
<polygon fill="white" stroke="#666666" points="767,-530.42 597,-530.42 597,-500.42 767,-500.42 767,-530.42"/>
<text text-anchor="start" x="605" y="-518.42" font-family="Helvetica,sans-Serif" font-size="10.00">gerber2coordinatesTEST.Gerber</text>
<text text-anchor="middle" x="682" y="-507.42" font-family="Helvetica,sans-Serif" font-size="10.00">SettingsList.setpadwidth</text>
</a>
</g>
</g>
<!-- Node15&#45;&gt;Node16 -->
<g id="edge19_Node000015_Node000016" class="edge">
<title>Node15&#45;&gt;Node16</title>
<g id="a_edge19_Node000015_Node000016"><a xlink:title=" ">
<path fill="none" stroke="#63b8ff" d="M507.5,-515.42C533.91,-515.42 561.34,-515.42 586.39,-515.42"/>
<polygon fill="#63b8ff" stroke="#63b8ff" points="586.6,-518.92 596.6,-515.42 586.6,-511.92 586.6,-518.92"/>
</a>
</g>
</g>
<!-- Node16&#45;&gt;Node11 -->
<g id="edge20_Node000016_Node000011" class="edge">
<title>Node16&#45;&gt;Node11</title>
<g id="a_edge20_Node000016_Node000011"><a xlink:title=" ">
<path fill="none" stroke="#63b8ff" d="M766.85,-500.4C781.28,-497.58 796.1,-494.54 810,-491.42 850.55,-482.34 895.69,-470.66 931.24,-461.09"/>
<polygon fill="#63b8ff" stroke="#63b8ff" points="932.26,-464.45 941,-458.46 930.43,-457.69 932.26,-464.45"/>
</a>
</g>
</g>
<!-- Node17&#45;&gt;Node7 -->
<g id="edge22_Node000017_Node000007" class="edge">
<title>Node17&#45;&gt;Node7</title>
<g id="a_edge22_Node000017_Node000007"><a xlink:title=" ">
<path fill="none" stroke="#63b8ff" d="M518.06,-255.84C692.45,-255.09 993.5,-253.8 1171.76,-253.04"/>
<polygon fill="#63b8ff" stroke="#63b8ff" points="1172.01,-256.54 1182,-253 1171.98,-249.54 1172.01,-256.54"/>
</a>
</g>
</g>
<!-- Node18 -->
<g id="Node000018" class="node">
<title>Node18</title>
<g id="a_Node000018"><a xlink:href="classgerber2coordinatesTEST_1_1GerberSettingsList.html#ac518ba905ddb1dc5535cc2761685a560" target="_top" xlink:title=" ">
<polygon fill="white" stroke="#666666" points="767,-310.42 597,-310.42 597,-280.42 767,-280.42 767,-310.42"/>
<text text-anchor="start" x="605" y="-298.42" font-family="Helvetica,sans-Serif" font-size="10.00">gerber2coordinatesTEST.Gerber</text>
<text text-anchor="middle" x="682" y="-287.42" font-family="Helvetica,sans-Serif" font-size="10.00">SettingsList.setpolygoninfill</text>
</a>
</g>
</g>
<!-- Node17&#45;&gt;Node18 -->
<g id="edge23_Node000017_Node000018" class="edge">
<title>Node17&#45;&gt;Node18</title>
<g id="a_edge23_Node000017_Node000018"><a xlink:title=" ">
<path fill="none" stroke="#63b8ff" d="M455.14,-265.96C494.84,-271.14 544.35,-277.6 586.89,-283.15"/>
<polygon fill="#63b8ff" stroke="#63b8ff" points="586.61,-286.64 596.98,-284.46 587.52,-279.7 586.61,-286.64"/>
</a>
</g>
</g>
<!-- Node18&#45;&gt;Node11 -->
<g id="edge24_Node000018_Node000011" class="edge">
<title>Node18&#45;&gt;Node11</title>
<g id="a_edge24_Node000018_Node000011"><a xlink:title=" ">
<path fill="none" stroke="#63b8ff" d="M714.63,-310.43C771.51,-337.41 890.99,-394.08 954.04,-423.99"/>
<polygon fill="#63b8ff" stroke="#63b8ff" points="952.75,-427.25 963.28,-428.38 955.75,-420.93 952.75,-427.25"/>
</a>
</g>
</g>
<!-- Node20 -->
<g id="Node000020" class="node">
<title>Node20</title>
<g id="a_Node000020"><a xlink:href="classgerber2coordinatesTEST_1_1Druckerserver.html#a9d206737320c167397df7512cd0b0d40" target="_top" xlink:title=" ">
<polygon fill="white" stroke="#666666" points="797,-124.92 567,-124.92 567,-105.92 797,-105.92 797,-124.92"/>
<text text-anchor="middle" x="682" y="-112.92" font-family="Helvetica,sans-Serif" font-size="10.00">gerber2coordinatesTEST.Druckerserver.print</text>
</a>
</g>
</g>
<!-- Node19&#45;&gt;Node20 -->
<g id="edge26_Node000019_Node000020" class="edge">
<title>Node19&#45;&gt;Node20</title>
<g id="a_edge26_Node000019_Node000020"><a xlink:title=" ">
<path fill="none" stroke="#63b8ff" d="M496.32,-126.54C516.06,-125.35 536.68,-124.11 556.67,-122.91"/>
<polygon fill="#63b8ff" stroke="#63b8ff" points="556.97,-126.4 566.74,-122.3 556.55,-119.41 556.97,-126.4"/>
</a>
</g>
</g>
<!-- Node20&#45;&gt;Node4 -->
<g id="edge30_Node000020_Node000004" class="edge">
<title>Node20&#45;&gt;Node4</title>
<g id="a_edge30_Node000020_Node000004"><a xlink:title=" ">
<path fill="none" stroke="#63b8ff" d="M715.2,-125C747.89,-134.41 800.08,-148.62 846,-157.42 861.91,-160.47 878.87,-163.16 895.43,-165.49"/>
<polygon fill="#63b8ff" stroke="#63b8ff" points="895.3,-169 905.68,-166.89 896.24,-162.07 895.3,-169"/>
</a>
</g>
</g>
<!-- Node20&#45;&gt;Node7 -->
<g id="edge32_Node000020_Node000007" class="edge">
<title>Node20&#45;&gt;Node7</title>
<g id="a_edge32_Node000020_Node000007"><a xlink:title=" ">
<path fill="none" stroke="#63b8ff" d="M696.97,-105.65C724.13,-87.32 786.63,-48.36 846,-34.42 975.8,-3.95 1026.19,24.08 1146,-34.42 1233.22,-77.01 1288.73,-188.37 1308.2,-233.26"/>
<polygon fill="#63b8ff" stroke="#63b8ff" points="1304.98,-234.62 1312.09,-242.47 1311.42,-231.9 1304.98,-234.62"/>
</a>
</g>
</g>
<!-- Node21 -->
<g id="Node000021" class="node">
<title>Node21</title>
<g id="a_Node000021"><a xlink:href="classgerber2coordinatesTEST_1_1Druckerserver.html#a7680188ef68e32230ee1173f1e9f7a58" target="_top" xlink:title=" ">
<polygon fill="white" stroke="#666666" points="1120,-148.92 872,-148.92 872,-129.92 1120,-129.92 1120,-148.92"/>
<text text-anchor="middle" x="996" y="-136.92" font-family="Helvetica,sans-Serif" font-size="10.00">gerber2coordinatesTEST.Druckerserver.endprint</text>
</a>
</g>
</g>
<!-- Node20&#45;&gt;Node21 -->
<g id="edge27_Node000020_Node000021" class="edge">
<title>Node20&#45;&gt;Node21</title>
<g id="a_edge27_Node000020_Node000021"><a xlink:title=" ">
<path fill="none" stroke="#63b8ff" d="M797.41,-124.22C818.35,-125.84 840.37,-127.53 861.81,-129.18"/>
<polygon fill="#63b8ff" stroke="#63b8ff" points="861.7,-132.68 871.94,-129.96 862.24,-125.7 861.7,-132.68"/>
</a>
</g>
</g>
<!-- Node22 -->
<g id="Node000022" class="node">
<title>Node22</title>
<g id="a_Node000022"><a xlink:href="classgerber2coordinatesTEST_1_1Gerberfileinfo.html#a4334be9709c2cd8a60d17974c0d73e35" target="_top" xlink:title="Nächste Linie bekommen, wird der Reihe nach ausgegeben.">
<polygon fill="white" stroke="#666666" points="1107.5,-111.42 884.5,-111.42 884.5,-81.42 1107.5,-81.42 1107.5,-111.42"/>
<text text-anchor="start" x="892.5" y="-99.42" font-family="Helvetica,sans-Serif" font-size="10.00">gerber2coordinatesTEST.Gerberfileinfo.get</text>
<text text-anchor="middle" x="996" y="-88.42" font-family="Helvetica,sans-Serif" font-size="10.00">_next_line</text>
</a>
</g>
</g>
<!-- Node20&#45;&gt;Node22 -->
<g id="edge29_Node000020_Node000022" class="edge">
<title>Node20&#45;&gt;Node22</title>
<g id="a_edge29_Node000020_Node000022"><a xlink:title=" ">
<path fill="none" stroke="#63b8ff" d="M797.41,-108.46C822.43,-106.93 849,-105.31 874.26,-103.78"/>
<polygon fill="#63b8ff" stroke="#63b8ff" points="874.48,-107.27 884.25,-103.17 874.05,-100.28 874.48,-107.27"/>
</a>
</g>
</g>
<!-- Node23 -->
<g id="Node000023" class="node">
<title>Node23</title>
<g id="a_Node000023"><a xlink:href="classgerber2coordinatesTEST_1_1Gerbertoolbox.html#ac8029c2807c958525e9cfe87ea3df43e" target="_top" xlink:title=" ">
<polygon fill="white" stroke="#666666" points="1144,-62.92 848,-62.92 848,-43.92 1144,-43.92 1144,-62.92"/>
<text text-anchor="middle" x="996" y="-50.92" font-family="Helvetica,sans-Serif" font-size="10.00">gerber2coordinatesTEST.Gerbertoolbox.getrelativecoords</text>
</a>
</g>
</g>
<!-- Node20&#45;&gt;Node23 -->
<g id="edge31_Node000020_Node000023" class="edge">
<title>Node20&#45;&gt;Node23</title>
<g id="a_edge31_Node000020_Node000023"><a xlink:title=" ">
<path fill="none" stroke="#63b8ff" d="M714.27,-105.87C746.88,-96.21 799.61,-81.46 846,-72.42 861.79,-69.35 878.63,-66.65 895.08,-64.33"/>
<polygon fill="#63b8ff" stroke="#63b8ff" points="895.84,-67.76 905.27,-62.93 894.89,-60.82 895.84,-67.76"/>
</a>
</g>
</g>
<!-- Node21&#45;&gt;Node7 -->
<g id="edge28_Node000021_Node000007" class="edge">
<title>Node21&#45;&gt;Node7</title>
<g id="a_edge28_Node000021_Node000007"><a xlink:title=" ">
<path fill="none" stroke="#63b8ff" d="M1113.07,-148.94C1124.33,-151.21 1135.47,-153.99 1146,-157.42 1203.64,-176.2 1263.93,-215.28 1294.89,-237.01"/>
<polygon fill="#63b8ff" stroke="#63b8ff" points="1292.99,-239.95 1303.16,-242.9 1297.05,-234.25 1292.99,-239.95"/>
</a>
</g>
</g>
</g>
</svg>
