<?xml version="1.0" encoding="UTF-8" standalone="no"?>
<!DOCTYPE svg PUBLIC "-//W3C//DTD SVG 1.1//EN"
 "http://www.w3.org/Graphics/SVG/1.1/DTD/svg11.dtd">
<!-- Generated by graphviz version 2.43.0 (0)
 -->
<!-- Title: gerber2coordinatesTEST.Gerberfileinfo.Gerberfileinfo Pages: 1 -->
<svg width="1447pt" height="562pt"
 viewBox="0.00 0.00 1447.00 562.00" xmlns="http://www.w3.org/2000/svg" xmlns:xlink="http://www.w3.org/1999/xlink">
<g id="graph0" class="graph" transform="scale(1 1) rotate(0) translate(4 558)">
<title>gerber2coordinatesTEST.Gerberfileinfo.Gerberfileinfo</title>
<!-- Node1 -->
<g id="Node000001" class="node">
<title>Node1</title>
<g id="a_Node000001"><a xlink:title=" ">
<polygon fill="#999999" stroke="#666666" points="207,-293.5 0,-293.5 0,-263.5 207,-263.5 207,-293.5"/>
<text text-anchor="start" x="8" y="-281.5" font-family="Helvetica,sans-Serif" font-size="10.00">gerber2coordinatesTEST.Gerberfileinfo.</text>
<text text-anchor="middle" x="103.5" y="-270.5" font-family="Helvetica,sans-Serif" font-size="10.00">Gerberfileinfo</text>
</a>
</g>
</g>
<!-- Node2 -->
<g id="Node000002" class="node">
<title>Node2</title>
<g id="a_Node000002"><a xlink:href="classgerber2coordinatesTEST_1_1Gerberfileinfo.html#a756d07194ea904f77d9d50b3717c796c" target="_top" xlink:title=" ">
<polygon fill="white" stroke="#666666" points="450,-317.5 243,-317.5 243,-287.5 450,-287.5 450,-317.5"/>
<text text-anchor="start" x="251" y="-305.5" font-family="Helvetica,sans-Serif" font-size="10.00">gerber2coordinatesTEST.Gerberfileinfo.</text>
<text text-anchor="middle" x="346.5" y="-294.5" font-family="Helvetica,sans-Serif" font-size="10.00">Initgerberfile</text>
</a>
</g>
</g>
<!-- Node1&#45;&gt;Node2 -->
<g id="edge1_Node000001_Node000002" class="edge">
<title>Node1&#45;&gt;Node2</title>
<g id="a_edge1_Node000001_Node000002"><a xlink:title=" ">
<path fill="none" stroke="#63b8ff" d="M207.06,-288.71C215.53,-289.56 224.12,-290.41 232.66,-291.26"/>
<polygon fill="#63b8ff" stroke="#63b8ff" points="232.35,-294.75 242.65,-292.26 233.05,-287.78 232.35,-294.75"/>
</a>
</g>
</g>
<!-- Node30 -->
<g id="Node000030" class="node">
<title>Node30</title>
<g id="a_Node000030"><a xlink:href="classgerber2coordinatesTEST_1_1GerberSettingsList.html#a4fc6171a4665f0c489ec11b55afccc90" target="_top" xlink:title=" ">
<polygon fill="white" stroke="#666666" points="436,-269.5 257,-269.5 257,-239.5 436,-239.5 436,-269.5"/>
<text text-anchor="start" x="265" y="-257.5" font-family="Helvetica,sans-Serif" font-size="10.00">gerber2coordinatesTEST.Gerber</text>
<text text-anchor="middle" x="346.5" y="-246.5" font-family="Helvetica,sans-Serif" font-size="10.00">SettingsList.setonchangecallback</text>
</a>
</g>
</g>
<!-- Node1&#45;&gt;Node30 -->
<g id="edge35_Node000001_Node000030" class="edge">
<title>Node1&#45;&gt;Node30</title>
<g id="a_edge35_Node000001_Node000030"><a xlink:title=" ">
<path fill="none" stroke="#63b8ff" d="M207.06,-268.29C220.1,-266.99 233.42,-265.66 246.41,-264.37"/>
<polygon fill="#63b8ff" stroke="#63b8ff" points="247.13,-267.81 256.74,-263.34 246.44,-260.85 247.13,-267.81"/>
</a>
</g>
</g>
<!-- Node3 -->
<g id="Node000003" class="node">
<title>Node3</title>
<g id="a_Node000003"><a xlink:href="classgerber2coordinatesTEST_1_1Gerberfileinfo.html#a46b55c255eb6f4f9a1fcb07874fc7324" target="_top" xlink:title="Linien zwischen den Leiterbahnen erstellen, welche vom Drucker abgefahren werden, ohne gezeichnet zu ...">
<polygon fill="white" stroke="#666666" points="783,-554 506,-554 506,-535 783,-535 783,-554"/>
<text text-anchor="middle" x="644.5" y="-542" font-family="Helvetica,sans-Serif" font-size="10.00">gerber2coordinatesTEST.Gerberfileinfo.calculateroute</text>
</a>
</g>
</g>
<!-- Node2&#45;&gt;Node3 -->
<g id="edge2_Node000002_Node000003" class="edge">
<title>Node2&#45;&gt;Node3</title>
<g id="a_edge2_Node000002_Node000003"><a xlink:title=" ">
<path fill="none" stroke="#63b8ff" d="M351.81,-317.8C364.46,-359.52 405.7,-475.55 486,-526.5 489.43,-528.68 492.99,-530.66 496.65,-532.47"/>
<polygon fill="#63b8ff" stroke="#63b8ff" points="495.39,-535.74 505.95,-536.62 498.24,-529.35 495.39,-535.74"/>
</a>
</g>
</g>
<!-- Node4 -->
<g id="Node000004" class="node">
<title>Node4</title>
<g id="a_Node000004"><a xlink:href="classgerber2coordinatesTEST_1_1Gerberfileinfo.html#acd09aaf89a0109e953cac5c74b166bd9" target="_top" xlink:title=" ">
<polygon fill="white" stroke="#666666" points="783.5,-517 505.5,-517 505.5,-498 783.5,-498 783.5,-517"/>
<text text-anchor="middle" x="644.5" y="-505" font-family="Helvetica,sans-Serif" font-size="10.00">gerber2coordinatesTEST.Gerberfileinfo.cleargerberfile</text>
</a>
</g>
</g>
<!-- Node2&#45;&gt;Node4 -->
<g id="edge3_Node000002_Node000004" class="edge">
<title>Node2&#45;&gt;Node4</title>
<g id="a_edge3_Node000002_Node000004"><a xlink:title=" ">
<path fill="none" stroke="#63b8ff" d="M353.6,-317.68C369.28,-354.48 414.8,-448.4 486,-489.5 489.13,-491.31 492.36,-492.98 495.66,-494.52"/>
<polygon fill="#63b8ff" stroke="#63b8ff" points="494.59,-497.87 505.16,-498.53 497.31,-491.42 494.59,-497.87"/>
</a>
</g>
</g>
<!-- Node5 -->
<g id="Node000005" class="node">
<title>Node5</title>
<g id="a_Node000005"><a xlink:href="classgerber2coordinatesTEST_1_1Gerberfileinfo.html#a2f41bfcda0c2509431f4a0746543c651" target="_top" xlink:title="Konvertierung der Zeilen aus dem Gerberfile in GerberLine Objekte.">
<polygon fill="white" stroke="#666666" points="798.5,-480 490.5,-480 490.5,-461 798.5,-461 798.5,-480"/>
<text text-anchor="middle" x="644.5" y="-468" font-family="Helvetica,sans-Serif" font-size="10.00">gerber2coordinatesTEST.Gerberfileinfo.converttogerberlines</text>
</a>
</g>
</g>
<!-- Node2&#45;&gt;Node5 -->
<g id="edge4_Node000002_Node000005" class="edge">
<title>Node2&#45;&gt;Node5</title>
<g id="a_edge4_Node000002_Node000005"><a xlink:title=" ">
<path fill="none" stroke="#63b8ff" d="M356.26,-317.7C375.28,-349.11 423.73,-420.91 486,-452.5 489.56,-454.3 493.22,-455.96 496.95,-457.48"/>
<polygon fill="#63b8ff" stroke="#63b8ff" points="495.8,-460.79 506.4,-460.99 498.24,-454.23 495.8,-460.79"/>
</a>
</g>
</g>
<!-- Node6 -->
<g id="Node000006" class="node">
<title>Node6</title>
<g id="a_Node000006"><a xlink:href="classgerber2coordinatesTEST_1_1Gerberfileinfo.html#a964606e16064f4673f65043f0a314d0a" target="_top" xlink:title=" ">
<polygon fill="white" stroke="#666666" points="803,-443 486,-443 486,-424 803,-424 803,-443"/>
<text text-anchor="middle" x="644.5" y="-431" font-family="Helvetica,sans-Serif" font-size="10.00">gerber2coordinatesTEST.Gerberfileinfo.correctnegativeoffsets</text>
</a>
</g>
</g>
<!-- Node2&#45;&gt;Node6 -->
<g id="edge5_Node000002_Node000006" class="edge">
<title>Node2&#45;&gt;Node6</title>
<g id="a_edge5_Node000002_Node000006"><a xlink:title=" ">
<path fill="none" stroke="#63b8ff" d="M360.61,-317.79C383.27,-343.05 432.53,-392.95 486,-415.5 490.79,-417.52 495.73,-419.34 500.78,-420.98"/>
<polygon fill="#63b8ff" stroke="#63b8ff" points="500,-424.4 510.59,-423.91 502.01,-417.69 500,-424.4"/>
</a>
</g>
</g>
<!-- Node7 -->
<g id="Node000007" class="node">
<title>Node7</title>
<g id="a_Node000007"><a xlink:href="classgerber2coordinatesTEST_1_1Gerberfileinfo.html#a91e20a7c0ad8148d3c7ad6daa6de4e4e" target="_top" xlink:title=" ">
<polygon fill="white" stroke="#666666" points="789.5,-406 499.5,-406 499.5,-387 789.5,-387 789.5,-406"/>
<text text-anchor="middle" x="644.5" y="-394" font-family="Helvetica,sans-Serif" font-size="10.00">gerber2coordinatesTEST.Gerberfileinfo.fillpadsandpoints</text>
</a>
</g>
</g>
<!-- Node2&#45;&gt;Node7 -->
<g id="edge6_Node000002_Node000007" class="edge">
<title>Node2&#45;&gt;Node7</title>
<g id="a_edge6_Node000002_Node000007"><a xlink:title=" ">
<path fill="none" stroke="#63b8ff" d="M368.85,-317.69C395.07,-335.49 441.57,-364.37 486,-378.5 493.65,-380.93 501.59,-383.04 509.67,-384.87"/>
<polygon fill="#63b8ff" stroke="#63b8ff" points="509.07,-388.32 519.58,-386.97 510.52,-381.48 509.07,-388.32"/>
</a>
</g>
</g>
<!-- Node12 -->
<g id="Node000012" class="node">
<title>Node12</title>
<g id="a_Node000012"><a xlink:href="classgerber2coordinatesTEST_1_1Gerberfileinfo.html#a35d701d89e2b7ba549132f359e8b068d" target="_top" xlink:title=" ">
<polygon fill="white" stroke="#666666" points="798.5,-369 490.5,-369 490.5,-350 798.5,-350 798.5,-369"/>
<text text-anchor="middle" x="644.5" y="-357" font-family="Helvetica,sans-Serif" font-size="10.00">gerber2coordinatesTEST.Gerberfileinfo.fillpolygonswithlines</text>
</a>
</g>
</g>
<!-- Node2&#45;&gt;Node12 -->
<g id="edge11_Node000002_Node000012" class="edge">
<title>Node2&#45;&gt;Node12</title>
<g id="a_edge11_Node000002_Node000012"><a xlink:title=" ">
<path fill="none" stroke="#63b8ff" d="M405.9,-317.55C430.52,-323.6 459.56,-330.34 486,-335.5 510.82,-340.34 537.99,-344.78 562.67,-348.49"/>
<polygon fill="#63b8ff" stroke="#63b8ff" points="562.32,-351.98 572.72,-349.99 563.34,-345.06 562.32,-351.98"/>
</a>
</g>
</g>
<!-- Node14 -->
<g id="Node000014" class="node">
<title>Node14</title>
<g id="a_Node000014"><a xlink:href="classgerber2coordinatesTEST_1_1GerberSettingsList.html#a0bcf32cdcdaf083054b70969b9c36972" target="_top" xlink:title=" ">
<polygon fill="white" stroke="#666666" points="1059,-326.5 889,-326.5 889,-296.5 1059,-296.5 1059,-326.5"/>
<text text-anchor="start" x="897" y="-314.5" font-family="Helvetica,sans-Serif" font-size="10.00">gerber2coordinatesTEST.Gerber</text>
<text text-anchor="middle" x="974" y="-303.5" font-family="Helvetica,sans-Serif" font-size="10.00">SettingsList.getmirror</text>
</a>
</g>
</g>
<!-- Node2&#45;&gt;Node14 -->
<g id="edge15_Node000002_Node000014" class="edge">
<title>Node2&#45;&gt;Node14</title>
<g id="a_edge15_Node000002_Node000014"><a xlink:title=" ">
<path fill="none" stroke="#63b8ff" d="M450.09,-303.98C569.02,-305.69 763.41,-308.48 878.7,-310.14"/>
<polygon fill="#63b8ff" stroke="#63b8ff" points="878.86,-313.65 888.91,-310.29 878.96,-306.65 878.86,-313.65"/>
</a>
</g>
</g>
<!-- Node15 -->
<g id="Node000015" class="node">
<title>Node15</title>
<g id="a_Node000015"><a xlink:href="classgerber2coordinatesTEST_1_1Gerberfileinfo.html#a08b324bafb8e1f416642087a26fcc934" target="_top" xlink:title="Unit aus dem Gerberfile auslesen.">
<polygon fill="white" stroke="#666666" points="765.5,-256 523.5,-256 523.5,-237 765.5,-237 765.5,-256"/>
<text text-anchor="middle" x="644.5" y="-244" font-family="Helvetica,sans-Serif" font-size="10.00">gerber2coordinatesTEST.Gerberfileinfo.getunit</text>
</a>
</g>
</g>
<!-- Node2&#45;&gt;Node15 -->
<g id="edge17_Node000002_Node000015" class="edge">
<title>Node2&#45;&gt;Node15</title>
<g id="a_edge17_Node000002_Node000015"><a xlink:title=" ">
<path fill="none" stroke="#63b8ff" d="M416.71,-287.46C427.9,-284.69 439.31,-281.67 450,-278.5 466.31,-273.66 469.45,-269.43 486,-265.5 499.15,-262.37 513.05,-259.75 526.93,-257.55"/>
<polygon fill="#63b8ff" stroke="#63b8ff" points="527.66,-260.98 537.02,-256.02 526.61,-254.06 527.66,-260.98"/>
</a>
</g>
</g>
<!-- Node16 -->
<g id="Node000016" class="node">
<title>Node16</title>
<g id="a_Node000016"><a xlink:href="classgerber2coordinatesTEST_1_1Gerberfileinfo.html#ae20e9e51930f42daf1f7eb229f415367" target="_top" xlink:title=" ">
<polygon fill="white" stroke="#666666" points="786.5,-219 502.5,-219 502.5,-200 786.5,-200 786.5,-219"/>
<text text-anchor="middle" x="644.5" y="-207" font-family="Helvetica,sans-Serif" font-size="10.00">gerber2coordinatesTEST.Gerberfileinfo.mirrorgerberfile</text>
</a>
</g>
</g>
<!-- Node2&#45;&gt;Node16 -->
<g id="edge18_Node000002_Node000016" class="edge">
<title>Node2&#45;&gt;Node16</title>
<g id="a_edge18_Node000002_Node000016"><a xlink:title=" ">
<path fill="none" stroke="#63b8ff" d="M433.39,-287.44C439.23,-284.91 444.83,-281.95 450,-278.5 472.78,-263.3 462.42,-242.42 486,-228.5 489.28,-226.57 492.66,-224.78 496.12,-223.15"/>
<polygon fill="#63b8ff" stroke="#63b8ff" points="497.66,-226.29 505.48,-219.13 494.91,-219.86 497.66,-226.29"/>
</a>
</g>
</g>
<!-- Node17 -->
<g id="Node000017" class="node">
<title>Node17</title>
<g id="a_Node000017"><a xlink:href="classgerber2coordinatesTEST_1_1Gerberfileinfo.html#ac8d7417d6b59429f86c4116bfe6f3343" target="_top" xlink:title=" ">
<polygon fill="white" stroke="#666666" points="776,-293 513,-293 513,-274 776,-274 776,-293"/>
<text text-anchor="middle" x="644.5" y="-281" font-family="Helvetica,sans-Serif" font-size="10.00">gerber2coordinatesTEST.Gerberfileinfo.movetopad</text>
</a>
</g>
</g>
<!-- Node2&#45;&gt;Node17 -->
<g id="edge19_Node000002_Node000017" class="edge">
<title>Node2&#45;&gt;Node17</title>
<g id="a_edge19_Node000002_Node000017"><a xlink:title=" ">
<path fill="none" stroke="#63b8ff" d="M450.2,-295.91C467.09,-294.82 484.85,-293.68 502.47,-292.55"/>
<polygon fill="#63b8ff" stroke="#63b8ff" points="503.08,-296.02 512.83,-291.89 502.63,-289.04 503.08,-296.02"/>
</a>
</g>
</g>
<!-- Node21 -->
<g id="Node000021" class="node">
<title>Node21</title>
<g id="a_Node000021"><a xlink:href="classgerber2coordinatesTEST_1_1Gerberfileinfo.html#ae138707b86ad38df4a921d19e46ca2b2" target="_top" xlink:title="Alle Kommentaare aus dem Gerberfile entfernen.">
<polygon fill="white" stroke="#666666" points="767,-181.5 522,-181.5 522,-151.5 767,-151.5 767,-181.5"/>
<text text-anchor="start" x="530" y="-169.5" font-family="Helvetica,sans-Serif" font-size="10.00">gerber2coordinatesTEST.Gerberfileinfo.remove</text>
<text text-anchor="middle" x="644.5" y="-158.5" font-family="Helvetica,sans-Serif" font-size="10.00">_comments</text>
</a>
</g>
</g>
<!-- Node2&#45;&gt;Node21 -->
<g id="edge24_Node000002_Node000021" class="edge">
<title>Node2&#45;&gt;Node21</title>
<g id="a_edge24_Node000002_Node000021"><a xlink:title=" ">
<path fill="none" stroke="#63b8ff" d="M436.82,-287.45C441.52,-284.89 445.96,-281.93 450,-278.5 481.89,-251.41 453.15,-217.42 486,-191.5 493.99,-185.2 502.93,-180.19 512.38,-176.24"/>
<polygon fill="#63b8ff" stroke="#63b8ff" points="513.86,-179.42 521.99,-172.62 511.4,-172.87 513.86,-179.42"/>
</a>
</g>
</g>
<!-- Node22 -->
<g id="Node000022" class="node">
<title>Node22</title>
<g id="a_Node000022"><a xlink:href="classgerber2coordinatesTEST_1_1Gerberfileinfo.html#a8759fb123bde312ef2cbdaac2ad2032c" target="_top" xlink:title=" ">
<polygon fill="white" stroke="#666666" points="792,-133 497,-133 497,-114 792,-114 792,-133"/>
<text text-anchor="middle" x="644.5" y="-121" font-family="Helvetica,sans-Serif" font-size="10.00">gerber2coordinatesTEST.Gerberfileinfo.removeduplicates</text>
</a>
</g>
</g>
<!-- Node2&#45;&gt;Node22 -->
<g id="edge25_Node000002_Node000022" class="edge">
<title>Node2&#45;&gt;Node22</title>
<g id="a_edge25_Node000002_Node000022"><a xlink:title=" ">
<path fill="none" stroke="#63b8ff" d="M438.32,-287.5C442.53,-284.92 446.46,-281.94 450,-278.5 494.84,-234.93 438.83,-183.54 486,-142.5 487.39,-141.29 488.82,-140.13 490.28,-139.01"/>
<polygon fill="#63b8ff" stroke="#63b8ff" points="492.64,-141.65 498.98,-133.16 488.73,-135.84 492.64,-141.65"/>
</a>
</g>
</g>
<!-- Node23 -->
<g id="Node000023" class="node">
<title>Node23</title>
<g id="a_Node000023"><a xlink:href="classgerber2coordinatesTEST_1_1Gerberfileinfo.html#a2d0e089c433ced29af13ae3505d0ebc5" target="_top" xlink:title="Linien der Reihe nach sortieren, damit der Drucker nicht hin und her muss.">
<polygon fill="white" stroke="#666666" points="769,-96 520,-96 520,-77 769,-77 769,-96"/>
<text text-anchor="middle" x="644.5" y="-84" font-family="Helvetica,sans-Serif" font-size="10.00">gerber2coordinatesTEST.Gerberfileinfo.sortlines</text>
</a>
</g>
</g>
<!-- Node2&#45;&gt;Node23 -->
<g id="edge26_Node000002_Node000023" class="edge">
<title>Node2&#45;&gt;Node23</title>
<g id="a_edge26_Node000002_Node000023"><a xlink:title=" ">
<path fill="none" stroke="#63b8ff" d="M439.01,-287.43C442.98,-284.86 446.68,-281.9 450,-278.5 504.84,-222.28 428.15,-158.62 486,-105.5 493.23,-98.86 501.49,-93.71 510.37,-89.74"/>
<polygon fill="#63b8ff" stroke="#63b8ff" points="511.79,-92.95 519.82,-86.04 509.23,-86.43 511.79,-92.95"/>
</a>
</g>
</g>
<!-- Node28 -->
<g id="Node000028" class="node">
<title>Node28</title>
<g id="a_Node000028"><a xlink:href="classgerber2coordinatesTEST_1_1Gerberfileinfo.html#a9b409938f8afa89a7625ed59f86e3dd6" target="_top" xlink:title="Start und Enden vertauschen, damit die nächste Linie dort anfängt wo die vorherige aufhört und die op...">
<polygon fill="white" stroke="#666666" points="769.5,-56 519.5,-56 519.5,-37 769.5,-37 769.5,-56"/>
<text text-anchor="middle" x="644.5" y="-44" font-family="Helvetica,sans-Serif" font-size="10.00">gerber2coordinatesTEST.Gerberfileinfo.turnlines</text>
</a>
</g>
</g>
<!-- Node2&#45;&gt;Node28 -->
<g id="edge32_Node000002_Node000028" class="edge">
<title>Node2&#45;&gt;Node28</title>
<g id="a_edge32_Node000002_Node000028"><a xlink:title=" ">
<path fill="none" stroke="#63b8ff" d="M439.61,-287.27C443.37,-284.73 446.87,-281.83 450,-278.5 515.19,-209.21 417.52,-133.53 486,-67.5 493.07,-60.68 501.23,-55.35 510.03,-51.23"/>
<polygon fill="#63b8ff" stroke="#63b8ff" points="511.5,-54.41 519.41,-47.36 508.83,-47.94 511.5,-54.41"/>
</a>
</g>
</g>
<!-- Node8 -->
<g id="Node000008" class="node">
<title>Node8</title>
<g id="a_Node000008"><a xlink:href="classgerber2coordinatesTEST_1_1GerberSettingsList.html#a547dd3499bfb7480d52fda231ebc3488" target="_top" xlink:title=" ">
<polygon fill="white" stroke="#666666" points="1059,-460.5 889,-460.5 889,-430.5 1059,-430.5 1059,-460.5"/>
<text text-anchor="start" x="897" y="-448.5" font-family="Helvetica,sans-Serif" font-size="10.00">gerber2coordinatesTEST.Gerber</text>
<text text-anchor="middle" x="974" y="-437.5" font-family="Helvetica,sans-Serif" font-size="10.00">SettingsList.getpadwidth</text>
</a>
</g>
</g>
<!-- Node7&#45;&gt;Node8 -->
<g id="edge7_Node000007_Node000008" class="edge">
<title>Node7&#45;&gt;Node8</title>
<g id="a_edge7_Node000007_Node000008"><a xlink:title=" ">
<path fill="none" stroke="#63b8ff" d="M731.44,-406.01C754.7,-408.81 779.84,-412.06 803,-415.5 811.23,-416.72 844.31,-422.53 879.14,-428.71"/>
<polygon fill="#63b8ff" stroke="#63b8ff" points="878.53,-432.16 888.99,-430.47 879.75,-425.27 878.53,-432.16"/>
</a>
</g>
</g>
<!-- Node10 -->
<g id="Node000010" class="node">
<title>Node10</title>
<g id="a_Node000010"><a xlink:href="classgerber2coordinatesTEST_1_1Gerbertoolbox.html#a9c535ff4a74b677aed43f88b2626b30e" target="_top" xlink:title=" ">
<polygon fill="white" stroke="#666666" points="1093.5,-412 854.5,-412 854.5,-393 1093.5,-393 1093.5,-412"/>
<text text-anchor="middle" x="974" y="-400" font-family="Helvetica,sans-Serif" font-size="10.00">gerber2coordinatesTEST.Gerbertoolbox.getXY</text>
</a>
</g>
</g>
<!-- Node7&#45;&gt;Node10 -->
<g id="edge9_Node000007_Node000010" class="edge">
<title>Node7&#45;&gt;Node10</title>
<g id="a_edge9_Node000007_Node000010"><a xlink:title=" ">
<path fill="none" stroke="#63b8ff" d="M789.62,-399.14C807.7,-399.47 826.1,-399.81 843.92,-400.14"/>
<polygon fill="#63b8ff" stroke="#63b8ff" points="844.28,-403.64 854.34,-400.33 844.41,-396.64 844.28,-403.64"/>
</a>
</g>
</g>
<!-- Node9 -->
<g id="Node000009" class="node">
<title>Node9</title>
<g id="a_Node000009"><a xlink:href="classgerber2coordinatesTEST_1_1GerberSettingsList.html#a8b0449100b4f26e9d131a8f127ad3d1c" target="_top" xlink:title=" ">
<polygon fill="white" stroke="#666666" points="1377,-350.5 1207,-350.5 1207,-320.5 1377,-320.5 1377,-350.5"/>
<text text-anchor="start" x="1215" y="-338.5" font-family="Helvetica,sans-Serif" font-size="10.00">gerber2coordinatesTEST.Gerber</text>
<text text-anchor="middle" x="1292" y="-327.5" font-family="Helvetica,sans-Serif" font-size="10.00">SettingsList.getsetting</text>
</a>
</g>
</g>
<!-- Node8&#45;&gt;Node9 -->
<g id="edge8_Node000008_Node000009" class="edge">
<title>Node8&#45;&gt;Node9</title>
<g id="a_edge8_Node000008_Node000009"><a xlink:title=" ">
<path fill="none" stroke="#63b8ff" d="M1059.17,-438.65C1076.32,-435.02 1093.76,-429.59 1109,-421.5 1129.26,-410.74 1125.58,-396.72 1145,-384.5 1166.18,-371.18 1191.4,-361.04 1214.86,-353.55"/>
<polygon fill="#63b8ff" stroke="#63b8ff" points="1215.91,-356.89 1224.44,-350.6 1213.85,-350.2 1215.91,-356.89"/>
</a>
</g>
</g>
<!-- Node11 -->
<g id="Node000011" class="node">
<title>Node11</title>
<g id="a_Node000011"><a xlink:href="classgerber2coordinatesTEST_1_1Gerbertoolbox.html#aa745b83fde9503e2dbd3a27d2f05d912" target="_top" xlink:title=" ">
<polygon fill="white" stroke="#666666" points="1439,-412 1145,-412 1145,-393 1439,-393 1439,-412"/>
<text text-anchor="middle" x="1292" y="-400" font-family="Helvetica,sans-Serif" font-size="10.00">gerber2coordinatesTEST.Gerbertoolbox.getcharsbetween</text>
</a>
</g>
</g>
<!-- Node10&#45;&gt;Node11 -->
<g id="edge10_Node000010_Node000011" class="edge">
<title>Node10&#45;&gt;Node11</title>
<g id="a_edge10_Node000010_Node000011"><a xlink:title=" ">
<path fill="none" stroke="#63b8ff" d="M1093.57,-402.5C1107.02,-402.5 1120.89,-402.5 1134.74,-402.5"/>
<polygon fill="#63b8ff" stroke="#63b8ff" points="1134.81,-406 1144.81,-402.5 1134.81,-399 1134.81,-406"/>
</a>
</g>
</g>
<!-- Node12&#45;&gt;Node10 -->
<g id="edge14_Node000012_Node000010" class="edge">
<title>Node12&#45;&gt;Node10</title>
<g id="a_edge14_Node000012_Node000010"><a xlink:title=" ">
<path fill="none" stroke="#63b8ff" d="M727.28,-369.05C751.66,-371.98 778.42,-375.28 803,-378.5 812.52,-379.75 855.54,-385.82 895.91,-391.54"/>
<polygon fill="#63b8ff" stroke="#63b8ff" points="895.44,-395.01 905.83,-392.95 896.42,-388.08 895.44,-395.01"/>
</a>
</g>
</g>
<!-- Node13 -->
<g id="Node000013" class="node">
<title>Node13</title>
<g id="a_Node000013"><a xlink:href="classgerber2coordinatesTEST_1_1GerberSettingsList.html#a64ed062513aabf62d6a1533c98f3d0a3" target="_top" xlink:title=" ">
<polygon fill="white" stroke="#666666" points="1059,-374.5 889,-374.5 889,-344.5 1059,-344.5 1059,-374.5"/>
<text text-anchor="start" x="897" y="-362.5" font-family="Helvetica,sans-Serif" font-size="10.00">gerber2coordinatesTEST.Gerber</text>
<text text-anchor="middle" x="974" y="-351.5" font-family="Helvetica,sans-Serif" font-size="10.00">SettingsList.getpolygoninfill</text>
</a>
</g>
</g>
<!-- Node12&#45;&gt;Node13 -->
<g id="edge12_Node000012_Node000013" class="edge">
<title>Node12&#45;&gt;Node13</title>
<g id="a_edge12_Node000012_Node000013"><a xlink:title=" ">
<path fill="none" stroke="#63b8ff" d="M798.7,-359.5C825.92,-359.5 853.52,-359.5 878.49,-359.5"/>
<polygon fill="#63b8ff" stroke="#63b8ff" points="878.66,-363 888.66,-359.5 878.66,-356 878.66,-363"/>
</a>
</g>
</g>
<!-- Node13&#45;&gt;Node9 -->
<g id="edge13_Node000013_Node000009" class="edge">
<title>Node13&#45;&gt;Node9</title>
<g id="a_edge13_Node000013_Node000009"><a xlink:title=" ">
<path fill="none" stroke="#63b8ff" d="M1059.27,-353.1C1101.67,-349.88 1153.21,-345.96 1196.91,-342.65"/>
<polygon fill="#63b8ff" stroke="#63b8ff" points="1197.26,-346.13 1206.97,-341.88 1196.73,-339.15 1197.26,-346.13"/>
</a>
</g>
</g>
<!-- Node14&#45;&gt;Node9 -->
<g id="edge16_Node000014_Node000009" class="edge">
<title>Node14&#45;&gt;Node9</title>
<g id="a_edge16_Node000014_Node000009"><a xlink:title=" ">
<path fill="none" stroke="#63b8ff" d="M1059.27,-317.9C1101.67,-321.12 1153.21,-325.04 1196.91,-328.35"/>
<polygon fill="#63b8ff" stroke="#63b8ff" points="1196.73,-331.85 1206.97,-329.12 1197.26,-324.87 1196.73,-331.85"/>
</a>
</g>
</g>
<!-- Node18 -->
<g id="Node000018" class="node">
<title>Node18</title>
<g id="a_Node000018"><a xlink:href="classgerber2coordinatesTEST_1_1GerberLine.html#ab55117fe7c0a5244530079a0e64263eb" target="_top" xlink:title=" ">
<polygon fill="white" stroke="#666666" points="1059,-230.5 889,-230.5 889,-200.5 1059,-200.5 1059,-230.5"/>
<text text-anchor="start" x="897" y="-218.5" font-family="Helvetica,sans-Serif" font-size="10.00">gerber2coordinatesTEST.Gerber</text>
<text text-anchor="middle" x="974" y="-207.5" font-family="Helvetica,sans-Serif" font-size="10.00">Line.correctoffset</text>
</a>
</g>
</g>
<!-- Node17&#45;&gt;Node18 -->
<g id="edge20_Node000017_Node000018" class="edge">
<title>Node17&#45;&gt;Node18</title>
<g id="a_edge20_Node000017_Node000018"><a xlink:title=" ">
<path fill="none" stroke="#63b8ff" d="M775.72,-274C785.09,-271.68 794.27,-268.88 803,-265.5 821.4,-258.37 820.83,-247.21 839,-239.5 851.52,-234.19 865.18,-230.05 878.83,-226.83"/>
<polygon fill="#63b8ff" stroke="#63b8ff" points="879.75,-230.21 888.76,-224.64 878.24,-223.38 879.75,-230.21"/>
</a>
</g>
</g>
<!-- Node20 -->
<g id="Node000020" class="node">
<title>Node20</title>
<g id="a_Node000020"><a xlink:href="classgerber2coordinatesTEST_1_1GerberSettingsList.html#aedf25c3a0d95f36bcdd5996964c3cef5" target="_top" xlink:title=" ">
<polygon fill="white" stroke="#666666" points="1059,-278.5 889,-278.5 889,-248.5 1059,-248.5 1059,-278.5"/>
<text text-anchor="start" x="897" y="-266.5" font-family="Helvetica,sans-Serif" font-size="10.00">gerber2coordinatesTEST.Gerber</text>
<text text-anchor="middle" x="974" y="-255.5" font-family="Helvetica,sans-Serif" font-size="10.00">SettingsList.getoffset</text>
</a>
</g>
</g>
<!-- Node17&#45;&gt;Node20 -->
<g id="edge22_Node000017_Node000020" class="edge">
<title>Node17&#45;&gt;Node20</title>
<g id="a_edge22_Node000017_Node000020"><a xlink:title=" ">
<path fill="none" stroke="#63b8ff" d="M776.35,-275.51C810.59,-273.42 846.84,-271.2 878.76,-269.26"/>
<polygon fill="#63b8ff" stroke="#63b8ff" points="879.19,-272.74 888.96,-268.63 878.77,-265.75 879.19,-272.74"/>
</a>
</g>
</g>
<!-- Node19 -->
<g id="Node000019" class="node">
<title>Node19</title>
<g id="a_Node000019"><a xlink:href="classgerber2coordinatesTEST_1_1GerberLine.html#a224b44ce11e8565018e49a3452883d9f" target="_top" xlink:title=" ">
<polygon fill="white" stroke="#666666" points="1377,-230.5 1207,-230.5 1207,-200.5 1377,-200.5 1377,-230.5"/>
<text text-anchor="start" x="1215" y="-218.5" font-family="Helvetica,sans-Serif" font-size="10.00">gerber2coordinatesTEST.Gerber</text>
<text text-anchor="middle" x="1292" y="-207.5" font-family="Helvetica,sans-Serif" font-size="10.00">Line.roundcoordinates</text>
</a>
</g>
</g>
<!-- Node18&#45;&gt;Node19 -->
<g id="edge21_Node000018_Node000019" class="edge">
<title>Node18&#45;&gt;Node19</title>
<g id="a_edge21_Node000018_Node000019"><a xlink:title=" ">
<path fill="none" stroke="#63b8ff" d="M1059.27,-215.5C1101.67,-215.5 1153.21,-215.5 1196.91,-215.5"/>
<polygon fill="#63b8ff" stroke="#63b8ff" points="1196.97,-219 1206.97,-215.5 1196.97,-212 1196.97,-219"/>
</a>
</g>
</g>
<!-- Node20&#45;&gt;Node9 -->
<g id="edge23_Node000020_Node000009" class="edge">
<title>Node20&#45;&gt;Node9</title>
<g id="a_edge23_Node000020_Node000009"><a xlink:title=" ">
<path fill="none" stroke="#63b8ff" d="M1059.2,-277.51C1075.76,-280.57 1092.96,-283.95 1109,-287.5 1148.93,-296.33 1193.32,-307.99 1228.26,-317.62"/>
<polygon fill="#63b8ff" stroke="#63b8ff" points="1227.74,-321.11 1238.31,-320.4 1229.61,-314.36 1227.74,-321.11"/>
</a>
</g>
</g>
<!-- Node24 -->
<g id="Node000024" class="node">
<title>Node24</title>
<g id="a_Node000024"><a xlink:href="classgerber2coordinatesTEST_1_1Gerberfileinfo.html#a391d943c162991913ed7d0a8e304a236" target="_top" xlink:title="Linie mit gleichem Startpunkt finden.">
<polygon fill="white" stroke="#666666" points="1086.5,-152.5 861.5,-152.5 861.5,-122.5 1086.5,-122.5 1086.5,-152.5"/>
<text text-anchor="start" x="869.5" y="-140.5" font-family="Helvetica,sans-Serif" font-size="10.00">gerber2coordinatesTEST.Gerberfileinfo.find</text>
<text text-anchor="middle" x="974" y="-129.5" font-family="Helvetica,sans-Serif" font-size="10.00">_line_with_same_start</text>
</a>
</g>
</g>
<!-- Node23&#45;&gt;Node24 -->
<g id="edge27_Node000023_Node000024" class="edge">
<title>Node23&#45;&gt;Node24</title>
<g id="a_edge27_Node000023_Node000024"><a xlink:title=" ">
<path fill="none" stroke="#63b8ff" d="M737.33,-96.03C758.93,-98.7 781.82,-101.88 803,-105.5 819.16,-108.26 822.93,-110.28 839,-113.5 850.98,-115.9 863.58,-118.31 876.07,-120.63"/>
<polygon fill="#63b8ff" stroke="#63b8ff" points="875.57,-124.1 886.04,-122.47 876.84,-117.21 875.57,-124.1"/>
</a>
</g>
</g>
<!-- Node26 -->
<g id="Node000026" class="node">
<title>Node26</title>
<g id="a_Node000026"><a xlink:href="classgerber2coordinatesTEST_1_1Gerberfileinfo.html#a98f4652c8c10159e911b2a4cc9ae7d2c" target="_top" xlink:title="Linie finden, die in der nähe liegt. Wird verwendet, wenn keine weiterführende Linie vorhanden ist.">
<polygon fill="white" stroke="#666666" points="1086.5,-104.5 861.5,-104.5 861.5,-74.5 1086.5,-74.5 1086.5,-104.5"/>
<text text-anchor="start" x="869.5" y="-92.5" font-family="Helvetica,sans-Serif" font-size="10.00">gerber2coordinatesTEST.Gerberfileinfo.find</text>
<text text-anchor="middle" x="974" y="-81.5" font-family="Helvetica,sans-Serif" font-size="10.00">_nearest_line</text>
</a>
</g>
</g>
<!-- Node23&#45;&gt;Node26 -->
<g id="edge29_Node000023_Node000026" class="edge">
<title>Node23&#45;&gt;Node26</title>
<g id="a_edge29_Node000023_Node000026"><a xlink:title=" ">
<path fill="none" stroke="#63b8ff" d="M769.31,-87.63C796.14,-87.88 824.48,-88.14 851.23,-88.38"/>
<polygon fill="#63b8ff" stroke="#63b8ff" points="851.36,-91.89 861.39,-88.48 851.42,-84.89 851.36,-91.89"/>
</a>
</g>
</g>
<!-- Node27 -->
<g id="Node000027" class="node">
<title>Node27</title>
<g id="a_Node000027"><a xlink:href="classgerber2coordinatesTEST_1_1Gerberfileinfo.html#a1fbfbb2aa35fc3dcf85dbaaddab12372" target="_top" xlink:title="Startpunkt finden, an dem angefangen wird zu zeichnen.">
<polygon fill="white" stroke="#666666" points="1109,-56 839,-56 839,-37 1109,-37 1109,-56"/>
<text text-anchor="middle" x="974" y="-44" font-family="Helvetica,sans-Serif" font-size="10.00">gerber2coordinatesTEST.Gerberfileinfo.getstartpoint</text>
</a>
</g>
</g>
<!-- Node23&#45;&gt;Node27 -->
<g id="edge31_Node000023_Node000027" class="edge">
<title>Node23&#45;&gt;Node27</title>
<g id="a_edge31_Node000023_Node000027"><a xlink:title=" ">
<path fill="none" stroke="#63b8ff" d="M723.53,-76.97C772.03,-71.05 834.5,-63.42 884.79,-57.27"/>
<polygon fill="#63b8ff" stroke="#63b8ff" points="885.5,-60.71 895,-56.03 884.65,-53.76 885.5,-60.71"/>
</a>
</g>
</g>
<!-- Node25 -->
<g id="Node000025" class="node">
<title>Node25</title>
<g id="a_Node000025"><a xlink:href="classgerber2coordinatesTEST_1_1GerberLine.html#ae257141630b8c0e208827571d0477255" target="_top" xlink:title="Abstand zwischen dem Start / Endpunkt und einem Übergebenen Punkt berechnen.">
<polygon fill="white" stroke="#666666" points="1377,-128.5 1207,-128.5 1207,-98.5 1377,-98.5 1377,-128.5"/>
<text text-anchor="start" x="1215" y="-116.5" font-family="Helvetica,sans-Serif" font-size="10.00">gerber2coordinatesTEST.Gerber</text>
<text text-anchor="middle" x="1292" y="-105.5" font-family="Helvetica,sans-Serif" font-size="10.00">Line.getdistance</text>
</a>
</g>
</g>
<!-- Node24&#45;&gt;Node25 -->
<g id="edge28_Node000024_Node000025" class="edge">
<title>Node24&#45;&gt;Node25</title>
<g id="a_edge28_Node000024_Node000025"><a xlink:title=" ">
<path fill="none" stroke="#63b8ff" d="M1086.85,-129C1122.73,-126.28 1162.08,-123.29 1196.58,-120.67"/>
<polygon fill="#63b8ff" stroke="#63b8ff" points="1196.94,-124.15 1206.65,-119.91 1196.41,-117.17 1196.94,-124.15"/>
</a>
</g>
</g>
<!-- Node26&#45;&gt;Node25 -->
<g id="edge30_Node000026_Node000025" class="edge">
<title>Node26&#45;&gt;Node25</title>
<g id="a_edge30_Node000026_Node000025"><a xlink:title=" ">
<path fill="none" stroke="#63b8ff" d="M1086.85,-98C1122.73,-100.72 1162.08,-103.71 1196.58,-106.33"/>
<polygon fill="#63b8ff" stroke="#63b8ff" points="1196.41,-109.83 1206.65,-107.09 1196.94,-102.85 1196.41,-109.83"/>
</a>
</g>
</g>
<!-- Node28&#45;&gt;Node27 -->
<g id="edge34_Node000028_Node000027" class="edge">
<title>Node28&#45;&gt;Node27</title>
<g id="a_edge34_Node000028_Node000027"><a xlink:title=" ">
<path fill="none" stroke="#63b8ff" d="M769.78,-46.5C789.04,-46.5 809.08,-46.5 828.73,-46.5"/>
<polygon fill="#63b8ff" stroke="#63b8ff" points="828.97,-50 838.97,-46.5 828.97,-43 828.97,-50"/>
</a>
</g>
</g>
<!-- Node29 -->
<g id="Node000029" class="node">
<title>Node29</title>
<g id="a_Node000029"><a xlink:href="classgerber2coordinatesTEST_1_1Gerbertoolbox.html#a3d2eaeebd1919e626f5314d934c76f1a" target="_top" xlink:title=" ">
<polygon fill="white" stroke="#666666" points="1107.5,-19 840.5,-19 840.5,0 1107.5,0 1107.5,-19"/>
<text text-anchor="middle" x="974" y="-7" font-family="Helvetica,sans-Serif" font-size="10.00">gerber2coordinatesTEST.Gerbertoolbox.getdistance</text>
</a>
</g>
</g>
<!-- Node28&#45;&gt;Node29 -->
<g id="edge33_Node000028_Node000029" class="edge">
<title>Node28&#45;&gt;Node29</title>
<g id="a_edge33_Node000028_Node000029"><a xlink:title=" ">
<path fill="none" stroke="#63b8ff" d="M729.84,-36.97C775.31,-31.83 831.55,-25.48 878.49,-20.18"/>
<polygon fill="#63b8ff" stroke="#63b8ff" points="879.12,-23.63 888.66,-19.03 878.33,-16.67 879.12,-23.63"/>
</a>
</g>
</g>
</g>
</svg>
