<?xml version="1.0" encoding="UTF-8" standalone="no"?>
<!DOCTYPE svg PUBLIC "-//W3C//DTD SVG 1.1//EN"
 "http://www.w3.org/Graphics/SVG/1.1/DTD/svg11.dtd">
<!-- Generated by graphviz version 2.43.0 (0)
 -->
<!-- Title: gerber2coordinatesTEST.Gerberfileinfo.fillpadsandpoints Pages: 1 -->
<svg width="903pt" height="76pt"
 viewBox="0.00 0.00 903.00 75.50" xmlns="http://www.w3.org/2000/svg" xmlns:xlink="http://www.w3.org/1999/xlink">
<g id="graph0" class="graph" transform="scale(1 1) rotate(0) translate(4 71.5)">
<title>gerber2coordinatesTEST.Gerberfileinfo.fillpadsandpoints</title>
<!-- Node1 -->
<g id="Node000001" class="node">
<title>Node1</title>
<g id="a_Node000001"><a xlink:title=" ">
<polygon fill="#999999" stroke="#666666" points="290,-40 0,-40 0,-21 290,-21 290,-40"/>
<text text-anchor="middle" x="145" y="-28" font-family="Helvetica,sans-Serif" font-size="10.00">gerber2coordinatesTEST.Gerberfileinfo.fillpadsandpoints</text>
</a>
</g>
</g>
<!-- Node2 -->
<g id="Node000002" class="node">
<title>Node2</title>
<g id="a_Node000002"><a xlink:href="classgerber2coordinatesTEST_1_1GerberSettingsList.html#a547dd3499bfb7480d52fda231ebc3488" target="_top" xlink:title=" ">
<polygon fill="white" stroke="#666666" points="530.5,-67.5 360.5,-67.5 360.5,-37.5 530.5,-37.5 530.5,-67.5"/>
<text text-anchor="start" x="368.5" y="-55.5" font-family="Helvetica,sans-Serif" font-size="10.00">gerber2coordinatesTEST.Gerber</text>
<text text-anchor="middle" x="445.5" y="-44.5" font-family="Helvetica,sans-Serif" font-size="10.00">SettingsList.getpadwidth</text>
</a>
</g>
</g>
<!-- Node1&#45;&gt;Node2 -->
<g id="edge1_Node000001_Node000002" class="edge">
<title>Node1&#45;&gt;Node2</title>
<g id="a_edge1_Node000001_Node000002"><a xlink:title=" ">
<path fill="none" stroke="#63b8ff" d="M275.19,-40.02C300.42,-41.88 326.43,-43.8 350.26,-45.55"/>
<polygon fill="#63b8ff" stroke="#63b8ff" points="350.1,-49.05 360.33,-46.3 350.62,-42.07 350.1,-49.05"/>
</a>
</g>
</g>
<!-- Node4 -->
<g id="Node000004" class="node">
<title>Node4</title>
<g id="a_Node000004"><a xlink:href="classgerber2coordinatesTEST_1_1Gerbertoolbox.html#a9c535ff4a74b677aed43f88b2626b30e" target="_top" xlink:title=" ">
<polygon fill="white" stroke="#666666" points="565,-19 326,-19 326,0 565,0 565,-19"/>
<text text-anchor="middle" x="445.5" y="-7" font-family="Helvetica,sans-Serif" font-size="10.00">gerber2coordinatesTEST.Gerbertoolbox.getXY</text>
</a>
</g>
</g>
<!-- Node1&#45;&gt;Node4 -->
<g id="edge3_Node000001_Node000004" class="edge">
<title>Node1&#45;&gt;Node4</title>
<g id="a_edge3_Node000001_Node000004"><a xlink:title=" ">
<path fill="none" stroke="#63b8ff" d="M281.28,-20.98C292.61,-20.19 304.06,-19.38 315.35,-18.59"/>
<polygon fill="#63b8ff" stroke="#63b8ff" points="315.94,-22.05 325.67,-17.86 315.45,-15.07 315.94,-22.05"/>
</a>
</g>
</g>
<!-- Node3 -->
<g id="Node000003" class="node">
<title>Node3</title>
<g id="a_Node000003"><a xlink:href="classgerber2coordinatesTEST_1_1GerberSettingsList.html#a8b0449100b4f26e9d131a8f127ad3d1c" target="_top" xlink:title=" ">
<polygon fill="white" stroke="#666666" points="833,-67.5 663,-67.5 663,-37.5 833,-37.5 833,-67.5"/>
<text text-anchor="start" x="671" y="-55.5" font-family="Helvetica,sans-Serif" font-size="10.00">gerber2coordinatesTEST.Gerber</text>
<text text-anchor="middle" x="748" y="-44.5" font-family="Helvetica,sans-Serif" font-size="10.00">SettingsList.getsetting</text>
</a>
</g>
</g>
<!-- Node2&#45;&gt;Node3 -->
<g id="edge2_Node000002_Node000003" class="edge">
<title>Node2&#45;&gt;Node3</title>
<g id="a_edge2_Node000002_Node000003"><a xlink:title=" ">
<path fill="none" stroke="#63b8ff" d="M530.61,-52.5C568.54,-52.5 613.5,-52.5 652.59,-52.5"/>
<polygon fill="#63b8ff" stroke="#63b8ff" points="652.91,-56 662.91,-52.5 652.91,-49 652.91,-56"/>
</a>
</g>
</g>
<!-- Node5 -->
<g id="Node000005" class="node">
<title>Node5</title>
<g id="a_Node000005"><a xlink:href="classgerber2coordinatesTEST_1_1Gerbertoolbox.html#aa745b83fde9503e2dbd3a27d2f05d912" target="_top" xlink:title=" ">
<polygon fill="white" stroke="#666666" points="895,-19 601,-19 601,0 895,0 895,-19"/>
<text text-anchor="middle" x="748" y="-7" font-family="Helvetica,sans-Serif" font-size="10.00">gerber2coordinatesTEST.Gerbertoolbox.getcharsbetween</text>
</a>
</g>
</g>
<!-- Node4&#45;&gt;Node5 -->
<g id="edge4_Node000004_Node000005" class="edge">
<title>Node4&#45;&gt;Node5</title>
<g id="a_edge4_Node000004_Node000005"><a xlink:title=" ">
<path fill="none" stroke="#63b8ff" d="M565.27,-9.5C573.7,-9.5 582.27,-9.5 590.86,-9.5"/>
<polygon fill="#63b8ff" stroke="#63b8ff" points="590.96,-13 600.96,-9.5 590.96,-6 590.96,-13"/>
</a>
</g>
</g>
</g>
</svg>
