<?xml version="1.0" encoding="UTF-8" standalone="no"?>
<!DOCTYPE svg PUBLIC "-//W3C//DTD SVG 1.1//EN"
 "http://www.w3.org/Graphics/SVG/1.1/DTD/svg11.dtd">
<!-- Generated by graphviz version 2.43.0 (0)
 -->
<!-- Title: gerber2coordinatesTEST.GerberSettingsList Pages: 1 -->
<svg width="212pt" height="228pt"
 viewBox="0.00 0.00 212.00 228.00" xmlns="http://www.w3.org/2000/svg" xmlns:xlink="http://www.w3.org/1999/xlink">
<g id="graph0" class="graph" transform="scale(1 1) rotate(0) translate(4 224)">
<title>gerber2coordinatesTEST.GerberSettingsList</title>
<!-- Node1 -->
<g id="Node000001" class="node">
<title>Node1</title>
<g id="a_Node000001"><a xlink:title=" ">
<polygon fill="#999999" stroke="transparent" points="204,-220 0,-220 0,0 204,0 204,-220"/>
<text text-anchor="start" x="25" y="-208" font-family="Helvetica,sans-Serif" font-size="10.00">gerber2coordinatesTEST.Gerber</text>
<text text-anchor="start" x="73" y="-197" font-family="Helvetica,sans-Serif" font-size="10.00">SettingsList</text>
<text text-anchor="start" x="4" y="-182" font-family="Helvetica,sans-Serif" font-size="10.00">+</text>
<text text-anchor="start" x="17" y="-182" font-family="Helvetica,sans-Serif" font-size="10.00">List&lt; GerberSetting</text>
<text text-anchor="start" x="17" y="-171" font-family="Helvetica,sans-Serif" font-size="10.00"> &gt; _settings</text>
<text text-anchor="start" x="6.5" y="-156" font-family="Helvetica,sans-Serif" font-size="10.00">&#45;</text>
<text text-anchor="start" x="17" y="-156" font-family="Helvetica,sans-Serif" font-size="10.00">string _callbackFileContent</text>
<text text-anchor="start" x="6.5" y="-141" font-family="Helvetica,sans-Serif" font-size="10.00">&#45;</text>
<text text-anchor="start" x="17" y="-141" font-family="Helvetica,sans-Serif" font-size="10.00">CallbackDelegate _onchangecallback</text>
<text text-anchor="start" x="4" y="-126" font-family="Helvetica,sans-Serif" font-size="10.00">+</text>
<text text-anchor="start" x="17" y="-126" font-family="Helvetica,sans-Serif" font-size="10.00">delegate void CallbackDelegate</text>
<text text-anchor="start" x="17" y="-115" font-family="Helvetica,sans-Serif" font-size="10.00">(string filecontent)</text>
<text text-anchor="start" x="4" y="-100" font-family="Helvetica,sans-Serif" font-size="10.00">+</text>
<text text-anchor="start" x="17" y="-100" font-family="Helvetica,sans-Serif" font-size="10.00">void setonchangecallback</text>
<text text-anchor="start" x="17" y="-89" font-family="Helvetica,sans-Serif" font-size="10.00">(CallbackDelegate callback,</text>
<text text-anchor="start" x="17" y="-78" font-family="Helvetica,sans-Serif" font-size="10.00"> string callbackFileContent)</text>
<text text-anchor="start" x="4" y="-63" font-family="Helvetica,sans-Serif" font-size="10.00">+</text>
<text text-anchor="start" x="17" y="-63" font-family="Helvetica,sans-Serif" font-size="10.00">void clearsettings()</text>
<text text-anchor="start" x="4" y="-48" font-family="Helvetica,sans-Serif" font-size="10.00">+</text>
<text text-anchor="start" x="17" y="-48" font-family="Helvetica,sans-Serif" font-size="10.00">double getpadwidth()</text>
<text text-anchor="start" x="4" y="-33" font-family="Helvetica,sans-Serif" font-size="10.00">+</text>
<text text-anchor="start" x="17" y="-33" font-family="Helvetica,sans-Serif" font-size="10.00">void setpadwidth(double</text>
<text text-anchor="start" x="17" y="-22" font-family="Helvetica,sans-Serif" font-size="10.00"> value)</text>
<text text-anchor="start" x="17" y="-7" font-family="Helvetica,sans-Serif" font-size="10.00">and 9 more...</text>
<polygon fill="#666666" stroke="#666666" points="0,-192 0,-192 204,-192 204,-192 0,-192"/>
<polygon fill="#666666" stroke="#666666" points="0,-136 0,-136 15,-136 15,-136 0,-136"/>
<polygon fill="#666666" stroke="#666666" points="15,-136 15,-136 204,-136 204,-136 15,-136"/>
<polygon fill="none" stroke="#666666" points="0,0 0,-220 204,-220 204,0 0,0"/>
</a>
</g>
</g>
</g>
</svg>
