<?xml version="1.0" encoding="UTF-8" standalone="no"?>
<!DOCTYPE svg PUBLIC "-//W3C//DTD SVG 1.1//EN"
 "http://www.w3.org/Graphics/SVG/1.1/DTD/svg11.dtd">
<!-- Generated by graphviz version 2.43.0 (0)
 -->
<!-- Title: gerber2coordinatesTEST.Druckerserver.setoffset Pages: 1 -->
<svg width="977pt" height="76pt"
 viewBox="0.00 0.00 977.00 75.50" xmlns="http://www.w3.org/2000/svg" xmlns:xlink="http://www.w3.org/1999/xlink">
<g id="graph0" class="graph" transform="scale(1 1) rotate(0) translate(4 71.5)">
<title>gerber2coordinatesTEST.Druckerserver.setoffset</title>
<!-- Node1 -->
<g id="Node000001" class="node">
<title>Node1</title>
<g id="a_Node000001"><a xlink:title=" ">
<polygon fill="#999999" stroke="#666666" points="251,-45.5 0,-45.5 0,-26.5 251,-26.5 251,-45.5"/>
<text text-anchor="middle" x="125.5" y="-33.5" font-family="Helvetica,sans-Serif" font-size="10.00">gerber2coordinatesTEST.Druckerserver.setoffset</text>
</a>
</g>
</g>
<!-- Node2 -->
<g id="Node000002" class="node">
<title>Node2</title>
<g id="a_Node000002"><a xlink:href="classgerber2coordinatesTEST_1_1Druckerserver.html#aca3fd45b4759e5834114e450a8d50d32" target="_top" xlink:title="Allgemeine Konsolenausgabe mit aktueller Zeit.">
<polygon fill="white" stroke="#666666" points="557,-67.5 287,-67.5 287,-48.5 557,-48.5 557,-67.5"/>
<text text-anchor="middle" x="422" y="-55.5" font-family="Helvetica,sans-Serif" font-size="10.00">gerber2coordinatesTEST.Druckerserver.logtoconsole</text>
</a>
</g>
</g>
<!-- Node1&#45;&gt;Node2 -->
<g id="edge1_Node000001_Node000002" class="edge">
<title>Node1&#45;&gt;Node2</title>
<g id="a_edge1_Node000001_Node000002"><a xlink:title=" ">
<path fill="none" stroke="#63b8ff" d="M251.39,-45.33C261.97,-46.12 272.7,-46.92 283.36,-47.72"/>
<polygon fill="#63b8ff" stroke="#63b8ff" points="283.32,-51.22 293.56,-48.48 283.85,-44.24 283.32,-51.22"/>
</a>
</g>
</g>
<!-- Node3 -->
<g id="Node000003" class="node">
<title>Node3</title>
<g id="a_Node000003"><a xlink:href="classgerber2coordinatesTEST_1_1GerberSettingsList.html#a036d1751712a1544f8957b4e1a252312" target="_top" xlink:title=" ">
<polygon fill="white" stroke="#666666" points="507,-30 337,-30 337,0 507,0 507,-30"/>
<text text-anchor="start" x="345" y="-18" font-family="Helvetica,sans-Serif" font-size="10.00">gerber2coordinatesTEST.Gerber</text>
<text text-anchor="middle" x="422" y="-7" font-family="Helvetica,sans-Serif" font-size="10.00">SettingsList.setoffset</text>
</a>
</g>
</g>
<!-- Node1&#45;&gt;Node3 -->
<g id="edge2_Node000001_Node000003" class="edge">
<title>Node1&#45;&gt;Node3</title>
<g id="a_edge2_Node000001_Node000003"><a xlink:title=" ">
<path fill="none" stroke="#63b8ff" d="M251.39,-27.09C276.63,-25.29 302.77,-23.43 326.75,-21.72"/>
<polygon fill="#63b8ff" stroke="#63b8ff" points="327.15,-25.2 336.88,-21 326.66,-18.22 327.15,-25.2"/>
</a>
</g>
</g>
<!-- Node4 -->
<g id="Node000004" class="node">
<title>Node4</title>
<g id="a_Node000004"><a xlink:href="classgerber2coordinatesTEST_1_1GerberSettingsList.html#a7f6830eebd42c74fac6d9de8d2a6c44e" target="_top" xlink:title=" ">
<polygon fill="white" stroke="#666666" points="763,-30 593,-30 593,0 763,0 763,-30"/>
<text text-anchor="start" x="601" y="-18" font-family="Helvetica,sans-Serif" font-size="10.00">gerber2coordinatesTEST.Gerber</text>
<text text-anchor="middle" x="678" y="-7" font-family="Helvetica,sans-Serif" font-size="10.00">SettingsList.setsetting</text>
</a>
</g>
</g>
<!-- Node3&#45;&gt;Node4 -->
<g id="edge3_Node000003_Node000004" class="edge">
<title>Node3&#45;&gt;Node4</title>
<g id="a_edge3_Node000003_Node000004"><a xlink:title=" ">
<path fill="none" stroke="#63b8ff" d="M507.23,-15C531.34,-15 557.79,-15 582.47,-15"/>
<polygon fill="#63b8ff" stroke="#63b8ff" points="582.57,-18.5 592.57,-15 582.57,-11.5 582.57,-18.5"/>
</a>
</g>
</g>
<!-- Node5 -->
<g id="Node000005" class="node">
<title>Node5</title>
<g id="a_Node000005"><a xlink:href="classgerber2coordinatesTEST_1_1GerberSettingsList.html#a0d6c6ef709817eaa9af58b92a61225b4" target="_top" xlink:title=" ">
<polygon fill="white" stroke="#666666" points="969,-30 799,-30 799,0 969,0 969,-30"/>
<text text-anchor="start" x="807" y="-18" font-family="Helvetica,sans-Serif" font-size="10.00">gerber2coordinatesTEST.Gerber</text>
<text text-anchor="middle" x="884" y="-7" font-family="Helvetica,sans-Serif" font-size="10.00">SettingsList.existssetting</text>
</a>
</g>
</g>
<!-- Node4&#45;&gt;Node5 -->
<g id="edge4_Node000004_Node000005" class="edge">
<title>Node4&#45;&gt;Node5</title>
<g id="a_edge4_Node000004_Node000005"><a xlink:title=" ">
<path fill="none" stroke="#63b8ff" d="M763.15,-15C771.5,-15 780.02,-15 788.46,-15"/>
<polygon fill="#63b8ff" stroke="#63b8ff" points="788.71,-18.5 798.71,-15 788.71,-11.5 788.71,-18.5"/>
</a>
</g>
</g>
</g>
</svg>
