<?xml version="1.0" encoding="UTF-8" standalone="no"?>
<!DOCTYPE svg PUBLIC "-//W3C//DTD SVG 1.1//EN"
 "http://www.w3.org/Graphics/SVG/1.1/DTD/svg11.dtd">
<!-- Generated by graphviz version 2.43.0 (0)
 -->
<!-- Title: gerber2coordinatesTEST.Gerberfileinfo.sortlines Pages: 1 -->
<svg width="769pt" height="124pt"
 viewBox="0.00 0.00 769.00 123.50" xmlns="http://www.w3.org/2000/svg" xmlns:xlink="http://www.w3.org/1999/xlink">
<g id="graph0" class="graph" transform="scale(1 1) rotate(0) translate(4 119.5)">
<title>gerber2coordinatesTEST.Gerberfileinfo.sortlines</title>
<!-- Node1 -->
<g id="Node000001" class="node">
<title>Node1</title>
<g id="a_Node000001"><a xlink:title="Linien der Reihe nach sortieren, damit der Drucker nicht hin und her muss.">
<polygon fill="#999999" stroke="#666666" points="249,-62 0,-62 0,-43 249,-43 249,-62"/>
<text text-anchor="middle" x="124.5" y="-50" font-family="Helvetica,sans-Serif" font-size="10.00">gerber2coordinatesTEST.Gerberfileinfo.sortlines</text>
</a>
</g>
</g>
<!-- Node2 -->
<g id="Node000002" class="node">
<title>Node2</title>
<g id="a_Node000002"><a xlink:href="classgerber2coordinatesTEST_1_1Gerberfileinfo.html#a391d943c162991913ed7d0a8e304a236" target="_top" xlink:title="Linie mit gleichem Startpunkt finden.">
<polygon fill="white" stroke="#666666" points="532.5,-115.5 307.5,-115.5 307.5,-85.5 532.5,-85.5 532.5,-115.5"/>
<text text-anchor="start" x="315.5" y="-103.5" font-family="Helvetica,sans-Serif" font-size="10.00">gerber2coordinatesTEST.Gerberfileinfo.find</text>
<text text-anchor="middle" x="420" y="-92.5" font-family="Helvetica,sans-Serif" font-size="10.00">_line_with_same_start</text>
</a>
</g>
</g>
<!-- Node1&#45;&gt;Node2 -->
<g id="edge1_Node000001_Node000002" class="edge">
<title>Node1&#45;&gt;Node2</title>
<g id="a_edge1_Node000001_Node000002"><a xlink:title=" ">
<path fill="none" stroke="#63b8ff" d="M183.84,-62.04C221.92,-68.27 272.65,-76.57 317.25,-83.86"/>
<polygon fill="#63b8ff" stroke="#63b8ff" points="316.83,-87.34 327.26,-85.5 317.96,-80.43 316.83,-87.34"/>
</a>
</g>
</g>
<!-- Node4 -->
<g id="Node000004" class="node">
<title>Node4</title>
<g id="a_Node000004"><a xlink:href="classgerber2coordinatesTEST_1_1Gerberfileinfo.html#a98f4652c8c10159e911b2a4cc9ae7d2c" target="_top" xlink:title="Linie finden, die in der nähe liegt. Wird verwendet, wenn keine weiterführende Linie vorhanden ist.">
<polygon fill="white" stroke="#666666" points="532.5,-67.5 307.5,-67.5 307.5,-37.5 532.5,-37.5 532.5,-67.5"/>
<text text-anchor="start" x="315.5" y="-55.5" font-family="Helvetica,sans-Serif" font-size="10.00">gerber2coordinatesTEST.Gerberfileinfo.find</text>
<text text-anchor="middle" x="420" y="-44.5" font-family="Helvetica,sans-Serif" font-size="10.00">_nearest_line</text>
</a>
</g>
</g>
<!-- Node1&#45;&gt;Node4 -->
<g id="edge3_Node000001_Node000004" class="edge">
<title>Node1&#45;&gt;Node4</title>
<g id="a_edge3_Node000001_Node000004"><a xlink:title=" ">
<path fill="none" stroke="#63b8ff" d="M249.12,-52.5C264.93,-52.5 281.1,-52.5 296.88,-52.5"/>
<polygon fill="#63b8ff" stroke="#63b8ff" points="297.19,-56 307.19,-52.5 297.19,-49 297.19,-56"/>
</a>
</g>
</g>
<!-- Node5 -->
<g id="Node000005" class="node">
<title>Node5</title>
<g id="a_Node000005"><a xlink:href="classgerber2coordinatesTEST_1_1Gerberfileinfo.html#a1fbfbb2aa35fc3dcf85dbaaddab12372" target="_top" xlink:title="Startpunkt finden, an dem angefangen wird zu zeichnen.">
<polygon fill="white" stroke="#666666" points="555,-19 285,-19 285,0 555,0 555,-19"/>
<text text-anchor="middle" x="420" y="-7" font-family="Helvetica,sans-Serif" font-size="10.00">gerber2coordinatesTEST.Gerberfileinfo.getstartpoint</text>
</a>
</g>
</g>
<!-- Node1&#45;&gt;Node5 -->
<g id="edge5_Node000001_Node000005" class="edge">
<title>Node1&#45;&gt;Node5</title>
<g id="a_edge5_Node000001_Node000005"><a xlink:title=" ">
<path fill="none" stroke="#63b8ff" d="M187.98,-42.97C217.4,-38.52 253,-33.18 285,-28.5 303.15,-25.85 322.68,-23.05 341.07,-20.44"/>
<polygon fill="#63b8ff" stroke="#63b8ff" points="341.75,-23.87 351.16,-19.01 340.77,-16.94 341.75,-23.87"/>
</a>
</g>
</g>
<!-- Node3 -->
<g id="Node000003" class="node">
<title>Node3</title>
<g id="a_Node000003"><a xlink:href="classgerber2coordinatesTEST_1_1GerberLine.html#ae257141630b8c0e208827571d0477255" target="_top" xlink:title="Abstand zwischen dem Start / Endpunkt und einem Übergebenen Punkt berechnen.">
<polygon fill="white" stroke="#666666" points="761,-91.5 591,-91.5 591,-61.5 761,-61.5 761,-91.5"/>
<text text-anchor="start" x="599" y="-79.5" font-family="Helvetica,sans-Serif" font-size="10.00">gerber2coordinatesTEST.Gerber</text>
<text text-anchor="middle" x="676" y="-68.5" font-family="Helvetica,sans-Serif" font-size="10.00">Line.getdistance</text>
</a>
</g>
</g>
<!-- Node2&#45;&gt;Node3 -->
<g id="edge2_Node000002_Node000003" class="edge">
<title>Node2&#45;&gt;Node3</title>
<g id="a_edge2_Node000002_Node000003"><a xlink:title=" ">
<path fill="none" stroke="#63b8ff" d="M532.78,-89.94C548.72,-88.43 564.98,-86.9 580.55,-85.42"/>
<polygon fill="#63b8ff" stroke="#63b8ff" points="581.04,-88.89 590.67,-84.47 580.38,-81.92 581.04,-88.89"/>
</a>
</g>
</g>
<!-- Node4&#45;&gt;Node3 -->
<g id="edge4_Node000004_Node000003" class="edge">
<title>Node4&#45;&gt;Node3</title>
<g id="a_edge4_Node000004_Node000003"><a xlink:title=" ">
<path fill="none" stroke="#63b8ff" d="M532.78,-63.06C548.72,-64.57 564.98,-66.1 580.55,-67.58"/>
<polygon fill="#63b8ff" stroke="#63b8ff" points="580.38,-71.08 590.67,-68.53 581.04,-64.11 580.38,-71.08"/>
</a>
</g>
</g>
</g>
</svg>
