<?xml version="1.0" encoding="UTF-8" standalone="no"?>
<!DOCTYPE svg PUBLIC "-//W3C//DTD SVG 1.1//EN"
 "http://www.w3.org/Graphics/SVG/1.1/DTD/svg11.dtd">
<!-- Generated by graphviz version 2.43.0 (0)
 -->
<!-- Title: gerber2coordinatesTEST.GerberLine.roundcoordinates Pages: 1 -->
<svg width="1169pt" height="172pt"
 viewBox="0.00 0.00 1169.00 172.00" xmlns="http://www.w3.org/2000/svg" xmlns:xlink="http://www.w3.org/1999/xlink">
<g id="graph0" class="graph" transform="scale(1 1) rotate(0) translate(4 168)">
<title>gerber2coordinatesTEST.GerberLine.roundcoordinates</title>
<!-- Node1 -->
<g id="Node000001" class="node">
<title>Node1</title>
<g id="a_Node000001"><a xlink:title=" ">
<polygon fill="#999999" stroke="#666666" points="1161,-94 991,-94 991,-64 1161,-64 1161,-94"/>
<text text-anchor="start" x="999" y="-82" font-family="Helvetica,sans-Serif" font-size="10.00">gerber2coordinatesTEST.Gerber</text>
<text text-anchor="middle" x="1076" y="-71" font-family="Helvetica,sans-Serif" font-size="10.00">Line.roundcoordinates</text>
</a>
</g>
</g>
<!-- Node2 -->
<g id="Node000002" class="node">
<title>Node2</title>
<g id="a_Node000002"><a xlink:href="classgerber2coordinatesTEST_1_1GerberLine.html#ab55117fe7c0a5244530079a0e64263eb" target="_top" xlink:title=" ">
<polygon fill="white" stroke="#666666" points="955,-164 785,-164 785,-134 955,-134 955,-164"/>
<text text-anchor="start" x="793" y="-152" font-family="Helvetica,sans-Serif" font-size="10.00">gerber2coordinatesTEST.Gerber</text>
<text text-anchor="middle" x="870" y="-141" font-family="Helvetica,sans-Serif" font-size="10.00">Line.correctoffset</text>
</a>
</g>
</g>
<!-- Node1&#45;&gt;Node2 -->
<g id="edge1_Node000001_Node000002" class="edge">
<title>Node1&#45;&gt;Node2</title>
<g id="a_edge1_Node000001_Node000002"><a xlink:title=" ">
<path fill="none" stroke="#63b8ff" d="M1028.78,-97.81C1006.63,-106.54 979.61,-116.78 955,-125 945.79,-128.07 935.94,-131.11 926.34,-133.94"/>
<polygon fill="#63b8ff" stroke="#63b8ff" points="1030.27,-100.98 1038.27,-94.04 1027.69,-94.47 1030.27,-100.98"/>
</a>
</g>
</g>
<!-- Node6 -->
<g id="Node000006" class="node">
<title>Node6</title>
<g id="a_Node000006"><a xlink:href="classgerber2coordinatesTEST_1_1GerberLine.html#a8df3b0df19c9999a20dee241d2ac6cef" target="_top" xlink:title=" ">
<polygon fill="white" stroke="#666666" points="955,-116 785,-116 785,-86 955,-86 955,-116"/>
<text text-anchor="start" x="793" y="-104" font-family="Helvetica,sans-Serif" font-size="10.00">gerber2coordinatesTEST.Gerber</text>
<text text-anchor="middle" x="870" y="-93" font-family="Helvetica,sans-Serif" font-size="10.00">Line.GerberLine</text>
</a>
</g>
</g>
<!-- Node1&#45;&gt;Node6 -->
<g id="edge5_Node000001_Node000006" class="edge">
<title>Node1&#45;&gt;Node6</title>
<g id="a_edge5_Node000001_Node000006"><a xlink:title=" ">
<path fill="none" stroke="#63b8ff" d="M980.88,-89.15C972.34,-90.07 963.73,-91 955.29,-91.91"/>
<polygon fill="#63b8ff" stroke="#63b8ff" points="981.28,-92.63 990.85,-88.08 980.53,-85.67 981.28,-92.63"/>
</a>
</g>
</g>
<!-- Node7 -->
<g id="Node000007" class="node">
<title>Node7</title>
<g id="a_Node000007"><a xlink:href="classgerber2coordinatesTEST_1_1GerberLine.html#a05107c757c248c8ddaefcaf80f7112df" target="_top" xlink:title=" ">
<polygon fill="white" stroke="#666666" points="702.5,-52 532.5,-52 532.5,-22 702.5,-22 702.5,-52"/>
<text text-anchor="start" x="540.5" y="-40" font-family="Helvetica,sans-Serif" font-size="10.00">gerber2coordinatesTEST.Gerber</text>
<text text-anchor="middle" x="617.5" y="-29" font-family="Helvetica,sans-Serif" font-size="10.00">Line.GerberLine</text>
</a>
</g>
</g>
<!-- Node1&#45;&gt;Node7 -->
<g id="edge6_Node000001_Node000007" class="edge">
<title>Node1&#45;&gt;Node7</title>
<g id="a_edge6_Node000001_Node000007"><a xlink:title=" ">
<path fill="none" stroke="#63b8ff" d="M980.69,-70.32C898.82,-62.79 781.39,-51.99 702.66,-44.74"/>
<polygon fill="#63b8ff" stroke="#63b8ff" points="980.46,-73.82 990.74,-71.25 981.1,-66.85 980.46,-73.82"/>
</a>
</g>
</g>
<!-- Node8 -->
<g id="Node000008" class="node">
<title>Node8</title>
<g id="a_Node000008"><a xlink:href="classgerber2coordinatesTEST_1_1GerberLine.html#a528fab668c9c78a8c29f9dcdb48d92fe" target="_top" xlink:title=" ">
<polygon fill="white" stroke="#666666" points="955,-30 785,-30 785,0 955,0 955,-30"/>
<text text-anchor="start" x="793" y="-18" font-family="Helvetica,sans-Serif" font-size="10.00">gerber2coordinatesTEST.Gerber</text>
<text text-anchor="middle" x="870" y="-7" font-family="Helvetica,sans-Serif" font-size="10.00">Line.setcoordinates</text>
</a>
</g>
</g>
<!-- Node1&#45;&gt;Node8 -->
<g id="edge7_Node000001_Node000008" class="edge">
<title>Node1&#45;&gt;Node8</title>
<g id="a_edge7_Node000001_Node000008"><a xlink:title=" ">
<path fill="none" stroke="#63b8ff" d="M1017.34,-60.91C986.24,-51.15 948.33,-39.26 918.88,-30.02"/>
<polygon fill="#63b8ff" stroke="#63b8ff" points="1016.58,-64.34 1027.17,-63.99 1018.68,-57.66 1016.58,-64.34"/>
</a>
</g>
</g>
<!-- Node3 -->
<g id="Node000003" class="node">
<title>Node3</title>
<g id="a_Node000003"><a xlink:href="classgerber2coordinatesTEST_1_1Gerberfileinfo.html#ac8d7417d6b59429f86c4116bfe6f3343" target="_top" xlink:title=" ">
<polygon fill="white" stroke="#666666" points="749,-158.5 486,-158.5 486,-139.5 749,-139.5 749,-158.5"/>
<text text-anchor="middle" x="617.5" y="-146.5" font-family="Helvetica,sans-Serif" font-size="10.00">gerber2coordinatesTEST.Gerberfileinfo.movetopad</text>
</a>
</g>
</g>
<!-- Node2&#45;&gt;Node3 -->
<g id="edge2_Node000002_Node000003" class="edge">
<title>Node2&#45;&gt;Node3</title>
<g id="a_edge2_Node000002_Node000003"><a xlink:title=" ">
<path fill="none" stroke="#63b8ff" d="M774.79,-149C766.41,-149 757.84,-149 749.24,-149"/>
<polygon fill="#63b8ff" stroke="#63b8ff" points="774.89,-152.5 784.89,-149 774.89,-145.5 774.89,-152.5"/>
</a>
</g>
</g>
<!-- Node4 -->
<g id="Node000004" class="node">
<title>Node4</title>
<g id="a_Node000004"><a xlink:href="classgerber2coordinatesTEST_1_1Gerberfileinfo.html#a756d07194ea904f77d9d50b3717c796c" target="_top" xlink:title=" ">
<polygon fill="white" stroke="#666666" points="450,-164 243,-164 243,-134 450,-134 450,-164"/>
<text text-anchor="start" x="251" y="-152" font-family="Helvetica,sans-Serif" font-size="10.00">gerber2coordinatesTEST.Gerberfileinfo.</text>
<text text-anchor="middle" x="346.5" y="-141" font-family="Helvetica,sans-Serif" font-size="10.00">Initgerberfile</text>
</a>
</g>
</g>
<!-- Node3&#45;&gt;Node4 -->
<g id="edge3_Node000003_Node000004" class="edge">
<title>Node3&#45;&gt;Node4</title>
<g id="a_edge3_Node000003_Node000004"><a xlink:title=" ">
<path fill="none" stroke="#63b8ff" d="M475.77,-149C467.12,-149 458.5,-149 450.06,-149"/>
<polygon fill="#63b8ff" stroke="#63b8ff" points="475.94,-152.5 485.94,-149 475.94,-145.5 475.94,-152.5"/>
</a>
</g>
</g>
<!-- Node5 -->
<g id="Node000005" class="node">
<title>Node5</title>
<g id="a_Node000005"><a xlink:href="classgerber2coordinatesTEST_1_1Gerberfileinfo.html#a6415b3b8ed5c5d93a9c3d2ee80bf90bb" target="_top" xlink:title=" ">
<polygon fill="white" stroke="#666666" points="207,-164 0,-164 0,-134 207,-134 207,-164"/>
<text text-anchor="start" x="8" y="-152" font-family="Helvetica,sans-Serif" font-size="10.00">gerber2coordinatesTEST.Gerberfileinfo.</text>
<text text-anchor="middle" x="103.5" y="-141" font-family="Helvetica,sans-Serif" font-size="10.00">Gerberfileinfo</text>
</a>
</g>
</g>
<!-- Node4&#45;&gt;Node5 -->
<g id="edge4_Node000004_Node000005" class="edge">
<title>Node4&#45;&gt;Node5</title>
<g id="a_edge4_Node000004_Node000005"><a xlink:title=" ">
<path fill="none" stroke="#63b8ff" d="M232.68,-149C224.23,-149 215.73,-149 207.35,-149"/>
<polygon fill="#63b8ff" stroke="#63b8ff" points="232.94,-152.5 242.94,-149 232.94,-145.5 232.94,-152.5"/>
</a>
</g>
</g>
<!-- Node8&#45;&gt;Node7 -->
<g id="edge8_Node000008_Node000007" class="edge">
<title>Node8&#45;&gt;Node7</title>
<g id="a_edge8_Node000008_Node000007"><a xlink:title=" ">
<path fill="none" stroke="#63b8ff" d="M774.86,-23.27C751.2,-25.35 725.96,-27.56 702.81,-29.6"/>
<polygon fill="#63b8ff" stroke="#63b8ff" points="775.23,-26.75 784.89,-22.39 774.62,-19.78 775.23,-26.75"/>
</a>
</g>
</g>
</g>
</svg>
