<?xml version="1.0" encoding="UTF-8" standalone="no"?>
<!DOCTYPE svg PUBLIC "-//W3C//DTD SVG 1.1//EN"
 "http://www.w3.org/Graphics/SVG/1.1/DTD/svg11.dtd">
<!-- Generated by graphviz version 2.43.0 (0)
 -->
<!-- Title: gerber2coordinatesTEST.Gerberfileinfo.movetopad Pages: 1 -->
<svg width="683pt" height="86pt"
 viewBox="0.00 0.00 683.00 86.00" xmlns="http://www.w3.org/2000/svg" xmlns:xlink="http://www.w3.org/1999/xlink">
<g id="graph0" class="graph" transform="scale(1 1) rotate(0) translate(4 82)">
<title>gerber2coordinatesTEST.Gerberfileinfo.movetopad</title>
<!-- Node1 -->
<g id="Node000001" class="node">
<title>Node1</title>
<g id="a_Node000001"><a xlink:title=" ">
<polygon fill="#999999" stroke="#666666" points="263,-48.5 0,-48.5 0,-29.5 263,-29.5 263,-48.5"/>
<text text-anchor="middle" x="131.5" y="-36.5" font-family="Helvetica,sans-Serif" font-size="10.00">gerber2coordinatesTEST.Gerberfileinfo.movetopad</text>
</a>
</g>
</g>
<!-- Node2 -->
<g id="Node000002" class="node">
<title>Node2</title>
<g id="a_Node000002"><a xlink:href="classgerber2coordinatesTEST_1_1GerberLine.html#ab55117fe7c0a5244530079a0e64263eb" target="_top" xlink:title=" ">
<polygon fill="white" stroke="#666666" points="469,-78 299,-78 299,-48 469,-48 469,-78"/>
<text text-anchor="start" x="307" y="-66" font-family="Helvetica,sans-Serif" font-size="10.00">gerber2coordinatesTEST.Gerber</text>
<text text-anchor="middle" x="384" y="-55" font-family="Helvetica,sans-Serif" font-size="10.00">Line.correctoffset</text>
</a>
</g>
</g>
<!-- Node1&#45;&gt;Node2 -->
<g id="edge1_Node000001_Node000002" class="edge">
<title>Node1&#45;&gt;Node2</title>
<g id="a_edge1_Node000001_Node000002"><a xlink:title=" ">
<path fill="none" stroke="#63b8ff" d="M231.86,-48.52C250.54,-50.31 270.01,-52.17 288.53,-53.95"/>
<polygon fill="#63b8ff" stroke="#63b8ff" points="288.42,-57.45 298.7,-54.92 289.08,-50.49 288.42,-57.45"/>
</a>
</g>
</g>
<!-- Node4 -->
<g id="Node000004" class="node">
<title>Node4</title>
<g id="a_Node000004"><a xlink:href="classgerber2coordinatesTEST_1_1GerberSettingsList.html#aedf25c3a0d95f36bcdd5996964c3cef5" target="_top" xlink:title=" ">
<polygon fill="white" stroke="#666666" points="469,-30 299,-30 299,0 469,0 469,-30"/>
<text text-anchor="start" x="307" y="-18" font-family="Helvetica,sans-Serif" font-size="10.00">gerber2coordinatesTEST.Gerber</text>
<text text-anchor="middle" x="384" y="-7" font-family="Helvetica,sans-Serif" font-size="10.00">SettingsList.getoffset</text>
</a>
</g>
</g>
<!-- Node1&#45;&gt;Node4 -->
<g id="edge3_Node000001_Node000004" class="edge">
<title>Node1&#45;&gt;Node4</title>
<g id="a_edge3_Node000001_Node000004"><a xlink:title=" ">
<path fill="none" stroke="#63b8ff" d="M231.86,-29.48C250.54,-27.69 270.01,-25.83 288.53,-24.05"/>
<polygon fill="#63b8ff" stroke="#63b8ff" points="289.08,-27.51 298.7,-23.08 288.42,-20.55 289.08,-27.51"/>
</a>
</g>
</g>
<!-- Node3 -->
<g id="Node000003" class="node">
<title>Node3</title>
<g id="a_Node000003"><a xlink:href="classgerber2coordinatesTEST_1_1GerberLine.html#a224b44ce11e8565018e49a3452883d9f" target="_top" xlink:title=" ">
<polygon fill="white" stroke="#666666" points="675,-78 505,-78 505,-48 675,-48 675,-78"/>
<text text-anchor="start" x="513" y="-66" font-family="Helvetica,sans-Serif" font-size="10.00">gerber2coordinatesTEST.Gerber</text>
<text text-anchor="middle" x="590" y="-55" font-family="Helvetica,sans-Serif" font-size="10.00">Line.roundcoordinates</text>
</a>
</g>
</g>
<!-- Node2&#45;&gt;Node3 -->
<g id="edge2_Node000002_Node000003" class="edge">
<title>Node2&#45;&gt;Node3</title>
<g id="a_edge2_Node000002_Node000003"><a xlink:title=" ">
<path fill="none" stroke="#63b8ff" d="M469.15,-63C477.5,-63 486.02,-63 494.46,-63"/>
<polygon fill="#63b8ff" stroke="#63b8ff" points="494.71,-66.5 504.71,-63 494.71,-59.5 494.71,-66.5"/>
</a>
</g>
</g>
<!-- Node5 -->
<g id="Node000005" class="node">
<title>Node5</title>
<g id="a_Node000005"><a xlink:href="classgerber2coordinatesTEST_1_1GerberSettingsList.html#a8b0449100b4f26e9d131a8f127ad3d1c" target="_top" xlink:title=" ">
<polygon fill="white" stroke="#666666" points="675,-30 505,-30 505,0 675,0 675,-30"/>
<text text-anchor="start" x="513" y="-18" font-family="Helvetica,sans-Serif" font-size="10.00">gerber2coordinatesTEST.Gerber</text>
<text text-anchor="middle" x="590" y="-7" font-family="Helvetica,sans-Serif" font-size="10.00">SettingsList.getsetting</text>
</a>
</g>
</g>
<!-- Node4&#45;&gt;Node5 -->
<g id="edge4_Node000004_Node000005" class="edge">
<title>Node4&#45;&gt;Node5</title>
<g id="a_edge4_Node000004_Node000005"><a xlink:title=" ">
<path fill="none" stroke="#63b8ff" d="M469.15,-15C477.5,-15 486.02,-15 494.46,-15"/>
<polygon fill="#63b8ff" stroke="#63b8ff" points="494.71,-18.5 504.71,-15 494.71,-11.5 494.71,-18.5"/>
</a>
</g>
</g>
</g>
</svg>
