<?xml version="1.0" encoding="UTF-8" standalone="no"?>
<!DOCTYPE svg PUBLIC "-//W3C//DTD SVG 1.1//EN"
 "http://www.w3.org/Graphics/SVG/1.1/DTD/svg11.dtd">
<!-- Generated by graphviz version 2.43.0 (0)
 -->
<!-- Title: gerber2coordinatesTEST.Druckerserver.Start Pages: 1 -->
<svg width="1948pt" height="624pt"
 viewBox="0.00 0.00 1948.00 624.42" xmlns="http://www.w3.org/2000/svg" xmlns:xlink="http://www.w3.org/1999/xlink">
<g id="graph0" class="graph" transform="scale(1 1) rotate(0) translate(4 620.42)">
<title>gerber2coordinatesTEST.Druckerserver.Start</title>
<!-- Node1 -->
<g id="Node000001" class="node">
<title>Node1</title>
<g id="a_Node000001"><a xlink:title="Httpserver starten.">
<polygon fill="#999999" stroke="#666666" points="208,-329.42 0,-329.42 0,-299.42 208,-299.42 208,-329.42"/>
<text text-anchor="start" x="8" y="-317.42" font-family="Helvetica,sans-Serif" font-size="10.00">gerber2coordinatesTEST.Druckerserver.</text>
<text text-anchor="middle" x="104" y="-306.42" font-family="Helvetica,sans-Serif" font-size="10.00">Start</text>
</a>
</g>
</g>
<!-- Node2 -->
<g id="Node000002" class="node">
<title>Node2</title>
<g id="a_Node000002"><a xlink:href="classgerber2coordinatesTEST_1_1Druckerserver.html#ac93056be99f683fd7a826082b67180dd" target="_top" xlink:title="Funktion zum aktzeptieren mehrerer Anfragen gleichzeitig.">
<polygon fill="white" stroke="#666666" points="452,-329.42 244,-329.42 244,-299.42 452,-299.42 452,-329.42"/>
<text text-anchor="start" x="252" y="-317.42" font-family="Helvetica,sans-Serif" font-size="10.00">gerber2coordinatesTEST.Druckerserver.</text>
<text text-anchor="middle" x="348" y="-306.42" font-family="Helvetica,sans-Serif" font-size="10.00">AcceptRequests</text>
</a>
</g>
</g>
<!-- Node1&#45;&gt;Node2 -->
<g id="edge1_Node000001_Node000002" class="edge">
<title>Node1&#45;&gt;Node2</title>
<g id="a_edge1_Node000001_Node000002"><a xlink:title=" ">
<path fill="none" stroke="#63b8ff" d="M208.33,-314.42C216.64,-314.42 225.07,-314.42 233.44,-314.42"/>
<polygon fill="#63b8ff" stroke="#63b8ff" points="233.63,-317.92 243.63,-314.42 233.63,-310.92 233.63,-317.92"/>
</a>
</g>
</g>
<!-- Node3 -->
<g id="Node000003" class="node">
<title>Node3</title>
<g id="a_Node000003"><a xlink:href="classgerber2coordinatesTEST_1_1Druckerserver.html#ab8db08d8cf9f5882603df250d7c0c03b" target="_top" xlink:title="Die einzelnen Anfragen werden verarbeitet.">
<polygon fill="white" stroke="#666666" points="696,-329.42 488,-329.42 488,-299.42 696,-299.42 696,-329.42"/>
<text text-anchor="start" x="496" y="-317.42" font-family="Helvetica,sans-Serif" font-size="10.00">gerber2coordinatesTEST.Druckerserver.</text>
<text text-anchor="middle" x="592" y="-306.42" font-family="Helvetica,sans-Serif" font-size="10.00">HandleRequest</text>
</a>
</g>
</g>
<!-- Node2&#45;&gt;Node3 -->
<g id="edge2_Node000002_Node000003" class="edge">
<title>Node2&#45;&gt;Node3</title>
<g id="a_edge2_Node000002_Node000003"><a xlink:title=" ">
<path fill="none" stroke="#63b8ff" d="M452.33,-314.42C460.64,-314.42 469.07,-314.42 477.44,-314.42"/>
<polygon fill="#63b8ff" stroke="#63b8ff" points="477.63,-317.92 487.63,-314.42 477.63,-310.92 477.63,-317.92"/>
</a>
</g>
</g>
<!-- Node4 -->
<g id="Node000004" class="node">
<title>Node4</title>
<g id="a_Node000004"><a xlink:href="classgerber2coordinatesTEST_1_1Druckerserver.html#a0835f5beab61ad3fa7595fd3637c40c5" target="_top" xlink:title=" ">
<polygon fill="white" stroke="#666666" points="1000.5,-585.92 737.5,-585.92 737.5,-566.92 1000.5,-566.92 1000.5,-585.92"/>
<text text-anchor="middle" x="869" y="-573.92" font-family="Helvetica,sans-Serif" font-size="10.00">gerber2coordinatesTEST.Druckerserver.getpreview</text>
</a>
</g>
</g>
<!-- Node3&#45;&gt;Node4 -->
<g id="edge3_Node000003_Node000004" class="edge">
<title>Node3&#45;&gt;Node4</title>
<g id="a_edge3_Node000003_Node000004"><a xlink:title=" ">
<path fill="none" stroke="#63b8ff" d="M598.27,-329.56C612.91,-369.34 657.92,-477.71 732,-534.42 750.54,-548.62 773.93,-558.06 796.06,-564.32"/>
<polygon fill="#63b8ff" stroke="#63b8ff" points="795.22,-567.72 805.78,-566.89 797.01,-560.95 795.22,-567.72"/>
</a>
</g>
</g>
<!-- Node6 -->
<g id="Node000006" class="node">
<title>Node6</title>
<g id="a_Node000006"><a xlink:href="classgerber2coordinatesTEST_1_1Gerberfileinfo.html#a9ba5800c1575be5dfff55093a42d77cb" target="_top" xlink:title="Aktuellen Druckfortschritt in Prozent bekommen.">
<polygon fill="white" stroke="#666666" points="1634,-185.92 1334,-185.92 1334,-166.92 1634,-166.92 1634,-185.92"/>
<text text-anchor="middle" x="1484" y="-173.92" font-family="Helvetica,sans-Serif" font-size="10.00">gerber2coordinatesTEST.Gerberfileinfo.getprintpercentage</text>
</a>
</g>
</g>
<!-- Node3&#45;&gt;Node6 -->
<g id="edge5_Node000003_Node000006" class="edge">
<title>Node3&#45;&gt;Node6</title>
<g id="a_edge5_Node000003_Node000006"><a xlink:title=" ">
<path fill="none" stroke="#63b8ff" d="M605.23,-299.35C627.33,-273.42 676.78,-221.17 732,-200.42 836.32,-161.23 1135.91,-163.66 1323.66,-169.61"/>
<polygon fill="#63b8ff" stroke="#63b8ff" points="1323.8,-173.12 1333.9,-169.95 1324.02,-166.12 1323.8,-173.12"/>
</a>
</g>
</g>
<!-- Node7 -->
<g id="Node000007" class="node">
<title>Node7</title>
<g id="a_Node000007"><a xlink:href="classLeiterplattendrucker__V1_1_1Website.html#a71e53317601b7596dd7d430a6ae3978f" target="_top" xlink:title=" ">
<polygon fill="white" stroke="#666666" points="940.5,-485.42 797.5,-485.42 797.5,-455.42 940.5,-455.42 940.5,-485.42"/>
<text text-anchor="start" x="805.5" y="-473.42" font-family="Helvetica,sans-Serif" font-size="10.00">Leiterplattendrucker</text>
<text text-anchor="middle" x="869" y="-462.42" font-family="Helvetica,sans-Serif" font-size="10.00">_V1.Website.getResponse</text>
</a>
</g>
</g>
<!-- Node3&#45;&gt;Node7 -->
<g id="edge6_Node000003_Node000007" class="edge">
<title>Node3&#45;&gt;Node7</title>
<g id="a_edge6_Node000003_Node000007"><a xlink:title=" ">
<path fill="none" stroke="#63b8ff" d="M604.02,-329.65C625.29,-357.79 674.95,-417.65 732,-446.42 748.97,-454.98 768.46,-460.54 787.3,-464.14"/>
<polygon fill="#63b8ff" stroke="#63b8ff" points="786.92,-467.62 797.37,-465.89 788.12,-460.73 786.92,-467.62"/>
</a>
</g>
</g>
<!-- Node8 -->
<g id="Node000008" class="node">
<title>Node8</title>
<g id="a_Node000008"><a xlink:href="classgerber2coordinatesTEST_1_1Druckerserver.html#a08d1da26dbc5116eff8ca27a47ec38af" target="_top" xlink:title=" ">
<polygon fill="white" stroke="#666666" points="981,-437.42 757,-437.42 757,-407.42 981,-407.42 981,-437.42"/>
<text text-anchor="start" x="765" y="-425.42" font-family="Helvetica,sans-Serif" font-size="10.00">gerber2coordinatesTEST.Druckerserver.init</text>
<text text-anchor="middle" x="869" y="-414.42" font-family="Helvetica,sans-Serif" font-size="10.00">Printing</text>
</a>
</g>
</g>
<!-- Node3&#45;&gt;Node8 -->
<g id="edge7_Node000003_Node000008" class="edge">
<title>Node3&#45;&gt;Node8</title>
<g id="a_edge7_Node000003_Node000008"><a xlink:title=" ">
<path fill="none" stroke="#63b8ff" d="M612.51,-329.45C638.36,-348.57 686.07,-381.18 732,-398.42 738.18,-400.74 744.61,-402.84 751.16,-404.74"/>
<polygon fill="#63b8ff" stroke="#63b8ff" points="750.25,-408.12 760.82,-407.38 752.1,-401.37 750.25,-408.12"/>
</a>
</g>
</g>
<!-- Node9 -->
<g id="Node000009" class="node">
<title>Node9</title>
<g id="a_Node000009"><a xlink:href="classgerber2coordinatesTEST_1_1Druckerserver.html#aca3fd45b4759e5834114e450a8d50d32" target="_top" xlink:title="Allgemeine Konsolenausgabe mit aktueller Zeit.">
<polygon fill="white" stroke="#666666" points="1940,-261.92 1670,-261.92 1670,-242.92 1940,-242.92 1940,-261.92"/>
<text text-anchor="middle" x="1805" y="-249.92" font-family="Helvetica,sans-Serif" font-size="10.00">gerber2coordinatesTEST.Druckerserver.logtoconsole</text>
</a>
</g>
</g>
<!-- Node3&#45;&gt;Node9 -->
<g id="edge8_Node000003_Node000009" class="edge">
<title>Node3&#45;&gt;Node9</title>
<g id="a_edge8_Node000003_Node000009"><a xlink:title=" ">
<path fill="none" stroke="#63b8ff" d="M612.82,-299.35C638.63,-280.77 685.9,-250.2 732,-238.42 905.87,-194 1426.02,-224.44 1672.14,-242.17"/>
<polygon fill="#63b8ff" stroke="#63b8ff" points="1671.99,-245.67 1682.22,-242.9 1672.5,-238.69 1671.99,-245.67"/>
</a>
</g>
</g>
<!-- Node10 -->
<g id="Node000010" class="node">
<title>Node10</title>
<g id="a_Node000010"><a xlink:href="classgerber2coordinatesTEST_1_1Druckerserver.html#a6d2b6196c04dad571e84b2f1e6e09724" target="_top" xlink:title=" ">
<polygon fill="white" stroke="#666666" points="987.5,-351.42 750.5,-351.42 750.5,-321.42 987.5,-321.42 987.5,-351.42"/>
<text text-anchor="start" x="758.5" y="-339.42" font-family="Helvetica,sans-Serif" font-size="10.00">gerber2coordinatesTEST.Druckerserver.pause</text>
<text text-anchor="middle" x="869" y="-328.42" font-family="Helvetica,sans-Serif" font-size="10.00">Printing</text>
</a>
</g>
</g>
<!-- Node3&#45;&gt;Node10 -->
<g id="edge9_Node000003_Node000010" class="edge">
<title>Node3&#45;&gt;Node10</title>
<g id="a_edge9_Node000003_Node000010"><a xlink:title=" ">
<path fill="none" stroke="#63b8ff" d="M696.18,-322.68C710.55,-323.83 725.44,-325.02 740.19,-326.2"/>
<polygon fill="#63b8ff" stroke="#63b8ff" points="740.12,-329.7 750.37,-327.01 740.68,-322.73 740.12,-329.7"/>
</a>
</g>
</g>
<!-- Node11 -->
<g id="Node000011" class="node">
<title>Node11</title>
<g id="a_Node000011"><a xlink:href="classgerber2coordinatesTEST_1_1Druckerserver.html#ad0249cb1356b24bc2dc3f208b5d35581" target="_top" xlink:title=" ">
<polygon fill="white" stroke="#666666" points="995.5,-388.92 742.5,-388.92 742.5,-369.92 995.5,-369.92 995.5,-388.92"/>
<text text-anchor="middle" x="869" y="-376.92" font-family="Helvetica,sans-Serif" font-size="10.00">gerber2coordinatesTEST.Druckerserver.setmirror</text>
</a>
</g>
</g>
<!-- Node3&#45;&gt;Node11 -->
<g id="edge10_Node000003_Node000011" class="edge">
<title>Node3&#45;&gt;Node11</title>
<g id="a_edge10_Node000003_Node000011"><a xlink:title=" ">
<path fill="none" stroke="#63b8ff" d="M632,-329.44C659.57,-339.52 697.59,-352.4 732,-360.42 745.08,-363.47 758.98,-366.1 772.72,-368.35"/>
<polygon fill="#63b8ff" stroke="#63b8ff" points="772.26,-371.82 782.68,-369.91 773.35,-364.9 772.26,-371.82"/>
</a>
</g>
</g>
<!-- Node15 -->
<g id="Node000015" class="node">
<title>Node15</title>
<g id="a_Node000015"><a xlink:href="classgerber2coordinatesTEST_1_1Druckerserver.html#a59c02b80d01f547c5e903f9976272db7" target="_top" xlink:title=" ">
<polygon fill="white" stroke="#666666" points="994.5,-302.92 743.5,-302.92 743.5,-283.92 994.5,-283.92 994.5,-302.92"/>
<text text-anchor="middle" x="869" y="-290.92" font-family="Helvetica,sans-Serif" font-size="10.00">gerber2coordinatesTEST.Druckerserver.setoffset</text>
</a>
</g>
</g>
<!-- Node3&#45;&gt;Node15 -->
<g id="edge15_Node000003_Node000015" class="edge">
<title>Node3&#45;&gt;Node15</title>
<g id="a_edge15_Node000003_Node000015"><a xlink:title=" ">
<path fill="none" stroke="#63b8ff" d="M696.18,-306.54C708.33,-305.62 720.86,-304.66 733.35,-303.71"/>
<polygon fill="#63b8ff" stroke="#63b8ff" points="733.66,-307.19 743.36,-302.94 733.12,-300.21 733.66,-307.19"/>
</a>
</g>
</g>
<!-- Node17 -->
<g id="Node000017" class="node">
<title>Node17</title>
<g id="a_Node000017"><a xlink:href="classgerber2coordinatesTEST_1_1Druckerserver.html#a12e0f5f8fafaba6e56b74278991b798b" target="_top" xlink:title=" ">
<polygon fill="white" stroke="#666666" points="995.5,-524.92 742.5,-524.92 742.5,-505.92 995.5,-505.92 995.5,-524.92"/>
<text text-anchor="middle" x="869" y="-512.92" font-family="Helvetica,sans-Serif" font-size="10.00">gerber2coordinatesTEST.Druckerserver.setpadfill</text>
</a>
</g>
</g>
<!-- Node3&#45;&gt;Node17 -->
<g id="edge19_Node000003_Node000017" class="edge">
<title>Node3&#45;&gt;Node17</title>
<g id="a_edge19_Node000003_Node000017"><a xlink:title=" ">
<path fill="none" stroke="#63b8ff" d="M599.78,-329.66C616.48,-365.25 663.32,-453.88 732,-494.42 737.07,-497.42 742.43,-500.03 747.98,-502.31"/>
<polygon fill="#63b8ff" stroke="#63b8ff" points="746.86,-505.63 757.46,-505.83 749.3,-499.07 746.86,-505.63"/>
</a>
</g>
</g>
<!-- Node19 -->
<g id="Node000019" class="node">
<title>Node19</title>
<g id="a_Node000019"><a xlink:href="classgerber2coordinatesTEST_1_1Druckerserver.html#a5ac55638a08c878eb8fe137be3d1a411" target="_top" xlink:title=" ">
<polygon fill="white" stroke="#666666" points="1006,-265.92 732,-265.92 732,-246.92 1006,-246.92 1006,-265.92"/>
<text text-anchor="middle" x="869" y="-253.92" font-family="Helvetica,sans-Serif" font-size="10.00">gerber2coordinatesTEST.Druckerserver.setpolygonfill</text>
</a>
</g>
</g>
<!-- Node3&#45;&gt;Node19 -->
<g id="edge23_Node000003_Node000019" class="edge">
<title>Node3&#45;&gt;Node19</title>
<g id="a_edge23_Node000003_Node000019"><a xlink:title=" ">
<path fill="none" stroke="#63b8ff" d="M640.53,-299.37C667.2,-291.36 701.21,-281.86 732,-275.42 746.31,-272.43 761.58,-269.78 776.51,-267.48"/>
<polygon fill="#63b8ff" stroke="#63b8ff" points="777.41,-270.89 786.79,-265.95 776.38,-263.96 777.41,-270.89"/>
</a>
</g>
</g>
<!-- Node21 -->
<g id="Node000021" class="node">
<title>Node21</title>
<g id="a_Node000021"><a xlink:href="classgerber2coordinatesTEST_1_1Druckerserver.html#a4d3050145a86ba737bef7a21d2e52fa4" target="_top" xlink:title=" ">
<polygon fill="white" stroke="#666666" points="984,-148.42 754,-148.42 754,-118.42 984,-118.42 984,-148.42"/>
<text text-anchor="start" x="762" y="-136.42" font-family="Helvetica,sans-Serif" font-size="10.00">gerber2coordinatesTEST.Druckerserver.start</text>
<text text-anchor="middle" x="869" y="-125.42" font-family="Helvetica,sans-Serif" font-size="10.00">Printing</text>
</a>
</g>
</g>
<!-- Node3&#45;&gt;Node21 -->
<g id="edge27_Node000003_Node000021" class="edge">
<title>Node3&#45;&gt;Node21</title>
<g id="a_edge27_Node000003_Node000021"><a xlink:title=" ">
<path fill="none" stroke="#63b8ff" d="M602.3,-299.03C622.01,-267.85 671.18,-197.25 732,-162.42 739.07,-158.37 746.65,-154.89 754.47,-151.88"/>
<polygon fill="#63b8ff" stroke="#63b8ff" points="755.86,-155.1 764.11,-148.46 753.52,-148.51 755.86,-155.1"/>
</a>
</g>
</g>
<!-- Node26 -->
<g id="Node000026" class="node">
<title>Node26</title>
<g id="a_Node000026"><a xlink:href="classgerber2coordinatesTEST_1_1Druckerserver.html#a56560bd44a06029268e9cd3bfef89eba" target="_top" xlink:title=" ">
<polygon fill="white" stroke="#666666" points="983.5,-100.42 754.5,-100.42 754.5,-70.42 983.5,-70.42 983.5,-100.42"/>
<text text-anchor="start" x="762.5" y="-88.42" font-family="Helvetica,sans-Serif" font-size="10.00">gerber2coordinatesTEST.Druckerserver.stop</text>
<text text-anchor="middle" x="869" y="-77.42" font-family="Helvetica,sans-Serif" font-size="10.00">Printing</text>
</a>
</g>
</g>
<!-- Node3&#45;&gt;Node26 -->
<g id="edge35_Node000003_Node000026" class="edge">
<title>Node3&#45;&gt;Node26</title>
<g id="a_edge35_Node000003_Node000026"><a xlink:title=" ">
<path fill="none" stroke="#63b8ff" d="M598.43,-299.25C613.17,-260.48 657.84,-157.47 732,-109.42 736.12,-106.75 740.46,-104.36 744.94,-102.21"/>
<polygon fill="#63b8ff" stroke="#63b8ff" points="746.55,-105.32 754.34,-98.13 743.77,-98.9 746.55,-105.32"/>
</a>
</g>
</g>
<!-- Node5 -->
<g id="Node000005" class="node">
<title>Node5</title>
<g id="a_Node000005"><a xlink:href="classgerber2coordinatesTEST_1_1Gerberfileinfo.html#a992e1d2ee0ab9a4a8f7856869cd89b25" target="_top" xlink:title=" ">
<polygon fill="white" stroke="#666666" points="1298,-616.42 1042,-616.42 1042,-586.42 1298,-586.42 1298,-616.42"/>
<text text-anchor="start" x="1050" y="-604.42" font-family="Helvetica,sans-Serif" font-size="10.00">gerber2coordinatesTEST.Gerberfileinfo.getlinelist</text>
<text text-anchor="middle" x="1170" y="-593.42" font-family="Helvetica,sans-Serif" font-size="10.00">_as_json</text>
</a>
</g>
</g>
<!-- Node4&#45;&gt;Node5 -->
<g id="edge4_Node000004_Node000005" class="edge">
<title>Node4&#45;&gt;Node5</title>
<g id="a_edge4_Node000004_Node000005"><a xlink:title=" ">
<path fill="none" stroke="#63b8ff" d="M983.89,-585.95C999.61,-587.26 1015.88,-588.62 1031.96,-589.97"/>
<polygon fill="#63b8ff" stroke="#63b8ff" points="1031.69,-593.45 1041.94,-590.8 1032.27,-586.48 1031.69,-593.45"/>
</a>
</g>
</g>
<!-- Node11&#45;&gt;Node9 -->
<g id="edge11_Node000011_Node000009" class="edge">
<title>Node11&#45;&gt;Node9</title>
<g id="a_edge11_Node000011_Node000009"><a xlink:title=" ">
<path fill="none" stroke="#63b8ff" d="M995.66,-379.68C1148.39,-377.57 1413.1,-366.09 1634,-316.42 1685.25,-304.9 1741.77,-281.28 1775.01,-266.18"/>
<polygon fill="#63b8ff" stroke="#63b8ff" points="1776.53,-269.34 1784.15,-261.98 1773.6,-262.98 1776.53,-269.34"/>
</a>
</g>
</g>
<!-- Node12 -->
<g id="Node000012" class="node">
<title>Node12</title>
<g id="a_Node000012"><a xlink:href="classgerber2coordinatesTEST_1_1GerberSettingsList.html#a21318abf396092ec7e533611001a98c0" target="_top" xlink:title=" ">
<polygon fill="white" stroke="#666666" points="1255,-482.42 1085,-482.42 1085,-452.42 1255,-452.42 1255,-482.42"/>
<text text-anchor="start" x="1093" y="-470.42" font-family="Helvetica,sans-Serif" font-size="10.00">gerber2coordinatesTEST.Gerber</text>
<text text-anchor="middle" x="1170" y="-459.42" font-family="Helvetica,sans-Serif" font-size="10.00">SettingsList.setmirror</text>
</a>
</g>
</g>
<!-- Node11&#45;&gt;Node12 -->
<g id="edge12_Node000011_Node000012" class="edge">
<title>Node11&#45;&gt;Node12</title>
<g id="a_edge12_Node000011_Node000012"><a xlink:title=" ">
<path fill="none" stroke="#63b8ff" d="M984.93,-388.94C992.27,-391.52 999.37,-394.65 1006,-398.42 1028.26,-411.09 1020.05,-430.22 1042,-443.42 1052.14,-449.52 1063.49,-454.13 1075.13,-457.59"/>
<polygon fill="#63b8ff" stroke="#63b8ff" points="1074.38,-461.02 1084.94,-460.25 1076.2,-454.26 1074.38,-461.02"/>
</a>
</g>
</g>
<!-- Node13 -->
<g id="Node000013" class="node">
<title>Node13</title>
<g id="a_Node000013"><a xlink:href="classgerber2coordinatesTEST_1_1GerberSettingsList.html#a7f6830eebd42c74fac6d9de8d2a6c44e" target="_top" xlink:title=" ">
<polygon fill="white" stroke="#666666" points="1569,-458.42 1399,-458.42 1399,-428.42 1569,-428.42 1569,-458.42"/>
<text text-anchor="start" x="1407" y="-446.42" font-family="Helvetica,sans-Serif" font-size="10.00">gerber2coordinatesTEST.Gerber</text>
<text text-anchor="middle" x="1484" y="-435.42" font-family="Helvetica,sans-Serif" font-size="10.00">SettingsList.setsetting</text>
</a>
</g>
</g>
<!-- Node12&#45;&gt;Node13 -->
<g id="edge13_Node000012_Node000013" class="edge">
<title>Node12&#45;&gt;Node13</title>
<g id="a_edge13_Node000012_Node000013"><a xlink:title=" ">
<path fill="none" stroke="#63b8ff" d="M1255.02,-460.96C1296.29,-457.79 1346.17,-453.95 1388.74,-450.67"/>
<polygon fill="#63b8ff" stroke="#63b8ff" points="1389.13,-454.16 1398.83,-449.9 1388.59,-447.18 1389.13,-454.16"/>
</a>
</g>
</g>
<!-- Node14 -->
<g id="Node000014" class="node">
<title>Node14</title>
<g id="a_Node000014"><a xlink:href="classgerber2coordinatesTEST_1_1GerberSettingsList.html#a0d6c6ef709817eaa9af58b92a61225b4" target="_top" xlink:title=" ">
<polygon fill="white" stroke="#666666" points="1890,-458.42 1720,-458.42 1720,-428.42 1890,-428.42 1890,-458.42"/>
<text text-anchor="start" x="1728" y="-446.42" font-family="Helvetica,sans-Serif" font-size="10.00">gerber2coordinatesTEST.Gerber</text>
<text text-anchor="middle" x="1805" y="-435.42" font-family="Helvetica,sans-Serif" font-size="10.00">SettingsList.existssetting</text>
</a>
</g>
</g>
<!-- Node13&#45;&gt;Node14 -->
<g id="edge14_Node000013_Node000014" class="edge">
<title>Node13&#45;&gt;Node14</title>
<g id="a_edge14_Node000013_Node000014"><a xlink:title=" ">
<path fill="none" stroke="#63b8ff" d="M1569.23,-443.42C1612.39,-443.42 1665.08,-443.42 1709.6,-443.42"/>
<polygon fill="#63b8ff" stroke="#63b8ff" points="1709.85,-446.92 1719.85,-443.42 1709.85,-439.92 1709.85,-446.92"/>
</a>
</g>
</g>
<!-- Node15&#45;&gt;Node9 -->
<g id="edge16_Node000015_Node000009" class="edge">
<title>Node15&#45;&gt;Node9</title>
<g id="a_edge16_Node000015_Node000009"><a xlink:title=" ">
<path fill="none" stroke="#63b8ff" d="M943.51,-302.97C963.79,-305.8 985.78,-309.05 1006,-312.42 1022.08,-315.11 1025.78,-317.86 1042,-319.42 1307.19,-344.97 1624.69,-289.33 1749.66,-264.06"/>
<polygon fill="#63b8ff" stroke="#63b8ff" points="1750.64,-267.44 1759.74,-262.01 1749.24,-260.58 1750.64,-267.44"/>
</a>
</g>
</g>
<!-- Node16 -->
<g id="Node000016" class="node">
<title>Node16</title>
<g id="a_Node000016"><a xlink:href="classgerber2coordinatesTEST_1_1GerberSettingsList.html#a036d1751712a1544f8957b4e1a252312" target="_top" xlink:title=" ">
<polygon fill="white" stroke="#666666" points="1255,-434.42 1085,-434.42 1085,-404.42 1255,-404.42 1255,-434.42"/>
<text text-anchor="start" x="1093" y="-422.42" font-family="Helvetica,sans-Serif" font-size="10.00">gerber2coordinatesTEST.Gerber</text>
<text text-anchor="middle" x="1170" y="-411.42" font-family="Helvetica,sans-Serif" font-size="10.00">SettingsList.setoffset</text>
</a>
</g>
</g>
<!-- Node15&#45;&gt;Node16 -->
<g id="edge17_Node000015_Node000016" class="edge">
<title>Node15&#45;&gt;Node16</title>
<g id="a_edge17_Node000015_Node000016"><a xlink:title=" ">
<path fill="none" stroke="#63b8ff" d="M983.29,-302.93C991.19,-305.49 998.84,-308.62 1006,-312.42 1027.12,-323.65 1023.13,-337.73 1042,-352.42 1066.76,-371.71 1097.89,-388.23 1123.13,-400.05"/>
<polygon fill="#63b8ff" stroke="#63b8ff" points="1121.94,-403.35 1132.49,-404.34 1124.86,-396.99 1121.94,-403.35"/>
</a>
</g>
</g>
<!-- Node16&#45;&gt;Node13 -->
<g id="edge18_Node000016_Node000013" class="edge">
<title>Node16&#45;&gt;Node13</title>
<g id="a_edge18_Node000016_Node000013"><a xlink:title=" ">
<path fill="none" stroke="#63b8ff" d="M1255.02,-425.89C1296.29,-429.06 1346.17,-432.9 1388.74,-436.17"/>
<polygon fill="#63b8ff" stroke="#63b8ff" points="1388.59,-439.67 1398.83,-436.95 1389.13,-432.69 1388.59,-439.67"/>
</a>
</g>
</g>
<!-- Node17&#45;&gt;Node9 -->
<g id="edge20_Node000017_Node000009" class="edge">
<title>Node17&#45;&gt;Node9</title>
<g id="a_edge20_Node000017_Node000009"><a xlink:title=" ">
<path fill="none" stroke="#63b8ff" d="M908.5,-525.02C1027.61,-552.38 1396.39,-619.45 1634,-467.42 1656.46,-453.05 1653.65,-440.49 1670,-419.42 1712.72,-364.36 1764.74,-300.37 1789.53,-270.07"/>
<polygon fill="#63b8ff" stroke="#63b8ff" points="1792.41,-272.08 1796.03,-262.12 1786.99,-267.64 1792.41,-272.08"/>
</a>
</g>
</g>
<!-- Node18 -->
<g id="Node000018" class="node">
<title>Node18</title>
<g id="a_Node000018"><a xlink:href="classgerber2coordinatesTEST_1_1GerberSettingsList.html#ab52332fb782819fe4b9bfd20f3f3b534" target="_top" xlink:title=" ">
<polygon fill="white" stroke="#666666" points="1255,-530.42 1085,-530.42 1085,-500.42 1255,-500.42 1255,-530.42"/>
<text text-anchor="start" x="1093" y="-518.42" font-family="Helvetica,sans-Serif" font-size="10.00">gerber2coordinatesTEST.Gerber</text>
<text text-anchor="middle" x="1170" y="-507.42" font-family="Helvetica,sans-Serif" font-size="10.00">SettingsList.setpadwidth</text>
</a>
</g>
</g>
<!-- Node17&#45;&gt;Node18 -->
<g id="edge21_Node000017_Node000018" class="edge">
<title>Node17&#45;&gt;Node18</title>
<g id="a_edge21_Node000017_Node000018"><a xlink:title=" ">
<path fill="none" stroke="#63b8ff" d="M995.5,-515.42C1021.91,-515.42 1049.34,-515.42 1074.39,-515.42"/>
<polygon fill="#63b8ff" stroke="#63b8ff" points="1074.6,-518.92 1084.6,-515.42 1074.6,-511.92 1074.6,-518.92"/>
</a>
</g>
</g>
<!-- Node18&#45;&gt;Node13 -->
<g id="edge22_Node000018_Node000013" class="edge">
<title>Node18&#45;&gt;Node13</title>
<g id="a_edge22_Node000018_Node000013"><a xlink:title=" ">
<path fill="none" stroke="#63b8ff" d="M1254.85,-500.4C1269.28,-497.58 1284.1,-494.54 1298,-491.42 1338.55,-482.34 1383.69,-470.66 1419.24,-461.09"/>
<polygon fill="#63b8ff" stroke="#63b8ff" points="1420.26,-464.45 1429,-458.46 1418.43,-457.69 1420.26,-464.45"/>
</a>
</g>
</g>
<!-- Node19&#45;&gt;Node9 -->
<g id="edge24_Node000019_Node000009" class="edge">
<title>Node19&#45;&gt;Node9</title>
<g id="a_edge24_Node000019_Node000009"><a xlink:title=" ">
<path fill="none" stroke="#63b8ff" d="M1006.06,-255.84C1180.45,-255.09 1481.5,-253.8 1659.76,-253.04"/>
<polygon fill="#63b8ff" stroke="#63b8ff" points="1660.01,-256.54 1670,-253 1659.98,-249.54 1660.01,-256.54"/>
</a>
</g>
</g>
<!-- Node20 -->
<g id="Node000020" class="node">
<title>Node20</title>
<g id="a_Node000020"><a xlink:href="classgerber2coordinatesTEST_1_1GerberSettingsList.html#ac518ba905ddb1dc5535cc2761685a560" target="_top" xlink:title=" ">
<polygon fill="white" stroke="#666666" points="1255,-310.42 1085,-310.42 1085,-280.42 1255,-280.42 1255,-310.42"/>
<text text-anchor="start" x="1093" y="-298.42" font-family="Helvetica,sans-Serif" font-size="10.00">gerber2coordinatesTEST.Gerber</text>
<text text-anchor="middle" x="1170" y="-287.42" font-family="Helvetica,sans-Serif" font-size="10.00">SettingsList.setpolygoninfill</text>
</a>
</g>
</g>
<!-- Node19&#45;&gt;Node20 -->
<g id="edge25_Node000019_Node000020" class="edge">
<title>Node19&#45;&gt;Node20</title>
<g id="a_edge25_Node000019_Node000020"><a xlink:title=" ">
<path fill="none" stroke="#63b8ff" d="M943.14,-265.96C982.84,-271.14 1032.35,-277.6 1074.89,-283.15"/>
<polygon fill="#63b8ff" stroke="#63b8ff" points="1074.61,-286.64 1084.98,-284.46 1075.52,-279.7 1074.61,-286.64"/>
</a>
</g>
</g>
<!-- Node20&#45;&gt;Node13 -->
<g id="edge26_Node000020_Node000013" class="edge">
<title>Node20&#45;&gt;Node13</title>
<g id="a_edge26_Node000020_Node000013"><a xlink:title=" ">
<path fill="none" stroke="#63b8ff" d="M1202.63,-310.43C1259.51,-337.41 1378.99,-394.08 1442.04,-423.99"/>
<polygon fill="#63b8ff" stroke="#63b8ff" points="1440.75,-427.25 1451.28,-428.38 1443.75,-420.93 1440.75,-427.25"/>
</a>
</g>
</g>
<!-- Node22 -->
<g id="Node000022" class="node">
<title>Node22</title>
<g id="a_Node000022"><a xlink:href="classgerber2coordinatesTEST_1_1Druckerserver.html#a9d206737320c167397df7512cd0b0d40" target="_top" xlink:title=" ">
<polygon fill="white" stroke="#666666" points="1285,-124.92 1055,-124.92 1055,-105.92 1285,-105.92 1285,-124.92"/>
<text text-anchor="middle" x="1170" y="-112.92" font-family="Helvetica,sans-Serif" font-size="10.00">gerber2coordinatesTEST.Druckerserver.print</text>
</a>
</g>
</g>
<!-- Node21&#45;&gt;Node22 -->
<g id="edge28_Node000021_Node000022" class="edge">
<title>Node21&#45;&gt;Node22</title>
<g id="a_edge28_Node000021_Node000022"><a xlink:title=" ">
<path fill="none" stroke="#63b8ff" d="M984.32,-126.54C1004.06,-125.35 1024.68,-124.11 1044.67,-122.91"/>
<polygon fill="#63b8ff" stroke="#63b8ff" points="1044.97,-126.4 1054.74,-122.3 1044.55,-119.41 1044.97,-126.4"/>
</a>
</g>
</g>
<!-- Node22&#45;&gt;Node6 -->
<g id="edge32_Node000022_Node000006" class="edge">
<title>Node22&#45;&gt;Node6</title>
<g id="a_edge32_Node000022_Node000006"><a xlink:title=" ">
<path fill="none" stroke="#63b8ff" d="M1203.2,-125C1235.89,-134.41 1288.08,-148.62 1334,-157.42 1349.91,-160.47 1366.87,-163.16 1383.43,-165.49"/>
<polygon fill="#63b8ff" stroke="#63b8ff" points="1383.3,-169 1393.68,-166.89 1384.24,-162.07 1383.3,-169"/>
</a>
</g>
</g>
<!-- Node22&#45;&gt;Node9 -->
<g id="edge34_Node000022_Node000009" class="edge">
<title>Node22&#45;&gt;Node9</title>
<g id="a_edge34_Node000022_Node000009"><a xlink:title=" ">
<path fill="none" stroke="#63b8ff" d="M1184.97,-105.65C1212.13,-87.32 1274.63,-48.36 1334,-34.42 1463.8,-3.95 1514.19,24.08 1634,-34.42 1721.22,-77.01 1776.73,-188.37 1796.2,-233.26"/>
<polygon fill="#63b8ff" stroke="#63b8ff" points="1792.98,-234.62 1800.09,-242.47 1799.42,-231.9 1792.98,-234.62"/>
</a>
</g>
</g>
<!-- Node23 -->
<g id="Node000023" class="node">
<title>Node23</title>
<g id="a_Node000023"><a xlink:href="classgerber2coordinatesTEST_1_1Druckerserver.html#a7680188ef68e32230ee1173f1e9f7a58" target="_top" xlink:title=" ">
<polygon fill="white" stroke="#666666" points="1608,-148.92 1360,-148.92 1360,-129.92 1608,-129.92 1608,-148.92"/>
<text text-anchor="middle" x="1484" y="-136.92" font-family="Helvetica,sans-Serif" font-size="10.00">gerber2coordinatesTEST.Druckerserver.endprint</text>
</a>
</g>
</g>
<!-- Node22&#45;&gt;Node23 -->
<g id="edge29_Node000022_Node000023" class="edge">
<title>Node22&#45;&gt;Node23</title>
<g id="a_edge29_Node000022_Node000023"><a xlink:title=" ">
<path fill="none" stroke="#63b8ff" d="M1285.41,-124.22C1306.35,-125.84 1328.37,-127.53 1349.81,-129.18"/>
<polygon fill="#63b8ff" stroke="#63b8ff" points="1349.7,-132.68 1359.94,-129.96 1350.24,-125.7 1349.7,-132.68"/>
</a>
</g>
</g>
<!-- Node24 -->
<g id="Node000024" class="node">
<title>Node24</title>
<g id="a_Node000024"><a xlink:href="classgerber2coordinatesTEST_1_1Gerberfileinfo.html#a4334be9709c2cd8a60d17974c0d73e35" target="_top" xlink:title="Nächste Linie bekommen, wird der Reihe nach ausgegeben.">
<polygon fill="white" stroke="#666666" points="1595.5,-111.42 1372.5,-111.42 1372.5,-81.42 1595.5,-81.42 1595.5,-111.42"/>
<text text-anchor="start" x="1380.5" y="-99.42" font-family="Helvetica,sans-Serif" font-size="10.00">gerber2coordinatesTEST.Gerberfileinfo.get</text>
<text text-anchor="middle" x="1484" y="-88.42" font-family="Helvetica,sans-Serif" font-size="10.00">_next_line</text>
</a>
</g>
</g>
<!-- Node22&#45;&gt;Node24 -->
<g id="edge31_Node000022_Node000024" class="edge">
<title>Node22&#45;&gt;Node24</title>
<g id="a_edge31_Node000022_Node000024"><a xlink:title=" ">
<path fill="none" stroke="#63b8ff" d="M1285.41,-108.46C1310.43,-106.93 1337,-105.31 1362.26,-103.78"/>
<polygon fill="#63b8ff" stroke="#63b8ff" points="1362.48,-107.27 1372.25,-103.17 1362.05,-100.28 1362.48,-107.27"/>
</a>
</g>
</g>
<!-- Node25 -->
<g id="Node000025" class="node">
<title>Node25</title>
<g id="a_Node000025"><a xlink:href="classgerber2coordinatesTEST_1_1Gerbertoolbox.html#ac8029c2807c958525e9cfe87ea3df43e" target="_top" xlink:title=" ">
<polygon fill="white" stroke="#666666" points="1632,-62.92 1336,-62.92 1336,-43.92 1632,-43.92 1632,-62.92"/>
<text text-anchor="middle" x="1484" y="-50.92" font-family="Helvetica,sans-Serif" font-size="10.00">gerber2coordinatesTEST.Gerbertoolbox.getrelativecoords</text>
</a>
</g>
</g>
<!-- Node22&#45;&gt;Node25 -->
<g id="edge33_Node000022_Node000025" class="edge">
<title>Node22&#45;&gt;Node25</title>
<g id="a_edge33_Node000022_Node000025"><a xlink:title=" ">
<path fill="none" stroke="#63b8ff" d="M1202.27,-105.87C1234.88,-96.21 1287.61,-81.46 1334,-72.42 1349.79,-69.35 1366.63,-66.65 1383.08,-64.33"/>
<polygon fill="#63b8ff" stroke="#63b8ff" points="1383.84,-67.76 1393.27,-62.93 1382.89,-60.82 1383.84,-67.76"/>
</a>
</g>
</g>
<!-- Node23&#45;&gt;Node9 -->
<g id="edge30_Node000023_Node000009" class="edge">
<title>Node23&#45;&gt;Node9</title>
<g id="a_edge30_Node000023_Node000009"><a xlink:title=" ">
<path fill="none" stroke="#63b8ff" d="M1601.07,-148.94C1612.33,-151.21 1623.47,-153.99 1634,-157.42 1691.64,-176.2 1751.93,-215.28 1782.89,-237.01"/>
<polygon fill="#63b8ff" stroke="#63b8ff" points="1780.99,-239.95 1791.16,-242.9 1785.05,-234.25 1780.99,-239.95"/>
</a>
</g>
</g>
</g>
</svg>
