<?xml version="1.0" encoding="UTF-8" standalone="no"?>
<!DOCTYPE svg PUBLIC "-//W3C//DTD SVG 1.1//EN"
 "http://www.w3.org/Graphics/SVG/1.1/DTD/svg11.dtd">
<!-- Generated by graphviz version 2.43.0 (0)
 -->
<!-- Title: gerber2coordinatesTEST.Druckerserver.setpolygonfill Pages: 1 -->
<svg width="1000pt" height="76pt"
 viewBox="0.00 0.00 1000.00 75.50" xmlns="http://www.w3.org/2000/svg" xmlns:xlink="http://www.w3.org/1999/xlink">
<g id="graph0" class="graph" transform="scale(1 1) rotate(0) translate(4 71.5)">
<title>gerber2coordinatesTEST.Druckerserver.setpolygonfill</title>
<!-- Node1 -->
<g id="Node000001" class="node">
<title>Node1</title>
<g id="a_Node000001"><a xlink:title=" ">
<polygon fill="#999999" stroke="#666666" points="274,-45.5 0,-45.5 0,-26.5 274,-26.5 274,-45.5"/>
<text text-anchor="middle" x="137" y="-33.5" font-family="Helvetica,sans-Serif" font-size="10.00">gerber2coordinatesTEST.Druckerserver.setpolygonfill</text>
</a>
</g>
</g>
<!-- Node2 -->
<g id="Node000002" class="node">
<title>Node2</title>
<g id="a_Node000002"><a xlink:href="classgerber2coordinatesTEST_1_1Druckerserver.html#aca3fd45b4759e5834114e450a8d50d32" target="_top" xlink:title="Allgemeine Konsolenausgabe mit aktueller Zeit.">
<polygon fill="white" stroke="#666666" points="580,-67.5 310,-67.5 310,-48.5 580,-48.5 580,-67.5"/>
<text text-anchor="middle" x="445" y="-55.5" font-family="Helvetica,sans-Serif" font-size="10.00">gerber2coordinatesTEST.Druckerserver.logtoconsole</text>
</a>
</g>
</g>
<!-- Node1&#45;&gt;Node2 -->
<g id="edge1_Node000001_Node000002" class="edge">
<title>Node1&#45;&gt;Node2</title>
<g id="a_edge1_Node000001_Node000002"><a xlink:title=" ">
<path fill="none" stroke="#63b8ff" d="M270.44,-45.52C280.84,-46.27 291.37,-47.03 301.84,-47.78"/>
<polygon fill="#63b8ff" stroke="#63b8ff" points="301.62,-51.27 311.85,-48.5 302.12,-44.29 301.62,-51.27"/>
</a>
</g>
</g>
<!-- Node3 -->
<g id="Node000003" class="node">
<title>Node3</title>
<g id="a_Node000003"><a xlink:href="classgerber2coordinatesTEST_1_1GerberSettingsList.html#ac518ba905ddb1dc5535cc2761685a560" target="_top" xlink:title=" ">
<polygon fill="white" stroke="#666666" points="530,-30 360,-30 360,0 530,0 530,-30"/>
<text text-anchor="start" x="368" y="-18" font-family="Helvetica,sans-Serif" font-size="10.00">gerber2coordinatesTEST.Gerber</text>
<text text-anchor="middle" x="445" y="-7" font-family="Helvetica,sans-Serif" font-size="10.00">SettingsList.setpolygoninfill</text>
</a>
</g>
</g>
<!-- Node1&#45;&gt;Node3 -->
<g id="edge2_Node000001_Node000003" class="edge">
<title>Node1&#45;&gt;Node3</title>
<g id="a_edge2_Node000001_Node000003"><a xlink:title=" ">
<path fill="none" stroke="#63b8ff" d="M274.44,-26.64C299.82,-24.89 325.82,-23.11 349.59,-21.48"/>
<polygon fill="#63b8ff" stroke="#63b8ff" points="349.9,-24.97 359.64,-20.79 349.42,-17.98 349.9,-24.97"/>
</a>
</g>
</g>
<!-- Node4 -->
<g id="Node000004" class="node">
<title>Node4</title>
<g id="a_Node000004"><a xlink:href="classgerber2coordinatesTEST_1_1GerberSettingsList.html#a7f6830eebd42c74fac6d9de8d2a6c44e" target="_top" xlink:title=" ">
<polygon fill="white" stroke="#666666" points="786,-30 616,-30 616,0 786,0 786,-30"/>
<text text-anchor="start" x="624" y="-18" font-family="Helvetica,sans-Serif" font-size="10.00">gerber2coordinatesTEST.Gerber</text>
<text text-anchor="middle" x="701" y="-7" font-family="Helvetica,sans-Serif" font-size="10.00">SettingsList.setsetting</text>
</a>
</g>
</g>
<!-- Node3&#45;&gt;Node4 -->
<g id="edge3_Node000003_Node000004" class="edge">
<title>Node3&#45;&gt;Node4</title>
<g id="a_edge3_Node000003_Node000004"><a xlink:title=" ">
<path fill="none" stroke="#63b8ff" d="M530.23,-15C554.34,-15 580.79,-15 605.47,-15"/>
<polygon fill="#63b8ff" stroke="#63b8ff" points="605.57,-18.5 615.57,-15 605.57,-11.5 605.57,-18.5"/>
</a>
</g>
</g>
<!-- Node5 -->
<g id="Node000005" class="node">
<title>Node5</title>
<g id="a_Node000005"><a xlink:href="classgerber2coordinatesTEST_1_1GerberSettingsList.html#a0d6c6ef709817eaa9af58b92a61225b4" target="_top" xlink:title=" ">
<polygon fill="white" stroke="#666666" points="992,-30 822,-30 822,0 992,0 992,-30"/>
<text text-anchor="start" x="830" y="-18" font-family="Helvetica,sans-Serif" font-size="10.00">gerber2coordinatesTEST.Gerber</text>
<text text-anchor="middle" x="907" y="-7" font-family="Helvetica,sans-Serif" font-size="10.00">SettingsList.existssetting</text>
</a>
</g>
</g>
<!-- Node4&#45;&gt;Node5 -->
<g id="edge4_Node000004_Node000005" class="edge">
<title>Node4&#45;&gt;Node5</title>
<g id="a_edge4_Node000004_Node000005"><a xlink:title=" ">
<path fill="none" stroke="#63b8ff" d="M786.15,-15C794.5,-15 803.02,-15 811.46,-15"/>
<polygon fill="#63b8ff" stroke="#63b8ff" points="811.71,-18.5 821.71,-15 811.71,-11.5 811.71,-18.5"/>
</a>
</g>
</g>
</g>
</svg>
