<?xml version="1.0" encoding="UTF-8" standalone="no"?>
<!DOCTYPE svg PUBLIC "-//W3C//DTD SVG 1.1//EN"
 "http://www.w3.org/Graphics/SVG/1.1/DTD/svg11.dtd">
<!-- Generated by graphviz version 2.43.0 (0)
 -->
<!-- Title: gerber2coordinatesTEST.GerberPolygon Pages: 1 -->
<svg width="191pt" height="231pt"
 viewBox="0.00 0.00 191.00 231.00" xmlns="http://www.w3.org/2000/svg" xmlns:xlink="http://www.w3.org/1999/xlink">
<g id="graph0" class="graph" transform="scale(1 1) rotate(0) translate(4 227)">
<title>gerber2coordinatesTEST.GerberPolygon</title>
<!-- Node1 -->
<g id="Node000001" class="node">
<title>Node1</title>
<g id="a_Node000001"><a xlink:title=" ">
<polygon fill="#999999" stroke="transparent" points="183,-223 0,-223 0,0 183,0 183,-223"/>
<text text-anchor="start" x="15" y="-210.5" font-family="Helvetica,sans-Serif" font-size="10.00">gerber2coordinatesTEST.Gerber</text>
<text text-anchor="start" x="72" y="-199.5" font-family="Helvetica,sans-Serif" font-size="10.00">Polygon</text>
<text text-anchor="start" x="4.5" y="-184.5" font-family="Helvetica,sans-Serif" font-size="10.00">+</text>
<text text-anchor="start" x="17.5" y="-184.5" font-family="Helvetica,sans-Serif" font-size="10.00">List&lt; GerberPoint &gt;</text>
<text text-anchor="start" x="17.5" y="-173.5" font-family="Helvetica,sans-Serif" font-size="10.00"> _poligoncornerpoints</text>
<text text-anchor="start" x="4.5" y="-158.5" font-family="Helvetica,sans-Serif" font-size="10.00">+</text>
<text text-anchor="start" x="17.5" y="-158.5" font-family="Helvetica,sans-Serif" font-size="10.00">double _stepsize</text>
<text text-anchor="start" x="4.5" y="-143.5" font-family="Helvetica,sans-Serif" font-size="10.00">+</text>
<text text-anchor="start" x="17.5" y="-143.5" font-family="Helvetica,sans-Serif" font-size="10.00">GerberPolygon(List</text>
<text text-anchor="start" x="17.5" y="-132.5" font-family="Helvetica,sans-Serif" font-size="10.00">&lt; GerberPoint &gt; polygoncorners,</text>
<text text-anchor="start" x="17.5" y="-121.5" font-family="Helvetica,sans-Serif" font-size="10.00"> double stepsize=10)</text>
<text text-anchor="start" x="4.5" y="-106.5" font-family="Helvetica,sans-Serif" font-size="10.00">+</text>
<text text-anchor="start" x="17.5" y="-106.5" font-family="Helvetica,sans-Serif" font-size="10.00">List&lt; GerberLine &gt;</text>
<text text-anchor="start" x="17.5" y="-95.5" font-family="Helvetica,sans-Serif" font-size="10.00"> getgerberlines(double</text>
<text text-anchor="start" x="17.5" y="-84.5" font-family="Helvetica,sans-Serif" font-size="10.00"> lineDistance=1)</text>
<text text-anchor="start" x="7" y="-69.5" font-family="Helvetica,sans-Serif" font-size="10.00">&#45;</text>
<text text-anchor="start" x="17.5" y="-69.5" font-family="Helvetica,sans-Serif" font-size="10.00">List&lt; double &gt; GetIntersections</text>
<text text-anchor="start" x="17.5" y="-58.5" font-family="Helvetica,sans-Serif" font-size="10.00">(double y)</text>
<text text-anchor="start" x="7" y="-43.5" font-family="Helvetica,sans-Serif" font-size="10.00">&#45;</text>
<text text-anchor="start" x="17.5" y="-43.5" font-family="Helvetica,sans-Serif" font-size="10.00">List&lt; double &gt; GetVertical</text>
<text text-anchor="start" x="17.5" y="-32.5" font-family="Helvetica,sans-Serif" font-size="10.00">Intersections(double x)</text>
<text text-anchor="start" x="7" y="-17.5" font-family="Helvetica,sans-Serif" font-size="10.00">&#45;</text>
<text text-anchor="start" x="17.5" y="-17.5" font-family="Helvetica,sans-Serif" font-size="10.00">List&lt; GerberLine &gt;</text>
<text text-anchor="start" x="17.5" y="-6.5" font-family="Helvetica,sans-Serif" font-size="10.00"> getoutline()</text>
<polygon fill="#666666" stroke="#666666" points="0.5,-194.5 0.5,-194.5 183.5,-194.5 183.5,-194.5 0.5,-194.5"/>
<polygon fill="#666666" stroke="#666666" points="0.5,-153.5 0.5,-153.5 15.5,-153.5 15.5,-153.5 0.5,-153.5"/>
<polygon fill="#666666" stroke="#666666" points="15.5,-153.5 15.5,-153.5 183.5,-153.5 183.5,-153.5 15.5,-153.5"/>
<polygon fill="none" stroke="#666666" points="0,0 0,-223 183,-223 183,0 0,0"/>
</a>
</g>
</g>
</g>
</svg>
