<?xml version="1.0" encoding="UTF-8" standalone="no"?>
<!DOCTYPE svg PUBLIC "-//W3C//DTD SVG 1.1//EN"
 "http://www.w3.org/Graphics/SVG/1.1/DTD/svg11.dtd">
<!-- Generated by graphviz version 2.43.0 (0)
 -->
<!-- Title: gerber2coordinatesTEST.Druckerserver Pages: 1 -->
<svg width="509pt" height="1001pt"
 viewBox="0.00 0.00 508.74 1001.00" xmlns="http://www.w3.org/2000/svg" xmlns:xlink="http://www.w3.org/1999/xlink">
<g id="graph0" class="graph" transform="scale(1 1) rotate(0) translate(4 997)">
<title>gerber2coordinatesTEST.Druckerserver</title>
<!-- Node1 -->
<g id="Node000001" class="node">
<title>Node1</title>
<g id="a_Node000001"><a xlink:title=" ">
<polygon fill="#999999" stroke="transparent" points="305.74,-444 105.74,-444 105.74,0 305.74,0 305.74,-444"/>
<text text-anchor="start" x="110.74" y="-432" font-family="Helvetica,sans-Serif" font-size="10.00">gerber2coordinatesTEST.Druckerserver</text>
<text text-anchor="start" x="116.24" y="-417" font-family="Helvetica,sans-Serif" font-size="10.00">+</text>
<text text-anchor="start" x="135.74" y="-417" font-family="Helvetica,sans-Serif" font-size="10.00">string COMPort</text>
<text text-anchor="start" x="116.24" y="-402" font-family="Helvetica,sans-Serif" font-size="10.00">+</text>
<text text-anchor="start" x="135.74" y="-402" font-family="Helvetica,sans-Serif" font-size="10.00">string ipAddress</text>
<text text-anchor="start" x="116.24" y="-387" font-family="Helvetica,sans-Serif" font-size="10.00">+</text>
<text text-anchor="start" x="135.74" y="-387" font-family="Helvetica,sans-Serif" font-size="10.00">int port</text>
<text text-anchor="start" x="118.74" y="-372" font-family="Helvetica,sans-Serif" font-size="10.00">&#45;</text>
<text text-anchor="start" x="135.74" y="-372" font-family="Helvetica,sans-Serif" font-size="10.00">HttpListener Httplistener</text>
<text text-anchor="start" x="118.74" y="-357" font-family="Helvetica,sans-Serif" font-size="10.00">&#45;</text>
<text text-anchor="start" x="135.74" y="-357" font-family="Helvetica,sans-Serif" font-size="10.00">Thread? printThread</text>
<text text-anchor="start" x="118.74" y="-342" font-family="Helvetica,sans-Serif" font-size="10.00">&#45;</text>
<text text-anchor="start" x="135.74" y="-342" font-family="Helvetica,sans-Serif" font-size="10.00">bool printing</text>
<text text-anchor="start" x="118.74" y="-327" font-family="Helvetica,sans-Serif" font-size="10.00">&#45;</text>
<text text-anchor="start" x="135.74" y="-327" font-family="Helvetica,sans-Serif" font-size="10.00">CancellationTokenSource</text>
<text text-anchor="start" x="135.74" y="-316" font-family="Helvetica,sans-Serif" font-size="10.00"> stopprinttoken</text>
<text text-anchor="start" x="116.24" y="-301" font-family="Helvetica,sans-Serif" font-size="10.00">+</text>
<text text-anchor="start" x="135.74" y="-301" font-family="Helvetica,sans-Serif" font-size="10.00">Druckerserver(string</text>
<text text-anchor="start" x="135.74" y="-290" font-family="Helvetica,sans-Serif" font-size="10.00"> ipAddress, int port,</text>
<text text-anchor="start" x="135.74" y="-279" font-family="Helvetica,sans-Serif" font-size="10.00"> string COMPort)</text>
<text text-anchor="start" x="116.24" y="-264" font-family="Helvetica,sans-Serif" font-size="10.00">+</text>
<text text-anchor="start" x="135.74" y="-264" font-family="Helvetica,sans-Serif" font-size="10.00">void Start()</text>
<text text-anchor="start" x="116.24" y="-249" font-family="Helvetica,sans-Serif" font-size="10.00">+</text>
<text text-anchor="start" x="135.74" y="-249" font-family="Helvetica,sans-Serif" font-size="10.00">void initPrinting(string</text>
<text text-anchor="start" x="135.74" y="-238" font-family="Helvetica,sans-Serif" font-size="10.00"> Gerberfilecontent, string COM)</text>
<text text-anchor="start" x="116.24" y="-223" font-family="Helvetica,sans-Serif" font-size="10.00">+</text>
<text text-anchor="start" x="135.74" y="-223" font-family="Helvetica,sans-Serif" font-size="10.00">void setpadfill(double</text>
<text text-anchor="start" x="135.74" y="-212" font-family="Helvetica,sans-Serif" font-size="10.00"> value)</text>
<text text-anchor="start" x="116.24" y="-197" font-family="Helvetica,sans-Serif" font-size="10.00">+</text>
<text text-anchor="start" x="135.74" y="-197" font-family="Helvetica,sans-Serif" font-size="10.00">void setpolygonfill</text>
<text text-anchor="start" x="135.74" y="-186" font-family="Helvetica,sans-Serif" font-size="10.00">(double value)</text>
<text text-anchor="start" x="135.74" y="-171" font-family="Helvetica,sans-Serif" font-size="10.00">and 5 more...</text>
<text text-anchor="start" x="116.24" y="-156" font-family="Helvetica,sans-Serif" font-size="10.00">+</text>
<text text-anchor="start" x="135.74" y="-156" font-family="Helvetica,sans-Serif" font-size="10.00">static void logtoconsole</text>
<text text-anchor="start" x="135.74" y="-145" font-family="Helvetica,sans-Serif" font-size="10.00">(string message, int color</text>
<text text-anchor="start" x="135.74" y="-134" font-family="Helvetica,sans-Serif" font-size="10.00">=0, bool withtime=true)</text>
<text text-anchor="start" x="116.24" y="-119" font-family="Helvetica,sans-Serif" font-size="10.00">+</text>
<text text-anchor="start" x="135.74" y="-119" font-family="Helvetica,sans-Serif" font-size="10.00">static void logemptytoconsole</text>
<text text-anchor="start" x="135.74" y="-108" font-family="Helvetica,sans-Serif" font-size="10.00">(int Lines=1)</text>
<text text-anchor="start" x="118.74" y="-93" font-family="Helvetica,sans-Serif" font-size="10.00">&#45;</text>
<text text-anchor="start" x="135.74" y="-93" font-family="Helvetica,sans-Serif" font-size="10.00">async Task AcceptRequests()</text>
<text text-anchor="start" x="118.74" y="-78" font-family="Helvetica,sans-Serif" font-size="10.00">&#45;</text>
<text text-anchor="start" x="135.74" y="-78" font-family="Helvetica,sans-Serif" font-size="10.00">async Task HandleRequest</text>
<text text-anchor="start" x="135.74" y="-67" font-family="Helvetica,sans-Serif" font-size="10.00">(HttpListenerContext context)</text>
<text text-anchor="start" x="118.74" y="-52" font-family="Helvetica,sans-Serif" font-size="10.00">&#45;</text>
<text text-anchor="start" x="135.74" y="-52" font-family="Helvetica,sans-Serif" font-size="10.00">bool pausePrinting()</text>
<text text-anchor="start" x="118.74" y="-37" font-family="Helvetica,sans-Serif" font-size="10.00">&#45;</text>
<text text-anchor="start" x="135.74" y="-37" font-family="Helvetica,sans-Serif" font-size="10.00">bool stopPrinting()</text>
<text text-anchor="start" x="118.74" y="-22" font-family="Helvetica,sans-Serif" font-size="10.00">&#45;</text>
<text text-anchor="start" x="135.74" y="-22" font-family="Helvetica,sans-Serif" font-size="10.00">void endprint()</text>
<text text-anchor="start" x="118.74" y="-7" font-family="Helvetica,sans-Serif" font-size="10.00">&#45;</text>
<text text-anchor="start" x="135.74" y="-7" font-family="Helvetica,sans-Serif" font-size="10.00">void print()</text>
<polygon fill="#666666" stroke="#666666" points="105.74,-427 105.74,-427 305.74,-427 305.74,-427 105.74,-427"/>
<polygon fill="#666666" stroke="#666666" points="105.74,-311 105.74,-311 133.74,-311 133.74,-311 105.74,-311"/>
<polygon fill="#666666" stroke="#666666" points="133.74,-311 133.74,-311 305.74,-311 305.74,-311 133.74,-311"/>
<polygon fill="none" stroke="#666666" points="105.74,0 105.74,-444 305.74,-444 305.74,0 105.74,0"/>
</a>
</g>
</g>
<!-- Node2 -->
<g id="Node000002" class="node">
<title>Node2</title>
<g id="a_Node000002"><a xlink:title=" ">
<polygon fill="white" stroke="transparent" points="51.74,-993 13.74,-993 13.74,-944 51.74,-944 51.74,-993"/>
<text text-anchor="start" x="18.74" y="-980.5" font-family="Helvetica,sans-Serif" font-size="10.00">static</text>
<text text-anchor="start" x="30.74" y="-965.5" font-family="Helvetica,sans-Serif" font-size="10.00"> </text>
<text text-anchor="start" x="30.74" y="-950.5" font-family="Helvetica,sans-Serif" font-size="10.00"> </text>
<polygon fill="#666666" stroke="#666666" points="13.74,-975.5 13.74,-975.5 51.74,-975.5 51.74,-975.5 13.74,-975.5"/>
<polygon fill="#666666" stroke="#666666" points="13.74,-960.5 13.74,-960.5 51.74,-960.5 51.74,-960.5 13.74,-960.5"/>
<polygon fill="none" stroke="#666666" points="13.74,-944 13.74,-993 51.74,-993 51.74,-944 13.74,-944"/>
</a>
</g>
</g>
<!-- Node2&#45;&gt;Node1 -->
<g id="edge1_Node000001_Node000002" class="edge">
<title>Node2&#45;&gt;Node1</title>
<g id="a_edge1_Node000001_Node000002"><a xlink:title=" ">
<path fill="none" stroke="#63b8ff" d="M27.45,-943.99C12.61,-873.41 -25.13,-657.99 25.74,-491 40.98,-440.99 69,-391.85 98.48,-349.58"/>
<polygon fill="none" stroke="#63b8ff" points="98.65,-349.34 98.86,-342.13 105.59,-339.55 105.38,-346.75 98.65,-349.34"/>
</a>
</g>
<text text-anchor="middle" x="71.74" y="-680.5" font-family="Helvetica,sans-Serif" font-size="10.00" fill="grey"> +USEUSB_DEBUG</text>
</g>
<!-- Node4 -->
<g id="Node000004" class="node">
<title>Node4</title>
<g id="a_Node000004"><a xlink:title=" ">
<polygon fill="white" stroke="transparent" points="284.24,-799 127.24,-799 127.24,-567 284.24,-567 284.24,-799"/>
<text text-anchor="start" x="133.74" y="-787" font-family="Helvetica,sans-Serif" font-size="10.00">lpd_ansteuerung.SerialComm</text>
<text text-anchor="start" x="131.74" y="-772" font-family="Helvetica,sans-Serif" font-size="10.00">+</text>
<text text-anchor="start" x="144.74" y="-772" font-family="Helvetica,sans-Serif" font-size="10.00">static string recMessage</text>
<text text-anchor="start" x="134.24" y="-757" font-family="Helvetica,sans-Serif" font-size="10.00">&#45;</text>
<text text-anchor="start" x="144.74" y="-757" font-family="Helvetica,sans-Serif" font-size="10.00">string port</text>
<text text-anchor="start" x="134.24" y="-742" font-family="Helvetica,sans-Serif" font-size="10.00">&#45;</text>
<text text-anchor="start" x="144.74" y="-742" font-family="Helvetica,sans-Serif" font-size="10.00">int baudRate</text>
<text text-anchor="start" x="134.24" y="-727" font-family="Helvetica,sans-Serif" font-size="10.00">&#45;</text>
<text text-anchor="start" x="144.74" y="-727" font-family="Helvetica,sans-Serif" font-size="10.00">string endFlag</text>
<text text-anchor="start" x="131.74" y="-712" font-family="Helvetica,sans-Serif" font-size="10.00">+</text>
<text text-anchor="start" x="144.74" y="-712" font-family="Helvetica,sans-Serif" font-size="10.00">SerialComm(string</text>
<text text-anchor="start" x="144.74" y="-701" font-family="Helvetica,sans-Serif" font-size="10.00"> _port)</text>
<text text-anchor="start" x="131.74" y="-686" font-family="Helvetica,sans-Serif" font-size="10.00">+</text>
<text text-anchor="start" x="144.74" y="-686" font-family="Helvetica,sans-Serif" font-size="10.00">bool newdata()</text>
<text text-anchor="start" x="131.74" y="-671" font-family="Helvetica,sans-Serif" font-size="10.00">+</text>
<text text-anchor="start" x="144.74" y="-671" font-family="Helvetica,sans-Serif" font-size="10.00">void close()</text>
<text text-anchor="start" x="131.74" y="-656" font-family="Helvetica,sans-Serif" font-size="10.00">+</text>
<text text-anchor="start" x="144.74" y="-656" font-family="Helvetica,sans-Serif" font-size="10.00">string readtimeout()</text>
<text text-anchor="start" x="131.74" y="-641" font-family="Helvetica,sans-Serif" font-size="10.00">+</text>
<text text-anchor="start" x="144.74" y="-641" font-family="Helvetica,sans-Serif" font-size="10.00">string read()</text>
<text text-anchor="start" x="144.74" y="-626" font-family="Helvetica,sans-Serif" font-size="10.00">and 7 more...</text>
<text text-anchor="start" x="131.74" y="-611" font-family="Helvetica,sans-Serif" font-size="10.00">+</text>
<text text-anchor="start" x="144.74" y="-611" font-family="Helvetica,sans-Serif" font-size="10.00">static bool testport</text>
<text text-anchor="start" x="144.74" y="-600" font-family="Helvetica,sans-Serif" font-size="10.00">(string port)</text>
<text text-anchor="start" x="131.74" y="-585" font-family="Helvetica,sans-Serif" font-size="10.00">+</text>
<text text-anchor="start" x="144.74" y="-585" font-family="Helvetica,sans-Serif" font-size="10.00">static string[] getAvalibable</text>
<text text-anchor="start" x="144.74" y="-574" font-family="Helvetica,sans-Serif" font-size="10.00">Ports()</text>
<polygon fill="#666666" stroke="#666666" points="127.74,-782 127.74,-782 284.74,-782 284.74,-782 127.74,-782"/>
<polygon fill="#666666" stroke="#666666" points="127.74,-722 127.74,-722 142.74,-722 142.74,-722 127.74,-722"/>
<polygon fill="#666666" stroke="#666666" points="142.74,-722 142.74,-722 284.74,-722 284.74,-722 142.74,-722"/>
<polygon fill="none" stroke="#666666" points="127.24,-567 127.24,-799 284.24,-799 284.24,-567 127.24,-567"/>
</a>
</g>
</g>
<!-- Node2&#45;&gt;Node4 -->
<g id="edge4_Node000004_Node000002" class="edge">
<title>Node2&#45;&gt;Node4</title>
<g id="a_edge4_Node000004_Node000002"><a xlink:title=" ">
<path fill="none" stroke="#63b8ff" d="M51.81,-948.5C69.12,-930.59 94.62,-902.47 112.74,-875 126.13,-854.69 138.8,-832.17 150.22,-809.92"/>
<polygon fill="none" stroke="#63b8ff" points="150.31,-809.75 149.45,-802.59 155.73,-799.04 156.59,-806.2 150.31,-809.75"/>
</a>
</g>
<text text-anchor="middle" x="129.24" y="-918" font-family="Helvetica,sans-Serif" font-size="10.00" fill="grey"> +_continue</text>
<text text-anchor="middle" x="129.24" y="-907" font-family="Helvetica,sans-Serif" font-size="10.00" fill="grey">+sp</text>
<text text-anchor="middle" x="129.24" y="-896" font-family="Helvetica,sans-Serif" font-size="10.00" fill="grey">&#45;drawing</text>
</g>
<!-- Node3 -->
<g id="Node000003" class="node">
<title>Node3</title>
<g id="a_Node000003"><a xlink:href="classgerber2coordinatesTEST_1_1Gerberfileinfo.html" target="_top" xlink:title=" ">
<polygon fill="white" stroke="transparent" points="500.74,-875 302.74,-875 302.74,-491 500.74,-491 500.74,-875"/>
<text text-anchor="start" x="307.74" y="-863" font-family="Helvetica,sans-Serif" font-size="10.00">gerber2coordinatesTEST.Gerberfileinfo</text>
<text text-anchor="start" x="319.24" y="-848" font-family="Helvetica,sans-Serif" font-size="10.00">+</text>
<text text-anchor="start" x="344.74" y="-848" font-family="Helvetica,sans-Serif" font-size="10.00">int _currentline</text>
<text text-anchor="start" x="319.24" y="-833" font-family="Helvetica,sans-Serif" font-size="10.00">+</text>
<text text-anchor="start" x="344.74" y="-833" font-family="Helvetica,sans-Serif" font-size="10.00">string _gerberfilecontent</text>
<text text-anchor="start" x="319.24" y="-818" font-family="Helvetica,sans-Serif" font-size="10.00">+</text>
<text text-anchor="start" x="344.74" y="-818" font-family="Helvetica,sans-Serif" font-size="10.00">Unit _unit</text>
<text text-anchor="start" x="319.24" y="-803" font-family="Helvetica,sans-Serif" font-size="10.00">+</text>
<text text-anchor="start" x="344.74" y="-803" font-family="Helvetica,sans-Serif" font-size="10.00">List&lt; GerberLine &gt;</text>
<text text-anchor="start" x="344.74" y="-792" font-family="Helvetica,sans-Serif" font-size="10.00"> _lines</text>
<text text-anchor="start" x="319.24" y="-777" font-family="Helvetica,sans-Serif" font-size="10.00">+</text>
<text text-anchor="start" x="344.74" y="-777" font-family="Helvetica,sans-Serif" font-size="10.00">GerberSettingsList</text>
<text text-anchor="start" x="344.74" y="-766" font-family="Helvetica,sans-Serif" font-size="10.00"> _settings</text>
<text text-anchor="start" x="319.24" y="-751" font-family="Helvetica,sans-Serif" font-size="10.00">+</text>
<text text-anchor="start" x="344.74" y="-751" font-family="Helvetica,sans-Serif" font-size="10.00">Gerberfileinfo(string</text>
<text text-anchor="start" x="344.74" y="-740" font-family="Helvetica,sans-Serif" font-size="10.00"> GerberfileContent)</text>
<text text-anchor="start" x="319.24" y="-725" font-family="Helvetica,sans-Serif" font-size="10.00">+</text>
<text text-anchor="start" x="344.74" y="-725" font-family="Helvetica,sans-Serif" font-size="10.00">void cleargerberfile()</text>
<text text-anchor="start" x="319.24" y="-710" font-family="Helvetica,sans-Serif" font-size="10.00">+</text>
<text text-anchor="start" x="344.74" y="-710" font-family="Helvetica,sans-Serif" font-size="10.00">int get_file_lenght</text>
<text text-anchor="start" x="344.74" y="-699" font-family="Helvetica,sans-Serif" font-size="10.00">(string GerberfileContent)</text>
<text text-anchor="start" x="319.24" y="-684" font-family="Helvetica,sans-Serif" font-size="10.00">+</text>
<text text-anchor="start" x="344.74" y="-684" font-family="Helvetica,sans-Serif" font-size="10.00">void sortlines()</text>
<text text-anchor="start" x="319.24" y="-669" font-family="Helvetica,sans-Serif" font-size="10.00">+</text>
<text text-anchor="start" x="344.74" y="-669" font-family="Helvetica,sans-Serif" font-size="10.00">void turnlines()</text>
<text text-anchor="start" x="344.74" y="-654" font-family="Helvetica,sans-Serif" font-size="10.00">and 8 more...</text>
<text text-anchor="start" x="321.74" y="-639" font-family="Helvetica,sans-Serif" font-size="10.00">&#45;</text>
<text text-anchor="start" x="344.74" y="-639" font-family="Helvetica,sans-Serif" font-size="10.00">void Initgerberfile</text>
<text text-anchor="start" x="344.74" y="-628" font-family="Helvetica,sans-Serif" font-size="10.00">(string GerberfileContent)</text>
<text text-anchor="start" x="321.74" y="-613" font-family="Helvetica,sans-Serif" font-size="10.00">&#45;</text>
<text text-anchor="start" x="344.74" y="-613" font-family="Helvetica,sans-Serif" font-size="10.00">void getunit()</text>
<text text-anchor="start" x="321.74" y="-598" font-family="Helvetica,sans-Serif" font-size="10.00">&#45;</text>
<text text-anchor="start" x="344.74" y="-598" font-family="Helvetica,sans-Serif" font-size="10.00">string remove_comments</text>
<text text-anchor="start" x="344.74" y="-587" font-family="Helvetica,sans-Serif" font-size="10.00">(string GerberfileContent)</text>
<text text-anchor="start" x="321.74" y="-572" font-family="Helvetica,sans-Serif" font-size="10.00">&#45;</text>
<text text-anchor="start" x="344.74" y="-572" font-family="Helvetica,sans-Serif" font-size="10.00">List&lt; GerberLine &gt;</text>
<text text-anchor="start" x="344.74" y="-561" font-family="Helvetica,sans-Serif" font-size="10.00"> fillpolygonswithlines</text>
<text text-anchor="start" x="344.74" y="-550" font-family="Helvetica,sans-Serif" font-size="10.00">(string GerberfileContent)</text>
<text text-anchor="start" x="321.74" y="-535" font-family="Helvetica,sans-Serif" font-size="10.00">&#45;</text>
<text text-anchor="start" x="344.74" y="-535" font-family="Helvetica,sans-Serif" font-size="10.00">List&lt; GerberLine &gt;</text>
<text text-anchor="start" x="344.74" y="-524" font-family="Helvetica,sans-Serif" font-size="10.00"> fillpadsandpoints(string</text>
<text text-anchor="start" x="344.74" y="-513" font-family="Helvetica,sans-Serif" font-size="10.00"> GerberfileContent)</text>
<text text-anchor="start" x="344.74" y="-498" font-family="Helvetica,sans-Serif" font-size="10.00">and 4 more...</text>
<polygon fill="#666666" stroke="#666666" points="302.74,-858 302.74,-858 500.74,-858 500.74,-858 302.74,-858"/>
<polygon fill="#666666" stroke="#666666" points="302.74,-761 302.74,-761 342.74,-761 342.74,-761 302.74,-761"/>
<polygon fill="#666666" stroke="#666666" points="342.74,-761 342.74,-761 500.74,-761 500.74,-761 342.74,-761"/>
<polygon fill="none" stroke="#666666" points="302.74,-491 302.74,-875 500.74,-875 500.74,-491 302.74,-491"/>
</a>
</g>
</g>
<!-- Node3&#45;&gt;Node1 -->
<g id="edge2_Node000001_Node000003" class="edge">
<title>Node3&#45;&gt;Node1</title>
<g id="a_edge2_Node000001_Node000003"><a xlink:title=" ">
<path fill="none" stroke="#63b8ff" d="M320.18,-491C315.11,-479.13 309.98,-467.11 304.85,-455.09"/>
<polygon fill="none" stroke="#63b8ff" points="304.84,-455.08 298.81,-451.14 300.13,-444.05 306.17,-447.99 304.84,-455.08"/>
</a>
</g>
<text text-anchor="middle" x="345.24" y="-465" font-family="Helvetica,sans-Serif" font-size="10.00" fill="grey"> &#45;gerberfileinfo</text>
</g>
<!-- Node4&#45;&gt;Node1 -->
<g id="edge3_Node000001_Node000004" class="edge">
<title>Node4&#45;&gt;Node1</title>
<g id="a_edge3_Node000001_Node000004"><a xlink:title=" ">
<path fill="none" stroke="#63b8ff" d="M205.74,-566.77C205.74,-533.1 205.74,-495.03 205.74,-456.8"/>
<polygon fill="none" stroke="#63b8ff" points="205.74,-456.39 201.74,-450.39 205.74,-444.39 209.74,-450.39 205.74,-456.39"/>
</a>
</g>
<text text-anchor="middle" x="234.74" y="-465" font-family="Helvetica,sans-Serif" font-size="10.00" fill="grey"> &#45;serialconn</text>
</g>
</g>
</svg>
