<?xml version="1.0" encoding="UTF-8" standalone="no"?>
<!DOCTYPE svg PUBLIC "-//W3C//DTD SVG 1.1//EN"
 "http://www.w3.org/Graphics/SVG/1.1/DTD/svg11.dtd">
<!-- Generated by graphviz version 2.43.0 (0)
 -->
<!-- Title: gerber2coordinatesTEST.GerberLine.GerberLine Pages: 1 -->
<svg width="795pt" height="151pt"
 viewBox="0.00 0.00 795.00 150.50" xmlns="http://www.w3.org/2000/svg" xmlns:xlink="http://www.w3.org/1999/xlink">
<g id="graph0" class="graph" transform="scale(1 1) rotate(0) translate(4 146.5)">
<title>gerber2coordinatesTEST.GerberLine.GerberLine</title>
<!-- Node1 -->
<g id="Node000001" class="node">
<title>Node1</title>
<g id="a_Node000001"><a xlink:title=" ">
<polygon fill="#999999" stroke="#666666" points="170,-92 0,-92 0,-62 170,-62 170,-92"/>
<text text-anchor="start" x="8" y="-80" font-family="Helvetica,sans-Serif" font-size="10.00">gerber2coordinatesTEST.Gerber</text>
<text text-anchor="middle" x="85" y="-69" font-family="Helvetica,sans-Serif" font-size="10.00">Line.GerberLine</text>
</a>
</g>
</g>
<!-- Node2 -->
<g id="Node000002" class="node">
<title>Node2</title>
<g id="a_Node000002"><a xlink:href="classgerber2coordinatesTEST_1_1Gerbertoolbox.html#a47428af853f47399edcd034a0d61b8bf" target="_top" xlink:title="Immer die zweite Zeile übergeben!">
<polygon fill="white" stroke="#666666" points="457,-142.5 206,-142.5 206,-123.5 457,-123.5 457,-142.5"/>
<text text-anchor="middle" x="331.5" y="-130.5" font-family="Helvetica,sans-Serif" font-size="10.00">gerber2coordinatesTEST.Gerbertoolbox.getpaint</text>
</a>
</g>
</g>
<!-- Node1&#45;&gt;Node2 -->
<g id="edge1_Node000001_Node000002" class="edge">
<title>Node1&#45;&gt;Node2</title>
<g id="a_edge1_Node000001_Node000002"><a xlink:title=" ">
<path fill="none" stroke="#63b8ff" d="M127.74,-92.07C150.61,-99.85 179.59,-108.95 206,-115 217.31,-117.59 229.29,-119.88 241.17,-121.88"/>
<polygon fill="#63b8ff" stroke="#63b8ff" points="240.68,-125.35 251.11,-123.5 241.8,-118.44 240.68,-125.35"/>
</a>
</g>
</g>
<!-- Node4 -->
<g id="Node000004" class="node">
<title>Node4</title>
<g id="a_Node000004"><a xlink:href="classgerber2coordinatesTEST_1_1Gerbertoolbox.html#a9c535ff4a74b677aed43f88b2626b30e" target="_top" xlink:title=" ">
<polygon fill="white" stroke="#666666" points="451,-105.5 212,-105.5 212,-86.5 451,-86.5 451,-105.5"/>
<text text-anchor="middle" x="331.5" y="-93.5" font-family="Helvetica,sans-Serif" font-size="10.00">gerber2coordinatesTEST.Gerbertoolbox.getXY</text>
</a>
</g>
</g>
<!-- Node1&#45;&gt;Node4 -->
<g id="edge3_Node000001_Node000004" class="edge">
<title>Node1&#45;&gt;Node4</title>
<g id="a_edge3_Node000001_Node000004"><a xlink:title=" ">
<path fill="none" stroke="#63b8ff" d="M170.14,-83.54C180.3,-84.33 190.84,-85.15 201.45,-85.97"/>
<polygon fill="#63b8ff" stroke="#63b8ff" points="201.4,-89.48 211.64,-86.76 201.94,-82.5 201.4,-89.48"/>
</a>
</g>
</g>
<!-- Node5 -->
<g id="Node000005" class="node">
<title>Node5</title>
<g id="a_Node000005"><a xlink:href="classgerber2coordinatesTEST_1_1GerberLine.html#a224b44ce11e8565018e49a3452883d9f" target="_top" xlink:title=" ">
<polygon fill="white" stroke="#666666" points="725,-61 555,-61 555,-31 725,-31 725,-61"/>
<text text-anchor="start" x="563" y="-49" font-family="Helvetica,sans-Serif" font-size="10.00">gerber2coordinatesTEST.Gerber</text>
<text text-anchor="middle" x="640" y="-38" font-family="Helvetica,sans-Serif" font-size="10.00">Line.roundcoordinates</text>
</a>
</g>
</g>
<!-- Node1&#45;&gt;Node5 -->
<g id="edge5_Node000001_Node000005" class="edge">
<title>Node1&#45;&gt;Node5</title>
<g id="a_edge5_Node000001_Node000005"><a xlink:title=" ">
<path fill="none" stroke="#63b8ff" d="M170.29,-72.27C271.09,-66.62 439.36,-57.19 544.49,-51.3"/>
<polygon fill="#63b8ff" stroke="#63b8ff" points="544.99,-54.78 554.77,-50.72 544.59,-47.79 544.99,-54.78"/>
</a>
</g>
</g>
<!-- Node6 -->
<g id="Node000006" class="node">
<title>Node6</title>
<g id="a_Node000006"><a xlink:href="classgerber2coordinatesTEST_1_1GerberLine.html#a528fab668c9c78a8c29f9dcdb48d92fe" target="_top" xlink:title=" ">
<polygon fill="white" stroke="#666666" points="416.5,-30 246.5,-30 246.5,0 416.5,0 416.5,-30"/>
<text text-anchor="start" x="254.5" y="-18" font-family="Helvetica,sans-Serif" font-size="10.00">gerber2coordinatesTEST.Gerber</text>
<text text-anchor="middle" x="331.5" y="-7" font-family="Helvetica,sans-Serif" font-size="10.00">Line.setcoordinates</text>
</a>
</g>
</g>
<!-- Node1&#45;&gt;Node6 -->
<g id="edge6_Node000001_Node000006" class="edge">
<title>Node1&#45;&gt;Node6</title>
<g id="a_edge6_Node000001_Node000006"><a xlink:title=" ">
<path fill="none" stroke="#63b8ff" d="M139.05,-61.93C159.87,-56.14 184.01,-49.58 206,-44 221.5,-40.07 238.13,-36.05 254.04,-32.31"/>
<polygon fill="#63b8ff" stroke="#63b8ff" points="254.89,-35.7 263.83,-30.02 253.3,-28.89 254.89,-35.7"/>
</a>
</g>
</g>
<!-- Node3 -->
<g id="Node000003" class="node">
<title>Node3</title>
<g id="a_Node000003"><a xlink:href="classgerber2coordinatesTEST_1_1Gerbertoolbox.html#aa745b83fde9503e2dbd3a27d2f05d912" target="_top" xlink:title=" ">
<polygon fill="white" stroke="#666666" points="787,-117.5 493,-117.5 493,-98.5 787,-98.5 787,-117.5"/>
<text text-anchor="middle" x="640" y="-105.5" font-family="Helvetica,sans-Serif" font-size="10.00">gerber2coordinatesTEST.Gerbertoolbox.getcharsbetween</text>
</a>
</g>
</g>
<!-- Node2&#45;&gt;Node3 -->
<g id="edge2_Node000002_Node000003" class="edge">
<title>Node2&#45;&gt;Node3</title>
<g id="a_edge2_Node000002_Node000003"><a xlink:title=" ">
<path fill="none" stroke="#63b8ff" d="M449.25,-123.48C469.82,-121.8 491.32,-120.05 512.16,-118.35"/>
<polygon fill="#63b8ff" stroke="#63b8ff" points="512.64,-121.82 522.32,-117.52 512.07,-114.84 512.64,-121.82"/>
</a>
</g>
</g>
<!-- Node4&#45;&gt;Node3 -->
<g id="edge4_Node000004_Node000003" class="edge">
<title>Node4&#45;&gt;Node3</title>
<g id="a_edge4_Node000004_Node000003"><a xlink:title=" ">
<path fill="none" stroke="#63b8ff" d="M451,-100.64C461.4,-101.05 472.03,-101.46 482.68,-101.88"/>
<polygon fill="#63b8ff" stroke="#63b8ff" points="482.76,-105.39 492.89,-102.28 483.04,-98.39 482.76,-105.39"/>
</a>
</g>
</g>
<!-- Node6&#45;&gt;Node5 -->
<g id="edge7_Node000006_Node000005" class="edge">
<title>Node6&#45;&gt;Node5</title>
<g id="a_edge7_Node000006_Node000005"><a xlink:title=" ">
<path fill="none" stroke="#63b8ff" d="M416.66,-23.51C456.36,-27.53 503.89,-32.33 544.79,-36.47"/>
<polygon fill="#63b8ff" stroke="#63b8ff" points="544.46,-39.96 554.76,-37.48 545.17,-32.99 544.46,-39.96"/>
</a>
</g>
</g>
</g>
</svg>
