<?xml version="1.0" encoding="UTF-8" standalone="no"?>
<!DOCTYPE svg PUBLIC "-//W3C//DTD SVG 1.1//EN"
 "http://www.w3.org/Graphics/SVG/1.1/DTD/svg11.dtd">
<!-- Generated by graphviz version 2.43.0 (0)
 -->
<!-- Title: gerber2coordinatesTEST.GerberLine.getdistance Pages: 1 -->
<svg width="1210pt" height="86pt"
 viewBox="0.00 0.00 1210.00 86.00" xmlns="http://www.w3.org/2000/svg" xmlns:xlink="http://www.w3.org/1999/xlink">
<g id="graph0" class="graph" transform="scale(1 1) rotate(0) translate(4 82)">
<title>gerber2coordinatesTEST.GerberLine.getdistance</title>
<!-- Node1 -->
<g id="Node000001" class="node">
<title>Node1</title>
<g id="a_Node000001"><a xlink:title="Abstand zwischen dem Start / Endpunkt und einem Übergebenen Punkt berechnen.">
<polygon fill="#999999" stroke="#666666" points="1202,-54 1032,-54 1032,-24 1202,-24 1202,-54"/>
<text text-anchor="start" x="1040" y="-42" font-family="Helvetica,sans-Serif" font-size="10.00">gerber2coordinatesTEST.Gerber</text>
<text text-anchor="middle" x="1117" y="-31" font-family="Helvetica,sans-Serif" font-size="10.00">Line.getdistance</text>
</a>
</g>
</g>
<!-- Node2 -->
<g id="Node000002" class="node">
<title>Node2</title>
<g id="a_Node000002"><a xlink:href="classgerber2coordinatesTEST_1_1Gerberfileinfo.html#a391d943c162991913ed7d0a8e304a236" target="_top" xlink:title="Linie mit gleichem Startpunkt finden.">
<polygon fill="white" stroke="#666666" points="996,-78 771,-78 771,-48 996,-48 996,-78"/>
<text text-anchor="start" x="779" y="-66" font-family="Helvetica,sans-Serif" font-size="10.00">gerber2coordinatesTEST.Gerberfileinfo.find</text>
<text text-anchor="middle" x="883.5" y="-55" font-family="Helvetica,sans-Serif" font-size="10.00">_line_with_same_start</text>
</a>
</g>
</g>
<!-- Node1&#45;&gt;Node2 -->
<g id="edge1_Node000001_Node000002" class="edge">
<title>Node1&#45;&gt;Node2</title>
<g id="a_edge1_Node000001_Node000002"><a xlink:title=" ">
<path fill="none" stroke="#63b8ff" d="M1021.58,-48.79C1013.15,-49.66 1004.56,-50.55 996,-51.44"/>
<polygon fill="#63b8ff" stroke="#63b8ff" points="1022.18,-52.25 1031.77,-47.73 1021.46,-45.28 1022.18,-52.25"/>
</a>
</g>
</g>
<!-- Node6 -->
<g id="Node000006" class="node">
<title>Node6</title>
<g id="a_Node000006"><a xlink:href="classgerber2coordinatesTEST_1_1Gerberfileinfo.html#a98f4652c8c10159e911b2a4cc9ae7d2c" target="_top" xlink:title="Linie finden, die in der nähe liegt. Wird verwendet, wenn keine weiterführende Linie vorhanden ist.">
<polygon fill="white" stroke="#666666" points="996,-30 771,-30 771,0 996,0 996,-30"/>
<text text-anchor="start" x="779" y="-18" font-family="Helvetica,sans-Serif" font-size="10.00">gerber2coordinatesTEST.Gerberfileinfo.find</text>
<text text-anchor="middle" x="883.5" y="-7" font-family="Helvetica,sans-Serif" font-size="10.00">_nearest_line</text>
</a>
</g>
</g>
<!-- Node1&#45;&gt;Node6 -->
<g id="edge5_Node000001_Node000006" class="edge">
<title>Node1&#45;&gt;Node6</title>
<g id="a_edge5_Node000001_Node000006"><a xlink:title=" ">
<path fill="none" stroke="#63b8ff" d="M1021.58,-29.21C1013.15,-28.34 1004.56,-27.45 996,-26.56"/>
<polygon fill="#63b8ff" stroke="#63b8ff" points="1021.46,-32.72 1031.77,-30.27 1022.18,-25.75 1021.46,-32.72"/>
</a>
</g>
</g>
<!-- Node3 -->
<g id="Node000003" class="node">
<title>Node3</title>
<g id="a_Node000003"><a xlink:href="classgerber2coordinatesTEST_1_1Gerberfileinfo.html#a2d0e089c433ced29af13ae3505d0ebc5" target="_top" xlink:title="Linien der Reihe nach sortieren, damit der Drucker nicht hin und her muss.">
<polygon fill="white" stroke="#666666" points="735,-48.5 486,-48.5 486,-29.5 735,-29.5 735,-48.5"/>
<text text-anchor="middle" x="610.5" y="-36.5" font-family="Helvetica,sans-Serif" font-size="10.00">gerber2coordinatesTEST.Gerberfileinfo.sortlines</text>
</a>
</g>
</g>
<!-- Node2&#45;&gt;Node3 -->
<g id="edge2_Node000002_Node000003" class="edge">
<title>Node2&#45;&gt;Node3</title>
<g id="a_edge2_Node000002_Node000003"><a xlink:title=" ">
<path fill="none" stroke="#63b8ff" d="M760.66,-52.21C746.81,-50.98 732.76,-49.74 719.11,-48.53"/>
<polygon fill="#63b8ff" stroke="#63b8ff" points="760.44,-55.7 770.71,-53.1 761.06,-48.73 760.44,-55.7"/>
</a>
</g>
</g>
<!-- Node4 -->
<g id="Node000004" class="node">
<title>Node4</title>
<g id="a_Node000004"><a xlink:href="classgerber2coordinatesTEST_1_1Gerberfileinfo.html#a756d07194ea904f77d9d50b3717c796c" target="_top" xlink:title=" ">
<polygon fill="white" stroke="#666666" points="450,-54 243,-54 243,-24 450,-24 450,-54"/>
<text text-anchor="start" x="251" y="-42" font-family="Helvetica,sans-Serif" font-size="10.00">gerber2coordinatesTEST.Gerberfileinfo.</text>
<text text-anchor="middle" x="346.5" y="-31" font-family="Helvetica,sans-Serif" font-size="10.00">Initgerberfile</text>
</a>
</g>
</g>
<!-- Node3&#45;&gt;Node4 -->
<g id="edge3_Node000003_Node000004" class="edge">
<title>Node3&#45;&gt;Node4</title>
<g id="a_edge3_Node000003_Node000004"><a xlink:title=" ">
<path fill="none" stroke="#63b8ff" d="M475.72,-39C467.14,-39 458.57,-39 450.17,-39"/>
<polygon fill="#63b8ff" stroke="#63b8ff" points="475.79,-42.5 485.79,-39 475.79,-35.5 475.79,-42.5"/>
</a>
</g>
</g>
<!-- Node5 -->
<g id="Node000005" class="node">
<title>Node5</title>
<g id="a_Node000005"><a xlink:href="classgerber2coordinatesTEST_1_1Gerberfileinfo.html#a6415b3b8ed5c5d93a9c3d2ee80bf90bb" target="_top" xlink:title=" ">
<polygon fill="white" stroke="#666666" points="207,-54 0,-54 0,-24 207,-24 207,-54"/>
<text text-anchor="start" x="8" y="-42" font-family="Helvetica,sans-Serif" font-size="10.00">gerber2coordinatesTEST.Gerberfileinfo.</text>
<text text-anchor="middle" x="103.5" y="-31" font-family="Helvetica,sans-Serif" font-size="10.00">Gerberfileinfo</text>
</a>
</g>
</g>
<!-- Node4&#45;&gt;Node5 -->
<g id="edge4_Node000004_Node000005" class="edge">
<title>Node4&#45;&gt;Node5</title>
<g id="a_edge4_Node000004_Node000005"><a xlink:title=" ">
<path fill="none" stroke="#63b8ff" d="M232.68,-39C224.23,-39 215.73,-39 207.35,-39"/>
<polygon fill="#63b8ff" stroke="#63b8ff" points="232.94,-42.5 242.94,-39 232.94,-35.5 232.94,-42.5"/>
</a>
</g>
</g>
<!-- Node6&#45;&gt;Node3 -->
<g id="edge6_Node000006_Node000003" class="edge">
<title>Node6&#45;&gt;Node3</title>
<g id="a_edge6_Node000006_Node000003"><a xlink:title=" ">
<path fill="none" stroke="#63b8ff" d="M760.66,-25.79C746.81,-27.02 732.76,-28.26 719.11,-29.47"/>
<polygon fill="#63b8ff" stroke="#63b8ff" points="761.06,-29.27 770.71,-24.9 760.44,-22.3 761.06,-29.27"/>
</a>
</g>
</g>
</g>
</svg>
