<?xml version="1.0" encoding="UTF-8" standalone="no"?>
<!DOCTYPE svg PUBLIC "-//W3C//DTD SVG 1.1//EN"
 "http://www.w3.org/Graphics/SVG/1.1/DTD/svg11.dtd">
<!-- Generated by graphviz version 2.43.0 (0)
 -->
<!-- Title: gerber2coordinatesTEST.Gerbertoolbox.getcharsbetween Pages: 1 -->
<svg width="1419pt" height="113pt"
 viewBox="0.00 0.00 1419.00 112.50" xmlns="http://www.w3.org/2000/svg" xmlns:xlink="http://www.w3.org/1999/xlink">
<g id="graph0" class="graph" transform="scale(1 1) rotate(0) translate(4 108.5)">
<title>gerber2coordinatesTEST.Gerbertoolbox.getcharsbetween</title>
<!-- Node1 -->
<g id="Node000001" class="node">
<title>Node1</title>
<g id="a_Node000001"><a xlink:title=" ">
<polygon fill="#999999" stroke="#666666" points="1411,-77 1117,-77 1117,-58 1411,-58 1411,-77"/>
<text text-anchor="middle" x="1264" y="-65" font-family="Helvetica,sans-Serif" font-size="10.00">gerber2coordinatesTEST.Gerbertoolbox.getcharsbetween</text>
</a>
</g>
</g>
<!-- Node2 -->
<g id="Node000002" class="node">
<title>Node2</title>
<g id="a_Node000002"><a xlink:href="classgerber2coordinatesTEST_1_1Gerbertoolbox.html#a47428af853f47399edcd034a0d61b8bf" target="_top" xlink:title="Immer die zweite Zeile übergeben!">
<polygon fill="white" stroke="#666666" points="1081,-97 830,-97 830,-78 1081,-78 1081,-97"/>
<text text-anchor="middle" x="955.5" y="-85" font-family="Helvetica,sans-Serif" font-size="10.00">gerber2coordinatesTEST.Gerbertoolbox.getpaint</text>
</a>
</g>
</g>
<!-- Node1&#45;&gt;Node2 -->
<g id="edge1_Node000001_Node000002" class="edge">
<title>Node1&#45;&gt;Node2</title>
<g id="a_edge1_Node000001_Node000002"><a xlink:title=" ">
<path fill="none" stroke="#63b8ff" d="M1107.21,-77.67C1098.54,-78.23 1089.88,-78.8 1081.35,-79.35"/>
<polygon fill="#63b8ff" stroke="#63b8ff" points="1107.63,-81.15 1117.38,-77 1107.17,-74.16 1107.63,-81.15"/>
</a>
</g>
</g>
<!-- Node4 -->
<g id="Node000004" class="node">
<title>Node4</title>
<g id="a_Node000004"><a xlink:href="classgerber2coordinatesTEST_1_1Gerbertoolbox.html#a9c535ff4a74b677aed43f88b2626b30e" target="_top" xlink:title=" ">
<polygon fill="white" stroke="#666666" points="1075,-59 836,-59 836,-40 1075,-40 1075,-59"/>
<text text-anchor="middle" x="955.5" y="-47" font-family="Helvetica,sans-Serif" font-size="10.00">gerber2coordinatesTEST.Gerbertoolbox.getXY</text>
</a>
</g>
</g>
<!-- Node1&#45;&gt;Node4 -->
<g id="edge3_Node000001_Node000004" class="edge">
<title>Node1&#45;&gt;Node4</title>
<g id="a_edge3_Node000001_Node000004"><a xlink:title=" ">
<path fill="none" stroke="#63b8ff" d="M1106.73,-58.32C1096.09,-57.7 1085.47,-57.07 1075.07,-56.46"/>
<polygon fill="#63b8ff" stroke="#63b8ff" points="1106.74,-61.83 1116.93,-58.92 1107.15,-54.84 1106.74,-61.83"/>
</a>
</g>
</g>
<!-- Node3 -->
<g id="Node000003" class="node">
<title>Node3</title>
<g id="a_Node000003"><a xlink:href="classgerber2coordinatesTEST_1_1GerberLine.html#a05107c757c248c8ddaefcaf80f7112df" target="_top" xlink:title=" ">
<polygon fill="white" stroke="#666666" points="725,-104.5 555,-104.5 555,-74.5 725,-74.5 725,-104.5"/>
<text text-anchor="start" x="563" y="-92.5" font-family="Helvetica,sans-Serif" font-size="10.00">gerber2coordinatesTEST.Gerber</text>
<text text-anchor="middle" x="640" y="-81.5" font-family="Helvetica,sans-Serif" font-size="10.00">Line.GerberLine</text>
</a>
</g>
</g>
<!-- Node2&#45;&gt;Node3 -->
<g id="edge2_Node000002_Node000003" class="edge">
<title>Node2&#45;&gt;Node3</title>
<g id="a_edge2_Node000002_Node000003"><a xlink:title=" ">
<path fill="none" stroke="#63b8ff" d="M819.38,-88.36C787.47,-88.57 754.34,-88.78 725.41,-88.96"/>
<polygon fill="#63b8ff" stroke="#63b8ff" points="819.72,-91.86 829.7,-88.3 819.67,-84.86 819.72,-91.86"/>
</a>
</g>
</g>
<!-- Node4&#45;&gt;Node3 -->
<g id="edge9_Node000004_Node000003" class="edge">
<title>Node4&#45;&gt;Node3</title>
<g id="a_edge9_Node000004_Node000003"><a xlink:title=" ">
<path fill="none" stroke="#63b8ff" d="M869.8,-60.31C824.89,-66.04 769.89,-73.06 725.07,-78.77"/>
<polygon fill="#63b8ff" stroke="#63b8ff" points="870.33,-63.77 879.81,-59.03 869.44,-56.82 870.33,-63.77"/>
</a>
</g>
</g>
<!-- Node5 -->
<g id="Node000005" class="node">
<title>Node5</title>
<g id="a_Node000005"><a xlink:href="classgerber2coordinatesTEST_1_1Gerberfileinfo.html#a91e20a7c0ad8148d3c7ad6daa6de4e4e" target="_top" xlink:title=" ">
<polygon fill="white" stroke="#666666" points="785,-56 495,-56 495,-37 785,-37 785,-56"/>
<text text-anchor="middle" x="640" y="-44" font-family="Helvetica,sans-Serif" font-size="10.00">gerber2coordinatesTEST.Gerberfileinfo.fillpadsandpoints</text>
</a>
</g>
</g>
<!-- Node4&#45;&gt;Node5 -->
<g id="edge4_Node000004_Node000005" class="edge">
<title>Node4&#45;&gt;Node5</title>
<g id="a_edge4_Node000004_Node000005"><a xlink:title=" ">
<path fill="none" stroke="#63b8ff" d="M825.77,-48.27C812.33,-48.14 798.61,-48.01 785.02,-47.88"/>
<polygon fill="#63b8ff" stroke="#63b8ff" points="825.95,-51.77 835.98,-48.37 826.01,-44.77 825.95,-51.77"/>
</a>
</g>
</g>
<!-- Node8 -->
<g id="Node000008" class="node">
<title>Node8</title>
<g id="a_Node000008"><a xlink:href="classgerber2coordinatesTEST_1_1Gerberfileinfo.html#a35d701d89e2b7ba549132f359e8b068d" target="_top" xlink:title=" ">
<polygon fill="white" stroke="#666666" points="794,-19 486,-19 486,0 794,0 794,-19"/>
<text text-anchor="middle" x="640" y="-7" font-family="Helvetica,sans-Serif" font-size="10.00">gerber2coordinatesTEST.Gerberfileinfo.fillpolygonswithlines</text>
</a>
</g>
</g>
<!-- Node4&#45;&gt;Node8 -->
<g id="edge7_Node000004_Node000008" class="edge">
<title>Node4&#45;&gt;Node8</title>
<g id="a_edge7_Node000004_Node000008"><a xlink:title=" ">
<path fill="none" stroke="#63b8ff" d="M877.06,-38.58C850.72,-34.95 821.09,-30.95 794,-27.5 771.45,-24.63 747,-21.68 724.41,-19.02"/>
<polygon fill="#63b8ff" stroke="#63b8ff" points="876.6,-42.05 886.99,-39.95 877.56,-35.12 876.6,-42.05"/>
</a>
</g>
</g>
<!-- Node6 -->
<g id="Node000006" class="node">
<title>Node6</title>
<g id="a_Node000006"><a xlink:href="classgerber2coordinatesTEST_1_1Gerberfileinfo.html#a756d07194ea904f77d9d50b3717c796c" target="_top" xlink:title=" ">
<polygon fill="white" stroke="#666666" points="450,-42.5 243,-42.5 243,-12.5 450,-12.5 450,-42.5"/>
<text text-anchor="start" x="251" y="-30.5" font-family="Helvetica,sans-Serif" font-size="10.00">gerber2coordinatesTEST.Gerberfileinfo.</text>
<text text-anchor="middle" x="346.5" y="-19.5" font-family="Helvetica,sans-Serif" font-size="10.00">Initgerberfile</text>
</a>
</g>
</g>
<!-- Node5&#45;&gt;Node6 -->
<g id="edge5_Node000005_Node000006" class="edge">
<title>Node5&#45;&gt;Node6</title>
<g id="a_edge5_Node000005_Node000006"><a xlink:title=" ">
<path fill="none" stroke="#63b8ff" d="M484.72,-36.44C473.09,-35.69 461.53,-34.93 450.35,-34.2"/>
<polygon fill="#63b8ff" stroke="#63b8ff" points="484.75,-39.95 494.96,-37.11 485.21,-32.97 484.75,-39.95"/>
</a>
</g>
</g>
<!-- Node7 -->
<g id="Node000007" class="node">
<title>Node7</title>
<g id="a_Node000007"><a xlink:href="classgerber2coordinatesTEST_1_1Gerberfileinfo.html#a6415b3b8ed5c5d93a9c3d2ee80bf90bb" target="_top" xlink:title=" ">
<polygon fill="white" stroke="#666666" points="207,-42.5 0,-42.5 0,-12.5 207,-12.5 207,-42.5"/>
<text text-anchor="start" x="8" y="-30.5" font-family="Helvetica,sans-Serif" font-size="10.00">gerber2coordinatesTEST.Gerberfileinfo.</text>
<text text-anchor="middle" x="103.5" y="-19.5" font-family="Helvetica,sans-Serif" font-size="10.00">Gerberfileinfo</text>
</a>
</g>
</g>
<!-- Node6&#45;&gt;Node7 -->
<g id="edge6_Node000006_Node000007" class="edge">
<title>Node6&#45;&gt;Node7</title>
<g id="a_edge6_Node000006_Node000007"><a xlink:title=" ">
<path fill="none" stroke="#63b8ff" d="M232.68,-27.5C224.23,-27.5 215.73,-27.5 207.35,-27.5"/>
<polygon fill="#63b8ff" stroke="#63b8ff" points="232.94,-31 242.94,-27.5 232.94,-24 232.94,-31"/>
</a>
</g>
</g>
<!-- Node8&#45;&gt;Node6 -->
<g id="edge8_Node000008_Node000006" class="edge">
<title>Node8&#45;&gt;Node6</title>
<g id="a_edge8_Node000008_Node000006"><a xlink:title=" ">
<path fill="none" stroke="#63b8ff" d="M475.81,-19.58C467.16,-20.11 458.6,-20.64 450.24,-21.16"/>
<polygon fill="#63b8ff" stroke="#63b8ff" points="476.23,-23.06 485.99,-18.95 475.8,-16.07 476.23,-23.06"/>
</a>
</g>
</g>
</g>
</svg>
