<?xml version="1.0" encoding="UTF-8" standalone="no"?>
<!DOCTYPE svg PUBLIC "-//W3C//DTD SVG 1.1//EN"
 "http://www.w3.org/Graphics/SVG/1.1/DTD/svg11.dtd">
<!-- Generated by graphviz version 2.43.0 (0)
 -->
<!-- Title: gerber2coordinatesTEST.GerberSettingsList.getsetting Pages: 1 -->
<!--zoomable 175 -->

<svg id="main" version="1.1" xmlns="http://www.w3.org/2000/svg" xmlns:xlink="http://www.w3.org/1999/xlink" xml:space="preserve" onload="init(evt)">
<style type="text/css"><![CDATA[
.node, .edge {opacity: 0.7;}
.node.selected, .edge.selected {opacity: 1;}
.edge:hover path { stroke: red; }
.edge:hover polygon { stroke: red; fill: red; }
]]></style>

<defs>
  <circle id="rim" cx="0" cy="0" r="7"/>
  <circle id="rim2" cx="0" cy="0" r="3.5"/>
  <g id="zoomPlus">
    <use xlink:href="#rim" fill="#404040"><set attributeName="fill" to="#808080" begin="zoomplus.mouseover" end="zoomplus.mouseout"/></use>
    <path d="M-4,0h8M0,-4v8" fill="none" stroke="white" stroke-width="1.5" pointer-events="none"/>
  </g>
  <g id="zoomMin">
    <use xlink:href="#rim" fill="#404040"><set attributeName="fill" to="#808080" begin="zoomminus.mouseover" end="zoomminus.mouseout"/></use>
    <path d="M-4,0h8" fill="none" stroke="white" stroke-width="1.5" pointer-events="none"/>
  </g>
  <g id="arrowUp" transform="translate(30 24)">
    <use xlink:href="#rim"/>
    <path pointer-events="none" fill="none" stroke="white" stroke-width="1.5" d="M0,-3.0v7 M-2.5,-0.5L0,-3.0L2.5,-0.5"/>
  </g>
  <g id="arrowRight" transform="rotate(90) translate(36 -43)">
    <use xlink:href="#rim"/>
    <path pointer-events="none" fill="none" stroke="white" stroke-width="1.5" d="M0,-3.0v7 M-2.5,-0.5L0,-3.0L2.5,-0.5"/>
  </g>
  <g id="arrowDown" transform="rotate(180) translate(-30 -48)">
    <use xlink:href="#rim"/>
    <path pointer-events="none" fill="none" stroke="white" stroke-width="1.5" d="M0,-3.0v7 M-2.5,-0.5L0,-3.0L2.5,-0.5"/>
  </g>
  <g id="arrowLeft" transform="rotate(270) translate(-36 17)">
    <use xlink:href="#rim"/>
    <path pointer-events="none" fill="none" stroke="white" stroke-width="1.5" d="M0,-3.0v7 M-2.5,-0.5L0,-3.0L2.5,-0.5"/>
  </g>
  <g id="resetDef">
    <use xlink:href="#rim2" fill="#404040"><set attributeName="fill" to="#808080" begin="reset.mouseover" end="reset.mouseout"/></use>
  </g>
</defs>
<script type="application/ecmascript">
var viewWidth = 1214;
var viewHeight = 175;
var sectionId = 'dynsection-10';
</script>
<script type="application/ecmascript" xlink:href="svg.min.js"/>
<svg id="graph" class="graph">
<g id="viewport">
<title>gerber2coordinatesTEST.GerberSettingsList.getsetting</title>
<!-- Node1 -->
<g id="Node000001" class="node">
<title>Node1</title>
<g id="a_Node000001"><a xlink:title=" ">
<polygon fill="#999999" stroke="#666666" points="1206,-102 1036,-102 1036,-72 1206,-72 1206,-102"/>
<text text-anchor="start" x="1044" y="-90" font-family="Helvetica,sans-Serif" font-size="10.00">gerber2coordinatesTEST.Gerber</text>
<text text-anchor="middle" x="1121" y="-79" font-family="Helvetica,sans-Serif" font-size="10.00">SettingsList.getsetting</text>
</a>
</g>
</g>
<!-- Node2 -->
<g id="Node000002" class="node">
<title>Node2</title>
<g id="a_Node000002"><a xlink:href="classgerber2coordinatesTEST_1_1GerberSettingsList.html#a0bcf32cdcdaf083054b70969b9c36972" target="_top" xlink:title=" ">
<polygon fill="white" stroke="#666666" points="725,-167 555,-167 555,-137 725,-137 725,-167"/>
<text text-anchor="start" x="563" y="-155" font-family="Helvetica,sans-Serif" font-size="10.00">gerber2coordinatesTEST.Gerber</text>
<text text-anchor="middle" x="640" y="-144" font-family="Helvetica,sans-Serif" font-size="10.00">SettingsList.getmirror</text>
</a>
</g>
</g>
<!-- Node1&#45;&gt;Node2 -->
<g id="edge1_Node000001_Node000002" class="edge">
<title>Node1&#45;&gt;Node2</title>
<g id="a_edge1_Node000001_Node000002"><a xlink:title=" ">
<path fill="none" stroke="#63b8ff" d="M1081.22,-106.35C1058.22,-116.84 1028.14,-128.89 1000,-135 907.47,-155.1 798.49,-157.34 725.08,-155.84"/>
<polygon fill="#63b8ff" stroke="#63b8ff" points="1082.72,-109.51 1090.3,-102.12 1079.76,-103.17 1082.72,-109.51"/>
</a>
</g>
</g>
<!-- Node5 -->
<g id="Node000005" class="node">
<title>Node5</title>
<g id="a_Node000005"><a xlink:href="classgerber2coordinatesTEST_1_1GerberSettingsList.html#aedf25c3a0d95f36bcdd5996964c3cef5" target="_top" xlink:title=" ">
<polygon fill="white" stroke="#666666" points="1000,-126 830,-126 830,-96 1000,-96 1000,-126"/>
<text text-anchor="start" x="838" y="-114" font-family="Helvetica,sans-Serif" font-size="10.00">gerber2coordinatesTEST.Gerber</text>
<text text-anchor="middle" x="915" y="-103" font-family="Helvetica,sans-Serif" font-size="10.00">SettingsList.getoffset</text>
</a>
</g>
</g>
<!-- Node1&#45;&gt;Node5 -->
<g id="edge4_Node000001_Node000005" class="edge">
<title>Node1&#45;&gt;Node5</title>
<g id="a_edge4_Node000001_Node000005"><a xlink:title=" ">
<path fill="none" stroke="#63b8ff" d="M1025.88,-98.07C1017.34,-99.08 1008.73,-100.09 1000.29,-101.08"/>
<polygon fill="#63b8ff" stroke="#63b8ff" points="1026.33,-101.54 1035.85,-96.9 1025.51,-94.59 1026.33,-101.54"/>
</a>
</g>
</g>
<!-- Node7 -->
<g id="Node000007" class="node">
<title>Node7</title>
<g id="a_Node000007"><a xlink:href="classgerber2coordinatesTEST_1_1GerberSettingsList.html#a547dd3499bfb7480d52fda231ebc3488" target="_top" xlink:title=" ">
<polygon fill="white" stroke="#666666" points="1000,-78 830,-78 830,-48 1000,-48 1000,-78"/>
<text text-anchor="start" x="838" y="-66" font-family="Helvetica,sans-Serif" font-size="10.00">gerber2coordinatesTEST.Gerber</text>
<text text-anchor="middle" x="915" y="-55" font-family="Helvetica,sans-Serif" font-size="10.00">SettingsList.getpadwidth</text>
</a>
</g>
</g>
<!-- Node1&#45;&gt;Node7 -->
<g id="edge7_Node000001_Node000007" class="edge">
<title>Node1&#45;&gt;Node7</title>
<g id="a_edge7_Node000001_Node000007"><a xlink:title=" ">
<path fill="none" stroke="#63b8ff" d="M1025.88,-75.93C1017.34,-74.92 1008.73,-73.91 1000.29,-72.92"/>
<polygon fill="#63b8ff" stroke="#63b8ff" points="1025.51,-79.41 1035.85,-77.1 1026.33,-72.46 1025.51,-79.41"/>
</a>
</g>
</g>
<!-- Node9 -->
<g id="Node000009" class="node">
<title>Node9</title>
<g id="a_Node000009"><a xlink:href="classgerber2coordinatesTEST_1_1GerberSettingsList.html#a64ed062513aabf62d6a1533c98f3d0a3" target="_top" xlink:title=" ">
<polygon fill="white" stroke="#666666" points="1000,-30 830,-30 830,0 1000,0 1000,-30"/>
<text text-anchor="start" x="838" y="-18" font-family="Helvetica,sans-Serif" font-size="10.00">gerber2coordinatesTEST.Gerber</text>
<text text-anchor="middle" x="915" y="-7" font-family="Helvetica,sans-Serif" font-size="10.00">SettingsList.getpolygoninfill</text>
</a>
</g>
</g>
<!-- Node1&#45;&gt;Node9 -->
<g id="edge10_Node000001_Node000009" class="edge">
<title>Node1&#45;&gt;Node9</title>
<g id="a_edge10_Node000001_Node000009"><a xlink:title=" ">
<path fill="none" stroke="#63b8ff" d="M1075.88,-68.1C1053.38,-58.78 1025.45,-47.7 1000,-39 990.96,-35.91 981.28,-32.89 971.83,-30.08"/>
<polygon fill="#63b8ff" stroke="#63b8ff" points="1074.6,-71.35 1085.17,-71.97 1077.29,-64.89 1074.6,-71.35"/>
</a>
</g>
</g>
<!-- Node3 -->
<g id="Node000003" class="node">
<title>Node3</title>
<g id="a_Node000003"><a xlink:href="classgerber2coordinatesTEST_1_1Gerberfileinfo.html#a756d07194ea904f77d9d50b3717c796c" target="_top" xlink:title=" ">
<polygon fill="white" stroke="#666666" points="450,-97 243,-97 243,-67 450,-67 450,-97"/>
<text text-anchor="start" x="251" y="-85" font-family="Helvetica,sans-Serif" font-size="10.00">gerber2coordinatesTEST.Gerberfileinfo.</text>
<text text-anchor="middle" x="346.5" y="-74" font-family="Helvetica,sans-Serif" font-size="10.00">Initgerberfile</text>
</a>
</g>
</g>
<!-- Node2&#45;&gt;Node3 -->
<g id="edge2_Node000002_Node000003" class="edge">
<title>Node2&#45;&gt;Node3</title>
<g id="a_edge2_Node000002_Node000003"><a xlink:title=" ">
<path fill="none" stroke="#63b8ff" d="M544.98,-137.34C525.4,-133.75 504.95,-129.59 486,-125 453.82,-117.2 418.16,-106.07 391.08,-97.08"/>
<polygon fill="#63b8ff" stroke="#63b8ff" points="544.37,-140.79 554.83,-139.11 545.61,-133.9 544.37,-140.79"/>
</a>
</g>
</g>
<!-- Node4 -->
<g id="Node000004" class="node">
<title>Node4</title>
<g id="a_Node000004"><a xlink:href="classgerber2coordinatesTEST_1_1Gerberfileinfo.html#a6415b3b8ed5c5d93a9c3d2ee80bf90bb" target="_top" xlink:title=" ">
<polygon fill="white" stroke="#666666" points="207,-97 0,-97 0,-67 207,-67 207,-97"/>
<text text-anchor="start" x="8" y="-85" font-family="Helvetica,sans-Serif" font-size="10.00">gerber2coordinatesTEST.Gerberfileinfo.</text>
<text text-anchor="middle" x="103.5" y="-74" font-family="Helvetica,sans-Serif" font-size="10.00">Gerberfileinfo</text>
</a>
</g>
</g>
<!-- Node3&#45;&gt;Node4 -->
<g id="edge3_Node000003_Node000004" class="edge">
<title>Node3&#45;&gt;Node4</title>
<g id="a_edge3_Node000003_Node000004"><a xlink:title=" ">
<path fill="none" stroke="#63b8ff" d="M232.68,-82C224.23,-82 215.73,-82 207.35,-82"/>
<polygon fill="#63b8ff" stroke="#63b8ff" points="232.94,-85.5 242.94,-82 232.94,-78.5 232.94,-85.5"/>
</a>
</g>
</g>
<!-- Node6 -->
<g id="Node000006" class="node">
<title>Node6</title>
<g id="a_Node000006"><a xlink:href="classgerber2coordinatesTEST_1_1Gerberfileinfo.html#ac8d7417d6b59429f86c4116bfe6f3343" target="_top" xlink:title=" ">
<polygon fill="white" stroke="#666666" points="771.5,-115.5 508.5,-115.5 508.5,-96.5 771.5,-96.5 771.5,-115.5"/>
<text text-anchor="middle" x="640" y="-103.5" font-family="Helvetica,sans-Serif" font-size="10.00">gerber2coordinatesTEST.Gerberfileinfo.movetopad</text>
</a>
</g>
</g>
<!-- Node5&#45;&gt;Node6 -->
<g id="edge5_Node000005_Node000006" class="edge">
<title>Node5&#45;&gt;Node6</title>
<g id="a_edge5_Node000005_Node000006"><a xlink:title=" ">
<path fill="none" stroke="#63b8ff" d="M819.76,-109.27C804.2,-108.99 787.82,-108.69 771.55,-108.39"/>
<polygon fill="#63b8ff" stroke="#63b8ff" points="819.8,-112.78 829.86,-109.46 819.93,-105.78 819.8,-112.78"/>
</a>
</g>
</g>
<!-- Node6&#45;&gt;Node3 -->
<g id="edge6_Node000006_Node000003" class="edge">
<title>Node6&#45;&gt;Node3</title>
<g id="a_edge6_Node000006_Node000003"><a xlink:title=" ">
<path fill="none" stroke="#63b8ff" d="M513.41,-95.66C492.32,-93.92 470.66,-92.14 450.24,-90.46"/>
<polygon fill="#63b8ff" stroke="#63b8ff" points="513.12,-99.15 523.37,-96.48 513.69,-92.17 513.12,-99.15"/>
</a>
</g>
</g>
<!-- Node8 -->
<g id="Node000008" class="node">
<title>Node8</title>
<g id="a_Node000008"><a xlink:href="classgerber2coordinatesTEST_1_1Gerberfileinfo.html#a91e20a7c0ad8148d3c7ad6daa6de4e4e" target="_top" xlink:title=" ">
<polygon fill="white" stroke="#666666" points="785,-73.5 495,-73.5 495,-54.5 785,-54.5 785,-73.5"/>
<text text-anchor="middle" x="640" y="-61.5" font-family="Helvetica,sans-Serif" font-size="10.00">gerber2coordinatesTEST.Gerberfileinfo.fillpadsandpoints</text>
</a>
</g>
</g>
<!-- Node7&#45;&gt;Node8 -->
<g id="edge8_Node000007_Node000008" class="edge">
<title>Node7&#45;&gt;Node8</title>
<g id="a_edge8_Node000007_Node000008"><a xlink:title=" ">
<path fill="none" stroke="#63b8ff" d="M819.7,-63.35C808.5,-63.39 796.87,-63.43 785.17,-63.47"/>
<polygon fill="#63b8ff" stroke="#63b8ff" points="819.88,-66.84 829.86,-63.31 819.85,-59.84 819.88,-66.84"/>
</a>
</g>
</g>
<!-- Node8&#45;&gt;Node3 -->
<g id="edge9_Node000008_Node000003" class="edge">
<title>Node8&#45;&gt;Node3</title>
<g id="a_edge9_Node000008_Node000003"><a xlink:title=" ">
<path fill="none" stroke="#63b8ff" d="M484.72,-73.53C473.09,-74.24 461.53,-74.96 450.35,-75.65"/>
<polygon fill="#63b8ff" stroke="#63b8ff" points="485.19,-77 494.96,-72.89 484.76,-70.02 485.19,-77"/>
</a>
</g>
</g>
<!-- Node10 -->
<g id="Node000010" class="node">
<title>Node10</title>
<g id="a_Node000010"><a xlink:href="classgerber2coordinatesTEST_1_1Gerberfileinfo.html#a35d701d89e2b7ba549132f359e8b068d" target="_top" xlink:title=" ">
<polygon fill="white" stroke="#666666" points="794,-31.5 486,-31.5 486,-12.5 794,-12.5 794,-31.5"/>
<text text-anchor="middle" x="640" y="-19.5" font-family="Helvetica,sans-Serif" font-size="10.00">gerber2coordinatesTEST.Gerberfileinfo.fillpolygonswithlines</text>
</a>
</g>
</g>
<!-- Node9&#45;&gt;Node10 -->
<g id="edge11_Node000009_Node000010" class="edge">
<title>Node9&#45;&gt;Node10</title>
<g id="a_edge11_Node000009_Node000010"><a xlink:title=" ">
<path fill="none" stroke="#63b8ff" d="M819.81,-17.42C811.47,-17.63 802.89,-17.85 794.22,-18.07"/>
<polygon fill="#63b8ff" stroke="#63b8ff" points="819.96,-20.91 829.86,-17.16 819.78,-13.91 819.96,-20.91"/>
</a>
</g>
</g>
<!-- Node10&#45;&gt;Node3 -->
<g id="edge12_Node000010_Node000003" class="edge">
<title>Node10&#45;&gt;Node3</title>
<g id="a_edge12_Node000010_Node000003"><a xlink:title=" ">
<path fill="none" stroke="#63b8ff" d="M554.27,-33.01C531.98,-36.38 508.01,-40.42 486,-45 456.76,-51.08 424.5,-59.59 398.48,-66.92"/>
<polygon fill="#63b8ff" stroke="#63b8ff" points="555.01,-36.44 564.38,-31.51 553.98,-29.52 555.01,-36.44"/>
</a>
</g>
</g>
</g>
</svg>

<g id="navigator" transform="translate(0 0)" fill="#404254">
  <rect fill="#f2f5e9" fill-opacity="0.5" stroke="#606060" stroke-width=".5" x="0" y="0" width="60" height="60"/>
  <use id="zoomplus" xlink:href="#zoomPlus" x="17" y="9" onmousedown="handleZoom(evt,'in')"/>
  <use id="zoomminus" xlink:href="#zoomMin" x="42" y="9" onmousedown="handleZoom(evt,'out')"/>
  <use id="reset" xlink:href="#resetDef" x="30" y="36" onmousedown="handleReset()"/>
   <use id="arrowup" xlink:href="#arrowUp" x="0" y="0" onmousedown="handlePan(0,-1)"/>
  <use id="arrowright" xlink:href="#arrowRight" x="0" y="0" onmousedown="handlePan(1,0)"/>
  <use id="arrowdown" xlink:href="#arrowDown" x="0" y="0" onmousedown="handlePan(0,1)"/>
  <use id="arrowleft" xlink:href="#arrowLeft" x="0" y="0" onmousedown="handlePan(-1,0)"/>
</g>
<svg viewBox="0 0 15 15" width="100%" height="30px" preserveAspectRatio="xMaxYMin meet">
 <g id="arrow_out" transform="scale(0.3 0.3)">
  <a xlink:href="classgerber2coordinatesTEST_1_1GerberSettingsList_a8b0449100b4f26e9d131a8f127ad3d1c_icgraph_org.svg" target="_base">
   <rect id="button" ry="5" rx="5" y="6" x="6" height="38" width="38"
        fill="#f2f5e9" fill-opacity="0.5" stroke="#606060" stroke-width="1.0"/>
   <path id="arrow"
     d="M 11.500037,31.436501 C 11.940474,20.09759 22.043105,11.32322 32.158766,21.979434 L 37.068811,17.246167 C 37.068811,17.246167 37.088388,32 37.088388,32 L 22.160133,31.978069 C 22.160133,31.978069 26.997745,27.140456 26.997745,27.140456 C 18.528582,18.264221 13.291696,25.230495 11.500037,31.436501 z"
     style="fill:#404040;"/>
  </a>
 </g>
</svg>

<style type='text/css'>
<![CDATA[
[data-mouse-over-selected='false'] { opacity: 0.7; }
[data-mouse-over-selected='true']  { opacity: 1.0; }
]]>
</style>
<script type="application/ecmascript"><![CDATA[
document.addEventListener('DOMContentLoaded', (event) => {
  highlightEdges();
  highlightAdjacentNodes();
});
]]></script>
</svg>
