<?xml version="1.0" encoding="UTF-8" standalone="no"?>
<!DOCTYPE svg PUBLIC "-//W3C//DTD SVG 1.1//EN"
 "http://www.w3.org/Graphics/SVG/1.1/DTD/svg11.dtd">
<!-- Generated by graphviz version 2.43.0 (0)
 -->
<!-- Title: gerber2coordinatesTEST.Gerberfileinfo.fillpolygonswithlines Pages: 1 -->
<svg width="921pt" height="76pt"
 viewBox="0.00 0.00 921.00 75.50" xmlns="http://www.w3.org/2000/svg" xmlns:xlink="http://www.w3.org/1999/xlink">
<g id="graph0" class="graph" transform="scale(1 1) rotate(0) translate(4 71.5)">
<title>gerber2coordinatesTEST.Gerberfileinfo.fillpolygonswithlines</title>
<!-- Node1 -->
<g id="Node000001" class="node">
<title>Node1</title>
<g id="a_Node000001"><a xlink:title=" ">
<polygon fill="#999999" stroke="#666666" points="308,-40 0,-40 0,-21 308,-21 308,-40"/>
<text text-anchor="middle" x="154" y="-28" font-family="Helvetica,sans-Serif" font-size="10.00">gerber2coordinatesTEST.Gerberfileinfo.fillpolygonswithlines</text>
</a>
</g>
</g>
<!-- Node2 -->
<g id="Node000002" class="node">
<title>Node2</title>
<g id="a_Node000002"><a xlink:href="classgerber2coordinatesTEST_1_1GerberSettingsList.html#a64ed062513aabf62d6a1533c98f3d0a3" target="_top" xlink:title=" ">
<polygon fill="white" stroke="#666666" points="548.5,-67.5 378.5,-67.5 378.5,-37.5 548.5,-37.5 548.5,-67.5"/>
<text text-anchor="start" x="386.5" y="-55.5" font-family="Helvetica,sans-Serif" font-size="10.00">gerber2coordinatesTEST.Gerber</text>
<text text-anchor="middle" x="463.5" y="-44.5" font-family="Helvetica,sans-Serif" font-size="10.00">SettingsList.getpolygoninfill</text>
</a>
</g>
</g>
<!-- Node1&#45;&gt;Node2 -->
<g id="edge1_Node000001_Node000002" class="edge">
<title>Node1&#45;&gt;Node2</title>
<g id="a_edge1_Node000001_Node000002"><a xlink:title=" ">
<path fill="none" stroke="#63b8ff" d="M288.09,-40.02C315.05,-41.95 342.87,-43.94 368.17,-45.75"/>
<polygon fill="#63b8ff" stroke="#63b8ff" points="368.24,-49.27 378.47,-46.49 368.74,-42.28 368.24,-49.27"/>
</a>
</g>
</g>
<!-- Node4 -->
<g id="Node000004" class="node">
<title>Node4</title>
<g id="a_Node000004"><a xlink:href="classgerber2coordinatesTEST_1_1Gerbertoolbox.html#a9c535ff4a74b677aed43f88b2626b30e" target="_top" xlink:title=" ">
<polygon fill="white" stroke="#666666" points="583,-19 344,-19 344,0 583,0 583,-19"/>
<text text-anchor="middle" x="463.5" y="-7" font-family="Helvetica,sans-Serif" font-size="10.00">gerber2coordinatesTEST.Gerbertoolbox.getXY</text>
</a>
</g>
</g>
<!-- Node1&#45;&gt;Node4 -->
<g id="edge3_Node000001_Node000004" class="edge">
<title>Node1&#45;&gt;Node4</title>
<g id="a_edge3_Node000001_Node000004"><a xlink:title=" ">
<path fill="none" stroke="#63b8ff" d="M294.35,-20.98C307.4,-20.09 320.57,-19.19 333.51,-18.31"/>
<polygon fill="#63b8ff" stroke="#63b8ff" points="334.09,-21.78 343.83,-17.6 333.62,-14.79 334.09,-21.78"/>
</a>
</g>
</g>
<!-- Node3 -->
<g id="Node000003" class="node">
<title>Node3</title>
<g id="a_Node000003"><a xlink:href="classgerber2coordinatesTEST_1_1GerberSettingsList.html#a8b0449100b4f26e9d131a8f127ad3d1c" target="_top" xlink:title=" ">
<polygon fill="white" stroke="#666666" points="851,-67.5 681,-67.5 681,-37.5 851,-37.5 851,-67.5"/>
<text text-anchor="start" x="689" y="-55.5" font-family="Helvetica,sans-Serif" font-size="10.00">gerber2coordinatesTEST.Gerber</text>
<text text-anchor="middle" x="766" y="-44.5" font-family="Helvetica,sans-Serif" font-size="10.00">SettingsList.getsetting</text>
</a>
</g>
</g>
<!-- Node2&#45;&gt;Node3 -->
<g id="edge2_Node000002_Node000003" class="edge">
<title>Node2&#45;&gt;Node3</title>
<g id="a_edge2_Node000002_Node000003"><a xlink:title=" ">
<path fill="none" stroke="#63b8ff" d="M548.61,-52.5C586.54,-52.5 631.5,-52.5 670.59,-52.5"/>
<polygon fill="#63b8ff" stroke="#63b8ff" points="670.91,-56 680.91,-52.5 670.91,-49 670.91,-56"/>
</a>
</g>
</g>
<!-- Node5 -->
<g id="Node000005" class="node">
<title>Node5</title>
<g id="a_Node000005"><a xlink:href="classgerber2coordinatesTEST_1_1Gerbertoolbox.html#aa745b83fde9503e2dbd3a27d2f05d912" target="_top" xlink:title=" ">
<polygon fill="white" stroke="#666666" points="913,-19 619,-19 619,0 913,0 913,-19"/>
<text text-anchor="middle" x="766" y="-7" font-family="Helvetica,sans-Serif" font-size="10.00">gerber2coordinatesTEST.Gerbertoolbox.getcharsbetween</text>
</a>
</g>
</g>
<!-- Node4&#45;&gt;Node5 -->
<g id="edge4_Node000004_Node000005" class="edge">
<title>Node4&#45;&gt;Node5</title>
<g id="a_edge4_Node000004_Node000005"><a xlink:title=" ">
<path fill="none" stroke="#63b8ff" d="M583.27,-9.5C591.7,-9.5 600.27,-9.5 608.86,-9.5"/>
<polygon fill="#63b8ff" stroke="#63b8ff" points="608.96,-13 618.96,-9.5 608.96,-6 608.96,-13"/>
</a>
</g>
</g>
</g>
</svg>
