<?xml version="1.0" encoding="UTF-8" standalone="no"?>
<!DOCTYPE svg PUBLIC "-//W3C//DTD SVG 1.1//EN"
 "http://www.w3.org/Graphics/SVG/1.1/DTD/svg11.dtd">
<!-- Generated by graphviz version 2.43.0 (0)
 -->
<!-- Title: gerber2coordinatesTEST.Gerberfileinfo.getprintpercentage Pages: 1 -->
<svg width="1572pt" height="59pt"
 viewBox="0.00 0.00 1572.00 59.00" xmlns="http://www.w3.org/2000/svg" xmlns:xlink="http://www.w3.org/1999/xlink">
<g id="graph0" class="graph" transform="scale(1 1) rotate(0) translate(4 55)">
<title>gerber2coordinatesTEST.Gerberfileinfo.getprintpercentage</title>
<!-- Node1 -->
<g id="Node000001" class="node">
<title>Node1</title>
<g id="a_Node000001"><a xlink:title="Aktuellen Druckfortschritt in Prozent bekommen.">
<polygon fill="#999999" stroke="#666666" points="1564,-46.5 1264,-46.5 1264,-27.5 1564,-27.5 1564,-46.5"/>
<text text-anchor="middle" x="1414" y="-34.5" font-family="Helvetica,sans-Serif" font-size="10.00">gerber2coordinatesTEST.Gerberfileinfo.getprintpercentage</text>
</a>
</g>
</g>
<!-- Node2 -->
<g id="Node000002" class="node">
<title>Node2</title>
<g id="a_Node000002"><a xlink:href="classgerber2coordinatesTEST_1_1Druckerserver.html#ab8db08d8cf9f5882603df250d7c0c03b" target="_top" xlink:title="Die einzelnen Anfragen werden verarbeitet.">
<polygon fill="white" stroke="#666666" points="696,-51 488,-51 488,-21 696,-21 696,-51"/>
<text text-anchor="start" x="496" y="-39" font-family="Helvetica,sans-Serif" font-size="10.00">gerber2coordinatesTEST.Druckerserver.</text>
<text text-anchor="middle" x="592" y="-28" font-family="Helvetica,sans-Serif" font-size="10.00">HandleRequest</text>
</a>
</g>
</g>
<!-- Node1&#45;&gt;Node2 -->
<g id="edge1_Node000001_Node000002" class="edge">
<title>Node1&#45;&gt;Node2</title>
<g id="a_edge1_Node000001_Node000002"><a xlink:title=" ">
<path fill="none" stroke="#63b8ff" d="M1253.64,-38.7C1115.62,-39.88 910.63,-40.93 732,-39 720.41,-38.87 708.29,-38.69 696.23,-38.48"/>
<polygon fill="#63b8ff" stroke="#63b8ff" points="1253.9,-42.2 1263.87,-38.61 1253.84,-35.2 1253.9,-42.2"/>
</a>
</g>
</g>
<!-- Node5 -->
<g id="Node000005" class="node">
<title>Node5</title>
<g id="a_Node000005"><a xlink:href="classgerber2coordinatesTEST_1_1Druckerserver.html#a9d206737320c167397df7512cd0b0d40" target="_top" xlink:title=" ">
<polygon fill="white" stroke="#666666" points="1228,-27.5 998,-27.5 998,-8.5 1228,-8.5 1228,-27.5"/>
<text text-anchor="middle" x="1113" y="-15.5" font-family="Helvetica,sans-Serif" font-size="10.00">gerber2coordinatesTEST.Druckerserver.print</text>
</a>
</g>
</g>
<!-- Node1&#45;&gt;Node5 -->
<g id="edge4_Node000001_Node000005" class="edge">
<title>Node1&#45;&gt;Node5</title>
<g id="a_edge4_Node000001_Node000005"><a xlink:title=" ">
<path fill="none" stroke="#63b8ff" d="M1253.82,-26.89C1245.22,-26.34 1236.66,-25.79 1228.25,-25.26"/>
<polygon fill="#63b8ff" stroke="#63b8ff" points="1253.74,-30.39 1263.94,-27.53 1254.18,-23.4 1253.74,-30.39"/>
</a>
</g>
</g>
<!-- Node3 -->
<g id="Node000003" class="node">
<title>Node3</title>
<g id="a_Node000003"><a xlink:href="classgerber2coordinatesTEST_1_1Druckerserver.html#ac93056be99f683fd7a826082b67180dd" target="_top" xlink:title="Funktion zum aktzeptieren mehrerer Anfragen gleichzeitig.">
<polygon fill="white" stroke="#666666" points="452,-51 244,-51 244,-21 452,-21 452,-51"/>
<text text-anchor="start" x="252" y="-39" font-family="Helvetica,sans-Serif" font-size="10.00">gerber2coordinatesTEST.Druckerserver.</text>
<text text-anchor="middle" x="348" y="-28" font-family="Helvetica,sans-Serif" font-size="10.00">AcceptRequests</text>
</a>
</g>
</g>
<!-- Node2&#45;&gt;Node3 -->
<g id="edge2_Node000002_Node000003" class="edge">
<title>Node2&#45;&gt;Node3</title>
<g id="a_edge2_Node000002_Node000003"><a xlink:title=" ">
<path fill="none" stroke="#63b8ff" d="M477.48,-36C469.11,-36 460.68,-36 452.37,-36"/>
<polygon fill="#63b8ff" stroke="#63b8ff" points="477.67,-39.5 487.67,-36 477.67,-32.5 477.67,-39.5"/>
</a>
</g>
</g>
<!-- Node4 -->
<g id="Node000004" class="node">
<title>Node4</title>
<g id="a_Node000004"><a xlink:href="classgerber2coordinatesTEST_1_1Druckerserver.html#a3db80629f1401b75124dfebadb1f4c88" target="_top" xlink:title="Httpserver starten.">
<polygon fill="white" stroke="#666666" points="208,-51 0,-51 0,-21 208,-21 208,-51"/>
<text text-anchor="start" x="8" y="-39" font-family="Helvetica,sans-Serif" font-size="10.00">gerber2coordinatesTEST.Druckerserver.</text>
<text text-anchor="middle" x="104" y="-28" font-family="Helvetica,sans-Serif" font-size="10.00">Start</text>
</a>
</g>
</g>
<!-- Node3&#45;&gt;Node4 -->
<g id="edge3_Node000003_Node000004" class="edge">
<title>Node3&#45;&gt;Node4</title>
<g id="a_edge3_Node000003_Node000004"><a xlink:title=" ">
<path fill="none" stroke="#63b8ff" d="M233.48,-36C225.11,-36 216.68,-36 208.37,-36"/>
<polygon fill="#63b8ff" stroke="#63b8ff" points="233.67,-39.5 243.67,-36 233.67,-32.5 233.67,-39.5"/>
</a>
</g>
</g>
<!-- Node6 -->
<g id="Node000006" class="node">
<title>Node6</title>
<g id="a_Node000006"><a xlink:href="classgerber2coordinatesTEST_1_1Druckerserver.html#a4d3050145a86ba737bef7a21d2e52fa4" target="_top" xlink:title=" ">
<polygon fill="white" stroke="#666666" points="962,-30 732,-30 732,0 962,0 962,-30"/>
<text text-anchor="start" x="740" y="-18" font-family="Helvetica,sans-Serif" font-size="10.00">gerber2coordinatesTEST.Druckerserver.start</text>
<text text-anchor="middle" x="847" y="-7" font-family="Helvetica,sans-Serif" font-size="10.00">Printing</text>
</a>
</g>
</g>
<!-- Node5&#45;&gt;Node6 -->
<g id="edge5_Node000005_Node000006" class="edge">
<title>Node5&#45;&gt;Node6</title>
<g id="a_edge5_Node000005_Node000006"><a xlink:title=" ">
<path fill="none" stroke="#63b8ff" d="M987.71,-16.59C979.14,-16.49 970.53,-16.39 962.01,-16.3"/>
<polygon fill="#63b8ff" stroke="#63b8ff" points="987.7,-20.09 997.74,-16.7 987.78,-13.09 987.7,-20.09"/>
</a>
</g>
</g>
<!-- Node6&#45;&gt;Node2 -->
<g id="edge6_Node000006_Node000002" class="edge">
<title>Node6&#45;&gt;Node2</title>
<g id="a_edge6_Node000006_Node000002"><a xlink:title=" ">
<path fill="none" stroke="#63b8ff" d="M721.74,-25.31C713.24,-26.02 704.72,-26.73 696.34,-27.42"/>
<polygon fill="#63b8ff" stroke="#63b8ff" points="722.04,-28.8 731.71,-24.49 721.46,-21.83 722.04,-28.8"/>
</a>
</g>
</g>
</g>
</svg>
