<?xml version="1.0" encoding="UTF-8" standalone="no"?>
<!DOCTYPE svg PUBLIC "-//W3C//DTD SVG 1.1//EN"
 "http://www.w3.org/Graphics/SVG/1.1/DTD/svg11.dtd">
<!-- Generated by graphviz version 2.43.0 (0)
 -->
<!-- Title: gerber2coordinatesTEST.GerberSettingsList.setsetting Pages: 1 -->
<svg width="1426pt" height="182pt"
 viewBox="0.00 0.00 1426.00 182.00" xmlns="http://www.w3.org/2000/svg" xmlns:xlink="http://www.w3.org/1999/xlink">
<g id="graph0" class="graph" transform="scale(1 1) rotate(0) translate(4 178)">
<title>gerber2coordinatesTEST.GerberSettingsList.setsetting</title>
<!-- Node1 -->
<g id="Node000001" class="node">
<title>Node1</title>
<g id="a_Node000001"><a xlink:title=" ">
<polygon fill="#999999" stroke="#666666" points="1418,-102 1248,-102 1248,-72 1418,-72 1418,-102"/>
<text text-anchor="start" x="1256" y="-90" font-family="Helvetica,sans-Serif" font-size="10.00">gerber2coordinatesTEST.Gerber</text>
<text text-anchor="middle" x="1333" y="-79" font-family="Helvetica,sans-Serif" font-size="10.00">SettingsList.setsetting</text>
</a>
</g>
</g>
<!-- Node2 -->
<g id="Node000002" class="node">
<title>Node2</title>
<g id="a_Node000002"><a xlink:href="classgerber2coordinatesTEST_1_1GerberSettingsList.html#a21318abf396092ec7e533611001a98c0" target="_top" xlink:title=" ">
<polygon fill="white" stroke="#666666" points="1212,-174 1042,-174 1042,-144 1212,-144 1212,-174"/>
<text text-anchor="start" x="1050" y="-162" font-family="Helvetica,sans-Serif" font-size="10.00">gerber2coordinatesTEST.Gerber</text>
<text text-anchor="middle" x="1127" y="-151" font-family="Helvetica,sans-Serif" font-size="10.00">SettingsList.setmirror</text>
</a>
</g>
</g>
<!-- Node1&#45;&gt;Node2 -->
<g id="edge1_Node000001_Node000002" class="edge">
<title>Node1&#45;&gt;Node2</title>
<g id="a_edge1_Node000001_Node000002"><a xlink:title=" ">
<path fill="none" stroke="#63b8ff" d="M1287.88,-105.9C1265.38,-115.22 1237.45,-126.3 1212,-135 1202.96,-138.09 1193.28,-141.11 1183.83,-143.92"/>
<polygon fill="#63b8ff" stroke="#63b8ff" points="1289.29,-109.11 1297.17,-102.03 1286.6,-102.65 1289.29,-109.11"/>
</a>
</g>
</g>
<!-- Node7 -->
<g id="Node000007" class="node">
<title>Node7</title>
<g id="a_Node000007"><a xlink:href="classgerber2coordinatesTEST_1_1GerberSettingsList.html#a036d1751712a1544f8957b4e1a252312" target="_top" xlink:title=" ">
<polygon fill="white" stroke="#666666" points="1212,-126 1042,-126 1042,-96 1212,-96 1212,-126"/>
<text text-anchor="start" x="1050" y="-114" font-family="Helvetica,sans-Serif" font-size="10.00">gerber2coordinatesTEST.Gerber</text>
<text text-anchor="middle" x="1127" y="-103" font-family="Helvetica,sans-Serif" font-size="10.00">SettingsList.setoffset</text>
</a>
</g>
</g>
<!-- Node1&#45;&gt;Node7 -->
<g id="edge6_Node000001_Node000007" class="edge">
<title>Node1&#45;&gt;Node7</title>
<g id="a_edge6_Node000001_Node000007"><a xlink:title=" ">
<path fill="none" stroke="#63b8ff" d="M1237.88,-98.07C1229.34,-99.08 1220.73,-100.09 1212.29,-101.08"/>
<polygon fill="#63b8ff" stroke="#63b8ff" points="1238.33,-101.54 1247.85,-96.9 1237.51,-94.59 1238.33,-101.54"/>
</a>
</g>
</g>
<!-- Node9 -->
<g id="Node000009" class="node">
<title>Node9</title>
<g id="a_Node000009"><a xlink:href="classgerber2coordinatesTEST_1_1GerberSettingsList.html#ab52332fb782819fe4b9bfd20f3f3b534" target="_top" xlink:title=" ">
<polygon fill="white" stroke="#666666" points="1212,-78 1042,-78 1042,-48 1212,-48 1212,-78"/>
<text text-anchor="start" x="1050" y="-66" font-family="Helvetica,sans-Serif" font-size="10.00">gerber2coordinatesTEST.Gerber</text>
<text text-anchor="middle" x="1127" y="-55" font-family="Helvetica,sans-Serif" font-size="10.00">SettingsList.setpadwidth</text>
</a>
</g>
</g>
<!-- Node1&#45;&gt;Node9 -->
<g id="edge9_Node000001_Node000009" class="edge">
<title>Node1&#45;&gt;Node9</title>
<g id="a_edge9_Node000001_Node000009"><a xlink:title=" ">
<path fill="none" stroke="#63b8ff" d="M1237.88,-75.93C1229.34,-74.92 1220.73,-73.91 1212.29,-72.92"/>
<polygon fill="#63b8ff" stroke="#63b8ff" points="1237.51,-79.41 1247.85,-77.1 1238.33,-72.46 1237.51,-79.41"/>
</a>
</g>
</g>
<!-- Node11 -->
<g id="Node000011" class="node">
<title>Node11</title>
<g id="a_Node000011"><a xlink:href="classgerber2coordinatesTEST_1_1GerberSettingsList.html#ac518ba905ddb1dc5535cc2761685a560" target="_top" xlink:title=" ">
<polygon fill="white" stroke="#666666" points="1212,-30 1042,-30 1042,0 1212,0 1212,-30"/>
<text text-anchor="start" x="1050" y="-18" font-family="Helvetica,sans-Serif" font-size="10.00">gerber2coordinatesTEST.Gerber</text>
<text text-anchor="middle" x="1127" y="-7" font-family="Helvetica,sans-Serif" font-size="10.00">SettingsList.setpolygoninfill</text>
</a>
</g>
</g>
<!-- Node1&#45;&gt;Node11 -->
<g id="edge12_Node000001_Node000011" class="edge">
<title>Node1&#45;&gt;Node11</title>
<g id="a_edge12_Node000001_Node000011"><a xlink:title=" ">
<path fill="none" stroke="#63b8ff" d="M1287.88,-68.1C1265.38,-58.78 1237.45,-47.7 1212,-39 1202.96,-35.91 1193.28,-32.89 1183.83,-30.08"/>
<polygon fill="#63b8ff" stroke="#63b8ff" points="1286.6,-71.35 1297.17,-71.97 1289.29,-64.89 1286.6,-71.35"/>
</a>
</g>
</g>
<!-- Node3 -->
<g id="Node000003" class="node">
<title>Node3</title>
<g id="a_Node000003"><a xlink:href="classgerber2coordinatesTEST_1_1Druckerserver.html#ad0249cb1356b24bc2dc3f208b5d35581" target="_top" xlink:title=" ">
<polygon fill="white" stroke="#666666" points="995.5,-161.5 742.5,-161.5 742.5,-142.5 995.5,-142.5 995.5,-161.5"/>
<text text-anchor="middle" x="869" y="-149.5" font-family="Helvetica,sans-Serif" font-size="10.00">gerber2coordinatesTEST.Druckerserver.setmirror</text>
</a>
</g>
</g>
<!-- Node2&#45;&gt;Node3 -->
<g id="edge2_Node000002_Node000003" class="edge">
<title>Node2&#45;&gt;Node3</title>
<g id="a_edge2_Node000002_Node000003"><a xlink:title=" ">
<path fill="none" stroke="#63b8ff" d="M1031.69,-156.42C1020.04,-156.1 1007.98,-155.77 995.95,-155.44"/>
<polygon fill="#63b8ff" stroke="#63b8ff" points="1031.73,-159.92 1041.82,-156.7 1031.92,-152.93 1031.73,-159.92"/>
</a>
</g>
</g>
<!-- Node4 -->
<g id="Node000004" class="node">
<title>Node4</title>
<g id="a_Node000004"><a xlink:href="classgerber2coordinatesTEST_1_1Druckerserver.html#ab8db08d8cf9f5882603df250d7c0c03b" target="_top" xlink:title="Die einzelnen Anfragen werden verarbeitet.">
<polygon fill="white" stroke="#666666" points="696,-101 488,-101 488,-71 696,-71 696,-101"/>
<text text-anchor="start" x="496" y="-89" font-family="Helvetica,sans-Serif" font-size="10.00">gerber2coordinatesTEST.Druckerserver.</text>
<text text-anchor="middle" x="592" y="-78" font-family="Helvetica,sans-Serif" font-size="10.00">HandleRequest</text>
</a>
</g>
</g>
<!-- Node3&#45;&gt;Node4 -->
<g id="edge3_Node000003_Node000004" class="edge">
<title>Node3&#45;&gt;Node4</title>
<g id="a_edge3_Node000003_Node000004"><a xlink:title=" ">
<path fill="none" stroke="#63b8ff" d="M798.48,-140.67C777.06,-136.79 753.47,-132.12 732,-127 700.92,-119.58 666.47,-109.43 639.64,-101.09"/>
<polygon fill="#63b8ff" stroke="#63b8ff" points="798.01,-144.14 808.47,-142.45 799.24,-137.25 798.01,-144.14"/>
</a>
</g>
</g>
<!-- Node5 -->
<g id="Node000005" class="node">
<title>Node5</title>
<g id="a_Node000005"><a xlink:href="classgerber2coordinatesTEST_1_1Druckerserver.html#ac93056be99f683fd7a826082b67180dd" target="_top" xlink:title="Funktion zum aktzeptieren mehrerer Anfragen gleichzeitig.">
<polygon fill="white" stroke="#666666" points="452,-101 244,-101 244,-71 452,-71 452,-101"/>
<text text-anchor="start" x="252" y="-89" font-family="Helvetica,sans-Serif" font-size="10.00">gerber2coordinatesTEST.Druckerserver.</text>
<text text-anchor="middle" x="348" y="-78" font-family="Helvetica,sans-Serif" font-size="10.00">AcceptRequests</text>
</a>
</g>
</g>
<!-- Node4&#45;&gt;Node5 -->
<g id="edge4_Node000004_Node000005" class="edge">
<title>Node4&#45;&gt;Node5</title>
<g id="a_edge4_Node000004_Node000005"><a xlink:title=" ">
<path fill="none" stroke="#63b8ff" d="M477.48,-86C469.11,-86 460.68,-86 452.37,-86"/>
<polygon fill="#63b8ff" stroke="#63b8ff" points="477.67,-89.5 487.67,-86 477.67,-82.5 477.67,-89.5"/>
</a>
</g>
</g>
<!-- Node6 -->
<g id="Node000006" class="node">
<title>Node6</title>
<g id="a_Node000006"><a xlink:href="classgerber2coordinatesTEST_1_1Druckerserver.html#a3db80629f1401b75124dfebadb1f4c88" target="_top" xlink:title="Httpserver starten.">
<polygon fill="white" stroke="#666666" points="208,-101 0,-101 0,-71 208,-71 208,-101"/>
<text text-anchor="start" x="8" y="-89" font-family="Helvetica,sans-Serif" font-size="10.00">gerber2coordinatesTEST.Druckerserver.</text>
<text text-anchor="middle" x="104" y="-78" font-family="Helvetica,sans-Serif" font-size="10.00">Start</text>
</a>
</g>
</g>
<!-- Node5&#45;&gt;Node6 -->
<g id="edge5_Node000005_Node000006" class="edge">
<title>Node5&#45;&gt;Node6</title>
<g id="a_edge5_Node000005_Node000006"><a xlink:title=" ">
<path fill="none" stroke="#63b8ff" d="M233.48,-86C225.11,-86 216.68,-86 208.37,-86"/>
<polygon fill="#63b8ff" stroke="#63b8ff" points="233.67,-89.5 243.67,-86 233.67,-82.5 233.67,-89.5"/>
</a>
</g>
</g>
<!-- Node8 -->
<g id="Node000008" class="node">
<title>Node8</title>
<g id="a_Node000008"><a xlink:href="classgerber2coordinatesTEST_1_1Druckerserver.html#a59c02b80d01f547c5e903f9976272db7" target="_top" xlink:title=" ">
<polygon fill="white" stroke="#666666" points="994.5,-117.5 743.5,-117.5 743.5,-98.5 994.5,-98.5 994.5,-117.5"/>
<text text-anchor="middle" x="869" y="-105.5" font-family="Helvetica,sans-Serif" font-size="10.00">gerber2coordinatesTEST.Druckerserver.setoffset</text>
</a>
</g>
</g>
<!-- Node7&#45;&gt;Node8 -->
<g id="edge7_Node000007_Node000008" class="edge">
<title>Node7&#45;&gt;Node8</title>
<g id="a_edge7_Node000007_Node000008"><a xlink:title=" ">
<path fill="none" stroke="#63b8ff" d="M1031.75,-109.9C1019.63,-109.75 1007.07,-109.61 994.56,-109.46"/>
<polygon fill="#63b8ff" stroke="#63b8ff" points="1031.78,-113.4 1041.82,-110.01 1031.86,-106.4 1031.78,-113.4"/>
</a>
</g>
</g>
<!-- Node8&#45;&gt;Node4 -->
<g id="edge8_Node000008_Node000004" class="edge">
<title>Node8&#45;&gt;Node4</title>
<g id="a_edge8_Node000008_Node000004"><a xlink:title=" ">
<path fill="none" stroke="#63b8ff" d="M738.65,-97.65C724.42,-96.51 710.08,-95.37 696.23,-94.26"/>
<polygon fill="#63b8ff" stroke="#63b8ff" points="738.73,-101.17 748.98,-98.48 739.29,-94.19 738.73,-101.17"/>
</a>
</g>
</g>
<!-- Node10 -->
<g id="Node000010" class="node">
<title>Node10</title>
<g id="a_Node000010"><a xlink:href="classgerber2coordinatesTEST_1_1Druckerserver.html#a12e0f5f8fafaba6e56b74278991b798b" target="_top" xlink:title=" ">
<polygon fill="white" stroke="#666666" points="995.5,-77.5 742.5,-77.5 742.5,-58.5 995.5,-58.5 995.5,-77.5"/>
<text text-anchor="middle" x="869" y="-65.5" font-family="Helvetica,sans-Serif" font-size="10.00">gerber2coordinatesTEST.Druckerserver.setpadfill</text>
</a>
</g>
</g>
<!-- Node9&#45;&gt;Node10 -->
<g id="edge10_Node000009_Node000010" class="edge">
<title>Node9&#45;&gt;Node10</title>
<g id="a_edge10_Node000009_Node000010"><a xlink:title=" ">
<path fill="none" stroke="#63b8ff" d="M1031.69,-64.84C1020.04,-65.07 1007.98,-65.31 995.95,-65.54"/>
<polygon fill="#63b8ff" stroke="#63b8ff" points="1031.89,-68.34 1041.82,-64.64 1031.75,-61.34 1031.89,-68.34"/>
</a>
</g>
</g>
<!-- Node10&#45;&gt;Node4 -->
<g id="edge11_Node000010_Node000004" class="edge">
<title>Node10&#45;&gt;Node4</title>
<g id="a_edge11_Node000010_Node000004"><a xlink:title=" ">
<path fill="none" stroke="#63b8ff" d="M732.03,-76.9C719.95,-77.69 707.85,-78.48 696.11,-79.25"/>
<polygon fill="#63b8ff" stroke="#63b8ff" points="732.42,-80.38 742.17,-76.24 731.96,-73.4 732.42,-80.38"/>
</a>
</g>
</g>
<!-- Node12 -->
<g id="Node000012" class="node">
<title>Node12</title>
<g id="a_Node000012"><a xlink:href="classgerber2coordinatesTEST_1_1Druckerserver.html#a5ac55638a08c878eb8fe137be3d1a411" target="_top" xlink:title=" ">
<polygon fill="white" stroke="#666666" points="1006,-35.5 732,-35.5 732,-16.5 1006,-16.5 1006,-35.5"/>
<text text-anchor="middle" x="869" y="-23.5" font-family="Helvetica,sans-Serif" font-size="10.00">gerber2coordinatesTEST.Druckerserver.setpolygonfill</text>
</a>
</g>
</g>
<!-- Node11&#45;&gt;Node12 -->
<g id="edge13_Node000011_Node000012" class="edge">
<title>Node11&#45;&gt;Node12</title>
<g id="a_edge13_Node000011_Node000012"><a xlink:title=" ">
<path fill="none" stroke="#63b8ff" d="M1031.71,-19.05C1023.33,-19.41 1014.75,-19.78 1006.11,-20.15"/>
<polygon fill="#63b8ff" stroke="#63b8ff" points="1031.98,-22.54 1041.82,-18.62 1031.68,-15.55 1031.98,-22.54"/>
</a>
</g>
</g>
<!-- Node12&#45;&gt;Node4 -->
<g id="edge14_Node000012_Node000004" class="edge">
<title>Node12&#45;&gt;Node4</title>
<g id="a_edge14_Node000012_Node000004"><a xlink:title=" ">
<path fill="none" stroke="#63b8ff" d="M798.26,-37.22C776.93,-40.94 753.44,-45.34 732,-50 703.74,-56.14 672.55,-64.11 646.89,-70.99"/>
<polygon fill="#63b8ff" stroke="#63b8ff" points="798.96,-40.65 808.22,-35.5 797.77,-33.75 798.96,-40.65"/>
</a>
</g>
</g>
</g>
</svg>
