<?xml version="1.0" encoding="UTF-8" standalone="no"?>
<!DOCTYPE svg PUBLIC "-//W3C//DTD SVG 1.1//EN"
 "http://www.w3.org/Graphics/SVG/1.1/DTD/svg11.dtd">
<!-- Generated by graphviz version 2.43.0 (0)
 -->
<!-- Title: gerber2coordinatesTEST.GerberSettingsList.setpolygoninfill Pages: 1 -->
<svg width="1220pt" height="38pt"
 viewBox="0.00 0.00 1220.00 38.00" xmlns="http://www.w3.org/2000/svg" xmlns:xlink="http://www.w3.org/1999/xlink">
<g id="graph0" class="graph" transform="scale(1 1) rotate(0) translate(4 34)">
<title>gerber2coordinatesTEST.GerberSettingsList.setpolygoninfill</title>
<!-- Node1 -->
<g id="Node000001" class="node">
<title>Node1</title>
<g id="a_Node000001"><a xlink:title=" ">
<polygon fill="#999999" stroke="#666666" points="1212,-30 1042,-30 1042,0 1212,0 1212,-30"/>
<text text-anchor="start" x="1050" y="-18" font-family="Helvetica,sans-Serif" font-size="10.00">gerber2coordinatesTEST.Gerber</text>
<text text-anchor="middle" x="1127" y="-7" font-family="Helvetica,sans-Serif" font-size="10.00">SettingsList.setpolygoninfill</text>
</a>
</g>
</g>
<!-- Node2 -->
<g id="Node000002" class="node">
<title>Node2</title>
<g id="a_Node000002"><a xlink:href="classgerber2coordinatesTEST_1_1Druckerserver.html#a5ac55638a08c878eb8fe137be3d1a411" target="_top" xlink:title=" ">
<polygon fill="white" stroke="#666666" points="1006,-24.5 732,-24.5 732,-5.5 1006,-5.5 1006,-24.5"/>
<text text-anchor="middle" x="869" y="-12.5" font-family="Helvetica,sans-Serif" font-size="10.00">gerber2coordinatesTEST.Druckerserver.setpolygonfill</text>
</a>
</g>
</g>
<!-- Node1&#45;&gt;Node2 -->
<g id="edge1_Node000001_Node000002" class="edge">
<title>Node1&#45;&gt;Node2</title>
<g id="a_edge1_Node000001_Node000002"><a xlink:title=" ">
<path fill="none" stroke="#63b8ff" d="M1031.71,-15C1023.33,-15 1014.75,-15 1006.11,-15"/>
<polygon fill="#63b8ff" stroke="#63b8ff" points="1031.82,-18.5 1041.82,-15 1031.82,-11.5 1031.82,-18.5"/>
</a>
</g>
</g>
<!-- Node3 -->
<g id="Node000003" class="node">
<title>Node3</title>
<g id="a_Node000003"><a xlink:href="classgerber2coordinatesTEST_1_1Druckerserver.html#ab8db08d8cf9f5882603df250d7c0c03b" target="_top" xlink:title="Die einzelnen Anfragen werden verarbeitet.">
<polygon fill="white" stroke="#666666" points="696,-30 488,-30 488,0 696,0 696,-30"/>
<text text-anchor="start" x="496" y="-18" font-family="Helvetica,sans-Serif" font-size="10.00">gerber2coordinatesTEST.Druckerserver.</text>
<text text-anchor="middle" x="592" y="-7" font-family="Helvetica,sans-Serif" font-size="10.00">HandleRequest</text>
</a>
</g>
</g>
<!-- Node2&#45;&gt;Node3 -->
<g id="edge2_Node000002_Node000003" class="edge">
<title>Node2&#45;&gt;Node3</title>
<g id="a_edge2_Node000002_Node000003"><a xlink:title=" ">
<path fill="none" stroke="#63b8ff" d="M721.69,-15C713.16,-15 704.68,-15 696.37,-15"/>
<polygon fill="#63b8ff" stroke="#63b8ff" points="721.71,-18.5 731.71,-15 721.71,-11.5 721.71,-18.5"/>
</a>
</g>
</g>
<!-- Node4 -->
<g id="Node000004" class="node">
<title>Node4</title>
<g id="a_Node000004"><a xlink:href="classgerber2coordinatesTEST_1_1Druckerserver.html#ac93056be99f683fd7a826082b67180dd" target="_top" xlink:title="Funktion zum aktzeptieren mehrerer Anfragen gleichzeitig.">
<polygon fill="white" stroke="#666666" points="452,-30 244,-30 244,0 452,0 452,-30"/>
<text text-anchor="start" x="252" y="-18" font-family="Helvetica,sans-Serif" font-size="10.00">gerber2coordinatesTEST.Druckerserver.</text>
<text text-anchor="middle" x="348" y="-7" font-family="Helvetica,sans-Serif" font-size="10.00">AcceptRequests</text>
</a>
</g>
</g>
<!-- Node3&#45;&gt;Node4 -->
<g id="edge3_Node000003_Node000004" class="edge">
<title>Node3&#45;&gt;Node4</title>
<g id="a_edge3_Node000003_Node000004"><a xlink:title=" ">
<path fill="none" stroke="#63b8ff" d="M477.48,-15C469.11,-15 460.68,-15 452.37,-15"/>
<polygon fill="#63b8ff" stroke="#63b8ff" points="477.67,-18.5 487.67,-15 477.67,-11.5 477.67,-18.5"/>
</a>
</g>
</g>
<!-- Node5 -->
<g id="Node000005" class="node">
<title>Node5</title>
<g id="a_Node000005"><a xlink:href="classgerber2coordinatesTEST_1_1Druckerserver.html#a3db80629f1401b75124dfebadb1f4c88" target="_top" xlink:title="Httpserver starten.">
<polygon fill="white" stroke="#666666" points="208,-30 0,-30 0,0 208,0 208,-30"/>
<text text-anchor="start" x="8" y="-18" font-family="Helvetica,sans-Serif" font-size="10.00">gerber2coordinatesTEST.Druckerserver.</text>
<text text-anchor="middle" x="104" y="-7" font-family="Helvetica,sans-Serif" font-size="10.00">Start</text>
</a>
</g>
</g>
<!-- Node4&#45;&gt;Node5 -->
<g id="edge4_Node000004_Node000005" class="edge">
<title>Node4&#45;&gt;Node5</title>
<g id="a_edge4_Node000004_Node000005"><a xlink:title=" ">
<path fill="none" stroke="#63b8ff" d="M233.48,-15C225.11,-15 216.68,-15 208.37,-15"/>
<polygon fill="#63b8ff" stroke="#63b8ff" points="233.67,-18.5 243.67,-15 233.67,-11.5 233.67,-18.5"/>
</a>
</g>
</g>
</g>
</svg>
