<?xml version="1.0" encoding="UTF-8" standalone="no"?>
<!DOCTYPE svg PUBLIC "-//W3C//DTD SVG 1.1//EN"
 "http://www.w3.org/Graphics/SVG/1.1/DTD/svg11.dtd">
<!-- Generated by graphviz version 2.43.0 (0)
 -->
<!-- Title: Leiterplattendrucker_V1.Website Pages: 1 -->
<svg width="165pt" height="249pt"
 viewBox="0.00 0.00 165.00 249.00" xmlns="http://www.w3.org/2000/svg" xmlns:xlink="http://www.w3.org/1999/xlink">
<g id="graph0" class="graph" transform="scale(1 1) rotate(0) translate(4 245)">
<title>Leiterplattendrucker_V1.Website</title>
<!-- Node1 -->
<g id="Node000001" class="node">
<title>Node1</title>
<g id="a_Node000001"><a xlink:title=" ">
<polygon fill="#999999" stroke="transparent" points="157,-123 0,-123 0,0 157,0 157,-123"/>
<text text-anchor="start" x="29.5" y="-110.5" font-family="Helvetica,sans-Serif" font-size="10.00">Leiterplattendrucker</text>
<text text-anchor="start" x="48.5" y="-99.5" font-family="Helvetica,sans-Serif" font-size="10.00">_V1.Website</text>
<text text-anchor="start" x="77" y="-84.5" font-family="Helvetica,sans-Serif" font-size="10.00"> </text>
<text text-anchor="start" x="4.5" y="-69.5" font-family="Helvetica,sans-Serif" font-size="10.00">+</text>
<text text-anchor="start" x="17.5" y="-69.5" font-family="Helvetica,sans-Serif" font-size="10.00">static bool getResponse</text>
<text text-anchor="start" x="17.5" y="-58.5" font-family="Helvetica,sans-Serif" font-size="10.00">(string requesturl)</text>
<text text-anchor="start" x="4.5" y="-43.5" font-family="Helvetica,sans-Serif" font-size="10.00">+</text>
<text text-anchor="start" x="17.5" y="-43.5" font-family="Helvetica,sans-Serif" font-size="10.00">static string loadfile</text>
<text text-anchor="start" x="17.5" y="-32.5" font-family="Helvetica,sans-Serif" font-size="10.00">(string path)</text>
<text text-anchor="start" x="7" y="-17.5" font-family="Helvetica,sans-Serif" font-size="10.00">&#45;</text>
<text text-anchor="start" x="17.5" y="-17.5" font-family="Helvetica,sans-Serif" font-size="10.00">static string getcontenttype</text>
<text text-anchor="start" x="17.5" y="-6.5" font-family="Helvetica,sans-Serif" font-size="10.00">(string filePath)</text>
<polygon fill="#666666" stroke="#666666" points="0.5,-94.5 0.5,-94.5 157.5,-94.5 157.5,-94.5 0.5,-94.5"/>
<polygon fill="#666666" stroke="#666666" points="0.5,-79.5 0.5,-79.5 157.5,-79.5 157.5,-79.5 0.5,-79.5"/>
<polygon fill="none" stroke="#666666" points="0,0 0,-123 157,-123 157,0 0,0"/>
</a>
</g>
</g>
<!-- Node2 -->
<g id="Node000002" class="node">
<title>Node2</title>
<g id="a_Node000002"><a xlink:title=" ">
<polygon fill="white" stroke="transparent" points="97.5,-241 59.5,-241 59.5,-192 97.5,-192 97.5,-241"/>
<text text-anchor="start" x="64.5" y="-228.5" font-family="Helvetica,sans-Serif" font-size="10.00">static</text>
<text text-anchor="start" x="76.5" y="-213.5" font-family="Helvetica,sans-Serif" font-size="10.00"> </text>
<text text-anchor="start" x="76.5" y="-198.5" font-family="Helvetica,sans-Serif" font-size="10.00"> </text>
<polygon fill="#666666" stroke="#666666" points="59.5,-223.5 59.5,-223.5 97.5,-223.5 97.5,-223.5 59.5,-223.5"/>
<polygon fill="#666666" stroke="#666666" points="59.5,-208.5 59.5,-208.5 97.5,-208.5 97.5,-208.5 59.5,-208.5"/>
<polygon fill="none" stroke="#666666" points="59.5,-192 59.5,-241 97.5,-241 97.5,-192 59.5,-192"/>
</a>
</g>
</g>
<!-- Node2&#45;&gt;Node1 -->
<g id="edge1_Node000001_Node000002" class="edge">
<title>Node2&#45;&gt;Node1</title>
<g id="a_edge1_Node000001_Node000002"><a xlink:title=" ">
<path fill="none" stroke="#63b8ff" d="M78.5,-191.93C78.5,-176.58 78.5,-155.66 78.5,-135.12"/>
<polygon fill="none" stroke="#63b8ff" points="78.5,-135.11 74.5,-129.11 78.5,-123.11 82.5,-129.11 78.5,-135.11"/>
</a>
</g>
<text text-anchor="middle" x="97" y="-166" font-family="Helvetica,sans-Serif" font-size="10.00" fill="grey"> +byte</text>
<text text-anchor="middle" x="97" y="-155" font-family="Helvetica,sans-Serif" font-size="10.00" fill="grey">+int</text>
<text text-anchor="middle" x="97" y="-144" font-family="Helvetica,sans-Serif" font-size="10.00" fill="grey">+string</text>
</g>
</g>
</svg>
