<?xml version="1.0" encoding="UTF-8" standalone="no"?>
<!DOCTYPE svg PUBLIC "-//W3C//DTD SVG 1.1//EN"
 "http://www.w3.org/Graphics/SVG/1.1/DTD/svg11.dtd">
<!-- Generated by graphviz version 2.43.0 (0)
 -->
<!-- Title: gerber2coordinatesTEST.Gerberfileinfo.turnlines Pages: 1 -->
<svg width="564pt" height="64pt"
 viewBox="0.00 0.00 564.00 64.00" xmlns="http://www.w3.org/2000/svg" xmlns:xlink="http://www.w3.org/1999/xlink">
<g id="graph0" class="graph" transform="scale(1 1) rotate(0) translate(4 60)">
<title>gerber2coordinatesTEST.Gerberfileinfo.turnlines</title>
<!-- Node1 -->
<g id="Node000001" class="node">
<title>Node1</title>
<g id="a_Node000001"><a xlink:title="Start und Enden vertauschen, damit die nächste Linie dort anfängt wo die vorherige aufhört und die op...">
<polygon fill="#999999" stroke="#666666" points="250,-37 0,-37 0,-18 250,-18 250,-37"/>
<text text-anchor="middle" x="125" y="-25" font-family="Helvetica,sans-Serif" font-size="10.00">gerber2coordinatesTEST.Gerberfileinfo.turnlines</text>
</a>
</g>
</g>
<!-- Node2 -->
<g id="Node000002" class="node">
<title>Node2</title>
<g id="a_Node000002"><a xlink:href="classgerber2coordinatesTEST_1_1Gerbertoolbox.html#a3d2eaeebd1919e626f5314d934c76f1a" target="_top" xlink:title=" ">
<polygon fill="white" stroke="#666666" points="554.5,-56 287.5,-56 287.5,-37 554.5,-37 554.5,-56"/>
<text text-anchor="middle" x="421" y="-44" font-family="Helvetica,sans-Serif" font-size="10.00">gerber2coordinatesTEST.Gerbertoolbox.getdistance</text>
</a>
</g>
</g>
<!-- Node1&#45;&gt;Node2 -->
<g id="edge1_Node000001_Node000002" class="edge">
<title>Node1&#45;&gt;Node2</title>
<g id="a_edge1_Node000001_Node000002"><a xlink:title=" ">
<path fill="none" stroke="#63b8ff" d="M250.26,-35.53C259.14,-36.1 268.13,-36.69 277.11,-37.27"/>
<polygon fill="#63b8ff" stroke="#63b8ff" points="277.02,-40.77 287.22,-37.92 277.47,-33.78 277.02,-40.77"/>
</a>
</g>
</g>
<!-- Node3 -->
<g id="Node000003" class="node">
<title>Node3</title>
<g id="a_Node000003"><a xlink:href="classgerber2coordinatesTEST_1_1Gerberfileinfo.html#a1fbfbb2aa35fc3dcf85dbaaddab12372" target="_top" xlink:title="Startpunkt finden, an dem angefangen wird zu zeichnen.">
<polygon fill="white" stroke="#666666" points="556,-19 286,-19 286,0 556,0 556,-19"/>
<text text-anchor="middle" x="421" y="-7" font-family="Helvetica,sans-Serif" font-size="10.00">gerber2coordinatesTEST.Gerberfileinfo.getstartpoint</text>
</a>
</g>
</g>
<!-- Node1&#45;&gt;Node3 -->
<g id="edge2_Node000001_Node000003" class="edge">
<title>Node1&#45;&gt;Node3</title>
<g id="a_edge2_Node000001_Node000003"><a xlink:title=" ">
<path fill="none" stroke="#63b8ff" d="M250.26,-19.89C258.7,-19.38 267.26,-18.85 275.79,-18.33"/>
<polygon fill="#63b8ff" stroke="#63b8ff" points="276.04,-21.82 285.8,-17.72 275.61,-14.83 276.04,-21.82"/>
</a>
</g>
</g>
</g>
</svg>
