<?xml version="1.0" encoding="UTF-8" standalone="no"?>
<!DOCTYPE svg PUBLIC "-//W3C//DTD SVG 1.1//EN"
 "http://www.w3.org/Graphics/SVG/1.1/DTD/svg11.dtd">
<!-- Generated by graphviz version 2.43.0 (0)
 -->
<!-- Title: gerber2coordinatesTEST.Druckerserver.AcceptRequests Pages: 1 -->
<!--zoomable 624 -->

<svg id="main" version="1.1" xmlns="http://www.w3.org/2000/svg" xmlns:xlink="http://www.w3.org/1999/xlink" xml:space="preserve" onload="init(evt)">
<style type="text/css"><![CDATA[
.node, .edge {opacity: 0.7;}
.node.selected, .edge.selected {opacity: 1;}
.edge:hover path { stroke: red; }
.edge:hover polygon { stroke: red; fill: red; }
]]></style>

<defs>
  <circle id="rim" cx="0" cy="0" r="7"/>
  <circle id="rim2" cx="0" cy="0" r="3.5"/>
  <g id="zoomPlus">
    <use xlink:href="#rim" fill="#404040"><set attributeName="fill" to="#808080" begin="zoomplus.mouseover" end="zoomplus.mouseout"/></use>
    <path d="M-4,0h8M0,-4v8" fill="none" stroke="white" stroke-width="1.5" pointer-events="none"/>
  </g>
  <g id="zoomMin">
    <use xlink:href="#rim" fill="#404040"><set attributeName="fill" to="#808080" begin="zoomminus.mouseover" end="zoomminus.mouseout"/></use>
    <path d="M-4,0h8" fill="none" stroke="white" stroke-width="1.5" pointer-events="none"/>
  </g>
  <g id="arrowUp" transform="translate(30 24)">
    <use xlink:href="#rim"/>
    <path pointer-events="none" fill="none" stroke="white" stroke-width="1.5" d="M0,-3.0v7 M-2.5,-0.5L0,-3.0L2.5,-0.5"/>
  </g>
  <g id="arrowRight" transform="rotate(90) translate(36 -43)">
    <use xlink:href="#rim"/>
    <path pointer-events="none" fill="none" stroke="white" stroke-width="1.5" d="M0,-3.0v7 M-2.5,-0.5L0,-3.0L2.5,-0.5"/>
  </g>
  <g id="arrowDown" transform="rotate(180) translate(-30 -48)">
    <use xlink:href="#rim"/>
    <path pointer-events="none" fill="none" stroke="white" stroke-width="1.5" d="M0,-3.0v7 M-2.5,-0.5L0,-3.0L2.5,-0.5"/>
  </g>
  <g id="arrowLeft" transform="rotate(270) translate(-36 17)">
    <use xlink:href="#rim"/>
    <path pointer-events="none" fill="none" stroke="white" stroke-width="1.5" d="M0,-3.0v7 M-2.5,-0.5L0,-3.0L2.5,-0.5"/>
  </g>
  <g id="resetDef">
    <use xlink:href="#rim2" fill="#404040"><set attributeName="fill" to="#808080" begin="reset.mouseover" end="reset.mouseout"/></use>
  </g>
</defs>
<script type="application/ecmascript">
var viewWidth = 1704;
var viewHeight = 624;
var sectionId = 'dynsection-1';
</script>
<script type="application/ecmascript" xlink:href="svg.min.js"/>
<svg id="graph" class="graph">
<g id="viewport">
<title>gerber2coordinatesTEST.Druckerserver.AcceptRequests</title>
<!-- Node1 -->
<g id="Node000001" class="node">
<title>Node1</title>
<g id="a_Node000001"><a xlink:title="Funktion zum aktzeptieren mehrerer Anfragen gleichzeitig.">
<polygon fill="#999999" stroke="#666666" points="208,-329.42 0,-329.42 0,-299.42 208,-299.42 208,-329.42"/>
<text text-anchor="start" x="8" y="-317.42" font-family="Helvetica,sans-Serif" font-size="10.00">gerber2coordinatesTEST.Druckerserver.</text>
<text text-anchor="middle" x="104" y="-306.42" font-family="Helvetica,sans-Serif" font-size="10.00">AcceptRequests</text>
</a>
</g>
</g>
<!-- Node2 -->
<g id="Node000002" class="node">
<title>Node2</title>
<g id="a_Node000002"><a xlink:href="classgerber2coordinatesTEST_1_1Druckerserver.html#ab8db08d8cf9f5882603df250d7c0c03b" target="_top" xlink:title="Die einzelnen Anfragen werden verarbeitet.">
<polygon fill="white" stroke="#666666" points="452,-329.42 244,-329.42 244,-299.42 452,-299.42 452,-329.42"/>
<text text-anchor="start" x="252" y="-317.42" font-family="Helvetica,sans-Serif" font-size="10.00">gerber2coordinatesTEST.Druckerserver.</text>
<text text-anchor="middle" x="348" y="-306.42" font-family="Helvetica,sans-Serif" font-size="10.00">HandleRequest</text>
</a>
</g>
</g>
<!-- Node1&#45;&gt;Node2 -->
<g id="edge1_Node000001_Node000002" class="edge">
<title>Node1&#45;&gt;Node2</title>
<g id="a_edge1_Node000001_Node000002"><a xlink:title=" ">
<path fill="none" stroke="#63b8ff" d="M208.33,-314.42C216.64,-314.42 225.07,-314.42 233.44,-314.42"/>
<polygon fill="#63b8ff" stroke="#63b8ff" points="233.63,-317.92 243.63,-314.42 233.63,-310.92 233.63,-317.92"/>
</a>
</g>
</g>
<!-- Node3 -->
<g id="Node000003" class="node">
<title>Node3</title>
<g id="a_Node000003"><a xlink:href="classgerber2coordinatesTEST_1_1Druckerserver.html#a0835f5beab61ad3fa7595fd3637c40c5" target="_top" xlink:title=" ">
<polygon fill="white" stroke="#666666" points="756.5,-585.92 493.5,-585.92 493.5,-566.92 756.5,-566.92 756.5,-585.92"/>
<text text-anchor="middle" x="625" y="-573.92" font-family="Helvetica,sans-Serif" font-size="10.00">gerber2coordinatesTEST.Druckerserver.getpreview</text>
</a>
</g>
</g>
<!-- Node2&#45;&gt;Node3 -->
<g id="edge2_Node000002_Node000003" class="edge">
<title>Node2&#45;&gt;Node3</title>
<g id="a_edge2_Node000002_Node000003"><a xlink:title=" ">
<path fill="none" stroke="#63b8ff" d="M354.27,-329.56C368.91,-369.34 413.92,-477.71 488,-534.42 506.54,-548.62 529.93,-558.06 552.06,-564.32"/>
<polygon fill="#63b8ff" stroke="#63b8ff" points="551.22,-567.72 561.78,-566.89 553.01,-560.95 551.22,-567.72"/>
</a>
</g>
</g>
<!-- Node5 -->
<g id="Node000005" class="node">
<title>Node5</title>
<g id="a_Node000005"><a xlink:href="classgerber2coordinatesTEST_1_1Gerberfileinfo.html#a9ba5800c1575be5dfff55093a42d77cb" target="_top" xlink:title="Aktuellen Druckfortschritt in Prozent bekommen.">
<polygon fill="white" stroke="#666666" points="1390,-185.92 1090,-185.92 1090,-166.92 1390,-166.92 1390,-185.92"/>
<text text-anchor="middle" x="1240" y="-173.92" font-family="Helvetica,sans-Serif" font-size="10.00">gerber2coordinatesTEST.Gerberfileinfo.getprintpercentage</text>
</a>
</g>
</g>
<!-- Node2&#45;&gt;Node5 -->
<g id="edge4_Node000002_Node000005" class="edge">
<title>Node2&#45;&gt;Node5</title>
<g id="a_edge4_Node000002_Node000005"><a xlink:title=" ">
<path fill="none" stroke="#63b8ff" d="M361.23,-299.35C383.33,-273.42 432.78,-221.17 488,-200.42 592.32,-161.23 891.91,-163.66 1079.66,-169.61"/>
<polygon fill="#63b8ff" stroke="#63b8ff" points="1079.8,-173.12 1089.9,-169.95 1080.02,-166.12 1079.8,-173.12"/>
</a>
</g>
</g>
<!-- Node6 -->
<g id="Node000006" class="node">
<title>Node6</title>
<g id="a_Node000006"><a xlink:href="classLeiterplattendrucker__V1_1_1Website.html#a71e53317601b7596dd7d430a6ae3978f" target="_top" xlink:title=" ">
<polygon fill="white" stroke="#666666" points="696.5,-485.42 553.5,-485.42 553.5,-455.42 696.5,-455.42 696.5,-485.42"/>
<text text-anchor="start" x="561.5" y="-473.42" font-family="Helvetica,sans-Serif" font-size="10.00">Leiterplattendrucker</text>
<text text-anchor="middle" x="625" y="-462.42" font-family="Helvetica,sans-Serif" font-size="10.00">_V1.Website.getResponse</text>
</a>
</g>
</g>
<!-- Node2&#45;&gt;Node6 -->
<g id="edge5_Node000002_Node000006" class="edge">
<title>Node2&#45;&gt;Node6</title>
<g id="a_edge5_Node000002_Node000006"><a xlink:title=" ">
<path fill="none" stroke="#63b8ff" d="M360.02,-329.65C381.29,-357.79 430.95,-417.65 488,-446.42 504.97,-454.98 524.46,-460.54 543.3,-464.14"/>
<polygon fill="#63b8ff" stroke="#63b8ff" points="542.92,-467.62 553.37,-465.89 544.12,-460.73 542.92,-467.62"/>
</a>
</g>
</g>
<!-- Node7 -->
<g id="Node000007" class="node">
<title>Node7</title>
<g id="a_Node000007"><a xlink:href="classgerber2coordinatesTEST_1_1Druckerserver.html#a08d1da26dbc5116eff8ca27a47ec38af" target="_top" xlink:title=" ">
<polygon fill="white" stroke="#666666" points="737,-437.42 513,-437.42 513,-407.42 737,-407.42 737,-437.42"/>
<text text-anchor="start" x="521" y="-425.42" font-family="Helvetica,sans-Serif" font-size="10.00">gerber2coordinatesTEST.Druckerserver.init</text>
<text text-anchor="middle" x="625" y="-414.42" font-family="Helvetica,sans-Serif" font-size="10.00">Printing</text>
</a>
</g>
</g>
<!-- Node2&#45;&gt;Node7 -->
<g id="edge6_Node000002_Node000007" class="edge">
<title>Node2&#45;&gt;Node7</title>
<g id="a_edge6_Node000002_Node000007"><a xlink:title=" ">
<path fill="none" stroke="#63b8ff" d="M368.51,-329.45C394.36,-348.57 442.07,-381.18 488,-398.42 494.18,-400.74 500.61,-402.84 507.16,-404.74"/>
<polygon fill="#63b8ff" stroke="#63b8ff" points="506.25,-408.12 516.82,-407.38 508.1,-401.37 506.25,-408.12"/>
</a>
</g>
</g>
<!-- Node8 -->
<g id="Node000008" class="node">
<title>Node8</title>
<g id="a_Node000008"><a xlink:href="classgerber2coordinatesTEST_1_1Druckerserver.html#aca3fd45b4759e5834114e450a8d50d32" target="_top" xlink:title="Allgemeine Konsolenausgabe mit aktueller Zeit.">
<polygon fill="white" stroke="#666666" points="1696,-261.92 1426,-261.92 1426,-242.92 1696,-242.92 1696,-261.92"/>
<text text-anchor="middle" x="1561" y="-249.92" font-family="Helvetica,sans-Serif" font-size="10.00">gerber2coordinatesTEST.Druckerserver.logtoconsole</text>
</a>
</g>
</g>
<!-- Node2&#45;&gt;Node8 -->
<g id="edge7_Node000002_Node000008" class="edge">
<title>Node2&#45;&gt;Node8</title>
<g id="a_edge7_Node000002_Node000008"><a xlink:title=" ">
<path fill="none" stroke="#63b8ff" d="M368.82,-299.35C394.63,-280.77 441.9,-250.2 488,-238.42 661.87,-194 1182.02,-224.44 1428.14,-242.17"/>
<polygon fill="#63b8ff" stroke="#63b8ff" points="1427.99,-245.67 1438.22,-242.9 1428.5,-238.69 1427.99,-245.67"/>
</a>
</g>
</g>
<!-- Node9 -->
<g id="Node000009" class="node">
<title>Node9</title>
<g id="a_Node000009"><a xlink:href="classgerber2coordinatesTEST_1_1Druckerserver.html#a6d2b6196c04dad571e84b2f1e6e09724" target="_top" xlink:title=" ">
<polygon fill="white" stroke="#666666" points="743.5,-351.42 506.5,-351.42 506.5,-321.42 743.5,-321.42 743.5,-351.42"/>
<text text-anchor="start" x="514.5" y="-339.42" font-family="Helvetica,sans-Serif" font-size="10.00">gerber2coordinatesTEST.Druckerserver.pause</text>
<text text-anchor="middle" x="625" y="-328.42" font-family="Helvetica,sans-Serif" font-size="10.00">Printing</text>
</a>
</g>
</g>
<!-- Node2&#45;&gt;Node9 -->
<g id="edge8_Node000002_Node000009" class="edge">
<title>Node2&#45;&gt;Node9</title>
<g id="a_edge8_Node000002_Node000009"><a xlink:title=" ">
<path fill="none" stroke="#63b8ff" d="M452.18,-322.68C466.55,-323.83 481.44,-325.02 496.19,-326.2"/>
<polygon fill="#63b8ff" stroke="#63b8ff" points="496.12,-329.7 506.37,-327.01 496.68,-322.73 496.12,-329.7"/>
</a>
</g>
</g>
<!-- Node10 -->
<g id="Node000010" class="node">
<title>Node10</title>
<g id="a_Node000010"><a xlink:href="classgerber2coordinatesTEST_1_1Druckerserver.html#ad0249cb1356b24bc2dc3f208b5d35581" target="_top" xlink:title=" ">
<polygon fill="white" stroke="#666666" points="751.5,-388.92 498.5,-388.92 498.5,-369.92 751.5,-369.92 751.5,-388.92"/>
<text text-anchor="middle" x="625" y="-376.92" font-family="Helvetica,sans-Serif" font-size="10.00">gerber2coordinatesTEST.Druckerserver.setmirror</text>
</a>
</g>
</g>
<!-- Node2&#45;&gt;Node10 -->
<g id="edge9_Node000002_Node000010" class="edge">
<title>Node2&#45;&gt;Node10</title>
<g id="a_edge9_Node000002_Node000010"><a xlink:title=" ">
<path fill="none" stroke="#63b8ff" d="M388,-329.44C415.57,-339.52 453.59,-352.4 488,-360.42 501.08,-363.47 514.98,-366.1 528.72,-368.35"/>
<polygon fill="#63b8ff" stroke="#63b8ff" points="528.26,-371.82 538.68,-369.91 529.35,-364.9 528.26,-371.82"/>
</a>
</g>
</g>
<!-- Node14 -->
<g id="Node000014" class="node">
<title>Node14</title>
<g id="a_Node000014"><a xlink:href="classgerber2coordinatesTEST_1_1Druckerserver.html#a59c02b80d01f547c5e903f9976272db7" target="_top" xlink:title=" ">
<polygon fill="white" stroke="#666666" points="750.5,-302.92 499.5,-302.92 499.5,-283.92 750.5,-283.92 750.5,-302.92"/>
<text text-anchor="middle" x="625" y="-290.92" font-family="Helvetica,sans-Serif" font-size="10.00">gerber2coordinatesTEST.Druckerserver.setoffset</text>
</a>
</g>
</g>
<!-- Node2&#45;&gt;Node14 -->
<g id="edge14_Node000002_Node000014" class="edge">
<title>Node2&#45;&gt;Node14</title>
<g id="a_edge14_Node000002_Node000014"><a xlink:title=" ">
<path fill="none" stroke="#63b8ff" d="M452.18,-306.54C464.33,-305.62 476.86,-304.66 489.35,-303.71"/>
<polygon fill="#63b8ff" stroke="#63b8ff" points="489.66,-307.19 499.36,-302.94 489.12,-300.21 489.66,-307.19"/>
</a>
</g>
</g>
<!-- Node16 -->
<g id="Node000016" class="node">
<title>Node16</title>
<g id="a_Node000016"><a xlink:href="classgerber2coordinatesTEST_1_1Druckerserver.html#a12e0f5f8fafaba6e56b74278991b798b" target="_top" xlink:title=" ">
<polygon fill="white" stroke="#666666" points="751.5,-524.92 498.5,-524.92 498.5,-505.92 751.5,-505.92 751.5,-524.92"/>
<text text-anchor="middle" x="625" y="-512.92" font-family="Helvetica,sans-Serif" font-size="10.00">gerber2coordinatesTEST.Druckerserver.setpadfill</text>
</a>
</g>
</g>
<!-- Node2&#45;&gt;Node16 -->
<g id="edge18_Node000002_Node000016" class="edge">
<title>Node2&#45;&gt;Node16</title>
<g id="a_edge18_Node000002_Node000016"><a xlink:title=" ">
<path fill="none" stroke="#63b8ff" d="M355.78,-329.66C372.48,-365.25 419.32,-453.88 488,-494.42 493.07,-497.42 498.43,-500.03 503.98,-502.31"/>
<polygon fill="#63b8ff" stroke="#63b8ff" points="502.86,-505.63 513.46,-505.83 505.3,-499.07 502.86,-505.63"/>
</a>
</g>
</g>
<!-- Node18 -->
<g id="Node000018" class="node">
<title>Node18</title>
<g id="a_Node000018"><a xlink:href="classgerber2coordinatesTEST_1_1Druckerserver.html#a5ac55638a08c878eb8fe137be3d1a411" target="_top" xlink:title=" ">
<polygon fill="white" stroke="#666666" points="762,-265.92 488,-265.92 488,-246.92 762,-246.92 762,-265.92"/>
<text text-anchor="middle" x="625" y="-253.92" font-family="Helvetica,sans-Serif" font-size="10.00">gerber2coordinatesTEST.Druckerserver.setpolygonfill</text>
</a>
</g>
</g>
<!-- Node2&#45;&gt;Node18 -->
<g id="edge22_Node000002_Node000018" class="edge">
<title>Node2&#45;&gt;Node18</title>
<g id="a_edge22_Node000002_Node000018"><a xlink:title=" ">
<path fill="none" stroke="#63b8ff" d="M396.53,-299.37C423.2,-291.36 457.21,-281.86 488,-275.42 502.31,-272.43 517.58,-269.78 532.51,-267.48"/>
<polygon fill="#63b8ff" stroke="#63b8ff" points="533.41,-270.89 542.79,-265.95 532.38,-263.96 533.41,-270.89"/>
</a>
</g>
</g>
<!-- Node20 -->
<g id="Node000020" class="node">
<title>Node20</title>
<g id="a_Node000020"><a xlink:href="classgerber2coordinatesTEST_1_1Druckerserver.html#a4d3050145a86ba737bef7a21d2e52fa4" target="_top" xlink:title=" ">
<polygon fill="white" stroke="#666666" points="740,-148.42 510,-148.42 510,-118.42 740,-118.42 740,-148.42"/>
<text text-anchor="start" x="518" y="-136.42" font-family="Helvetica,sans-Serif" font-size="10.00">gerber2coordinatesTEST.Druckerserver.start</text>
<text text-anchor="middle" x="625" y="-125.42" font-family="Helvetica,sans-Serif" font-size="10.00">Printing</text>
</a>
</g>
</g>
<!-- Node2&#45;&gt;Node20 -->
<g id="edge26_Node000002_Node000020" class="edge">
<title>Node2&#45;&gt;Node20</title>
<g id="a_edge26_Node000002_Node000020"><a xlink:title=" ">
<path fill="none" stroke="#63b8ff" d="M358.3,-299.03C378.01,-267.85 427.18,-197.25 488,-162.42 495.07,-158.37 502.65,-154.89 510.47,-151.88"/>
<polygon fill="#63b8ff" stroke="#63b8ff" points="511.86,-155.1 520.11,-148.46 509.52,-148.51 511.86,-155.1"/>
</a>
</g>
</g>
<!-- Node25 -->
<g id="Node000025" class="node">
<title>Node25</title>
<g id="a_Node000025"><a xlink:href="classgerber2coordinatesTEST_1_1Druckerserver.html#a56560bd44a06029268e9cd3bfef89eba" target="_top" xlink:title=" ">
<polygon fill="white" stroke="#666666" points="739.5,-100.42 510.5,-100.42 510.5,-70.42 739.5,-70.42 739.5,-100.42"/>
<text text-anchor="start" x="518.5" y="-88.42" font-family="Helvetica,sans-Serif" font-size="10.00">gerber2coordinatesTEST.Druckerserver.stop</text>
<text text-anchor="middle" x="625" y="-77.42" font-family="Helvetica,sans-Serif" font-size="10.00">Printing</text>
</a>
</g>
</g>
<!-- Node2&#45;&gt;Node25 -->
<g id="edge34_Node000002_Node000025" class="edge">
<title>Node2&#45;&gt;Node25</title>
<g id="a_edge34_Node000002_Node000025"><a xlink:title=" ">
<path fill="none" stroke="#63b8ff" d="M354.43,-299.25C369.17,-260.48 413.84,-157.47 488,-109.42 492.12,-106.75 496.46,-104.36 500.94,-102.21"/>
<polygon fill="#63b8ff" stroke="#63b8ff" points="502.55,-105.32 510.34,-98.13 499.77,-98.9 502.55,-105.32"/>
</a>
</g>
</g>
<!-- Node4 -->
<g id="Node000004" class="node">
<title>Node4</title>
<g id="a_Node000004"><a xlink:href="classgerber2coordinatesTEST_1_1Gerberfileinfo.html#a992e1d2ee0ab9a4a8f7856869cd89b25" target="_top" xlink:title=" ">
<polygon fill="white" stroke="#666666" points="1054,-616.42 798,-616.42 798,-586.42 1054,-586.42 1054,-616.42"/>
<text text-anchor="start" x="806" y="-604.42" font-family="Helvetica,sans-Serif" font-size="10.00">gerber2coordinatesTEST.Gerberfileinfo.getlinelist</text>
<text text-anchor="middle" x="926" y="-593.42" font-family="Helvetica,sans-Serif" font-size="10.00">_as_json</text>
</a>
</g>
</g>
<!-- Node3&#45;&gt;Node4 -->
<g id="edge3_Node000003_Node000004" class="edge">
<title>Node3&#45;&gt;Node4</title>
<g id="a_edge3_Node000003_Node000004"><a xlink:title=" ">
<path fill="none" stroke="#63b8ff" d="M739.89,-585.95C755.61,-587.26 771.88,-588.62 787.96,-589.97"/>
<polygon fill="#63b8ff" stroke="#63b8ff" points="787.69,-593.45 797.94,-590.8 788.27,-586.48 787.69,-593.45"/>
</a>
</g>
</g>
<!-- Node10&#45;&gt;Node8 -->
<g id="edge10_Node000010_Node000008" class="edge">
<title>Node10&#45;&gt;Node8</title>
<g id="a_edge10_Node000010_Node000008"><a xlink:title=" ">
<path fill="none" stroke="#63b8ff" d="M751.66,-379.68C904.39,-377.57 1169.1,-366.09 1390,-316.42 1441.25,-304.9 1497.77,-281.28 1531.01,-266.18"/>
<polygon fill="#63b8ff" stroke="#63b8ff" points="1532.53,-269.34 1540.15,-261.98 1529.6,-262.98 1532.53,-269.34"/>
</a>
</g>
</g>
<!-- Node11 -->
<g id="Node000011" class="node">
<title>Node11</title>
<g id="a_Node000011"><a xlink:href="classgerber2coordinatesTEST_1_1GerberSettingsList.html#a21318abf396092ec7e533611001a98c0" target="_top" xlink:title=" ">
<polygon fill="white" stroke="#666666" points="1011,-482.42 841,-482.42 841,-452.42 1011,-452.42 1011,-482.42"/>
<text text-anchor="start" x="849" y="-470.42" font-family="Helvetica,sans-Serif" font-size="10.00">gerber2coordinatesTEST.Gerber</text>
<text text-anchor="middle" x="926" y="-459.42" font-family="Helvetica,sans-Serif" font-size="10.00">SettingsList.setmirror</text>
</a>
</g>
</g>
<!-- Node10&#45;&gt;Node11 -->
<g id="edge11_Node000010_Node000011" class="edge">
<title>Node10&#45;&gt;Node11</title>
<g id="a_edge11_Node000010_Node000011"><a xlink:title=" ">
<path fill="none" stroke="#63b8ff" d="M740.93,-388.94C748.27,-391.52 755.37,-394.65 762,-398.42 784.26,-411.09 776.05,-430.22 798,-443.42 808.14,-449.52 819.49,-454.13 831.13,-457.59"/>
<polygon fill="#63b8ff" stroke="#63b8ff" points="830.38,-461.02 840.94,-460.25 832.2,-454.26 830.38,-461.02"/>
</a>
</g>
</g>
<!-- Node12 -->
<g id="Node000012" class="node">
<title>Node12</title>
<g id="a_Node000012"><a xlink:href="classgerber2coordinatesTEST_1_1GerberSettingsList.html#a7f6830eebd42c74fac6d9de8d2a6c44e" target="_top" xlink:title=" ">
<polygon fill="white" stroke="#666666" points="1325,-458.42 1155,-458.42 1155,-428.42 1325,-428.42 1325,-458.42"/>
<text text-anchor="start" x="1163" y="-446.42" font-family="Helvetica,sans-Serif" font-size="10.00">gerber2coordinatesTEST.Gerber</text>
<text text-anchor="middle" x="1240" y="-435.42" font-family="Helvetica,sans-Serif" font-size="10.00">SettingsList.setsetting</text>
</a>
</g>
</g>
<!-- Node11&#45;&gt;Node12 -->
<g id="edge12_Node000011_Node000012" class="edge">
<title>Node11&#45;&gt;Node12</title>
<g id="a_edge12_Node000011_Node000012"><a xlink:title=" ">
<path fill="none" stroke="#63b8ff" d="M1011.02,-460.96C1052.29,-457.79 1102.17,-453.95 1144.74,-450.67"/>
<polygon fill="#63b8ff" stroke="#63b8ff" points="1145.13,-454.16 1154.83,-449.9 1144.59,-447.18 1145.13,-454.16"/>
</a>
</g>
</g>
<!-- Node13 -->
<g id="Node000013" class="node">
<title>Node13</title>
<g id="a_Node000013"><a xlink:href="classgerber2coordinatesTEST_1_1GerberSettingsList.html#a0d6c6ef709817eaa9af58b92a61225b4" target="_top" xlink:title=" ">
<polygon fill="white" stroke="#666666" points="1646,-458.42 1476,-458.42 1476,-428.42 1646,-428.42 1646,-458.42"/>
<text text-anchor="start" x="1484" y="-446.42" font-family="Helvetica,sans-Serif" font-size="10.00">gerber2coordinatesTEST.Gerber</text>
<text text-anchor="middle" x="1561" y="-435.42" font-family="Helvetica,sans-Serif" font-size="10.00">SettingsList.existssetting</text>
</a>
</g>
</g>
<!-- Node12&#45;&gt;Node13 -->
<g id="edge13_Node000012_Node000013" class="edge">
<title>Node12&#45;&gt;Node13</title>
<g id="a_edge13_Node000012_Node000013"><a xlink:title=" ">
<path fill="none" stroke="#63b8ff" d="M1325.23,-443.42C1368.39,-443.42 1421.08,-443.42 1465.6,-443.42"/>
<polygon fill="#63b8ff" stroke="#63b8ff" points="1465.85,-446.92 1475.85,-443.42 1465.85,-439.92 1465.85,-446.92"/>
</a>
</g>
</g>
<!-- Node14&#45;&gt;Node8 -->
<g id="edge15_Node000014_Node000008" class="edge">
<title>Node14&#45;&gt;Node8</title>
<g id="a_edge15_Node000014_Node000008"><a xlink:title=" ">
<path fill="none" stroke="#63b8ff" d="M699.51,-302.97C719.79,-305.8 741.78,-309.05 762,-312.42 778.08,-315.11 781.78,-317.86 798,-319.42 1063.19,-344.97 1380.69,-289.33 1505.66,-264.06"/>
<polygon fill="#63b8ff" stroke="#63b8ff" points="1506.64,-267.44 1515.74,-262.01 1505.24,-260.58 1506.64,-267.44"/>
</a>
</g>
</g>
<!-- Node15 -->
<g id="Node000015" class="node">
<title>Node15</title>
<g id="a_Node000015"><a xlink:href="classgerber2coordinatesTEST_1_1GerberSettingsList.html#a036d1751712a1544f8957b4e1a252312" target="_top" xlink:title=" ">
<polygon fill="white" stroke="#666666" points="1011,-434.42 841,-434.42 841,-404.42 1011,-404.42 1011,-434.42"/>
<text text-anchor="start" x="849" y="-422.42" font-family="Helvetica,sans-Serif" font-size="10.00">gerber2coordinatesTEST.Gerber</text>
<text text-anchor="middle" x="926" y="-411.42" font-family="Helvetica,sans-Serif" font-size="10.00">SettingsList.setoffset</text>
</a>
</g>
</g>
<!-- Node14&#45;&gt;Node15 -->
<g id="edge16_Node000014_Node000015" class="edge">
<title>Node14&#45;&gt;Node15</title>
<g id="a_edge16_Node000014_Node000015"><a xlink:title=" ">
<path fill="none" stroke="#63b8ff" d="M739.29,-302.93C747.19,-305.49 754.84,-308.62 762,-312.42 783.12,-323.65 779.13,-337.73 798,-352.42 822.76,-371.71 853.89,-388.23 879.13,-400.05"/>
<polygon fill="#63b8ff" stroke="#63b8ff" points="877.94,-403.35 888.49,-404.34 880.86,-396.99 877.94,-403.35"/>
</a>
</g>
</g>
<!-- Node15&#45;&gt;Node12 -->
<g id="edge17_Node000015_Node000012" class="edge">
<title>Node15&#45;&gt;Node12</title>
<g id="a_edge17_Node000015_Node000012"><a xlink:title=" ">
<path fill="none" stroke="#63b8ff" d="M1011.02,-425.89C1052.29,-429.06 1102.17,-432.9 1144.74,-436.17"/>
<polygon fill="#63b8ff" stroke="#63b8ff" points="1144.59,-439.67 1154.83,-436.95 1145.13,-432.69 1144.59,-439.67"/>
</a>
</g>
</g>
<!-- Node16&#45;&gt;Node8 -->
<g id="edge19_Node000016_Node000008" class="edge">
<title>Node16&#45;&gt;Node8</title>
<g id="a_edge19_Node000016_Node000008"><a xlink:title=" ">
<path fill="none" stroke="#63b8ff" d="M664.5,-525.02C783.61,-552.38 1152.39,-619.45 1390,-467.42 1412.46,-453.05 1409.65,-440.49 1426,-419.42 1468.72,-364.36 1520.74,-300.37 1545.53,-270.07"/>
<polygon fill="#63b8ff" stroke="#63b8ff" points="1548.41,-272.08 1552.03,-262.12 1542.99,-267.64 1548.41,-272.08"/>
</a>
</g>
</g>
<!-- Node17 -->
<g id="Node000017" class="node">
<title>Node17</title>
<g id="a_Node000017"><a xlink:href="classgerber2coordinatesTEST_1_1GerberSettingsList.html#ab52332fb782819fe4b9bfd20f3f3b534" target="_top" xlink:title=" ">
<polygon fill="white" stroke="#666666" points="1011,-530.42 841,-530.42 841,-500.42 1011,-500.42 1011,-530.42"/>
<text text-anchor="start" x="849" y="-518.42" font-family="Helvetica,sans-Serif" font-size="10.00">gerber2coordinatesTEST.Gerber</text>
<text text-anchor="middle" x="926" y="-507.42" font-family="Helvetica,sans-Serif" font-size="10.00">SettingsList.setpadwidth</text>
</a>
</g>
</g>
<!-- Node16&#45;&gt;Node17 -->
<g id="edge20_Node000016_Node000017" class="edge">
<title>Node16&#45;&gt;Node17</title>
<g id="a_edge20_Node000016_Node000017"><a xlink:title=" ">
<path fill="none" stroke="#63b8ff" d="M751.5,-515.42C777.91,-515.42 805.34,-515.42 830.39,-515.42"/>
<polygon fill="#63b8ff" stroke="#63b8ff" points="830.6,-518.92 840.6,-515.42 830.6,-511.92 830.6,-518.92"/>
</a>
</g>
</g>
<!-- Node17&#45;&gt;Node12 -->
<g id="edge21_Node000017_Node000012" class="edge">
<title>Node17&#45;&gt;Node12</title>
<g id="a_edge21_Node000017_Node000012"><a xlink:title=" ">
<path fill="none" stroke="#63b8ff" d="M1010.85,-500.4C1025.28,-497.58 1040.1,-494.54 1054,-491.42 1094.55,-482.34 1139.69,-470.66 1175.24,-461.09"/>
<polygon fill="#63b8ff" stroke="#63b8ff" points="1176.26,-464.45 1185,-458.46 1174.43,-457.69 1176.26,-464.45"/>
</a>
</g>
</g>
<!-- Node18&#45;&gt;Node8 -->
<g id="edge23_Node000018_Node000008" class="edge">
<title>Node18&#45;&gt;Node8</title>
<g id="a_edge23_Node000018_Node000008"><a xlink:title=" ">
<path fill="none" stroke="#63b8ff" d="M762.06,-255.84C936.45,-255.09 1237.5,-253.8 1415.76,-253.04"/>
<polygon fill="#63b8ff" stroke="#63b8ff" points="1416.01,-256.54 1426,-253 1415.98,-249.54 1416.01,-256.54"/>
</a>
</g>
</g>
<!-- Node19 -->
<g id="Node000019" class="node">
<title>Node19</title>
<g id="a_Node000019"><a xlink:href="classgerber2coordinatesTEST_1_1GerberSettingsList.html#ac518ba905ddb1dc5535cc2761685a560" target="_top" xlink:title=" ">
<polygon fill="white" stroke="#666666" points="1011,-310.42 841,-310.42 841,-280.42 1011,-280.42 1011,-310.42"/>
<text text-anchor="start" x="849" y="-298.42" font-family="Helvetica,sans-Serif" font-size="10.00">gerber2coordinatesTEST.Gerber</text>
<text text-anchor="middle" x="926" y="-287.42" font-family="Helvetica,sans-Serif" font-size="10.00">SettingsList.setpolygoninfill</text>
</a>
</g>
</g>
<!-- Node18&#45;&gt;Node19 -->
<g id="edge24_Node000018_Node000019" class="edge">
<title>Node18&#45;&gt;Node19</title>
<g id="a_edge24_Node000018_Node000019"><a xlink:title=" ">
<path fill="none" stroke="#63b8ff" d="M699.14,-265.96C738.84,-271.14 788.35,-277.6 830.89,-283.15"/>
<polygon fill="#63b8ff" stroke="#63b8ff" points="830.61,-286.64 840.98,-284.46 831.52,-279.7 830.61,-286.64"/>
</a>
</g>
</g>
<!-- Node19&#45;&gt;Node12 -->
<g id="edge25_Node000019_Node000012" class="edge">
<title>Node19&#45;&gt;Node12</title>
<g id="a_edge25_Node000019_Node000012"><a xlink:title=" ">
<path fill="none" stroke="#63b8ff" d="M958.63,-310.43C1015.51,-337.41 1134.99,-394.08 1198.04,-423.99"/>
<polygon fill="#63b8ff" stroke="#63b8ff" points="1196.75,-427.25 1207.28,-428.38 1199.75,-420.93 1196.75,-427.25"/>
</a>
</g>
</g>
<!-- Node21 -->
<g id="Node000021" class="node">
<title>Node21</title>
<g id="a_Node000021"><a xlink:href="classgerber2coordinatesTEST_1_1Druckerserver.html#a9d206737320c167397df7512cd0b0d40" target="_top" xlink:title=" ">
<polygon fill="white" stroke="#666666" points="1041,-124.92 811,-124.92 811,-105.92 1041,-105.92 1041,-124.92"/>
<text text-anchor="middle" x="926" y="-112.92" font-family="Helvetica,sans-Serif" font-size="10.00">gerber2coordinatesTEST.Druckerserver.print</text>
</a>
</g>
</g>
<!-- Node20&#45;&gt;Node21 -->
<g id="edge27_Node000020_Node000021" class="edge">
<title>Node20&#45;&gt;Node21</title>
<g id="a_edge27_Node000020_Node000021"><a xlink:title=" ">
<path fill="none" stroke="#63b8ff" d="M740.32,-126.54C760.06,-125.35 780.68,-124.11 800.67,-122.91"/>
<polygon fill="#63b8ff" stroke="#63b8ff" points="800.97,-126.4 810.74,-122.3 800.55,-119.41 800.97,-126.4"/>
</a>
</g>
</g>
<!-- Node21&#45;&gt;Node5 -->
<g id="edge31_Node000021_Node000005" class="edge">
<title>Node21&#45;&gt;Node5</title>
<g id="a_edge31_Node000021_Node000005"><a xlink:title=" ">
<path fill="none" stroke="#63b8ff" d="M959.2,-125C991.89,-134.41 1044.08,-148.62 1090,-157.42 1105.91,-160.47 1122.87,-163.16 1139.43,-165.49"/>
<polygon fill="#63b8ff" stroke="#63b8ff" points="1139.3,-169 1149.68,-166.89 1140.24,-162.07 1139.3,-169"/>
</a>
</g>
</g>
<!-- Node21&#45;&gt;Node8 -->
<g id="edge33_Node000021_Node000008" class="edge">
<title>Node21&#45;&gt;Node8</title>
<g id="a_edge33_Node000021_Node000008"><a xlink:title=" ">
<path fill="none" stroke="#63b8ff" d="M940.97,-105.65C968.13,-87.32 1030.63,-48.36 1090,-34.42 1219.8,-3.95 1270.19,24.08 1390,-34.42 1477.22,-77.01 1532.73,-188.37 1552.2,-233.26"/>
<polygon fill="#63b8ff" stroke="#63b8ff" points="1548.98,-234.62 1556.09,-242.47 1555.42,-231.9 1548.98,-234.62"/>
</a>
</g>
</g>
<!-- Node22 -->
<g id="Node000022" class="node">
<title>Node22</title>
<g id="a_Node000022"><a xlink:href="classgerber2coordinatesTEST_1_1Druckerserver.html#a7680188ef68e32230ee1173f1e9f7a58" target="_top" xlink:title=" ">
<polygon fill="white" stroke="#666666" points="1364,-148.92 1116,-148.92 1116,-129.92 1364,-129.92 1364,-148.92"/>
<text text-anchor="middle" x="1240" y="-136.92" font-family="Helvetica,sans-Serif" font-size="10.00">gerber2coordinatesTEST.Druckerserver.endprint</text>
</a>
</g>
</g>
<!-- Node21&#45;&gt;Node22 -->
<g id="edge28_Node000021_Node000022" class="edge">
<title>Node21&#45;&gt;Node22</title>
<g id="a_edge28_Node000021_Node000022"><a xlink:title=" ">
<path fill="none" stroke="#63b8ff" d="M1041.41,-124.22C1062.35,-125.84 1084.37,-127.53 1105.81,-129.18"/>
<polygon fill="#63b8ff" stroke="#63b8ff" points="1105.7,-132.68 1115.94,-129.96 1106.24,-125.7 1105.7,-132.68"/>
</a>
</g>
</g>
<!-- Node23 -->
<g id="Node000023" class="node">
<title>Node23</title>
<g id="a_Node000023"><a xlink:href="classgerber2coordinatesTEST_1_1Gerberfileinfo.html#a4334be9709c2cd8a60d17974c0d73e35" target="_top" xlink:title="Nächste Linie bekommen, wird der Reihe nach ausgegeben.">
<polygon fill="white" stroke="#666666" points="1351.5,-111.42 1128.5,-111.42 1128.5,-81.42 1351.5,-81.42 1351.5,-111.42"/>
<text text-anchor="start" x="1136.5" y="-99.42" font-family="Helvetica,sans-Serif" font-size="10.00">gerber2coordinatesTEST.Gerberfileinfo.get</text>
<text text-anchor="middle" x="1240" y="-88.42" font-family="Helvetica,sans-Serif" font-size="10.00">_next_line</text>
</a>
</g>
</g>
<!-- Node21&#45;&gt;Node23 -->
<g id="edge30_Node000021_Node000023" class="edge">
<title>Node21&#45;&gt;Node23</title>
<g id="a_edge30_Node000021_Node000023"><a xlink:title=" ">
<path fill="none" stroke="#63b8ff" d="M1041.41,-108.46C1066.43,-106.93 1093,-105.31 1118.26,-103.78"/>
<polygon fill="#63b8ff" stroke="#63b8ff" points="1118.48,-107.27 1128.25,-103.17 1118.05,-100.28 1118.48,-107.27"/>
</a>
</g>
</g>
<!-- Node24 -->
<g id="Node000024" class="node">
<title>Node24</title>
<g id="a_Node000024"><a xlink:href="classgerber2coordinatesTEST_1_1Gerbertoolbox.html#ac8029c2807c958525e9cfe87ea3df43e" target="_top" xlink:title=" ">
<polygon fill="white" stroke="#666666" points="1388,-62.92 1092,-62.92 1092,-43.92 1388,-43.92 1388,-62.92"/>
<text text-anchor="middle" x="1240" y="-50.92" font-family="Helvetica,sans-Serif" font-size="10.00">gerber2coordinatesTEST.Gerbertoolbox.getrelativecoords</text>
</a>
</g>
</g>
<!-- Node21&#45;&gt;Node24 -->
<g id="edge32_Node000021_Node000024" class="edge">
<title>Node21&#45;&gt;Node24</title>
<g id="a_edge32_Node000021_Node000024"><a xlink:title=" ">
<path fill="none" stroke="#63b8ff" d="M958.27,-105.87C990.88,-96.21 1043.61,-81.46 1090,-72.42 1105.79,-69.35 1122.63,-66.65 1139.08,-64.33"/>
<polygon fill="#63b8ff" stroke="#63b8ff" points="1139.84,-67.76 1149.27,-62.93 1138.89,-60.82 1139.84,-67.76"/>
</a>
</g>
</g>
<!-- Node22&#45;&gt;Node8 -->
<g id="edge29_Node000022_Node000008" class="edge">
<title>Node22&#45;&gt;Node8</title>
<g id="a_edge29_Node000022_Node000008"><a xlink:title=" ">
<path fill="none" stroke="#63b8ff" d="M1357.07,-148.94C1368.33,-151.21 1379.47,-153.99 1390,-157.42 1447.64,-176.2 1507.93,-215.28 1538.89,-237.01"/>
<polygon fill="#63b8ff" stroke="#63b8ff" points="1536.99,-239.95 1547.16,-242.9 1541.05,-234.25 1536.99,-239.95"/>
</a>
</g>
</g>
</g>
</svg>

<g id="navigator" transform="translate(0 0)" fill="#404254">
  <rect fill="#f2f5e9" fill-opacity="0.5" stroke="#606060" stroke-width=".5" x="0" y="0" width="60" height="60"/>
  <use id="zoomplus" xlink:href="#zoomPlus" x="17" y="9" onmousedown="handleZoom(evt,'in')"/>
  <use id="zoomminus" xlink:href="#zoomMin" x="42" y="9" onmousedown="handleZoom(evt,'out')"/>
  <use id="reset" xlink:href="#resetDef" x="30" y="36" onmousedown="handleReset()"/>
   <use id="arrowup" xlink:href="#arrowUp" x="0" y="0" onmousedown="handlePan(0,-1)"/>
  <use id="arrowright" xlink:href="#arrowRight" x="0" y="0" onmousedown="handlePan(1,0)"/>
  <use id="arrowdown" xlink:href="#arrowDown" x="0" y="0" onmousedown="handlePan(0,1)"/>
  <use id="arrowleft" xlink:href="#arrowLeft" x="0" y="0" onmousedown="handlePan(-1,0)"/>
</g>
<svg viewBox="0 0 15 15" width="100%" height="30px" preserveAspectRatio="xMaxYMin meet">
 <g id="arrow_out" transform="scale(0.3 0.3)">
  <a xlink:href="classgerber2coordinatesTEST_1_1Druckerserver_ac93056be99f683fd7a826082b67180dd_cgraph_org.svg" target="_base">
   <rect id="button" ry="5" rx="5" y="6" x="6" height="38" width="38"
        fill="#f2f5e9" fill-opacity="0.5" stroke="#606060" stroke-width="1.0"/>
   <path id="arrow"
     d="M 11.500037,31.436501 C 11.940474,20.09759 22.043105,11.32322 32.158766,21.979434 L 37.068811,17.246167 C 37.068811,17.246167 37.088388,32 37.088388,32 L 22.160133,31.978069 C 22.160133,31.978069 26.997745,27.140456 26.997745,27.140456 C 18.528582,18.264221 13.291696,25.230495 11.500037,31.436501 z"
     style="fill:#404040;"/>
  </a>
 </g>
</svg>

<style type='text/css'>
<![CDATA[
[data-mouse-over-selected='false'] { opacity: 0.7; }
[data-mouse-over-selected='true']  { opacity: 1.0; }
]]>
</style>
<script type="application/ecmascript"><![CDATA[
document.addEventListener('DOMContentLoaded', (event) => {
  highlightEdges();
  highlightAdjacentNodes();
});
]]></script>
</svg>
